<svg xmlns="http://www.w3.org/2000/svg" width="17.747" height="17.751" viewBox="0 0 17.747 17.751">
  <g id="icon-handheart" transform="translate(-92 -215.89)">
    <path id="Path_942" data-name="Path 942" d="M181.693,216.9a2.962,2.962,0,0,0-4.7.33c-.047.066-.091.131-.132.2-.041-.065-.085-.13-.132-.2a2.962,2.962,0,0,0-4.7-.33,3.466,3.466,0,0,0-.849,2.315,4.19,4.19,0,0,0,1.165,2.771,25.13,25.13,0,0,0,2.84,2.629c.426.359.866.731,1.333,1.136a.52.52,0,0,0,.681,0c.468-.405.908-.777,1.333-1.136.74-.624,1.379-1.164,1.933-1.687a5.255,5.255,0,0,0,2.072-3.713,3.466,3.466,0,0,0-.849-2.315Zm-1.937,5.272c-.533.5-1.162,1.034-1.89,1.648-.324.273-.656.554-1,.851-.347-.3-.679-.578-1-.851-2.267-1.914-3.636-3.069-3.636-4.6a2.13,2.13,0,0,1,2.06-2.28,1.913,1.913,0,0,1,1.586.878,3.5,3.5,0,0,1,.493.977.52.52,0,0,0,1,0c.005-.019.531-1.855,2.079-1.855a2.13,2.13,0,0,1,2.06,2.28c0,.942-.49,1.771-1.746,2.956Zm0,0" transform="translate(-75.751)" fill="#fff"/>
    <path id="Path_943" data-name="Path 943" d="M108.187,452.917a1.565,1.565,0,0,0-1.141.5l-1.528,1.641a1.562,1.562,0,0,0-1.49-1.1h-2.4a1.381,1.381,0,0,1-.913-.344,3.647,3.647,0,0,0-4.769-.033,1.559,1.559,0,0,0-1.275-.662H92.52a.52.52,0,0,0-.52.52v6.239a.52.52,0,0,0,.52.52h2.149a1.556,1.556,0,0,0,1.172-.533l.308.087a11.958,11.958,0,0,0,3.236.446h4.643a3.657,3.657,0,0,0,2.912-1.456l2.5-3.328h0a1.56,1.56,0,0,0-1.249-2.495Zm-13,5.719a.521.521,0,0,1-.52.52H93.04v-5.2h1.629a.52.52,0,0,1,.52.52Zm13.415-3.848-2.5,3.328a2.612,2.612,0,0,1-2.08,1.04H99.385a10.914,10.914,0,0,1-2.955-.407l-.2-.057c0-.018,0-.037,0-.055v-3.924l.362-.319a2.605,2.605,0,0,1,3.435,0,2.42,2.42,0,0,0,1.6.6h2.4a.52.52,0,1,1,0,1.04h-3.7a.52.52,0,1,0,0,1.04h4.044a1.565,1.565,0,0,0,1.141-.5l2.289-2.457a.514.514,0,0,1,.381-.166.52.52,0,0,1,.52.52.515.515,0,0,1-.1.311Zm0,0" transform="translate(0 -226.555)" fill="#fff"/>
  </g>
</svg>
