<svg xmlns="http://www.w3.org/2000/svg" width="187.184" height="173.312" viewBox="0 0 187.184 173.312"><g data-name="Group 1255"><path data-name="Path 6" d="M39.174 16.351c101.934-77.2 236.2 143.294 68.628 156.681-33.231 1.883-68.4-5.505-90.044-28.788C-17.007 106.642 4.181 42.845 39.174 16.351z" fill="#fcfbf2"/></g><path data-name="Path 782" d="M47.91 87.954a32.608 32.608 0 01-5.5-.437 18.235 18.235 0 01-4.39-1.265v-6.3a23.169 23.169 0 004.508 1.447 21.925 21.925 0 004.646.529 11.892 11.892 0 004.232-.529 2.126 2.126 0 001.242-2.185 2.506 2.506 0 00-.644-1.82 5.183 5.183 0 00-1.955-1.15q-1.315-.48-4.301-1.35a19.671 19.671 0 01-4.853-2.047 6.819 6.819 0 01-2.553-2.714 8.974 8.974 0 01-.782-3.979 7.552 7.552 0 013.059-6.509q3.059-2.231 8.947-2.231a33.085 33.085 0 014.9.368 23.563 23.563 0 014.071.92v6.348a21.109 21.109 0 00-7.866-1.518 12.42 12.42 0 00-4.186.529 2.008 2.008 0 00-1.381 2.043 2.132 2.132 0 00.552 1.541 4.6 4.6 0 001.771 1.012q1.219.437 3.841 1.127a18.54 18.54 0 015.5 2.3 7.363 7.363 0 012.714 3.059 10.047 10.047 0 01.752 4.071 7.565 7.565 0 01-3.128 6.394q-3.124 2.346-9.196 2.346zm16.1-30.084h7.406v29.624H64.01zm26.864 30.084q-7.64 0-11.661-3.86t-4.025-11q0-7.5 4.14-11.592t12.006-4.092a28.708 28.708 0 019.062 1.284v6.348a24.729 24.729 0 00-8.51-1.288q-4.784 0-6.969 2.254t-2.183 7.086q0 4.37 2.047 6.463t6.141 2.093a16.215 16.215 0 004.968-.736v-5.61h-6.396v-4.646h12.6v14.674a16.112 16.112 0 01-4.6 1.886 26.318 26.318 0 01-6.62.736zm15-30.084h6.348l12.6 17.71V57.87h7.452v29.624h-6.394l-12.6-17.664v17.664h-7.41zm-54 75.084q-6.3 0-9.959-3.059t-3.665-8.671V102.87h7.406v17.664a6.088 6.088 0 001.587 4.6 6.436 6.436 0 004.623 1.518 6.436 6.436 0 004.623-1.518 6.088 6.088 0 001.587-4.6V102.87h7.406v18.354q0 5.612-3.657 8.671t-9.959 3.059zm18.07-30.084h14.582q5.106 0 7.751 2.921a10.972 10.972 0 012.645 7.659 11 11 0 01-1.288 5.382 9.052 9.052 0 01-3.7 3.657 11.532 11.532 0 01-5.589 1.311H77.35v8.694h-7.406zm12.742 15.224a4.584 4.584 0 003.5-1.265 4.785 4.785 0 001.2-3.427 5.234 5.234 0 00-1.1-3.588 4.264 4.264 0 00-3.358-1.242H77.35v9.522z" fill="#ffc416"/><path data-name="Path 781" d="M145.728 97.244H107.54a4.406 4.406 0 00-4.406 4.406v26.438a4.406 4.406 0 004.406 4.406h38.188a4.406 4.406 0 004.406-4.406V101.65a4.406 4.406 0 00-4.406-4.406zm0 4.406v3.744c-2.058 1.676-5.34 4.282-12.355 9.775-1.546 1.216-4.608 4.137-6.739 4.1-2.13.034-5.194-2.888-6.739-4.1-7.014-5.492-10.3-8.1-12.355-9.775v-3.746zm-38.188 26.438V111.05c2.1 1.675 5.086 4.026 9.633 7.587 2.006 1.579 5.52 5.066 9.461 5.045 3.921.021 7.39-3.415 9.46-5.044 4.547-3.56 7.53-5.912 9.634-7.587v17.037z" fill="#211e1f"/></svg>