<svg xmlns="http://www.w3.org/2000/svg" width="22.667" height="15.111" viewBox="0 0 22.667 15.111">
  <g id="ico_dish" transform="translate(0 0)">
    <path id="Path_980" data-name="Path 980" d="M343.5,630.2a8.018,8.018,0,0,0-3.438,3.2.472.472,0,0,0,.817.473,7.086,7.086,0,0,1,3.035-2.829.472.472,0,1,0-.414-.849Zm0,0" transform="translate(-335.681 -625.613)" fill="#211e1f"/>
    <path id="Path_981" data-name="Path 981" d="M284.195,559.468h-.968a9.919,9.919,0,0,0-8.6-9.35,1.417,1.417,0,1,0-2.593,0,9.919,9.919,0,0,0-8.6,9.35h-.968a.472.472,0,0,0-.472.472v.473a3.579,3.579,0,0,0,.6,1.991,1.885,1.885,0,0,0,1.572.841h18.317a1.886,1.886,0,0,0,1.572-.842,3.58,3.58,0,0,0,.6-1.991v-.473a.472.472,0,0,0-.472-.472Zm-10.861-10.389a.472.472,0,1,1-.472.472.472.472,0,0,1,.472-.472Zm0,1.889a8.976,8.976,0,0,1,8.948,8.5h-17.9a8.976,8.976,0,0,1,8.949-8.5Zm10.389,9.445a2.637,2.637,0,0,1-.445,1.468.943.943,0,0,1-.786.42H264.175a.943.943,0,0,1-.786-.421,2.637,2.637,0,0,1-.444-1.467h20.778Zm0,0" transform="translate(-262 -548.134)" fill="#211e1f"/>
  </g>
</svg>
