<svg xmlns="http://www.w3.org/2000/svg" width="18" height="18" viewBox="0 0 18 18">
  <g id="icon-clock" transform="translate(234.938 48)">
    <path id="Path_920" data-name="Path 920" d="M-68.831,623.353a9.01,9.01,0,0,0-9,9,9.01,9.01,0,0,0,9,9,9.01,9.01,0,0,0,9-9A9.01,9.01,0,0,0-68.831,623.353Zm0,16.769a7.778,7.778,0,0,1-7.769-7.769,7.778,7.778,0,0,1,7.769-7.769,7.778,7.778,0,0,1,7.769,7.769A7.778,7.778,0,0,1-68.831,640.122Z" transform="translate(-157.107 -671.353)" fill="#211E1F"/>
    <path id="Path_921" data-name="Path 921" d="M86.881,677.541H85.65v6.565l3.883,2.379.643-1.05-3.3-2.019Z" transform="translate(-312.204 -722.762)" fill="#211E1F"/>
  </g>
</svg>
