<svg xmlns="http://www.w3.org/2000/svg" xmlns:xlink="http://www.w3.org/1999/xlink" width="17.791" height="17.833" viewBox="0 0 17.791 17.833">
  <defs>
    <clipPath id="clip-path">
      <rect id="Rectangle_341" data-name="Rectangle 341" width="17.791" height="17.833" fill="#211e1f"/>
    </clipPath>
  </defs>
  <g id="icon-barn" transform="translate(-92 -215.89)">
    <g id="Group_1519" data-name="Group 1519" transform="translate(92 215.89)">
      <g id="Group_1518" data-name="Group 1518" transform="translate(0 0)" clip-path="url(#clip-path)">
        <path id="Path_966" data-name="Path 966" d="M109.738,224.9l-2.451-5.917A.521.521,0,0,0,107,218.7l-5.917-2.451a.52.52,0,0,0-.4,0L94.772,218.7a.522.522,0,0,0-.282.282L92.04,224.9a.521.521,0,0,0,.481.72h1.153v7.847a.521.521,0,0,0,.521.521h13.388a.521.521,0,0,0,.521-.521V225.62h1.153a.521.521,0,0,0,.481-.72Zm-9.586,5.22-2.09,2.09V228.03ZM98.8,227.294h4.18l-2.09,2.09Zm0,5.653,2.09-2.09,2.09,2.09Zm4.916-.736-2.09-2.09,2.09-2.09Zm3.868-7.631a.521.521,0,0,0-.521.521v7.847h-2.306v-6.173a.521.521,0,0,0-.521-.521H97.542a.521.521,0,0,0-.521.521v6.173H94.715V225.1a.521.521,0,0,0-.521-.521H93.3l2.07-5,5.518-2.286,5.518,2.286,2.07,5Zm0,0" transform="translate(-92 -216.197)" fill="#211e1f"/>
      </g>
    </g>
    <path id="Path_967" data-name="Path 967" d="M250.106,293.328h-3.347a.521.521,0,0,0-.521.521V297.2a.521.521,0,0,0,.521.521h3.347a.521.521,0,0,0,.521-.521v-3.347a.521.521,0,0,0-.521-.521Zm-.521,3.347H247.28V294.37h2.306Zm0,0" transform="translate(-147.544 -74.077)" fill="#211e1f"/>
  </g>
</svg>
