<svg xmlns="http://www.w3.org/2000/svg" xmlns:xlink="http://www.w3.org/1999/xlink" width="62.274" height="59.981" viewBox="0 0 62.274 59.981">
  <defs>
    <filter id="Path_744" x="0" y="0" width="62.274" height="59.981" filterUnits="userSpaceOnUse">
      <feOffset dx="-2.835" input="SourceAlpha"/>
      <feGaussianBlur stdDeviation="2.835" result="blur"/>
      <feFlood flood-color="#221f1f" flood-opacity="0.039"/>
      <feComposite operator="in" in2="blur"/>
      <feComposite in="SourceGraphic"/>
    </filter>
    <filter id="Path_745" x="0" y="0" width="62.274" height="59.981" filterUnits="userSpaceOnUse">
      <feOffset dx="-2.835" input="SourceAlpha"/>
      <feGaussianBlur stdDeviation="2.835" result="blur-2"/>
      <feFlood flood-color="#221f1f" flood-opacity="0.039"/>
      <feComposite operator="in" in2="blur-2"/>
      <feComposite in="SourceGraphic"/>
    </filter>
  </defs>
  <g id="ready_to_cook_white" transform="translate(11.339 8.504)">
    <g id="Group_1359" data-name="Group 1359" transform="translate(0 0)">
      <g id="ready_to_cook_white-2" data-name="ready_to_cook_white" transform="translate(0 0)">
        <g transform="matrix(1, 0, 0, 1, -11.34, -8.5)" filter="url(#Path_744)">
          <path id="Path_744-2" data-name="Path 744" d="M861.854,42.94c0,5.673-.089,12.193-.116,22.142H838.327A28.669,28.669,0,0,1,823.069,60.3c-4.257-3.378-6.478-9.1-6.478-15.335V38.051a15.386,15.386,0,0,1,10.288-14.581,25.009,25.009,0,0,1,5.74-1.2c2.426-.054,4.709-.089,6.892-.12l1.857-.023c.627-.008,1.246-.012,1.865-.019a18.475,18.475,0,0,1,18.621,18.408V40.7C861.858,41.439,861.858,42.182,861.854,42.94Z" transform="translate(-805.25 -13.61)" fill="#fcfbf2"/>
        </g>
        <g transform="matrix(1, 0, 0, 1, -11.34, -8.5)" filter="url(#Path_745)">
          <path id="Path_745-2" data-name="Path 745" d="M861.854,42.94c0,5.673-.089,12.193-.116,22.142H838.327A28.669,28.669,0,0,1,823.069,60.3c-4.257-3.378-6.478-9.1-6.478-15.335V38.051a15.386,15.386,0,0,1,10.288-14.581,25.009,25.009,0,0,1,5.74-1.2c2.426-.054,4.709-.089,6.892-.12l1.857-.023c.627-.008,1.246-.012,1.865-.019a18.475,18.475,0,0,1,18.621,18.408V40.7C861.858,41.439,861.858,42.182,861.854,42.94Z" transform="translate(-805.25 -13.61)" fill="#fcfbf2" opacity="0.35"/>
        </g>
      </g>
      <g id="Group_1338" data-name="Group 1338" transform="translate(4.105 9.981)">
        <g id="Group_1318" data-name="Group 1318">
          <g id="Group_1314" data-name="Group 1314" transform="translate(2.862 5.605)">
            <path id="Path_746" data-name="Path 746" d="M835.091,62.58a.251.251,0,1,0-.49.116,3.531,3.531,0,0,0,1.173,1.437.252.252,0,1,0,.305-.4A3.046,3.046,0,0,1,835.091,62.58Z" transform="translate(-834.594 -62.387)" fill="#ffc416"/>
          </g>
          <g id="Group_1315" data-name="Group 1315" transform="translate(7.858 4.333)">
            <path id="Path_747" data-name="Path 747" d="M848.088,59.107a.251.251,0,0,0-.187.3,3.063,3.063,0,0,1-.368,1.474.252.252,0,0,0,.452.221,3.538,3.538,0,0,0,.406-1.811A.251.251,0,0,0,848.088,59.107Z" transform="translate(-847.507 -59.1)" fill="#ffc416"/>
          </g>
          <g id="Group_1316" data-name="Group 1316" transform="translate(5.554 4.969)">
            <path id="Path_748" data-name="Path 748" d="M841.744,60.75a.252.252,0,0,0-.187.3l.347,1.468a.251.251,0,1,0,.489-.116l-.347-1.468A.251.251,0,0,0,841.744,60.75Z" transform="translate(-841.551 -60.743)" fill="#ffc416"/>
          </g>
          <g id="Group_1317" data-name="Group 1317">
            <path id="Path_749" data-name="Path 749" d="M834.713,48.327a2.6,2.6,0,0,0-.453.159,3.007,3.007,0,0,0-4.455,1.053,2.652,2.652,0,0,0-.476.06,2.765,2.765,0,0,0-.015,5.379l.869,3.7a1.026,1.026,0,0,0,1.235.764l5.833-1.378a1.027,1.027,0,0,0,.763-1.234l-.875-3.7a2.765,2.765,0,0,0-2.426-4.8Zm2.422,9.247L831.3,58.952a.524.524,0,0,1-.63-.39l-.225-.959,6.85-1.618.226.959A.524.524,0,0,1,837.135,57.574Zm-.424-4.75a.22.22,0,0,0-.032.028.252.252,0,0,0-.072.2.256.256,0,0,0,.007.042l.568,2.4-6.849,1.618-.564-2.4a.244.244,0,0,0-.012-.039.25.25,0,0,0-.063-.092.246.246,0,0,0-.089-.054.233.233,0,0,0-.043-.011,2.262,2.262,0,0,1-.117-4.428c.048-.011.1-.017.149-.025a3,3,0,0,0-.047,1.551.251.251,0,1,0,.49-.116,2.515,2.515,0,1,1,4.894-1.156.251.251,0,0,0,.49-.116,2.994,2.994,0,0,0-.736-1.366c.048-.015.1-.033.144-.044a2.262,2.262,0,0,1,1.882,4.007Z" transform="translate(-827.199 -47.903)" fill="#ffc416"/>
          </g>
        </g>
        <g id="Group_1337" data-name="Group 1337" transform="translate(2.515 3.084)">
          <g id="Group_1332" data-name="Group 1332" transform="translate(10.468 10.462)">
            <g id="Group_1331" data-name="Group 1331">
              <g id="Group_1321" data-name="Group 1321">
                <g id="Group_1319" data-name="Group 1319" transform="translate(0.29 0.291)">
                  <path id="Path_750" data-name="Path 750" d="M864.846,88.59a.405.405,0,0,1,.039-.156.424.424,0,0,1,.088-.122.344.344,0,0,1,.271-.092.357.357,0,0,1,.141.05.365.365,0,0,1,.109.1.464.464,0,0,1,.068.142.5.5,0,0,1,.022.166,3.9,3.9,0,0,1-.083.625,3.129,3.129,0,0,1-.172.56,2.179,2.179,0,0,1-.265.469,1.548,1.548,0,0,1-.365.35,1.491,1.491,0,0,1-.469.21,1.807,1.807,0,0,1-.581.046,2.255,2.255,0,0,1-.864-.214,1.856,1.856,0,0,1-.594-.462,2.19,2.19,0,0,1-.375-.646,4.2,4.2,0,0,1-.206-.769,6.853,6.853,0,0,1-.089-.835q-.02-.428-.023-.837,0-.388.022-.8a5.538,5.538,0,0,1,.105-.8,3.761,3.761,0,0,1,.23-.734,2.1,2.1,0,0,1,.4-.609,1.814,1.814,0,0,1,.606-.418,2.158,2.158,0,0,1,.856-.159,2.021,2.021,0,0,1,.787.142,1.754,1.754,0,0,1,.6.4,1.817,1.817,0,0,1,.385.6,2.279,2.279,0,0,1,.157.744.506.506,0,0,1-.019.166.463.463,0,0,1-.069.142.4.4,0,0,1-.11.1.325.325,0,0,1-.143.05.353.353,0,0,1-.151-.016.373.373,0,0,1-.129-.073.4.4,0,0,1-.094-.121.426.426,0,0,1-.046-.157,2.251,2.251,0,0,0-.1-.5,1.168,1.168,0,0,0-.222-.4,1.032,1.032,0,0,0-.37-.27,1.347,1.347,0,0,0-.545-.1.974.974,0,0,0-.543.145,1.268,1.268,0,0,0-.376.382,2.069,2.069,0,0,0-.242.536,4.314,4.314,0,0,0-.134.612q-.045.312-.058.61t-.013.531c0,.177,0,.373,0,.588s.015.432.039.653a4.986,4.986,0,0,0,.111.646,2.055,2.055,0,0,0,.223.563,1.289,1.289,0,0,0,.374.409,1.066,1.066,0,0,0,.564.18,1.043,1.043,0,0,0,.564-.1,1.011,1.011,0,0,0,.375-.347,1.664,1.664,0,0,0,.218-.53A3.671,3.671,0,0,0,864.846,88.59Z" transform="translate(-861.5 -83.662)" fill="#ffc416"/>
                </g>
                <g id="Group_1320" data-name="Group 1320">
                  <path id="Path_751" data-name="Path 751" d="M863.342,90.774c-.055,0-.112,0-.169-.006a2.545,2.545,0,0,1-.976-.244,2.143,2.143,0,0,1-.685-.534,2.484,2.484,0,0,1-.424-.731,4.5,4.5,0,0,1-.221-.822,7.1,7.1,0,0,1-.093-.871c-.014-.289-.022-.572-.024-.847s.006-.538.023-.818a5.854,5.854,0,0,1,.111-.838,4.048,4.048,0,0,1,.248-.79,2.4,2.4,0,0,1,.453-.693,2.113,2.113,0,0,1,.7-.485,2.465,2.465,0,0,1,.97-.182,2.21,2.21,0,0,1,.9.164,2.052,2.052,0,0,1,.695.464,2.113,2.113,0,0,1,.447.695,2.589,2.589,0,0,1,.177.838.794.794,0,0,1-.031.262.742.742,0,0,1-.112.231.688.688,0,0,1-.189.178.621.621,0,0,1-.268.093.638.638,0,0,1-.272-.029.654.654,0,0,1-.229-.13.689.689,0,0,1-.161-.207.707.707,0,0,1-.077-.264,1.961,1.961,0,0,0-.086-.439.878.878,0,0,0-.167-.3.739.739,0,0,0-.267-.193,1.063,1.063,0,0,0-.428-.075h0a.682.682,0,0,0-.381.1.973.973,0,0,0-.291.3,1.788,1.788,0,0,0-.207.461,4.047,4.047,0,0,0-.125.571c-.028.2-.047.392-.055.582s-.013.366-.013.517q0,.264,0,.585c0,.2.015.412.038.626a4.793,4.793,0,0,0,.1.608,1.8,1.8,0,0,0,.191.484,1,1,0,0,0,.291.318.788.788,0,0,0,.414.128.762.762,0,0,0,.409-.068.72.72,0,0,0,.269-.25,1.376,1.376,0,0,0,.179-.438,3.382,3.382,0,0,0,.084-.6h0a.694.694,0,0,1,.068-.269.721.721,0,0,1,.147-.2.631.631,0,0,1,.505-.171.649.649,0,0,1,.258.089.656.656,0,0,1,.2.18.77.77,0,0,1,.111.229.79.79,0,0,1,.034.26,4.09,4.09,0,0,1-.089.673,3.409,3.409,0,0,1-.188.612,2.465,2.465,0,0,1-.3.531,1.846,1.846,0,0,1-.433.416,1.8,1.8,0,0,1-.559.251A2,2,0,0,1,863.342,90.774Zm-.071-7.282h-.011a1.9,1.9,0,0,0-.743.135,1.535,1.535,0,0,0-.51.351,1.831,1.831,0,0,0-.343.525,3.511,3.511,0,0,0-.212.677,5.332,5.332,0,0,0-.1.756c-.016.267-.024.529-.022.779q0,.4.023.825a6.543,6.543,0,0,0,.085.8,3.973,3.973,0,0,0,.192.716,1.917,1.917,0,0,0,.325.561,1.58,1.58,0,0,0,.5.39,1.985,1.985,0,0,0,.753.183,1.555,1.555,0,0,0,.487-.038,1.21,1.21,0,0,0,.38-.169,1.24,1.24,0,0,0,.3-.285,1.864,1.864,0,0,0,.229-.406,2.8,2.8,0,0,0,.155-.508,3.511,3.511,0,0,0,.078-.577.206.206,0,0,0-.01-.069.176.176,0,0,0-.026-.056l-.016-.321-.032.289-.239-.2.2.209a.135.135,0,0,0-.028.039.109.109,0,0,0-.011.046h0a3.993,3.993,0,0,1-.1.7,1.971,1.971,0,0,1-.257.621,1.308,1.308,0,0,1-.482.445,1.331,1.331,0,0,1-.718.136,1.36,1.36,0,0,1-.714-.233,1.586,1.586,0,0,1-.456-.5,2.362,2.362,0,0,1-.255-.641,5.421,5.421,0,0,1-.118-.683c-.025-.233-.038-.462-.041-.682s0-.412,0-.59q0-.239.014-.544c.009-.208.03-.423.061-.638a4.551,4.551,0,0,1,.143-.654,2.361,2.361,0,0,1,.276-.611,1.558,1.558,0,0,1,.462-.467,1.256,1.256,0,0,1,.7-.192h0a1.63,1.63,0,0,1,.662.125,1.325,1.325,0,0,1,.473.346,1.474,1.474,0,0,1,.278.5,2.564,2.564,0,0,1,.112.567.13.13,0,0,0,.014.048.111.111,0,0,0,.027.036h0l.06.021a.1.1,0,0,0,.047-.034.163.163,0,0,0,.026-.054.21.21,0,0,0,.009-.071,2.005,2.005,0,0,0-.137-.65,1.538,1.538,0,0,0-.324-.5,1.478,1.478,0,0,0-.5-.332A1.744,1.744,0,0,0,863.272,83.491Z" transform="translate(-860.75 -82.91)" fill="#ffc416"/>
                </g>
              </g>
              <g id="Group_1324" data-name="Group 1324" transform="translate(5.525 0.045)">
                <g id="Group_1322" data-name="Group 1322" transform="translate(0.29 0.29)">
                  <path id="Path_752" data-name="Path 752" d="M875.785,87.353c.009-.277.028-.559.057-.844a6.01,6.01,0,0,1,.139-.827,3.786,3.786,0,0,1,.264-.749,2.126,2.126,0,0,1,.435-.609,1.916,1.916,0,0,1,.647-.407,2.332,2.332,0,0,1,.9-.139,2.122,2.122,0,0,1,.861.176,1.71,1.71,0,0,1,.591.445,2.029,2.029,0,0,1,.365.651,4.014,4.014,0,0,1,.185.793,6.326,6.326,0,0,1,.053.869c0,.3-.011.594-.031.882-.024.349-.058.693-.1,1.032a8.123,8.123,0,0,1-.173.96,4.606,4.606,0,0,1-.282.825,2.174,2.174,0,0,1-.428.63,1.592,1.592,0,0,1-.612.382,1.975,1.975,0,0,1-.836.079,2.114,2.114,0,0,1-.821-.23,1.825,1.825,0,0,1-.57-.477,2.345,2.345,0,0,1-.364-.676,4.544,4.544,0,0,1-.2-.83,7.665,7.665,0,0,1-.08-.936C875.776,88.023,875.775,87.69,875.785,87.353Zm3.684.209a10.414,10.414,0,0,0,.012-1.173,3.493,3.493,0,0,0-.172-.962,1.506,1.506,0,0,0-.424-.656,1.127,1.127,0,0,0-.733-.255,1.139,1.139,0,0,0-.738.213,1.587,1.587,0,0,0-.478.616,3.5,3.5,0,0,0-.267.923,9.2,9.2,0,0,0-.1,1.138c-.018.527-.022,1,0,1.4a3.916,3.916,0,0,0,.163,1.027,1.4,1.4,0,0,0,.406.651,1.244,1.244,0,0,0,.726.271,1.147,1.147,0,0,0,.74-.149,1.308,1.308,0,0,0,.468-.592,3.954,3.954,0,0,0,.267-1.022C879.391,88.582,879.436,88.1,879.469,87.561Z" transform="translate(-875.778 -83.775)" fill="#ffc416"/>
                </g>
                <g id="Group_1323" data-name="Group 1323">
                  <path id="Path_753" data-name="Path 753" d="M877.605,91.34c-.088,0-.178,0-.272-.013a2.41,2.41,0,0,1-.933-.264,2.12,2.12,0,0,1-.66-.553,2.625,2.625,0,0,1-.409-.759,4.778,4.778,0,0,1-.215-.883,8.076,8.076,0,0,1-.083-.971c-.009-.358-.008-.69,0-1.013.008-.271.027-.561.058-.864a6.282,6.282,0,0,1,.146-.867,4.058,4.058,0,0,1,.285-.806,2.411,2.411,0,0,1,.494-.692,2.216,2.216,0,0,1,.744-.47,2.628,2.628,0,0,1,1.01-.159,2.412,2.412,0,0,1,.979.2,2.009,2.009,0,0,1,.69.52,2.329,2.329,0,0,1,.418.743,4.3,4.3,0,0,1,.2.85,6.58,6.58,0,0,1,.056.909c0,.316-.012.618-.031.9-.022.333-.056.685-.1,1.047a8.4,8.4,0,0,1-.179.994,4.911,4.911,0,0,1-.3.877,2.454,2.454,0,0,1-.486.713,1.885,1.885,0,0,1-.722.451A2.077,2.077,0,0,1,877.605,91.34Zm.095-7.734a2.006,2.006,0,0,0-.727.12,1.64,1.64,0,0,0-.55.346,1.833,1.833,0,0,0-.375.526,3.488,3.488,0,0,0-.244.692,5.763,5.763,0,0,0-.132.787c-.029.29-.047.567-.055.825h0c-.01.313-.01.634,0,.981a7.4,7.4,0,0,0,.077.9,4.22,4.22,0,0,0,.188.777,2.065,2.065,0,0,0,.318.593,1.547,1.547,0,0,0,.481.4,1.835,1.835,0,0,0,.709.2,1.7,1.7,0,0,0,.714-.064,1.3,1.3,0,0,0,.5-.313,1.885,1.885,0,0,0,.37-.547,4.283,4.283,0,0,0,.265-.772,7.883,7.883,0,0,0,.167-.926c.043-.351.075-.693.1-1.016.018-.269.028-.56.03-.864a5.974,5.974,0,0,0-.051-.829,3.765,3.765,0,0,0-.172-.736,1.76,1.76,0,0,0-.313-.559,1.434,1.434,0,0,0-.492-.37,1.846,1.846,0,0,0-.744-.149Zm-.155,6.989c-.056,0-.114,0-.173-.008a1.532,1.532,0,0,1-.891-.34,1.7,1.7,0,0,1-.492-.782,4.2,4.2,0,0,1-.176-1.1c-.017-.382-.016-.848,0-1.424a9.491,9.491,0,0,1,.106-1.174,3.823,3.823,0,0,1,.29-1,1.882,1.882,0,0,1,.567-.726,1.562,1.562,0,0,1,1.836.055,1.791,1.791,0,0,1,.507.779,3.783,3.783,0,0,1,.188,1.042,10.7,10.7,0,0,1-.012,1.206c-.035.57-.081,1.046-.139,1.456a4.267,4.267,0,0,1-.288,1.1,1.6,1.6,0,0,1-.576.719A1.352,1.352,0,0,1,877.545,90.594Zm.1-6.248a.834.834,0,0,0-.52.154,1.319,1.319,0,0,0-.389.507,3.267,3.267,0,0,0-.244.847,9.1,9.1,0,0,0-.1,1.1c-.019.561-.02,1.013,0,1.38a3.677,3.677,0,0,0,.149.95,1.127,1.127,0,0,0,.319.52.967.967,0,0,0,.561.2.875.875,0,0,0,.557-.1,1.033,1.033,0,0,0,.361-.467,3.7,3.7,0,0,0,.245-.946c.056-.394.1-.855.134-1.409h0a10.065,10.065,0,0,0,.012-1.14,3.205,3.205,0,0,0-.157-.881,1.222,1.222,0,0,0-.34-.532.84.84,0,0,0-.55-.184Z" transform="translate(-875.028 -83.026)" fill="#ffc416"/>
                </g>
              </g>
              <g id="Group_1327" data-name="Group 1327" transform="translate(11.451 0.242)">
                <g id="Group_1325" data-name="Group 1325" transform="translate(0.29 0.29)">
                  <path id="Path_754" data-name="Path 754" d="M891.14,88c.021-.292.053-.589.095-.89a6.809,6.809,0,0,1,.176-.87,4.232,4.232,0,0,1,.3-.784,2.281,2.281,0,0,1,.463-.632,1.951,1.951,0,0,1,.666-.414,2.248,2.248,0,0,1,.906-.124,2,2,0,0,1,.854.207,1.681,1.681,0,0,1,.571.483,2.128,2.128,0,0,1,.336.694,4.387,4.387,0,0,1,.15.839,6.977,6.977,0,0,1,.015.917c-.015.314-.038.624-.07.928-.039.366-.089.729-.146,1.084a9.059,9.059,0,0,1-.216,1.007,5.131,5.131,0,0,1-.32.862,2.353,2.353,0,0,1-.457.655,1.633,1.633,0,0,1-.63.39,1.9,1.9,0,0,1-.841.066,2,2,0,0,1-.812-.259,1.784,1.784,0,0,1-.549-.515,2.439,2.439,0,0,1-.334-.721,4.926,4.926,0,0,1-.164-.88,8.487,8.487,0,0,1-.037-.99C891.1,88.711,891.115,88.36,891.14,88Zm3.677.3a11.593,11.593,0,0,0,.064-1.236,3.8,3.8,0,0,0-.129-1.017,1.551,1.551,0,0,0-.394-.7,1.071,1.071,0,0,0-.722-.286,1.111,1.111,0,0,0-.747.206,1.716,1.716,0,0,0-.507.639,3.919,3.919,0,0,0-.308.967,10.376,10.376,0,0,0-.154,1.2c-.042.555-.067,1.051-.068,1.479a4.293,4.293,0,0,0,.117,1.087,1.455,1.455,0,0,0,.376.7,1.182,1.182,0,0,0,.714.3,1.115,1.115,0,0,0,.748-.142,1.414,1.414,0,0,0,.5-.615,4.43,4.43,0,0,0,.313-1.071C894.693,89.382,894.76,88.878,894.817,88.308Z" transform="translate(-891.093 -84.287)" fill="#ffc416"/>
                </g>
                <g id="Group_1326" data-name="Group 1326">
                  <path id="Path_755" data-name="Path 755" d="M892.821,92.269a2.774,2.774,0,0,1-.324-.02,2.3,2.3,0,0,1-.928-.3,2.087,2.087,0,0,1-.637-.6,2.737,2.737,0,0,1-.374-.8,5.165,5.165,0,0,1-.174-.933,8.712,8.712,0,0,1-.039-1.024c.006-.361.022-.72.047-1.067h0c.021-.285.053-.591.1-.908a7.138,7.138,0,0,1,.183-.907,4.526,4.526,0,0,1,.32-.838,2.588,2.588,0,0,1,.521-.711,2.249,2.249,0,0,1,.763-.476,2.529,2.529,0,0,1,1.022-.143,2.3,2.3,0,0,1,.976.24,1.986,1.986,0,0,1,.668.566,2.449,2.449,0,0,1,.383.788,4.634,4.634,0,0,1,.16.9,7.207,7.207,0,0,1,.015.954c-.016.333-.04.65-.072.945-.037.348-.085.707-.147,1.1a9.428,9.428,0,0,1-.224,1.039,5.419,5.419,0,0,1-.339.911,2.661,2.661,0,0,1-.514.734,1.922,1.922,0,0,1-.741.458A1.975,1.975,0,0,1,892.821,92.269Zm-1.85-4.7c-.024.337-.039.686-.045,1.037a8.23,8.23,0,0,0,.036.956,4.669,4.669,0,0,0,.154.829,2.168,2.168,0,0,0,.294.635,1.5,1.5,0,0,0,.461.432,1.727,1.727,0,0,0,.7.219,1.633,1.633,0,0,0,.712-.053,1.336,1.336,0,0,0,.52-.321,2.092,2.092,0,0,0,.4-.576,4.868,4.868,0,0,0,.3-.813,8.768,8.768,0,0,0,.209-.974c.06-.381.107-.731.143-1.069.031-.283.054-.589.069-.911a6.726,6.726,0,0,0-.014-.878,4.112,4.112,0,0,0-.14-.784,1.85,1.85,0,0,0-.29-.6,1.4,1.4,0,0,0-.474-.4,1.738,1.738,0,0,0-.732-.173,1.973,1.973,0,0,0-.789.106,1.675,1.675,0,0,0-.568.353,2.02,2.02,0,0,0-.4.553,3.9,3.9,0,0,0-.277.73,6.523,6.523,0,0,0-.169.833c-.042.305-.073.6-.093.871Zm1.81,3.917a1.893,1.893,0,0,1-.211-.012,1.47,1.47,0,0,1-.884-.381,1.749,1.749,0,0,1-.455-.83A4.6,4.6,0,0,1,891.1,89.1c0-.4.022-.9.068-1.5a10.583,10.583,0,0,1,.158-1.232,4.248,4.248,0,0,1,.332-1.038,2.011,2.011,0,0,1,.594-.745,1.389,1.389,0,0,1,.936-.264,1.358,1.358,0,0,1,.91.368,1.844,1.844,0,0,1,.471.829,4.1,4.1,0,0,1,.14,1.095,11.987,11.987,0,0,1-.066,1.267h0c-.061.6-.128,1.1-.2,1.528a4.71,4.71,0,0,1-.336,1.142,1.7,1.7,0,0,1-.6.736A1.314,1.314,0,0,1,892.78,91.481ZM893.1,84.9a.8.8,0,0,0-.495.151,1.445,1.445,0,0,0-.419.534,3.658,3.658,0,0,0-.284.9,9.859,9.859,0,0,0-.149,1.164c-.045.591-.067,1.068-.067,1.458a4.016,4.016,0,0,0,.107,1.013,1.18,1.18,0,0,0,.3.56.9.9,0,0,0,.545.221.826.826,0,0,0,.558-.1,1.137,1.137,0,0,0,.39-.493,4.132,4.132,0,0,0,.29-1c.074-.414.139-.9.2-1.484h0a11.435,11.435,0,0,0,.063-1.2,3.557,3.557,0,0,0-.118-.939,1.277,1.277,0,0,0-.318-.573.787.787,0,0,0-.534-.2Z" transform="translate(-890.343 -83.536)" fill="#ffc416"/>
                </g>
              </g>
              <g id="Group_1330" data-name="Group 1330" transform="translate(17.176 0.564)">
                <g id="Group_1328" data-name="Group 1328" transform="translate(0.29 0.29)">
                  <path id="Path_756" data-name="Path 756" d="M909.765,93.081a.622.622,0,0,1,.023.194.664.664,0,0,1-.034.192.616.616,0,0,1-.085.166.421.421,0,0,1-.127.117.326.326,0,0,1-.151.048.276.276,0,0,1-.141-.031.36.36,0,0,1-.118-.1.466.466,0,0,1-.079-.159c-.482-1.63-.733-2.434-1.255-4.016l-.9,1.044-.286,2.391a.615.615,0,0,1-.051.188.447.447,0,0,1-.1.137.361.361,0,0,1-.125.079.291.291,0,0,1-.144.016.3.3,0,0,1-.135-.054.39.39,0,0,1-.1-.11.459.459,0,0,1-.061-.157.62.62,0,0,1-.007-.194c.334-2.908.5-4.362.834-7.27a.6.6,0,0,1,.052-.189.466.466,0,0,1,.1-.141.43.43,0,0,1,.132-.087.338.338,0,0,1,.152-.025.311.311,0,0,1,.145.044.36.36,0,0,1,.11.1.406.406,0,0,1,.065.152.572.572,0,0,1,.007.194c-.174,1.456-.261,2.184-.435,3.639,1.188-1.475,1.8-2.227,3.042-3.754a.427.427,0,0,1,.126-.11.326.326,0,0,1,.139-.043.3.3,0,0,1,.135.023.28.28,0,0,1,.115.091.435.435,0,0,1,.075.147.52.52,0,0,1,.019.17.581.581,0,0,1-.035.174.539.539,0,0,1-.089.157c-.875,1.069-1.306,1.6-2.152,2.641C908.986,90.454,909.253,91.321,909.765,93.081Z" transform="translate(-905.886 -85.119)" fill="#ffc416"/>
                </g>
                <g id="Group_1329" data-name="Group 1329">
                  <path id="Path_757" data-name="Path 757" d="M908.918,93.628a.565.565,0,0,1-.261-.064.646.646,0,0,1-.214-.18.763.763,0,0,1-.128-.255c-.431-1.457-.672-2.24-1.091-3.519l-.507.588-.275,2.3a.942.942,0,0,1-.076.276.738.738,0,0,1-.159.225.663.663,0,0,1-.223.14.579.579,0,0,1-.285.032.593.593,0,0,1-.266-.105.69.69,0,0,1-.18-.189.756.756,0,0,1-.1-.255.917.917,0,0,1-.011-.286l.835-7.27a.885.885,0,0,1,.078-.28.754.754,0,0,1,.159-.226.724.724,0,0,1,.224-.146.629.629,0,0,1,.282-.046.613.613,0,0,1,.274.084.66.66,0,0,1,.2.184.7.7,0,0,1,.112.26.873.873,0,0,1,.012.289L907,87.823c.814-1.009,1.4-1.736,2.409-2.968a.716.716,0,0,1,.21-.18.615.615,0,0,1,.26-.079.592.592,0,0,1,.266.044.563.563,0,0,1,.234.182.723.723,0,0,1,.125.243.817.817,0,0,1,.03.266.883.883,0,0,1-.052.258.853.853,0,0,1-.135.24c-.842,1.028-1.272,1.556-2.054,2.52.528,1.616.791,2.47,1.292,4.192h0a.921.921,0,0,1,.034.284.98.98,0,0,1-.05.275.925.925,0,0,1-.125.243.707.707,0,0,1-.216.2.606.606,0,0,1-.287.087Zm-1.463-5.175.16.487c.526,1.594.772,2.384,1.257,4.025a.19.19,0,0,0,.029.062c.051.005.062-.008.074-.025a.34.34,0,0,0,.046-.09.376.376,0,0,0,.019-.107.324.324,0,0,0-.012-.1c-.514-1.767-.776-2.615-1.335-4.323l-.049-.151.1-.123c.848-1.044,1.278-1.573,2.154-2.642a.248.248,0,0,0,.04-.073.291.291,0,0,0,.018-.087.214.214,0,0,0-.008-.077.131.131,0,0,0-.024-.047.109.109,0,0,0-.061.041c-1.247,1.529-1.854,2.279-3.042,3.754l-.634.787.555-4.643a.291.291,0,0,0,0-.1.14.14,0,0,0-.018-.048l-.036-.025a.127.127,0,0,0-.066.033.192.192,0,0,0-.036.054.314.314,0,0,0-.026.1l-.834,7.27a.343.343,0,0,0,0,.1.186.186,0,0,0,.021.059.1.1,0,0,0,.026.027l.038-.014a.147.147,0,0,0,.031-.048.352.352,0,0,0,.027-.1l.3-2.478Z" transform="translate(-905.136 -84.369)" fill="#ffc416"/>
                </g>
              </g>
            </g>
          </g>
          <g id="Group_1334" data-name="Group 1334" transform="translate(10.367)">
            <g id="Group_1333" data-name="Group 1333">
              <path id="Path_758" data-name="Path 758" d="M861.243,59.141c-.049.907-.074,1.36-.124,2.264a.358.358,0,0,1-.032.135.28.28,0,0,1-.074.1.3.3,0,0,1-.1.058.3.3,0,0,1-.124.013.323.323,0,0,1-.121-.037.357.357,0,0,1-.1-.078.324.324,0,0,1-.062-.111.36.36,0,0,1-.017-.139c.11-2.053.165-3.082.276-5.148a.351.351,0,0,1,.105-.233.324.324,0,0,1,.1-.068.3.3,0,0,1,.124-.022l1.211.041a4.182,4.182,0,0,1,.806.1,1.462,1.462,0,0,1,.6.282,1.133,1.133,0,0,1,.354.533,2.209,2.209,0,0,1,.07.851,1.665,1.665,0,0,1-.108.487,1.25,1.25,0,0,1-.24.389,1.118,1.118,0,0,1-.358.26,1.192,1.192,0,0,1-.461.1,1.388,1.388,0,0,1,.407.121.947.947,0,0,1,.272.2.839.839,0,0,1,.163.253,1.329,1.329,0,0,1,.081.291,2.067,2.067,0,0,1,.026.311c0,.106,0,.211-.005.314a3.222,3.222,0,0,0,.012.448,2.915,2.915,0,0,0,.051.321c.021.091.04.169.058.237a.942.942,0,0,1,.033.194.431.431,0,0,1-.03.194.316.316,0,0,1-.093.125.334.334,0,0,1-.13.064.427.427,0,0,1-.141.011.329.329,0,0,1-.164-.057.382.382,0,0,1-.106-.117.559.559,0,0,1-.061-.154,1.293,1.293,0,0,1-.029-.168,1.338,1.338,0,0,1-.007-.159c0-.05,0-.093,0-.129a4.623,4.623,0,0,0-.1-1.454q-.147-.5-.524-.522Zm.031-.577,1.041.065c.052,0,.116,0,.192,0a1.3,1.3,0,0,0,.242-.031,1.1,1.1,0,0,0,.257-.091.764.764,0,0,0,.233-.18.98.98,0,0,0,.175-.3,1.361,1.361,0,0,0,.082-.443,1.32,1.32,0,0,0-.047-.432.923.923,0,0,0-.147-.3.707.707,0,0,0-.217-.188,1.147,1.147,0,0,0-.257-.105,1.479,1.479,0,0,0-.265-.047c-.088-.007-.168-.012-.241-.015l-.935-.037C861.341,57.307,861.318,57.726,861.274,58.563Z" transform="translate(-860.489 -55.873)" fill="#ffc416"/>
              <path id="Path_759" data-name="Path 759" d="M874.12,59.531c-.046.9-.069,1.352-.115,2.252.829.068,1.244.1,2.073.168a.255.255,0,0,1,.193.107.35.35,0,0,1,.064.229.324.324,0,0,1-.086.215.239.239,0,0,1-.2.073c-.955-.082-1.432-.123-2.387-.209a.284.284,0,0,1-.121-.039.339.339,0,0,1-.1-.084.386.386,0,0,1-.08-.256c.111-2.143.166-3.218.276-5.374a.386.386,0,0,1,.032-.136.369.369,0,0,1,.074-.111.329.329,0,0,1,.1-.073.283.283,0,0,1,.124-.025c.951.025,1.426.036,2.376.056a.238.238,0,0,1,.193.1.333.333,0,0,1,.064.226.343.343,0,0,1-.086.22.25.25,0,0,1-.2.085c-.824-.023-1.237-.036-2.061-.062-.042.813-.062,1.219-.1,2.03.768.041,1.153.06,1.921.1a.244.244,0,0,1,.193.1.34.34,0,0,1,.065.227.332.332,0,0,1-.087.217.245.245,0,0,1-.2.079C875.273,59.6,874.889,59.577,874.12,59.531Z" transform="translate(-868.38 -56.115)" fill="#ffc416"/>
              <path id="Path_760" data-name="Path 760" d="M885.861,61.207c-.733-.044-1.1-.067-1.832-.113-.181.635-.272.95-.454,1.579a.361.361,0,0,1-.067.134.323.323,0,0,1-.1.085.3.3,0,0,1-.124.032.278.278,0,0,1-.13-.028.343.343,0,0,1-.112-.082.383.383,0,0,1-.075-.118.439.439,0,0,1-.031-.142.4.4,0,0,1,.021-.15c.682-2.169,1.023-3.273,1.7-5.52a.675.675,0,0,1,.122-.243.252.252,0,0,1,.209-.094l.406.007a.234.234,0,0,1,.2.1.649.649,0,0,1,.1.249c.458,2.292.687,3.451,1.146,5.793a.5.5,0,0,1,0,.157A.428.428,0,0,1,886.8,63a.376.376,0,0,1-.086.11.32.32,0,0,1-.12.066.266.266,0,0,1-.131.007.307.307,0,0,1-.119-.053.364.364,0,0,1-.093-.1.451.451,0,0,1-.056-.146C886.062,62.207,885.995,61.873,885.861,61.207Zm-.608-3.384-.092-.751-.173.744c-.307,1.058-.461,1.583-.768,2.626.615.035.921.051,1.535.084C885.554,59.44,885.454,58.9,885.253,57.823Z" transform="translate(-874.248 -56.288)" fill="#ffc416"/>
              <path id="Path_761" data-name="Path 761" d="M896.037,63.32a.266.266,0,0,1-.121-.039.349.349,0,0,1-.1-.09.426.426,0,0,1-.062-.127.448.448,0,0,1-.017-.15c.108-2.339.161-3.512.268-5.863a.466.466,0,0,1,.031-.149.422.422,0,0,1,.073-.122.338.338,0,0,1,.1-.082.26.26,0,0,1,.123-.029l1.3.011a1.988,1.988,0,0,1,.763.137,1.453,1.453,0,0,1,.525.37,1.735,1.735,0,0,1,.329.56,3.5,3.5,0,0,1,.174.7,5.958,5.958,0,0,1,.06.8q0,.423-.015.857t-.067.837a6.328,6.328,0,0,1-.144.794,3.859,3.859,0,0,1-.245.7,2,2,0,0,1-.369.548,1.428,1.428,0,0,1-.517.344,1.573,1.573,0,0,1-.686.088Zm.345-.63,1.055.07a1.025,1.025,0,0,0,.6-.123,1.1,1.1,0,0,0,.412-.488,3.294,3.294,0,0,0,.253-.884,11.348,11.348,0,0,0,.122-1.31c.005-.124.009-.248.012-.373s0-.244,0-.361,0-.226-.009-.329-.013-.194-.023-.275a2.51,2.51,0,0,0-.124-.535,1.269,1.269,0,0,0-.222-.394.911.911,0,0,0-.332-.244,1.178,1.178,0,0,0-.452-.087l-1.054-.015C896.528,59.486,896.479,60.556,896.382,62.69Z" transform="translate(-882.099 -56.361)" fill="#ffc416"/>
              <path id="Path_762" data-name="Path 762" d="M910.167,60.952c-.038.954-.058,1.43-.1,2.382a.546.546,0,0,1-.031.165.366.366,0,0,1-.074.124.307.307,0,0,1-.1.077.254.254,0,0,1-.123.022.26.26,0,0,1-.122-.038.347.347,0,0,1-.1-.089.4.4,0,0,1-.063-.131.532.532,0,0,1-.018-.168c.039-.947.058-1.42.1-2.369-.552-1.546-.828-2.309-1.378-3.819a.488.488,0,0,1-.006-.3.474.474,0,0,1,.063-.13.367.367,0,0,1,.1-.1.263.263,0,0,1,.119-.038.238.238,0,0,1,.115.018.272.272,0,0,1,.1.074.378.378,0,0,1,.069.123c.466,1.349.7,2.03,1.167,3.407.579-1.344.868-2.025,1.445-3.407a.426.426,0,0,1,.079-.127.312.312,0,0,1,.1-.076.242.242,0,0,1,.116-.019.248.248,0,0,1,.115.038.325.325,0,0,1,.092.1.433.433,0,0,1,.052.134.518.518,0,0,1-.03.306C911.183,58.678,910.844,59.444,910.167,60.952Z" transform="translate(-889.696 -56.282)" fill="#ffc416"/>
            </g>
          </g>
          <g id="Group_1336" data-name="Group 1336" transform="translate(0 10.938)">
            <g id="Group_1335" data-name="Group 1335">
              <path id="Path_763" data-name="Path 763" d="M833.98,84.936a.254.254,0,0,1-.2-.08.3.3,0,0,1-.081-.207.306.306,0,0,1,.072-.213.256.256,0,0,1,.2-.092c1.265-.036,1.9-.044,3.164-.039a.246.246,0,0,1,.2.09.317.317,0,0,1,.071.218.322.322,0,0,1-.082.216.257.257,0,0,1-.2.086c-.5,0-.748-.005-1.246,0-.014,2.053-.024,3.081-.048,5.14a.425.425,0,0,1-.025.142.321.321,0,0,1-.065.107.284.284,0,0,1-.094.066.249.249,0,0,1-.114.021.266.266,0,0,1-.114-.031.313.313,0,0,1-.093-.074.347.347,0,0,1-.063-.112.431.431,0,0,1-.022-.144c.005-2.047.006-3.069,0-5.111C834.733,84.92,834.483,84.924,833.98,84.936Z" transform="translate(-833.698 -84.24)" fill="#ffc416"/>
              <path id="Path_764" data-name="Path 764" d="M845.28,87.16c.009-.235.028-.475.053-.717a5.282,5.282,0,0,1,.122-.7,3.275,3.275,0,0,1,.226-.635,1.786,1.786,0,0,1,.37-.514,1.6,1.6,0,0,1,.547-.341,1.94,1.94,0,0,1,.758-.108,1.761,1.761,0,0,1,.722.16,1.43,1.43,0,0,1,.488.385,1.686,1.686,0,0,1,.292.554,3.324,3.324,0,0,1,.136.671,5.25,5.25,0,0,1,.023.733c-.009.251-.024.5-.048.742-.029.293-.066.583-.109.867a7.057,7.057,0,0,1-.168.807,4.056,4.056,0,0,1-.253.693,1.925,1.925,0,0,1-.366.529,1.347,1.347,0,0,1-.507.321,1.569,1.569,0,0,1-.68.067,1.64,1.64,0,0,1-.662-.192,1.452,1.452,0,0,1-.455-.4,1.965,1.965,0,0,1-.287-.572,4.007,4.007,0,0,1-.155-.7,6.857,6.857,0,0,1-.056-.8C845.267,87.73,845.269,87.447,845.28,87.16Zm3.042.191a8.8,8.8,0,0,0,.036-.989,2.917,2.917,0,0,0-.123-.813,1.244,1.244,0,0,0-.342-.559.929.929,0,0,0-.61-.224.945.945,0,0,0-.621.173,1.34,1.34,0,0,0-.407.519,3.006,3.006,0,0,0-.232.781,8.047,8.047,0,0,0-.1.965c-.021.447-.03.845-.021,1.189a3.427,3.427,0,0,0,.119.871,1.168,1.168,0,0,0,.32.551.968.968,0,0,0,.586.228.928.928,0,0,0,.606-.125,1.144,1.144,0,0,0,.4-.5,3.494,3.494,0,0,0,.244-.861C848.234,88.212,848.283,87.808,848.322,87.352Z" transform="translate(-840.791 -84.141)" fill="#ffc416"/>
            </g>
          </g>
        </g>
      </g>
    </g>
  </g>
</svg>
