<svg id="eoim1398amg1" xmlns="http://www.w3.org/2000/svg" xmlns:xlink="http://www.w3.org/1999/xlink" viewBox="0 0 70.041000 82.019000" shape-rendering="geometricPrecision" text-rendering="geometricPrecision"><style><![CDATA[#eoim1398amg3_to {animation: eoim1398amg3_to__to 3000ms linear 1 normal forwards}@keyframes eoim1398amg3_to__to { 0% {transform: translate(34.496123px,63.183770px)} 10% {transform: translate(33.979500px,75.144000px)} 100% {transform: translate(33.979500px,75.144000px)} }#eoim1398amg3_ts {animation: eoim1398amg3_ts__ts 3000ms linear 1 normal forwards}@keyframes eoim1398amg3_ts__ts { 0% {transform: scale(0.113108,0.108896)} 10% {transform: scale(1,1)} 100% {transform: scale(1,1)} }#eoim1398amg5_tr {animation: eoim1398amg5_tr__tr 3000ms linear 1 normal forwards}@keyframes eoim1398amg5_tr__tr { 0% {transform: translate(22.276975px,28.842720px) rotate(0deg)} 10% {transform: translate(22.276975px,28.842720px) rotate(13.526213deg)} 100% {transform: translate(22.276975px,28.842720px) rotate(13.526213deg)} }#eoim1398amg6_tr {animation: eoim1398amg6_tr__tr 3000ms linear 1 normal forwards}@keyframes eoim1398amg6_tr__tr { 0% {transform: translate(22.277194px,28.842579px) rotate(-14.289428deg)} 10% {transform: translate(22.277194px,28.842579px) rotate(-0.763215deg)} 100% {transform: translate(22.277194px,28.842579px) rotate(-0.763215deg)} }#eoim1398amg7_to {animation: eoim1398amg7_to__to 3000ms linear 1 normal forwards}@keyframes eoim1398amg7_to__to { 0% {transform: translate(37.458525px,11.164216px)} 10% {transform: translate(21.481240px,27.453149px)} 100% {transform: translate(21.481240px,27.453149px)} }#eoim1398amg7_tr {animation: eoim1398amg7_tr__tr 3000ms linear 1 normal forwards}@keyframes eoim1398amg7_tr__tr { 0% {transform: rotate(0deg)} 10% {transform: rotate(13.526213deg)} 100% {transform: rotate(13.526213deg)} }#eoim1398amg7_ts {animation: eoim1398amg7_ts__ts 3000ms linear 1 normal forwards}@keyframes eoim1398amg7_ts__ts { 0% {transform: scale(1,1)} 10% {transform: scale(5.331332,5.331332)} 100% {transform: scale(5.331332,5.331332)} }#eoim1398amg8_to {animation: eoim1398amg8_to__to 3000ms linear 1 normal forwards}@keyframes eoim1398amg8_to__to { 0% {transform: translate(6101.281108px,8361.649389px)} 10% {transform: translate(6092.787240px,8368.236061px)} 100% {transform: translate(6092.787240px,8368.236061px)} }#eoim1398amg8_tr {animation: eoim1398amg8_tr__tr 3000ms linear 1 normal forwards}@keyframes eoim1398amg8_tr__tr { 0% {transform: rotate(13.984509deg)} 10% {transform: rotate(14.054960deg)} 100% {transform: rotate(14.054960deg)} }#eoim1398amg9_to {animation: eoim1398amg9_to__to 3000ms linear 1 normal forwards}@keyframes eoim1398amg9_to__to { 0% {transform: translate(14.578934px,58.200154px)} 10% {transform: translate(10.514598px,54.611055px)} 100% {transform: translate(10.514598px,54.611055px)} }#eoim1398amg9_tr {animation: eoim1398amg9_tr__tr 3000ms linear 1 normal forwards}@keyframes eoim1398amg9_tr__tr { 0% {transform: rotate(203.890813deg)} 10% {transform: rotate(211.607732deg)} 100% {transform: rotate(211.607732deg)} }]]></style><g id="eoim1398amg2" transform="matrix(1 0 0 1 1.04100000000000 0)"><g id="eoim1398amg3_to" transform="translate(34.496123,63.183770)"><g id="eoim1398amg3_ts" transform="scale(0.113108,0.108896)"><text id="eoim1398amg3" dx="0" dy="0" font-family="RoundedMplus1c-ExtraBold, &quot;Rounded Mplus 1c&quot;" font-size="12" font-weight="bold" transform="translate(-34.312500,4.015625)" fill="rgb(119,119,119)" stroke="none" stroke-width="1"><![CDATA[scroll down]]></text></g></g><g id="eoim1398amg4" transform="matrix(0.97029600000000 0.24192200000000 -0.24192200000000 0.97029600000000 18.61500000000000 0)"><g id="eoim1398amg5_tr" transform="translate(22.276975,28.842720) rotate(0)"><path id="eoim1398amg5" d="M24.159009,0C37.502270,0,48.318018,15.840411,48.318018,32.403268C48.318018,48.966125,37.502270,59.981855,24.159009,59.981855C10.815748,59.981855,0,48.967172,0,32.403268C0,15.839364,10.816795,0,24.159009,0Z" transform="translate(-23.073999,-28.643999)" fill="none" stroke="none" stroke-width="1"/></g><g id="eoim1398amg6_tr" transform="translate(22.277194,28.842579) rotate(-14.289428)"><path id="eoim1398amg6" d="M24.159238,2.094042C21.312738,2.094042,18.512779,2.912544,15.837122,4.526822C13.226422,6.101902,10.849188,8.353670,8.771454,11.219603C4.527872,17.072985,2.094046,24.794236,2.094046,32.403560C2.094046,36.190421,2.690386,39.750425,3.866517,42.984680C4.978564,46.042732,6.580464,48.738669,8.627711,50.997631C12.654331,55.440641,18.170193,57.887515,24.159238,57.887515C30.148283,57.887515,35.664146,55.440641,39.690769,50.997631C41.738013,48.738669,43.339917,46.042732,44.451959,42.984680C45.628091,39.750425,46.224430,36.190421,46.224430,32.403560C46.224430,24.794236,43.790604,17.072985,39.547022,11.219603C37.469288,8.353670,35.092054,6.101902,32.481354,4.526822C29.805697,2.912544,27.005738,2.094042,24.159238,2.094042M24.159238,-0.000004C37.502016,-0.000004,48.318476,15.840106,48.318476,32.403560C48.318476,48.967003,37.502016,59.981561,24.159238,59.981561C10.816457,59.981561,0,48.967003,0,32.403560C0,15.840106,10.816457,-0.000004,24.159238,-0.000004Z" transform="translate(-23.074219,-28.643858)" fill="rgb(255,196,22)" stroke="none" stroke-width="1"/></g></g><g id="eoim1398amg7_to" transform="translate(37.458525,11.164216)"><g id="eoim1398amg7_tr" transform="rotate(0)"><g id="eoim1398amg7_ts" transform="scale(1,1)"><circle id="eoim1398amg7" r="2.851735" transform="translate(2.851735,2.851735)" fill="rgb(255,196,22)" stroke="none" stroke-width="1"/></g></g></g><g id="eoim1398amg8_to" transform="translate(6101.281108,8361.649389)"><g id="eoim1398amg8_tr" transform="rotate(13.984509)"><path id="eoim1398amg8" d="M-7889.130000,-6654.787000C-7880.082674,-6651.411398,-7876.775128,-6642.445740,-7876.775128,-6642.445740" transform="scale(1.000373,0.998353) translate(0,0)" fill="none" stroke="rgb(255,196,22)" stroke-width="2" stroke-linecap="round"/></g></g><g id="eoim1398amg9_to" transform="translate(14.578934,58.200154)"><g id="eoim1398amg9_tr" transform="rotate(203.890813)"><path id="eoim1398amg9" d="M0,0C9.047326,3.375602,12.354872,12.341260,12.354872,12.341260" transform="skewX(-0) skewY(0) scale(1,1) translate(0,0)" fill="none" stroke="rgb(255,196,22)" stroke-width="2" stroke-linecap="round"/></g></g></g></svg>