<svg xmlns="http://www.w3.org/2000/svg" width="185.164" height="187.347" viewBox="0 0 185.164 187.347"><g transform="translate(0 58.278) rotate(-25)" opacity="0.196"><path d="M764.86,82.605q-2.228,0-4.6-.183a1.821,1.821,0,0,1-1.657-1.516,23.153,23.153,0,0,1,.121-7.316c-5.119.45-16.224.152-27.864-8.256a1.82,1.82,0,0,1-.12-2.859c.262-.224,6.585-5.5,20.561-4.622a1.821,1.821,0,1,1-.227,3.636c-7.96-.5-13.095,1.185-15.76,2.458,13.286,8.348,25.384,5.7,25.51,5.674a1.823,1.823,0,0,1,2.1,2.45,16.515,16.515,0,0,0-.874,6.818c9.844.507,17.406-1.6,22.484-6.278a21.979,21.979,0,0,0,6.7-14.62,1.823,1.823,0,0,1,1.822-1.814h0A1.82,1.82,0,0,1,794.88,58a25.3,25.3,0,0,1-7.829,17.252C781.769,80.139,774.318,82.605,764.86,82.605Z" transform="translate(-698.138 12.827)" fill="#ffc416" opacity="0.4"/><g opacity="0.4"><path d="M754.6,103.885a4.824,4.824,0,0,1-.541-.031,5.067,5.067,0,0,1-.887-.191,4.672,4.672,0,0,1-3.218-4.974c.3-2.661-5.411-6.6-8.826-8.949-.418-.286-.818-.56-1.2-.83-3.484-.334-7.2-.633-8.717-.3a4.684,4.684,0,0,1-5.554-3.572,4.663,4.663,0,0,1,3.575-5.55,17.736,17.736,0,0,1,3.464-.346c-.257-3.1-.787-7.305-1.293-10.663-7.006-3.932-11.677-13.157-13.881-18.44a70.279,70.279,0,0,1-3.951-12.653,8.783,8.783,0,0,1-2.4-.371c-4.606-1.389-8.083-5.91-9.312-11.862a7.556,7.556,0,0,1-5.032.525c-1.984-.489-5.446-2.313-6.231-9.01a41.055,41.055,0,0,1,3.473-19.827,10.763,10.763,0,0,1-5.734-3.212,8.247,8.247,0,0,1-1.481-8.652c2.1-5.549,9.033-9.681,19.085-11.411,2.78-5.24,8.381-9.492,14.857-11.218C726.26-39.109,737.125-40,748.4-29.635c9.71,8.915,10.51,18.979,9.473,25.851a35.43,35.43,0,0,1-3.1,9.921,11.482,11.482,0,0,0,6.625,4.076c3.1.559,6.164-.6,9.119-3.447,3.681-3.546,6.034-8.031,8.311-12.368,2.874-5.481,5.841-11.137,11.414-14.094a7.482,7.482,0,0,1,2.058-5.761,9.624,9.624,0,0,1,6.571-2.872,9.54,9.54,0,0,1,3.368-2.434,11.834,11.834,0,0,1,11.946,1.61,10.368,10.368,0,0,1,3.607,6.736,10.5,10.5,0,0,1,2.608,1.764c2.556,2.337,4.584,6.521,3.349,10.6a8.7,8.7,0,0,1-3.375,4.588,14.4,14.4,0,0,1,.048,6.7,4.683,4.683,0,0,1-2.277,2.85,4.7,4.7,0,0,1-3.137.467,13.7,13.7,0,0,1-.472,1.967,8.3,8.3,0,0,1-4.411,4.955c.776,5.069,1.378,12.079-.4,19.107C806.983,41.457,799.673,48.719,788,52.178c-6.094,9.977-24.737,19.657-39.753,20.712a76.571,76.571,0,0,0-.7,7.707l1.13.184c7.076,1.149,15.07,2.447,18.35,8.214a4.666,4.666,0,0,1-8.112,4.613,2.874,2.874,0,0,0-1.185-.957,11.63,11.63,0,0,1,1.486,7.094,4.668,4.668,0,0,1-4.626,4.14ZM733.164,84.82c1.859,0,4.327.195,7.586.51a1.82,1.82,0,0,1,.875.325c.492.348,1.006.7,1.542,1.068,4.893,3.37,10.954,7.544,10.4,12.379a1.022,1.022,0,0,0,.7,1.089,1.188,1.188,0,0,0,.223.046.983.983,0,0,0,.724-.219,1.021,1.021,0,0,0,.38-.686c.335-2.936-1.057-5.846-4.257-8.9a1.821,1.821,0,0,1,1.636-3.1c5.162,1.1,7.97,2.479,9.1,4.472a1.023,1.023,0,1,0,1.78-1.01c-2.418-4.249-9.5-5.4-15.743-6.414-.952-.154-1.852-.3-2.688-.445a1.821,1.821,0,0,1-1.508-1.7,68.646,68.646,0,0,1,.924-11.355,1.823,1.823,0,0,1,1.746-1.556c14.255-.436,33.377-10.134,38.6-19.579a1.823,1.823,0,0,1,1.1-.872c10.74-3,17.434-9.451,19.9-19.185,1.789-7.068.915-14.271.1-19.074a1.82,1.82,0,0,1,1.28-2.05,4.9,4.9,0,0,0,3.488-3.148,9.841,9.841,0,0,0,.468-3.309,1.822,1.822,0,0,1,2.5-1.743c.666.267,1.215.471,1.589.589a1.025,1.025,0,0,0,.8-.073,1.023,1.023,0,0,0,.5-.624,11.419,11.419,0,0,0-.248-5.59c-.044-.17-.09-.347-.136-.509a1.82,1.82,0,0,1,.934-2.12,5.192,5.192,0,0,0,2.8-3.147c.772-2.548-.662-5.339-2.322-6.857a6.686,6.686,0,0,0-2.443-1.451,1.819,1.819,0,0,1-1.255-1.685,6.8,6.8,0,0,0-2.4-5.257,8.183,8.183,0,0,0-8.147-1.066,5.7,5.7,0,0,0-2.445,1.959,1.809,1.809,0,0,1-1.625.788,6.065,6.065,0,0,0-4.673,1.717,3.911,3.911,0,0,0-.933,3.836,1.822,1.822,0,0,1-1.047,2.16c-5.236,2.215-8.127,7.727-10.923,13.058-2.411,4.593-4.9,9.342-9.009,13.3-3.845,3.706-7.982,5.191-12.3,4.407a15.38,15.38,0,0,1-9.621-6.472,1.821,1.821,0,0,1-.094-1.859,31.732,31.732,0,0,0,3.235-9.793c.906-6,.195-14.793-8.335-22.625-10-9.191-19.467-8.445-24.218-7.183-5.815,1.55-10.768,5.422-12.922,10.105a1.821,1.821,0,0,1-1.377,1.039c-9.089,1.4-15.509,4.862-17.174,9.253a4.651,4.651,0,0,0,.8,4.944c1.217,1.375,3.259,2.2,5.908,2.388a1.821,1.821,0,0,1,1.477.957,1.822,1.822,0,0,1-.023,1.76,37.106,37.106,0,0,0-4.208,19.929c.277,2.366,1.108,5.31,3.493,5.9,1.331.337,2.785-.128,4.452-1.413a1.821,1.821,0,0,1,2.928,1.3c.462,5.731,3.328,10.352,7.132,11.5a4.956,4.956,0,0,0,2.458.114,1.823,1.823,0,0,1,2.183,1.483,64.008,64.008,0,0,0,4.026,13.511c2.1,5.022,6.567,13.913,12.974,17.018a1.822,1.822,0,0,1,1,1.358c.674,4.3,1.441,10.454,1.6,13.89a1.822,1.822,0,0,1-.524,1.366,1.852,1.852,0,0,1-1.36.539,19.232,19.232,0,0,0-4.577.242,1.021,1.021,0,0,0-.785,1.214,1.03,1.03,0,0,0,1.221.788A13.188,13.188,0,0,1,733.164,84.82ZM707.146-24.791h0Z" transform="translate(-686.232 38.527)" fill="#ffc416"/></g></g></svg>