<svg id="open-package-yellow" xmlns="http://www.w3.org/2000/svg" width="81" height="81" viewBox="0 0 81 81">
  <circle id="Ellipse_149" data-name="Ellipse 149" cx="40.5" cy="40.5" r="40.5" fill="#ffc416"/>
  <g id="hand" transform="translate(19.18 12.467)">
    <path id="finger" d="M288.264,86c.033.165.785,4.052.977,5.327a14.715,14.715,0,0,1-1.393,8.28c-.481.85-.907,1.5-1.25,2.017-.648.987-.871,1.35-.828,1.8a8.729,8.729,0,0,1-.011,2.147.959.959,0,0,1-.762.78.942.942,0,0,1-.344,0,.959.959,0,0,1-.784-1.107,7.342,7.342,0,0,0-.008-1.641A4.531,4.531,0,0,1,285,100.566c.326-.5.733-1.114,1.182-1.908a12.927,12.927,0,0,0,1.165-7.049c-.145-.964-.644-3.587-.86-4.714l0-.007-.692-3.543c-.3-1.551-.827-4.068-1.166-5.611l-.347-1.575a2.169,2.169,0,0,0-2.337-1.662,1.626,1.626,0,0,0-1.133.689,1.76,1.76,0,0,0-.265,1.384l.761,3.6a.959.959,0,0,1-.74,1.136,1,1,0,0,1-1.136-.74L278.1,74.83a2.268,2.268,0,0,0-2.429-1.688l-.267.035a1.725,1.725,0,0,0-1.487,2.068l1,5.317a.959.959,0,0,1-.752,1.129h-.006a.959.959,0,0,1-1.123-.753L271.428,72.9a1.94,1.94,0,0,0-2.266-1.519l-.572.111a1.951,1.951,0,0,0-1.542,2.263l1.265,6.864a.959.959,0,0,1-.76,1.114l-.009,0a.959.959,0,0,1-1.117-.769L262.666,63.1a2.286,2.286,0,0,0-2.544-1.591l-.274.069a2.344,2.344,0,0,0-1.816,2.711L261.4,81.7c.3,1.555.872,4.554.872,4.554.7,3.592-.946,5.029-1.686,5.48a4.24,4.24,0,0,1-4.825-.553c-.234-.185-.526-.449-.862-.755-1.277-1.164-3.405-3.106-4.983-2.55a2.24,2.24,0,0,0-1.311,2.354c.95,1.4,10.108,12.254,11.555,13.3a11.241,11.241,0,0,0,2.654,1.509,9.9,9.9,0,0,1,4,2.172l.8.994a.959.959,0,0,1-1.5,1.2l-.8-1a9.1,9.1,0,0,0-3.082-1.543,12.451,12.451,0,0,1-3.192-1.781c-1.534-1.1-11.963-13.208-12.261-14.233a4.117,4.117,0,0,1,2.49-4.779c2.648-.957,5.323,1.484,6.92,2.937.3.269.553.5.759.667a2.359,2.359,0,0,0,2.637.421c.84-.511,1.132-1.778.8-3.476,0,0-.571-3-.872-4.555l-3.364-17.384a4.226,4.226,0,0,1,3.249-4.966l.274-.069a4.189,4.189,0,0,1,4.862,3.043l1.686,8a3.832,3.832,0,0,1,2-1.075l.571-.111a3.85,3.85,0,0,1,4.4,2.667,3.653,3.653,0,0,1,1.955-.888l.268-.035a4.206,4.206,0,0,1,4.252,2.339,3.568,3.568,0,0,1,1.99-.982,4.09,4.09,0,0,1,4.485,3.147l.347,1.575c.343,1.554.871,4.092,1.177,5.655l.588,3.007Z" transform="translate(-246.461 -49.791)" fill="#fff"/>
    <g id="blink" opacity="0.499">
      <path id="Path_596" data-name="Path 596" d="M268.873,51.62a.959.959,0,0,0-1.331.259l-2.562,3.8a.959.959,0,0,0,1.59,1.073l2.562-3.8A.96.96,0,0,0,268.873,51.62Z" transform="translate(-247.206 -49.459)" fill="#fff"/>
      <path id="Path_597" data-name="Path 597" d="M273.838,60.186l-4.5.875a.959.959,0,1,0,.365,1.882l4.5-.874a.959.959,0,0,0-.366-1.883Z" transform="translate(-247.36 -49.816)" fill="#fff"/>
      <path id="Path_598" data-name="Path 598" d="M251.727,64.484l-4.5.875a.959.959,0,1,0,.366,1.882l4.5-.874a.959.959,0,0,0-.365-1.883Z" transform="translate(-246.453 -49.993)" fill="#fff"/>
      <path id="Path_599" data-name="Path 599" d="M250.031,55.3a.959.959,0,1,0-1.072,1.59l3.8,2.562a.959.959,0,1,0,1.072-1.59Z" transform="translate(-246.538 -49.61)" fill="#fff"/>
      <path id="Path_600" data-name="Path 600" d="M258.026,49.391a.957.957,0,0,0-.759,1.124l.874,4.5a.959.959,0,0,0,1.883-.365l-.875-4.5A.958.958,0,0,0,258.026,49.391Z" transform="translate(-246.896 -49.373)" fill="#fff"/>
    </g>
  </g>
</svg>
