<svg xmlns="http://www.w3.org/2000/svg" xmlns:xlink="http://www.w3.org/1999/xlink" width="17.872" height="17.919" viewBox="0 0 17.872 17.919">
  <defs>
    <clipPath id="clip-path">
      <rect id="Rectangle_336" data-name="Rectangle 336" width="17.872" height="17.919" fill="#211e1f"/>
    </clipPath>
  </defs>
  <g id="icon-search" transform="translate(-117 -240.89)">
    <g id="Group_1501" data-name="Group 1501" transform="translate(117 240.89)">
      <g id="Group_1500" data-name="Group 1500" transform="translate(0 0)" clip-path="url(#clip-path)">
        <path id="Path_927" data-name="Path 927" d="M134.706,258l-4.341-4.341a7.623,7.623,0,1,0-.753.753l4.341,4.341a.539.539,0,0,0,.376.158.522.522,0,0,0,.376-.158.536.536,0,0,0,0-.753Zm-16.64-9.336a6.547,6.547,0,1,1,6.548,6.551,6.555,6.555,0,0,1-6.548-6.551Zm0,0" transform="translate(-117 -241.042)" fill="#211e1f"/>
      </g>
    </g>
  </g>
</svg>
