<svg xmlns="http://www.w3.org/2000/svg" xmlns:xlink="http://www.w3.org/1999/xlink" width="13.073" height="17.217" viewBox="0 0 13.073 17.217">
  <defs>
    <clipPath id="clip-path">
      <rect id="Rectangle_340" data-name="Rectangle 340" width="13.073" height="17.216" fill="#211e1f"/>
    </clipPath>
  </defs>
  <g id="icon-pointup" transform="translate(-141 -215.89)">
    <g id="Group_1517" data-name="Group 1517" transform="translate(141 215.89)">
      <g id="Group_1516" data-name="Group 1516" transform="translate(0 0)" clip-path="url(#clip-path)">
        <path id="Path_953" data-name="Path 953" d="M153.5,229.263h-.648l.6-1.5a1.631,1.631,0,0,0,.116-.6v-4.2a1.644,1.644,0,0,0-1.42-1.624h-.006l-4.352-.543v-2.839a1.742,1.742,0,0,0-3.483,0v5.916l-.824-.528a1.609,1.609,0,0,0-1.941,2.553l3.319,2.973.159.4h-.3a.571.571,0,0,0-.571.571V232.8a.571.571,0,0,0,.571.571H153.5a.571.571,0,0,0,.571-.571v-2.967a.571.571,0,0,0-.571-.571Zm-11.2-4.222a.467.467,0,0,1,.564-.741l1.7,1.091a.571.571,0,0,0,.879-.481v-6.96a.6.6,0,0,1,1.2,0v3.343a.571.571,0,0,0,.5.566l4.849.605a.5.5,0,0,1,.428.492v4.2a.5.5,0,0,1-.035.183l-.764,1.922h-5.38l-.375-.945a.571.571,0,0,0-.15-.215Zm10.629,7.19h-7.642V230.4h7.642Zm0,0" transform="translate(-140.999 -216.196)" fill="#211e1f"/>
      </g>
    </g>
  </g>
</svg>
