<svg xmlns="http://www.w3.org/2000/svg" width="24.584" height="13.733" viewBox="0 0 24.584 13.733">
  <g id="ico_meal" transform="translate(0 0)">
    <g id="Group_1560" data-name="Group 1560" transform="translate(0 4.373)">
      <g id="Group_1559" data-name="Group 1559">
        <path id="Path_996" data-name="Path 996" d="M18.188,211.434a6.155,6.155,0,1,0-11.792,0H0v1.44H24.584v-1.44Zm-1.523,0H7.919a4.664,4.664,0,0,1-.341-1.764,4.714,4.714,0,0,1,9.428,0A4.664,4.664,0,0,1,16.665,211.434Z" transform="translate(0 -203.515)" fill="#211e1f"/>
      </g>
    </g>
    <g id="Group_1562" data-name="Group 1562" transform="translate(11.967 0)">
      <g id="Group_1561" data-name="Group 1561" transform="translate(0 0)">
        <rect id="Rectangle_343" data-name="Rectangle 343" width="0.884" height="2.652" transform="translate(0 0)" fill="#211e1f"/>
      </g>
    </g>
    <g id="Group_1564" data-name="Group 1564" transform="translate(15.467 1.099)">
      <g id="Group_1563" data-name="Group 1563" transform="translate(0 0)">
        <rect id="Rectangle_344" data-name="Rectangle 344" width="2.881" height="1.44" transform="matrix(0.5, -0.866, 0.866, 0.5, 0, 2.494)" fill="#211e1f"/>
      </g>
    </g>
    <g id="Group_1566" data-name="Group 1566" transform="translate(18.509 4.673)">
      <g id="Group_1565" data-name="Group 1565" transform="translate(0 0)">
        <rect id="Rectangle_345" data-name="Rectangle 345" width="2.881" height="1.44" transform="matrix(0.866, -0.499, 0.499, 0.866, 0, 1.438)" fill="#211e1f"/>
      </g>
    </g>
    <g id="Group_1568" data-name="Group 1568" transform="translate(19.884 9.816)">
      <g id="Group_1567" data-name="Group 1567" transform="translate(0 0)">
        <rect id="Rectangle_346" data-name="Rectangle 346" width="1.44" height="2.881" transform="translate(0 1.44) rotate(-89.931)" fill="#211e1f"/>
      </g>
    </g>
    <g id="Group_1570" data-name="Group 1570" transform="translate(6.386 1.099)">
      <g id="Group_1569" data-name="Group 1569" transform="translate(0 0)">
        <rect id="Rectangle_347" data-name="Rectangle 347" width="1.44" height="2.881" transform="translate(0 0.721) rotate(-30.021)" fill="#211e1f"/>
      </g>
    </g>
    <g id="Group_1572" data-name="Group 1572" transform="translate(2.816 4.674)">
      <g id="Group_1571" data-name="Group 1571" transform="translate(0 0)">
        <rect id="Rectangle_348" data-name="Rectangle 348" width="1.44" height="2.881" transform="matrix(0.499, -0.866, 0.866, 0.499, 0, 1.248)" fill="#211e1f"/>
      </g>
    </g>
    <g id="Group_1574" data-name="Group 1574" transform="translate(1.776 9.817)">
      <g id="Group_1573" data-name="Group 1573" transform="translate(0 0)">
        <rect id="Rectangle_349" data-name="Rectangle 349" width="2.881" height="1.44" transform="translate(0 0.003) rotate(-0.069)" fill="#211e1f"/>
      </g>
    </g>
  </g>
</svg>
