<svg xmlns="http://www.w3.org/2000/svg" width="18" height="14.619" viewBox="0 0 18 14.619">
  <path id="icon-twitter" d="M16.15-10.416A7.93,7.93,0,0,0,18-12.324a7.4,7.4,0,0,1-2.124.571A3.679,3.679,0,0,0,17.5-13.785a7.263,7.263,0,0,1-2.341.891,3.68,3.68,0,0,0-2.7-1.165,3.687,3.687,0,0,0-3.689,3.689,4.164,4.164,0,0,0,.091.845,10.486,10.486,0,0,1-7.607-3.86,3.661,3.661,0,0,0-.5,1.862A3.686,3.686,0,0,0,2.4-8.452,3.715,3.715,0,0,1,.731-8.92v.046A3.69,3.69,0,0,0,3.689-5.254a3.9,3.9,0,0,1-.971.126,4.65,4.65,0,0,1-.7-.057A3.7,3.7,0,0,0,5.471-2.627,7.388,7.388,0,0,1,.891-1.051,7.635,7.635,0,0,1,0-1.1,10.425,10.425,0,0,0,5.665.56a10.424,10.424,0,0,0,10.5-10.5C16.161-10.1,16.161-10.256,16.15-10.416Z" transform="translate(0 14.06)" fill="#211e1f"/>
</svg>
