<svg xmlns="http://www.w3.org/2000/svg" width="17.834" height="16.715" viewBox="0 0 17.834 16.715">
  <g id="icon-store" transform="translate(0 -16)">
    <path fill="#FFC416" id="Path_1032" data-name="Path 1032" d="M284.489,304.52h-2.8a.523.523,0,0,0-.522.522v2.822a.523.523,0,0,0,.522.522h2.8a.523.523,0,0,0,.522-.522v-2.822A.523.523,0,0,0,284.489,304.52Zm-.522,2.822h-1.753v-1.777h1.753Z" transform="translate(-271.374 -278.47)"/>
    <path fill="#FFC416" id="Path_1033" data-name="Path 1033" d="M17.814,20.3l-.735-2.572A2.484,2.484,0,0,0,14.793,16H3.041A2.484,2.484,0,0,0,.755,17.724L.02,20.3A.522.522,0,0,0,0,20.44v1.679a2.2,2.2,0,0,0,1.4,2.05v6.625a1.924,1.924,0,0,0,1.922,1.922H14.513a1.924,1.924,0,0,0,1.922-1.922V24.168a2.2,2.2,0,0,0,1.4-2.05V20.44A.522.522,0,0,0,17.814,20.3ZM1.76,18.011a1.452,1.452,0,0,1,1.281-.966H14.793a1.452,1.452,0,0,1,1.281.966l.545,1.906H1.215ZM4.4,20.963H6.716v1.156a1.156,1.156,0,1,1-2.313,0Zm3.358,0h2.313v1.156a1.156,1.156,0,1,1-2.313,0Zm3.358,0h2.313v1.156a1.156,1.156,0,1,1-2.313,0ZM1.045,22.119V20.963H3.358v1.156a1.156,1.156,0,1,1-2.313,0Zm4.2,9.551V28.518H7V31.67Zm9.271,0H8.041V28a.523.523,0,0,0-.522-.522H4.72A.523.523,0,0,0,4.2,28V31.67H3.321a.878.878,0,0,1-.877-.877V24.307A2.2,2.2,0,0,0,3.88,23.54a2.2,2.2,0,0,0,3.358,0,2.2,2.2,0,0,0,3.358,0,2.2,2.2,0,0,0,3.358,0,2.2,2.2,0,0,0,1.436.766v6.487A.877.877,0,0,1,14.513,31.67Zm1.119-8.395a1.158,1.158,0,0,1-1.156-1.156V20.963h2.313v1.156A1.158,1.158,0,0,1,15.633,23.275Z" transform="translate(0)"/>
  </g>
</svg>
