<svg xmlns="http://www.w3.org/2000/svg" width="15.165" height="19.061" viewBox="0 0 15.165 19.061">
  <path id="icon-egg" d="M632.732,177.894a7.619,7.619,0,0,1-5.35-1.926,7.841,7.841,0,0,1-2.232-5.9c0-5.2,3.312-11.239,7.583-11.239s7.583,6.041,7.583,11.239a7.841,7.841,0,0,1-2.232,5.9A7.619,7.619,0,0,1,632.732,177.894Zm0-17.994a4.106,4.106,0,0,0-2.429.871,8.428,8.428,0,0,0-2.1,2.366,13.708,13.708,0,0,0-1.984,6.934,6.81,6.81,0,0,0,1.9,5.119,7.337,7.337,0,0,0,9.237,0,6.81,6.81,0,0,0,1.9-5.119,13.708,13.708,0,0,0-1.984-6.934,8.428,8.428,0,0,0-2.1-2.366A4.106,4.106,0,0,0,632.732,159.9Z" transform="translate(-625.149 -158.833)" fill="#FFC416"/>
</svg>
