<svg xmlns="http://www.w3.org/2000/svg" xmlns:xlink="http://www.w3.org/1999/xlink" width="86.501" height="82.981" viewBox="0 0 86.501 82.981">
  <defs>
    <filter id="Path_728" x="0" y="0" width="86.501" height="82.981" filterUnits="userSpaceOnUse">
      <feOffset dx="-2.835" input="SourceAlpha"/>
      <feGaussianBlur stdDeviation="2.835" result="blur"/>
      <feFlood flood-color="#221f1f" flood-opacity="0.039"/>
      <feComposite operator="in" in2="blur"/>
      <feComposite in="SourceGraphic"/>
    </filter>
    <filter id="Path_729" x="0" y="0" width="86.501" height="82.981" filterUnits="userSpaceOnUse">
      <feOffset dx="-2.835" input="SourceAlpha"/>
      <feGaussianBlur stdDeviation="2.835" result="blur-2"/>
      <feFlood flood-color="#221f1f" flood-opacity="0.039"/>
      <feComposite operator="in" in2="blur-2"/>
      <feComposite in="SourceGraphic"/>
    </filter>
  </defs>
  <g id="ready_to_eat_pc" transform="translate(11.339 8.504)">
    <g id="Group_1303" data-name="Group 1303" transform="translate(0 0)">
      <g transform="matrix(1, 0, 0, 1, -11.34, -8.5)" filter="url(#Path_728)">
        <path id="Path_728-2" data-name="Path 728" d="M1040.375,54.089c-.006,8.709-.137,18.719-.178,33.993h-35.941a44.012,44.012,0,0,1-23.424-7.343c-6.535-5.186-9.945-13.973-9.945-23.543V46.584A23.621,23.621,0,0,1,986.68,24.2a38.405,38.405,0,0,1,8.813-1.839c3.725-.083,7.23-.137,10.58-.184l2.852-.036c.962-.012,1.913-.018,2.863-.03a28.363,28.363,0,0,1,28.587,28.26v.285C1040.381,51.784,1040.381,52.925,1040.375,54.089Z" transform="translate(-959.55 -13.61)" fill="#ffc416"/>
      </g>
      <g transform="matrix(1, 0, 0, 1, -11.34, -8.5)" filter="url(#Path_729)">
        <path id="Path_729-2" data-name="Path 729" d="M1040.375,54.089c-.006,8.709-.137,18.719-.178,33.993h-35.941a44.012,44.012,0,0,1-23.424-7.343c-6.535-5.186-9.945-13.973-9.945-23.543V46.584A23.621,23.621,0,0,1,986.68,24.2a38.405,38.405,0,0,1,8.813-1.839c3.725-.083,7.23-.137,10.58-.184l2.852-.036c.962-.012,1.913-.018,2.863-.03a28.363,28.363,0,0,1,28.587,28.26v.285C1040.381,51.784,1040.381,52.925,1040.375,54.089Z" transform="translate(-959.55 -13.61)" fill="#fff"/>
      </g>
    </g>
    <g id="Group_1311" data-name="Group 1311" transform="translate(4.027 15.369)">
      <g id="Group_1304" data-name="Group 1304">
        <path id="Path_730" data-name="Path 730" d="M999.933,54.07a.349.349,0,0,0,.493-.042l3.3-3.918a.35.35,0,0,0-.535-.45l-3.3,3.917A.349.349,0,0,0,999.933,54.07Z" transform="translate(-986.654 -48.611)" fill="#ffc416"/>
        <path id="Path_731" data-name="Path 731" d="M1001.724,55.556a.35.35,0,0,0,.492-.042l3.3-3.917a.35.35,0,0,0-.535-.451l-3.3,3.918A.35.35,0,0,0,1001.724,55.556Z" transform="translate(-987.381 -49.214)" fill="#ffc416"/>
        <path id="Path_732" data-name="Path 732" d="M994.338,58.194l4.1-4.864a.35.35,0,0,0-.535-.45l-4.1,4.863a1.855,1.855,0,0,1-2.07.54.348.348,0,0,0-.4.118l-1.376,1.845,0,0v0L984,68.226l0,.007c-.02.027-.038.051-.057.074a1.118,1.118,0,1,1-1.71-1.442.928.928,0,0,1,.063-.068l.005-.005,3.8-4a.349.349,0,0,0-.507-.481l-3.8,4c-.036.037-.069.072-.1.108a1.817,1.817,0,0,0,2.779,2.342c.031-.036.06-.074.09-.116l4.533-6.077,5.5,5.223c.037.036.072.068.108.1a1.817,1.817,0,0,0,2.342-2.778c-.036-.031-.074-.06-.116-.09l-6.207-4.63,1.021-1.368A2.558,2.558,0,0,0,994.338,58.194Zm2.176,7.384.006,0c.027.02.051.039.074.058a1.118,1.118,0,1,1-1.441,1.71c-.023-.019-.045-.039-.069-.063l-.005-.005L989.519,62l.785-1.053Z" transform="translate(-979.128 -49.918)" fill="#ffc416"/>
        <path id="Path_733" data-name="Path 733" d="M984.481,57.627l1.439,1.367a.349.349,0,0,0,.494-.012l2.865-3.016a.349.349,0,0,0,.048-.418,1.854,1.854,0,0,1,.182-2.131l4.1-4.864a.349.349,0,0,0-.534-.45l-4.1,4.864a2.556,2.556,0,0,0-.372,2.7l-1.275,1.341L985.9,55.943a3.515,3.515,0,0,0-1-4.018,7.962,7.962,0,0,0-3.7-1.839,2.753,2.753,0,0,0-3.285,3.9,7.953,7.953,0,0,0,2.44,3.339A3.513,3.513,0,0,0,984.481,57.627Zm-5.7-6.247a2.4,2.4,0,0,1,2.306-.605,7.255,7.255,0,0,1,3.367,1.684,2.818,2.818,0,0,1,.7,3.438.35.35,0,0,0,.1.437l1.584,1.182-.695.731-1.389-1.319a.349.349,0,0,0-.449-.028,2.819,2.819,0,0,1-3.507-.111,7.25,7.25,0,0,1-2.23-3.033A2.393,2.393,0,0,1,978.779,51.381Z" transform="translate(-977.665 -47.979)" fill="#ffc416"/>
      </g>
      <g id="Group_1306" data-name="Group 1306" transform="translate(20.431 4.942)">
        <g id="Group_1305" data-name="Group 1305">
          <path id="Path_734" data-name="Path 734" d="M1013.345,62.615c-.085,1.753-.127,2.629-.211,4.377a.78.78,0,0,1-.055.261.562.562,0,0,1-.125.19.506.506,0,0,1-.178.112.458.458,0,0,1-.211.024.5.5,0,0,1-.207-.071.608.608,0,0,1-.165-.15.633.633,0,0,1-.106-.215.82.82,0,0,1-.03-.268c.189-3.968.283-5.959.472-9.951a.734.734,0,0,1,.055-.25.656.656,0,0,1,.125-.2.563.563,0,0,1,.178-.132.449.449,0,0,1,.211-.043l2.07.08a6.309,6.309,0,0,1,1.378.19,2.388,2.388,0,0,1,1.027.545,2.223,2.223,0,0,1,.606,1.031,4.808,4.808,0,0,1,.118,1.644,3.533,3.533,0,0,1-.184.942,2.5,2.5,0,0,1-.409.751,1.94,1.94,0,0,1-.613.5,1.853,1.853,0,0,1-.789.2,2.189,2.189,0,0,1,.7.234,1.613,1.613,0,0,1,.743.87,2.838,2.838,0,0,1,.14.562,4.537,4.537,0,0,1,.043.6q0,.308-.008.607a6.98,6.98,0,0,0,.02.867q.035.357.087.621t.1.459a1.936,1.936,0,0,1,.057.375.943.943,0,0,1-.051.375.615.615,0,0,1-.159.241.567.567,0,0,1-.223.124.637.637,0,0,1-.242.021.519.519,0,0,1-.281-.11.722.722,0,0,1-.182-.226,1.158,1.158,0,0,1-.1-.3,2.826,2.826,0,0,1-.05-.325,3.046,3.046,0,0,1-.012-.307c0-.1,0-.181.007-.25a10.082,10.082,0,0,0-.164-2.811c-.167-.641-.465-.976-.9-1.009C1014.832,62.732,1014.336,62.694,1013.345,62.615Zm.052-1.116,1.781.127q.134.009.328,0a1.979,1.979,0,0,0,.413-.059,1.78,1.78,0,0,0,.439-.176,1.346,1.346,0,0,0,.4-.348,1.943,1.943,0,0,0,.3-.576,2.96,2.96,0,0,0,.14-.858,2.866,2.866,0,0,0-.08-.835,1.874,1.874,0,0,0-.253-.574,1.276,1.276,0,0,0-.371-.364,1.881,1.881,0,0,0-.441-.2,2.224,2.224,0,0,0-.453-.091c-.15-.014-.286-.024-.411-.029l-1.6-.072C1013.513,59.068,1013.474,59.879,1013.4,61.5Z" transform="translate(-1012.056 -56.297)" fill="#ffc416" stroke="#ffc416" stroke-width="0.5"/>
          <path id="Path_735" data-name="Path 735" d="M1027.689,63.1c-.078,1.744-.118,2.615-.2,4.355,1.417.132,2.126.2,3.543.324a.423.423,0,0,1,.33.207.734.734,0,0,1,.11.443.669.669,0,0,1-.147.416.383.383,0,0,1-.346.141c-1.633-.158-2.449-.239-4.082-.405a.441.441,0,0,1-.206-.075.6.6,0,0,1-.165-.163.766.766,0,0,1-.106-.228.81.81,0,0,1-.03-.267c.188-4.144.283-6.222.472-10.39a.827.827,0,0,1,.054-.264.733.733,0,0,1,.126-.214.571.571,0,0,1,.178-.142.445.445,0,0,1,.211-.048c1.625.048,2.438.07,4.062.109a.393.393,0,0,1,.33.185.788.788,0,0,1-.037.864.4.4,0,0,1-.346.163c-1.41-.045-2.114-.068-3.524-.119-.071,1.572-.106,2.357-.177,3.925,1.313.078,1.971.116,3.285.19a.407.407,0,0,1,.33.195.723.723,0,0,1,.11.439.692.692,0,0,1-.148.421.394.394,0,0,1-.346.152C1029.659,63.233,1029,63.191,1027.689,63.1Z" transform="translate(-1017.876 -56.498)" fill="#ffc416" stroke="#ffc416" stroke-width="0.5"/>
          <path id="Path_736" data-name="Path 736" d="M1042.06,66.153c-1.254-.085-1.88-.128-3.134-.218-.31,1.227-.465,1.837-.775,3.053a.747.747,0,0,1-.114.261.563.563,0,0,1-.177.162.447.447,0,0,1-.213.062.436.436,0,0,1-.222-.053.615.615,0,0,1-.192-.159.771.771,0,0,1-.128-.229.927.927,0,0,1-.053-.274.891.891,0,0,1,.035-.29c1.167-4.194,1.75-6.328,2.914-10.673a1.382,1.382,0,0,1,.209-.469.412.412,0,0,1,.357-.181l.694.012a.389.389,0,0,1,.341.2,1.345,1.345,0,0,1,.169.481c.783,4.433,1.175,6.674,1.96,11.2a1.069,1.069,0,0,1,.007.3.894.894,0,0,1-.073.273.716.716,0,0,1-.148.213.542.542,0,0,1-.2.128.41.41,0,0,1-.225.014.478.478,0,0,1-.2-.1.67.67,0,0,1-.16-.2.97.97,0,0,1-.1-.283C1042.4,68.087,1042.288,67.441,1042.06,66.153Zm-1.04-6.544-.157-1.453-.3,1.438c-.525,2.047-.788,3.062-1.313,5.078,1.05.067,1.576.1,2.626.163C1041.534,62.735,1041.363,61.69,1041.019,59.61Z" transform="translate(-1022.202 -56.642)" fill="#ffc416" stroke="#ffc416" stroke-width="0.5"/>
          <path id="Path_737" data-name="Path 737" d="M1051.826,70.158a.413.413,0,0,1-.207-.076.616.616,0,0,1-.165-.173.867.867,0,0,1-.106-.245,1.014,1.014,0,0,1-.031-.291c.184-4.523.276-6.79.459-11.337a1,1,0,0,1,.054-.289.855.855,0,0,1,.125-.235.612.612,0,0,1,.178-.159.407.407,0,0,1,.211-.056c.886.01,1.328.014,2.214.021a3.055,3.055,0,0,1,1.3.265,2.517,2.517,0,0,1,.9.716,3.477,3.477,0,0,1,.561,1.082,7.424,7.424,0,0,1,.3,1.362,12.9,12.9,0,0,1,.1,1.555q.006.818-.025,1.656-.031.814-.115,1.619a13.782,13.782,0,0,1-.247,1.537,8.125,8.125,0,0,1-.418,1.35,3.925,3.925,0,0,1-.631,1.059,2.437,2.437,0,0,1-.884.664,2.4,2.4,0,0,1-1.174.171C1053.267,70.277,1052.786,70.238,1051.826,70.158Zm.59-1.218,1.8.134a1.58,1.58,0,0,0,1.025-.239,2.057,2.057,0,0,0,.7-.942,7.022,7.022,0,0,0,.432-1.709,24.368,24.368,0,0,0,.209-2.534q.014-.36.021-.72c0-.24.007-.473,0-.7s-.007-.438-.016-.636-.022-.376-.039-.532a5.325,5.325,0,0,0-.212-1.035,2.532,2.532,0,0,0-.38-.761,1.568,1.568,0,0,0-.567-.472,1.8,1.8,0,0,0-.772-.169l-1.8-.03C1052.665,62.743,1052.582,64.812,1052.416,68.94Z" transform="translate(-1027.993 -56.703)" fill="#ffc416" stroke="#ffc416" stroke-width="0.5"/>
          <path id="Path_738" data-name="Path 738" d="M1068.6,65.668c-.065,1.845-.1,2.766-.165,4.607a1.137,1.137,0,0,1-.054.32.77.77,0,0,1-.125.239.565.565,0,0,1-.178.147.4.4,0,0,1-.211.043.416.416,0,0,1-.207-.073.608.608,0,0,1-.166-.171.818.818,0,0,1-.108-.254,1.184,1.184,0,0,1-.03-.324c.066-1.831.1-2.747.166-4.581-.945-2.989-1.416-4.466-2.357-7.385a1.025,1.025,0,0,1-.045-.29,1.044,1.044,0,0,1,.035-.282.917.917,0,0,1,.107-.25.656.656,0,0,1,.172-.193.418.418,0,0,1,.2-.073.363.363,0,0,1,.2.035.476.476,0,0,1,.168.142.758.758,0,0,1,.118.239c.8,2.609,1.2,3.926,2,6.588.99-2.6,1.484-3.917,2.471-6.589a.856.856,0,0,1,.135-.245.528.528,0,0,1,.178-.146.374.374,0,0,1,.2-.037.39.39,0,0,1,.2.075.6.6,0,0,1,.157.2.917.917,0,0,1,.089.259,1.129,1.129,0,0,1-.052.591C1070.333,61.27,1069.754,62.751,1068.6,65.668Z" transform="translate(-1033.595 -56.637)" fill="#ffc416" stroke="#ffc416" stroke-width="0.5"/>
        </g>
      </g>
      <g id="Group_1308" data-name="Group 1308" transform="translate(9.003 22.3)">
        <g id="Group_1307" data-name="Group 1307">
          <path id="Path_739" data-name="Path 739" d="M993.368,86.957a.493.493,0,0,1-.39-.156.582.582,0,0,1-.158-.4.6.6,0,0,1,.138-.413.5.5,0,0,1,.386-.18c2.451-.071,3.677-.087,6.133-.08a.478.478,0,0,1,.386.175.614.614,0,0,1,.137.424.631.631,0,0,1-.16.418.5.5,0,0,1-.392.167c-.967-.008-1.45-.01-2.416-.005-.026,3.984-.045,5.98-.091,9.977a.812.812,0,0,1-.048.276.6.6,0,0,1-.125.207.559.559,0,0,1-.182.13.5.5,0,0,1-.221.04.513.513,0,0,1-.221-.061.629.629,0,0,1-.18-.144.662.662,0,0,1-.121-.217.826.826,0,0,1-.044-.279c.01-3.974.01-5.958,0-9.919C994.828,86.925,994.341,86.933,993.368,86.957Z" transform="translate(-992.82 -85.601)" fill="#ffc416" stroke="#ffc416" stroke-width="0.5"/>
          <path id="Path_740" data-name="Path 740" d="M1007.45,91.38c.018-.457.054-.923.1-1.393a10.138,10.138,0,0,1,.236-1.362,6.32,6.32,0,0,1,.439-1.233,3.484,3.484,0,0,1,.716-1,3.1,3.1,0,0,1,1.061-.662,3.754,3.754,0,0,1,1.468-.21,3.412,3.412,0,0,1,1.4.311,2.751,2.751,0,0,1,.946.746,3.278,3.278,0,0,1,.566,1.076,6.5,6.5,0,0,1,.264,1.3,10.388,10.388,0,0,1,.044,1.422c-.018.488-.048.97-.094,1.441-.056.569-.129,1.132-.213,1.685a14.133,14.133,0,0,1-.327,1.567,7.938,7.938,0,0,1-.493,1.344,3.737,3.737,0,0,1-.71,1.028,2.616,2.616,0,0,1-.983.623,3.029,3.029,0,0,1-1.317.131,3.161,3.161,0,0,1-1.281-.372,2.8,2.8,0,0,1-.882-.78,3.832,3.832,0,0,1-.556-1.109,7.732,7.732,0,0,1-.3-1.366,13.414,13.414,0,0,1-.108-1.544C1007.423,92.485,1007.428,91.935,1007.45,91.38Zm5.894.37a16.863,16.863,0,0,0,.071-1.921,5.639,5.639,0,0,0-.238-1.578,2.419,2.419,0,0,0-.661-1.085,1.8,1.8,0,0,0-1.183-.434,1.835,1.835,0,0,0-1.2.336,2.605,2.605,0,0,0-.788,1.008,5.842,5.842,0,0,0-.451,1.515,15.7,15.7,0,0,0-.19,1.873c-.041.867-.059,1.641-.041,2.309a6.672,6.672,0,0,0,.23,1.691,2.277,2.277,0,0,0,.62,1.069,1.876,1.876,0,0,0,1.134.443,1.793,1.793,0,0,0,1.174-.244,2.22,2.22,0,0,0,.768-.969,6.777,6.777,0,0,0,.473-1.671C1013.172,93.421,1013.266,92.638,1013.344,91.75Z" transform="translate(-998.749 -85.517)" fill="#ffc416" stroke="#ffc416" stroke-width="0.5"/>
        </g>
      </g>
      <g id="Group_1310" data-name="Group 1310" transform="translate(30.055 22.228)">
        <g id="Group_1309" data-name="Group 1309">
          <path id="Path_741" data-name="Path 741" d="M1030.24,93.23c.042,1.581.064,2.371.106,3.951,1.791.115,2.687.169,4.479.266a.787.787,0,0,1,.316.08.816.816,0,0,1,.241.181.829.829,0,0,1,.158.258.888.888,0,0,1,.059.311.843.843,0,0,1-.048.3.62.62,0,0,1-.15.24.7.7,0,0,1-.239.152.716.716,0,0,1-.312.042c-2.133-.146-3.2-.226-5.329-.4a.952.952,0,0,1-.362-.1,1.084,1.084,0,0,1-.5-.519.914.914,0,0,1-.084-.351c-.127-4-.191-6-.318-10a.814.814,0,0,1,.064-.346.874.874,0,0,1,.2-.29,1.061,1.061,0,0,1,.3-.2.907.907,0,0,1,.359-.084c2.184-.066,3.276-.105,5.458-.2a.784.784,0,0,1,.323.049.687.687,0,0,1,.247.164.778.778,0,0,1,.162.25.824.824,0,0,1,.061.3.882.882,0,0,1-.049.309.77.77,0,0,1-.154.26.743.743,0,0,1-.244.182.791.791,0,0,1-.32.072c-1.82.052-2.73.072-4.551.106.037,1.393.056,2.088.093,3.48,1.681.023,2.521.03,4.2.037a.78.78,0,0,1,.32.065.715.715,0,0,1,.245.175.848.848,0,0,1,.22.562.887.887,0,0,1-.048.308.689.689,0,0,1-.153.253.751.751,0,0,1-.241.169.717.717,0,0,1-.317.061C1032.751,93.3,1031.914,93.276,1030.24,93.23Z" transform="translate(-1028.257 -85.851)" fill="#ffc416" stroke="#ffc416" stroke-width="1"/>
          <path id="Path_742" data-name="Path 742" d="M1051.821,98.2a1.242,1.242,0,0,1,.03.422,1.081,1.081,0,0,1-.11.383,1.046,1.046,0,0,1-.235.305.8.8,0,0,1-.333.181.877.877,0,0,1-.37.022.9.9,0,0,1-.34-.127,1.02,1.02,0,0,1-.278-.267,1.148,1.148,0,0,1-.179-.4c-.317-1.242-.477-1.859-.8-3.085-1.534-.03-2.3-.048-3.835-.091-.3,1.178-.453,1.763-.752,2.924a.872.872,0,0,1-.169.358.808.808,0,0,1-.274.22.785.785,0,0,1-.339.081,1,1,0,0,1-.364-.063.974.974,0,0,1-.33-.2,1.034,1.034,0,0,1-.229-.3,1.06,1.06,0,0,1-.109-.364,1.028,1.028,0,0,1,.027-.385c1.218-4.314,1.842-6.534,3.116-11.1a.915.915,0,0,1,.391-.569,1.482,1.482,0,0,1,.691-.192l.525-.03a2.423,2.423,0,0,1,.372.007.908.908,0,0,1,.34.1.9.9,0,0,1,.286.246,1.237,1.237,0,0,1,.2.44C1050.009,91.2,1050.621,93.5,1051.821,98.2Zm-4.4-9.61c-.05-.226-.075-.34-.125-.566-.037.229-.057.344-.094.573-.549,2.1-.821,3.141-1.359,5.193,1.182.014,1.773.019,2.955.025C1048.254,91.7,1047.979,90.658,1047.423,88.59Z" transform="translate(-1034.16 -85.611)" fill="#ffc416" stroke="#ffc416" stroke-width="1"/>
          <path id="Path_743" data-name="Path 743" d="M1062.127,87.244c-1.045-.051-1.567-.079-2.612-.076a.721.721,0,0,1-.565-.255.811.811,0,0,1-.156-.275,1.064,1.064,0,0,1,.008-.674.953.953,0,0,1,.16-.287.754.754,0,0,1,.245-.2.723.723,0,0,1,.322-.077c2.806-.047,4.208.26,7.009.132a.682.682,0,0,1,.32.056.667.667,0,0,1,.24.187.9.9,0,0,1,.152.285,1.052,1.052,0,0,1,.05.35,1.191,1.191,0,0,1-.06.356.982.982,0,0,1-.163.3.813.813,0,0,1-.25.21.705.705,0,0,1-.321.083c-1.022.031-1.533.012-2.556-.029-.068,4.535-.1,6.585-.169,11.154a1.229,1.229,0,0,1-.076.425.991.991,0,0,1-.2.321.838.838,0,0,1-.288.2.82.82,0,0,1-.35.064.85.85,0,0,1-.349-.088.869.869,0,0,1-.28-.22,1.062,1.062,0,0,1-.185-.331,1.232,1.232,0,0,1-.065-.427C1062.044,93.884,1062.072,91.768,1062.127,87.244Z" transform="translate(-1040.632 -85.395)" fill="#ffc416" stroke="#ffc416" stroke-width="1"/>
        </g>
      </g>
    </g>
  </g>
</svg>
