<svg xmlns="http://www.w3.org/2000/svg" width="161.883" height="71.025" viewBox="0 0 161.883 71.025">
  <g id="akara-eggolofy-logo" transform="translate(-136.99 -246.89)">
    <g id="Group_1476" data-name="Group 1476" transform="translate(146.877 290.761)">
      <g id="Group_1474" data-name="Group 1474" transform="translate(22.327 2.105)">
        <g id="Group_1440" data-name="Group 1440" transform="translate(0 0.373)">
          <g id="Group_1435" data-name="Group 1435">
            <path id="Path_830" data-name="Path 830" d="M201.311,345.3l0,4.431a3.364,3.364,0,0,1-1.026,2.524l10.111,0,.892-2.986-.829,0-.3.61h-6.118l0-4.267h1.132a.769.769,0,0,1,.767.812h.618V345.3l0-.834v-1.122l-.616,0a.772.772,0,0,1-.771.811l-1.13,0,.006-4.27,6.116,0,.3.614h.828l-.888-2.984-10.11,0a3.361,3.361,0,0,1,1.023,2.525l0,4.43Z" transform="translate(-199.765 -336.997)" fill="#fff"/>
            <path id="Path_831" data-name="Path 831" d="M209.91,352.294h0l-10.111,0a.517.517,0,0,1-.328-.916,2.851,2.851,0,0,0,.837-2.124l0-4.432h0l.006-5.261a2.849,2.849,0,0,0-.838-2.128.518.518,0,0,1,.332-.913h0l10.11,0a.517.517,0,0,1,.5.369l.888,2.984a.517.517,0,0,1-.5.665h-.828a.517.517,0,0,1-.464-.289l-.159-.324-5.277,0,0,3.236h.612c.125,0,.16-.036.171-.048a.442.442,0,0,0,.082-.238.517.517,0,0,1,.517-.526h0l.616,0a.517.517,0,0,1,.516.517l0,3.083a.517.517,0,0,1-.517.517h-.618a.517.517,0,0,1-.517-.527c0-.284-.17-.284-.25-.284h-.615l0,3.233h5.28l.161-.323a.517.517,0,0,1,.462-.287l.829,0h0a.518.518,0,0,1,.5.666l-.892,2.986A.518.518,0,0,1,209.91,352.294Zm-9.069-1.036,8.683,0,.425-1.422a.519.519,0,0,1-.279.082h-6.118a.517.517,0,0,1-.517-.518l0-4.267a.518.518,0,0,1,.517-.517h1.132a1.241,1.241,0,0,1,.868.318l0-1.064a1.243,1.243,0,0,1-.87.319l-1.13,0a.517.517,0,0,1-.517-.518l.006-4.27a.517.517,0,0,1,.517-.516h0l6.116,0a.515.515,0,0,1,.277.081l-.421-1.416-8.683,0a4.133,4.133,0,0,1,.5,2.008l-.009,9.694A4.134,4.134,0,0,1,200.841,351.257Z" transform="translate(-199.282 -336.515)" fill="#fff"/>
          </g>
          <g id="Group_1436" data-name="Group 1436" transform="translate(4.057 2.599)">
            <path id="Path_832" data-name="Path 832" d="M213.821,343.373h1.318v-.22h-1.184l-.3-.611-5.524,0,0,3.6h.217l0-3.378h5.174Z" transform="translate(-207.609 -342.023)" fill="#fff"/>
            <path id="Path_833" data-name="Path 833" d="M207.861,346.173h-.218a.518.518,0,0,1-.517-.518l0-3.6a.518.518,0,0,1,.517-.517h0l5.524,0a.517.517,0,0,1,.464.288l.159.323h.862a.517.517,0,0,1,.517.52v.22a.518.518,0,0,1-.517.514h-1.318a.517.517,0,0,1-.464-.29l-.157-.322h-4.335l0,2.861A.518.518,0,0,1,207.861,346.173Z" transform="translate(-207.126 -341.54)" fill="#fff"/>
          </g>
          <g id="Group_1437" data-name="Group 1437" transform="translate(4.053 8.703)">
            <path id="Path_834" data-name="Path 834" d="M208.118,357.638h.217l0-3.075h.7l0-.217-.922,0Z" transform="translate(-207.601 -353.827)" fill="#fff"/>
            <path id="Path_835" data-name="Path 835" d="M207.852,357.673h-.217a.518.518,0,0,1-.517-.518l0-3.294a.517.517,0,0,1,.517-.517h0l.922,0a.517.517,0,0,1,.516.521l0,.217a.517.517,0,0,1-.517.513h-.187l0,2.558A.518.518,0,0,1,207.852,357.673Z" transform="translate(-207.118 -353.344)" fill="#fff"/>
          </g>
          <g id="Group_1438" data-name="Group 1438" transform="translate(0.948 12.219)">
            <path id="Path_836" data-name="Path 836" d="M211.544,364.048l-9.43-.019v.219l9.509.019h.079l.916-3.064-.207-.063Z" transform="translate(-201.597 -360.625)" fill="#fff"/>
            <path id="Path_837" data-name="Path 837" d="M211.22,364.3l-9.588-.019a.517.517,0,0,1-.516-.514l0-.219a.517.517,0,0,1,.517-.52h0l9.044.018.758-2.537a.517.517,0,0,1,.645-.346l.207.063a.517.517,0,0,1,.345.643l-.916,3.064A.517.517,0,0,1,211.22,364.3Z" transform="translate(-201.114 -360.142)" fill="#fff"/>
          </g>
          <g id="Group_1439" data-name="Group 1439" transform="translate(6.108 5.976)">
            <path id="Path_838" data-name="Path 838" d="M212.092,352.438v.219h.725l0-3.586-.22,0v3.364Z" transform="translate(-211.575 -348.554)" fill="#fff"/>
            <path id="Path_839" data-name="Path 839" d="M212.334,352.691h-.725a.517.517,0,0,1-.517-.517v-.219a.517.517,0,0,1,.509-.517v-2.847a.517.517,0,0,1,.511-.517l.22,0a.567.567,0,0,1,.37.149.517.517,0,0,1,.153.368l0,3.586A.517.517,0,0,1,212.334,352.691Z" transform="translate(-211.092 -348.071)" fill="#fff"/>
          </g>
        </g>
        <g id="Group_1445" data-name="Group 1445" transform="translate(12.638)">
          <g id="Group_1441" data-name="Group 1441">
            <path id="Path_840" data-name="Path 840" d="M239.617,344.349c0-.252-.012-.5-.035-.745h-2.768l-4.368,0,0,1.7,4.334,0a4.714,4.714,0,1,1-4.6-5.733A4.654,4.654,0,0,1,235.522,341a1.159,1.159,0,0,1,.115,1.38c.622-.32,3.023-1.74,3.023-1.74a7.4,7.4,0,0,0-6.479-3.848,7.56,7.56,0,1,0,7.435,7.556Z" transform="translate(-224.203 -336.276)" fill="#fff"/>
            <path id="Path_841" data-name="Path 841" d="M231.671,351.945a7.844,7.844,0,0,1-5.584-2.323,8.106,8.106,0,0,1,5.613-13.83h.005a7.942,7.942,0,0,1,6.926,4.115.517.517,0,0,1-.189.7c-.1.058-2.422,1.431-3.05,1.754a.517.517,0,0,1-.694-.7.667.667,0,0,0-.048-.8,4.114,4.114,0,0,0-2.957-1.251,4.279,4.279,0,0,0-2.949,7.3,4.121,4.121,0,0,0,2.934,1.223,4.217,4.217,0,0,0,3.938-2.788l-3.653,0h0a.517.517,0,0,1-.517-.518l0-1.7a.517.517,0,0,1,.517-.517l7.136,0a.517.517,0,0,1,.515.47c.026.283.038.542.037.794a8.049,8.049,0,0,1-7.978,8.077Zm.033-15.118h0a7.072,7.072,0,0,0-4.881,12.064,6.816,6.816,0,0,0,4.852,2.02h0a7.013,7.013,0,0,0,6.944-7.045v0c0-.073,0-.148,0-.224l-6.134,0v.665l3.816,0h0a.518.518,0,0,1,.507.62,5.264,5.264,0,0,1-5.125,4.238,5.149,5.149,0,0,1-3.667-1.526,5.314,5.314,0,0,1,3.682-9.063,5.153,5.153,0,0,1,3.718,1.586,1.706,1.706,0,0,1,.4.783c.561-.321,1.228-.711,1.659-.964A6.9,6.9,0,0,0,231.7,336.827Z" transform="translate(-223.72 -335.793)" fill="#fff"/>
          </g>
          <g id="Group_1442" data-name="Group 1442" transform="translate(3.351 3.374)">
            <path id="Path_842" data-name="Path 842" d="M235.156,343.539a3.66,3.66,0,0,1,2.654,1.131l.155-.156a3.888,3.888,0,0,0-2.808-1.2,4.024,4.024,0,0,0-2.973,6.658l.162-.145a3.8,3.8,0,0,1,2.811-6.293Z" transform="translate(-230.683 -342.801)" fill="#fff"/>
            <path id="Path_843" data-name="Path 843" d="M231.7,350.011h-.033a.516.516,0,0,1-.358-.176,4.541,4.541,0,0,1,3.363-7.515,4.4,4.4,0,0,1,3.179,1.353.517.517,0,0,1,0,.724l-.154.156a.576.576,0,0,1-.37.153.515.515,0,0,1-.369-.158,3.153,3.153,0,0,0-2.282-.973,3.252,3.252,0,0,0-3.22,3.268,3.286,3.286,0,0,0,.8,2.168.518.518,0,0,1-.046.725l-.162.145A.518.518,0,0,1,231.7,350.011Z" transform="translate(-230.2 -342.318)" fill="#fff"/>
          </g>
          <g id="Group_1443" data-name="Group 1443" transform="translate(7.748 8.779)">
            <rect id="Rectangle_328" data-name="Rectangle 328" width="3.798" height="0.22" transform="translate(0.517 0.518)" fill="#fff"/>
            <path id="Path_844" data-name="Path 844" d="M243.018,354.024h-3.8a.517.517,0,0,1-.517-.518v-.219a.517.517,0,0,1,.517-.516l3.8,0h0a.516.516,0,0,1,.517.517v.221A.517.517,0,0,1,243.018,354.024Z" transform="translate(-238.703 -352.769)" fill="#fff"/>
          </g>
          <g id="Group_1444" data-name="Group 1444" transform="translate(7.903 8.017)">
            <path id="Path_845" data-name="Path 845" d="M240,359.743l0,.221a7.635,7.635,0,0,0,7.569-7.668h-.216A7.417,7.417,0,0,1,240,359.743Z" transform="translate(-239.484 -351.779)" fill="#fff"/>
            <path id="Path_846" data-name="Path 846" d="M239.522,360h0a.518.518,0,0,1-.517-.521l0-.221a.517.517,0,0,1,.517-.513,6.9,6.9,0,0,0,6.834-6.931.517.517,0,0,1,.517-.516h.216a.517.517,0,0,1,.517.518A8.151,8.151,0,0,1,239.522,360Z" transform="translate(-239.001 -351.296)" fill="#fff"/>
          </g>
        </g>
        <g id="Group_1450" data-name="Group 1450" transform="translate(29.173)">
          <g id="Group_1446" data-name="Group 1446">
            <path id="Path_847" data-name="Path 847" d="M271.591,344.349c0-.252-.012-.5-.035-.745h-2.769l-4.365,0,0,1.7,4.334,0a4.715,4.715,0,1,1-4.6-5.733A4.657,4.657,0,0,1,267.5,341a1.156,1.156,0,0,1,.114,1.38c.624-.32,3.024-1.74,3.024-1.74a7.4,7.4,0,0,0-6.479-3.848,7.56,7.56,0,1,0,7.436,7.556Z" transform="translate(-256.176 -336.276)" fill="#fff"/>
            <path id="Path_848" data-name="Path 848" d="M263.644,351.945a7.846,7.846,0,0,1-5.583-2.321,8.106,8.106,0,0,1,5.611-13.831h.005a7.941,7.941,0,0,1,6.926,4.115.517.517,0,0,1-.189.7c-.1.058-2.421,1.431-3.052,1.755a.517.517,0,0,1-.692-.7.663.663,0,0,0-.048-.8,4.115,4.115,0,0,0-2.958-1.251,4.28,4.28,0,0,0-2.95,7.3,4.124,4.124,0,0,0,2.936,1.223,4.219,4.219,0,0,0,3.938-2.788l-3.652,0h0a.517.517,0,0,1-.517-.518l0-1.7a.517.517,0,0,1,.517-.517l7.135,0a.517.517,0,0,1,.515.469c.027.281.039.541.038.795a8.05,8.05,0,0,1-7.978,8.077Zm.033-15.118h0a7.072,7.072,0,0,0-4.88,12.065,6.818,6.818,0,0,0,4.851,2.018h0a7.013,7.013,0,0,0,6.944-7.045v0c0-.074,0-.148,0-.224l-6.132,0v.665l3.816,0h0a.518.518,0,0,1,.507.62,5.266,5.266,0,0,1-5.126,4.238,5.152,5.152,0,0,1-3.668-1.527,5.314,5.314,0,0,1,3.682-9.062,5.152,5.152,0,0,1,3.719,1.586,1.71,1.71,0,0,1,.4.783c.561-.321,1.227-.711,1.658-.964A6.9,6.9,0,0,0,263.677,336.827Z" transform="translate(-255.693 -335.793)" fill="#fff"/>
          </g>
          <g id="Group_1447" data-name="Group 1447" transform="translate(3.351 3.374)">
            <path id="Path_849" data-name="Path 849" d="M267.129,343.539a3.66,3.66,0,0,1,2.652,1.131l.155-.156a3.884,3.884,0,0,0-2.806-1.2,4.023,4.023,0,0,0-2.975,6.658l.162-.145a3.809,3.809,0,0,1-.928-2.507A3.77,3.77,0,0,1,267.129,343.539Z" transform="translate(-262.655 -342.801)" fill="#fff"/>
            <path id="Path_850" data-name="Path 850" d="M263.672,350.011h-.033a.516.516,0,0,1-.357-.177,4.541,4.541,0,0,1,3.365-7.515,4.4,4.4,0,0,1,3.178,1.353.516.516,0,0,1-.005.725l-.156.156a.537.537,0,0,1-.37.152.516.516,0,0,1-.368-.158,3.151,3.151,0,0,0-2.281-.973,3.254,3.254,0,0,0-3.222,3.269,3.3,3.3,0,0,0,.8,2.168.518.518,0,0,1-.046.725l-.162.145A.515.515,0,0,1,263.672,350.011Z" transform="translate(-262.172 -342.318)" fill="#fff"/>
          </g>
          <g id="Group_1448" data-name="Group 1448" transform="translate(7.748 8.779)">
            <rect id="Rectangle_329" data-name="Rectangle 329" width="3.798" height="0.22" transform="translate(0.517 0.518)" fill="#fff"/>
            <path id="Path_851" data-name="Path 851" d="M274.991,354.024h-3.8a.517.517,0,0,1-.517-.517v-.219a.518.518,0,0,1,.517-.517l3.8,0h0a.517.517,0,0,1,.517.512l0,.221a.517.517,0,0,1-.517.522Zm-3.8-.736h0Z" transform="translate(-270.675 -352.769)" fill="#fff"/>
          </g>
          <g id="Group_1449" data-name="Group 1449" transform="translate(7.903 8.017)">
            <path id="Path_852" data-name="Path 852" d="M271.977,359.743l0,.221a7.635,7.635,0,0,0,7.569-7.668h-.217A7.415,7.415,0,0,1,271.977,359.743Z" transform="translate(-271.458 -351.779)" fill="#fff"/>
            <path id="Path_853" data-name="Path 853" d="M271.5,360h0a.517.517,0,0,1-.517-.521l0-.221a.517.517,0,0,1,.517-.513,6.9,6.9,0,0,0,6.834-6.931.517.517,0,0,1,.517-.516h.217a.517.517,0,0,1,.517.518A8.152,8.152,0,0,1,271.5,360Z" transform="translate(-270.975 -351.296)" fill="#fff"/>
          </g>
        </g>
        <g id="Group_1455" data-name="Group 1455" transform="translate(91.105)">
          <g id="Group_1451" data-name="Group 1451">
            <path id="Path_854" data-name="Path 854" d="M391.344,344.349c0-.252-.01-.5-.033-.745h-2.768l-4.367,0,0,1.7,4.336,0a4.715,4.715,0,1,1-4.6-5.733A4.655,4.655,0,0,1,387.252,341a1.159,1.159,0,0,1,.115,1.38c.622-.32,3.024-1.74,3.024-1.74a7.4,7.4,0,0,0-6.481-3.848,7.56,7.56,0,1,0,7.435,7.556Z" transform="translate(-375.932 -336.276)" fill="#fff"/>
            <path id="Path_855" data-name="Path 855" d="M383.4,351.945a7.846,7.846,0,0,1-5.585-2.324,8.106,8.106,0,0,1,5.612-13.829h.005a7.941,7.941,0,0,1,6.928,4.115.516.516,0,0,1-.189.7c-.1.058-2.422,1.431-3.05,1.754a.517.517,0,0,1-.694-.7.655.655,0,0,0-.05-.8,4.115,4.115,0,0,0-2.956-1.249,4.28,4.28,0,0,0-2.95,7.3,4.125,4.125,0,0,0,2.936,1.224,4.22,4.22,0,0,0,3.938-2.788l-3.654,0h0a.517.517,0,0,1-.517-.518l0-1.7a.517.517,0,0,1,.517-.516l7.135,0a.517.517,0,0,1,.515.469c.025.264.037.531.036.794a8.046,8.046,0,0,1-7.976,8.078Zm.031-15.118h0a7.072,7.072,0,0,0-4.88,12.063,6.818,6.818,0,0,0,4.853,2.021h0a7.01,7.01,0,0,0,6.942-7.045v0c0-.075,0-.15,0-.225l-6.132,0v.665l3.818,0h0a.518.518,0,0,1,.507.62,5.266,5.266,0,0,1-5.126,4.238,5.15,5.15,0,0,1-3.669-1.528,5.314,5.314,0,0,1,3.684-9.061,5.156,5.156,0,0,1,3.719,1.586,1.743,1.743,0,0,1,.4.782c.561-.322,1.226-.711,1.656-.963A6.9,6.9,0,0,0,383.431,336.827Z" transform="translate(-375.449 -335.793)" fill="#fff"/>
          </g>
          <g id="Group_1452" data-name="Group 1452" transform="translate(3.351 3.374)">
            <path id="Path_856" data-name="Path 856" d="M386.884,343.539a3.662,3.662,0,0,1,2.653,1.131l.154-.156a3.882,3.882,0,0,0-2.806-1.2,4.024,4.024,0,0,0-2.976,6.658l.164-.145a3.811,3.811,0,0,1-.929-2.507A3.771,3.771,0,0,1,386.884,343.539Z" transform="translate(-382.41 -342.801)" fill="#fff"/>
            <path id="Path_857" data-name="Path 857" d="M383.427,350.011h-.034a.519.519,0,0,1-.356-.177,4.542,4.542,0,0,1,3.366-7.515,4.4,4.4,0,0,1,3.178,1.353.517.517,0,0,1,0,.724l-.154.156a.517.517,0,0,1-.368.154h0a.517.517,0,0,1-.369-.158,3.153,3.153,0,0,0-2.281-.973,3.254,3.254,0,0,0-3.223,3.269,3.29,3.29,0,0,0,.8,2.167.517.517,0,0,1-.048.727l-.164.145A.516.516,0,0,1,383.427,350.011Z" transform="translate(-381.928 -342.318)" fill="#fff"/>
          </g>
          <g id="Group_1453" data-name="Group 1453" transform="translate(7.749 8.779)">
            <rect id="Rectangle_330" data-name="Rectangle 330" width="3.797" height="0.22" transform="translate(0.517 0.518)" fill="#fff"/>
            <path id="Path_858" data-name="Path 858" d="M394.748,354.024h-3.8a.517.517,0,0,1-.517-.517v-.219a.517.517,0,0,1,.517-.517l3.8,0h0a.517.517,0,0,1,.517.514l0,.221a.517.517,0,0,1-.517.521Zm-3.8-.736h0Z" transform="translate(-390.433 -352.769)" fill="#fff"/>
          </g>
          <g id="Group_1454" data-name="Group 1454" transform="translate(7.903 8.017)">
            <path id="Path_859" data-name="Path 859" d="M391.732,359.743l0,.221a7.635,7.635,0,0,0,7.57-7.668h-.217A7.416,7.416,0,0,1,391.732,359.743Z" transform="translate(-391.213 -351.779)" fill="#fff"/>
            <path id="Path_860" data-name="Path 860" d="M391.251,360a.506.506,0,0,1-.37-.153.518.518,0,0,1-.15-.368l0-.221a.518.518,0,0,1,.517-.513,6.9,6.9,0,0,0,6.834-6.931.517.517,0,0,1,.517-.516h.217a.516.516,0,0,1,.517.518A8.152,8.152,0,0,1,391.251,360Z" transform="translate(-390.73 -351.296)" fill="#fff"/>
          </g>
        </g>
        <g id="Group_1459" data-name="Group 1459" transform="translate(45.758 0.291)">
          <g id="Group_1456" data-name="Group 1456">
            <path id="Path_861" data-name="Path 861" d="M302.738,341.8a7.253,7.253,0,0,0-9.606-3.812,7.446,7.446,0,0,0-3.76,9.751,7.256,7.256,0,0,0,9.606,3.812A7.45,7.45,0,0,0,302.738,341.8Zm-10.732,4.769a4.509,4.509,0,0,1,2.275-5.908,4.394,4.394,0,0,1,5.823,2.308,4.513,4.513,0,0,1-2.278,5.908A4.393,4.393,0,0,1,292.006,346.564Z" transform="translate(-288.243 -336.841)" fill="#fff"/>
            <path id="Path_862" data-name="Path 862" d="M295.577,352.2a7.717,7.717,0,0,1-2.815-.535,7.805,7.805,0,0,1-4.346-4.215,7.974,7.974,0,0,1,4.025-10.428,7.668,7.668,0,0,1,5.946-.134,7.8,7.8,0,0,1,4.345,4.215h0a7.978,7.978,0,0,1-4.025,10.429A7.7,7.7,0,0,1,295.577,352.2Zm0-14.812a6.66,6.66,0,0,0-2.712.58,6.936,6.936,0,0,0-3.5,9.073,6.777,6.777,0,0,0,3.773,3.661,6.634,6.634,0,0,0,5.148-.116,6.94,6.94,0,0,0,3.5-9.074h0a6.779,6.779,0,0,0-3.772-3.661A6.684,6.684,0,0,0,295.574,337.391Zm0,11.892a4.932,4.932,0,0,1-4.522-3,5.032,5.032,0,0,1,2.541-6.586,4.853,4.853,0,0,1,3.763-.086,4.926,4.926,0,0,1,2.744,2.662,5.037,5.037,0,0,1-2.542,6.586A4.888,4.888,0,0,1,295.573,349.283Zm0-8.974a3.844,3.844,0,0,0-1.564.335A4,4,0,0,0,292,345.875h0a3.9,3.9,0,0,0,2.167,2.106,3.83,3.83,0,0,0,2.969-.067,4,4,0,0,0,2.012-5.231,3.9,3.9,0,0,0-2.171-2.107A3.837,3.837,0,0,0,295.576,340.309Z" transform="translate(-287.763 -336.356)" fill="#fff"/>
          </g>
          <g id="Group_1457" data-name="Group 1457" transform="translate(7.615 1.408)">
            <path id="Path_863" data-name="Path 863" d="M308.16,340.242A7.876,7.876,0,0,1,310.138,343a7.972,7.972,0,0,1-4.021,10.427,7.712,7.712,0,0,1-2.629.652l.014.219a7.831,7.831,0,0,0,2.7-.671,8.192,8.192,0,0,0,4.133-10.715,8.067,8.067,0,0,0-2.031-2.833Z" transform="translate(-302.97 -339.561)" fill="#fff"/>
            <path id="Path_864" data-name="Path 864" d="M303.018,354.331a.517.517,0,0,1-.516-.484l-.014-.219a.517.517,0,0,1,.482-.549,7.207,7.207,0,0,0,2.453-.608,7.455,7.455,0,0,0,3.757-9.75,7.361,7.361,0,0,0-1.848-2.577.517.517,0,0,1-.041-.727l.145-.163a.518.518,0,0,1,.732-.043,8.578,8.578,0,0,1,2.16,3.013,8.71,8.71,0,0,1-4.4,11.393,8.362,8.362,0,0,1-2.879.714Z" transform="translate(-302.487 -339.078)" fill="#fff"/>
          </g>
          <g id="Group_1458" data-name="Group 1458" transform="translate(3.219 3.288)">
            <path id="Path_865" data-name="Path 865" d="M298.666,343.716a3.931,3.931,0,0,0-1.238.329,4.168,4.168,0,0,0-2.1,5.449,4.126,4.126,0,0,0,1.23,1.6l.133-.173a3.943,3.943,0,0,1,.824-6.678,3.812,3.812,0,0,1,1.174-.313Z" transform="translate(-294.469 -343.198)" fill="#fff"/>
            <path id="Path_866" data-name="Path 866" d="M296.074,351.132a.518.518,0,0,1-.32-.111,4.681,4.681,0,0,1,.982-7.932,4.43,4.43,0,0,1,1.4-.371.519.519,0,0,1,.563.462l.022.219a.518.518,0,0,1-.463.567,3.283,3.283,0,0,0-1.015.27,3.425,3.425,0,0,0-1.725,4.482,3.383,3.383,0,0,0,1.009,1.317.518.518,0,0,1,.09.722l-.133.173a.516.516,0,0,1-.346.2A.524.524,0,0,1,296.074,351.132Z" transform="translate(-293.986 -342.715)" fill="#fff"/>
          </g>
        </g>
        <g id="Group_1463" data-name="Group 1463" transform="translate(74.548 0.291)">
          <g id="Group_1460" data-name="Group 1460">
            <path id="Path_867" data-name="Path 867" d="M358.409,341.8a7.253,7.253,0,0,0-9.607-3.812,7.447,7.447,0,0,0-3.76,9.751,7.256,7.256,0,0,0,9.607,3.812A7.448,7.448,0,0,0,358.409,341.8Zm-10.733,4.769a4.512,4.512,0,0,1,2.278-5.908,4.392,4.392,0,0,1,5.821,2.308,4.512,4.512,0,0,1-2.276,5.908A4.4,4.4,0,0,1,347.676,346.564Z" transform="translate(-343.914 -336.841)" fill="#fff"/>
            <path id="Path_868" data-name="Path 868" d="M351.248,352.2a7.7,7.7,0,0,1-2.816-.535,7.8,7.8,0,0,1-4.345-4.214,7.975,7.975,0,0,1,4.024-10.428,7.671,7.671,0,0,1,5.949-.133,7.8,7.8,0,0,1,4.342,4.214h0a7.977,7.977,0,0,1-4.023,10.429A7.709,7.709,0,0,1,351.248,352.2Zm0-14.812a6.678,6.678,0,0,0-2.714.58,6.937,6.937,0,0,0-3.495,9.073,6.777,6.777,0,0,0,3.772,3.661,6.646,6.646,0,0,0,5.151-.116,6.94,6.94,0,0,0,3.494-9.074h0a6.772,6.772,0,0,0-3.769-3.66A6.683,6.683,0,0,0,351.246,337.391Zm0,11.892a4.936,4.936,0,0,1-4.524-3h0a5.037,5.037,0,0,1,2.542-6.586,4.851,4.851,0,0,1,3.762-.086,4.924,4.924,0,0,1,2.743,2.662,5.036,5.036,0,0,1-2.541,6.586A4.889,4.889,0,0,1,351.245,349.283Zm-3.575-3.409a3.9,3.9,0,0,0,2.171,2.107,3.827,3.827,0,0,0,2.967-.067,4,4,0,0,0,2.011-5.231,3.9,3.9,0,0,0-2.171-2.108,3.826,3.826,0,0,0-2.965.068,4,4,0,0,0-2.013,5.231Z" transform="translate(-343.434 -336.356)" fill="#fff"/>
          </g>
          <g id="Group_1461" data-name="Group 1461" transform="translate(7.615 1.408)">
            <path id="Path_869" data-name="Path 869" d="M363.833,340.242A7.892,7.892,0,0,1,365.809,343a7.974,7.974,0,0,1-4.02,10.427,7.723,7.723,0,0,1-2.63.652l.014.219a7.842,7.842,0,0,0,2.7-.671,8.192,8.192,0,0,0,4.13-10.715,8.071,8.071,0,0,0-2.03-2.833Z" transform="translate(-358.641 -339.561)" fill="#fff"/>
            <path id="Path_870" data-name="Path 870" d="M358.689,354.331a.517.517,0,0,1-.516-.485l-.014-.219a.518.518,0,0,1,.482-.548,7.239,7.239,0,0,0,2.455-.608,7.458,7.458,0,0,0,3.756-9.75A7.38,7.38,0,0,0,363,340.143a.518.518,0,0,1-.043-.726l.144-.163a.518.518,0,0,1,.357-.175.5.5,0,0,1,.376.131,8.569,8.569,0,0,1,2.16,3.013,8.71,8.71,0,0,1-4.4,11.393,8.367,8.367,0,0,1-2.882.714Z" transform="translate(-358.158 -339.078)" fill="#fff"/>
          </g>
          <g id="Group_1462" data-name="Group 1462" transform="translate(3.218 3.289)">
            <path id="Path_871" data-name="Path 871" d="M354.338,343.716a3.936,3.936,0,0,0-1.24.329,4.165,4.165,0,0,0-.871,7.053l.135-.173a3.9,3.9,0,0,1-1.165-1.519,3.942,3.942,0,0,1,1.989-5.159,3.811,3.811,0,0,1,1.175-.313Z" transform="translate(-350.139 -343.199)" fill="#fff"/>
            <path id="Path_872" data-name="Path 872" d="M351.744,351.132a.517.517,0,0,1-.321-.112,4.682,4.682,0,0,1,.983-7.932,4.448,4.448,0,0,1,1.4-.371.519.519,0,0,1,.562.46l.023.219a.517.517,0,0,1-.462.569,3.273,3.273,0,0,0-1.015.27,3.424,3.424,0,0,0-1.726,4.482,3.388,3.388,0,0,0,1.009,1.317.517.517,0,0,1,.089.725l-.135.173a.515.515,0,0,1-.346.2A.485.485,0,0,1,351.744,351.132Z" transform="translate(-349.657 -342.715)" fill="#fff"/>
          </g>
        </g>
        <g id="Group_1467" data-name="Group 1467" transform="translate(106.189 0.392)">
          <g id="Group_1464" data-name="Group 1464" transform="translate(0 0.038)">
            <path id="Path_873" data-name="Path 873" d="M409.25,352.313h4.6c-.876,0-.881-1.5-.881-1.5l.011-5.592,3.133-7.018s.193-.287,1.424-.287l0-.289-4.548,0a.715.715,0,0,1,.293.825c-.19.461-1.536,3.471-1.717,3.871-.178-.4-1.512-3.41-1.7-3.869a.718.718,0,0,1,.3-.827h-4.545v.288c1.231,0,1.424.288,1.424.288l3.106,7.017-.011,5.592S410.126,352.313,409.25,352.313Z" transform="translate(-405.1 -337.109)" fill="#fff"/>
            <path id="Path_874" data-name="Path 874" d="M413.369,352.347h-4.6a.517.517,0,1,1,0-1.034c.235,0,.366-.644.369-.989l.011-5.478-3-6.778a3.045,3.045,0,0,0-1.013-.118.517.517,0,0,1-.517-.517v-.289a.517.517,0,0,1,.517-.517h4.545a.517.517,0,0,1,.287.947c-.009.007-.142.107-.1.2.127.3.767,1.756,1.227,2.795.469-1.049,1.113-2.5,1.236-2.8.04-.094-.1-.2-.1-.2a.517.517,0,0,1,.288-.947h4.548a.516.516,0,0,1,.517.521l0,.289a.517.517,0,0,1-.517.514,3.071,3.071,0,0,0-1.013.118l-3.027,6.78-.011,5.482c0,.341.13.983.363.983a.517.517,0,1,1,0,1.034Zm-3.36-1.034h2.122a3.2,3.2,0,0,1-.159-.983l.011-5.594a.524.524,0,0,1,.045-.21l3.066-6.866H413.37a1.107,1.107,0,0,1-.088.507c-.2.475-1.549,3.5-1.723,3.885a.517.517,0,0,1-.471.3h0a.517.517,0,0,1-.471-.307c-.142-.318-1.511-3.409-1.708-3.88a1.134,1.134,0,0,1-.087-.509H407.1l3.039,6.867a.516.516,0,0,1,.044.21l-.011,5.591A3.193,3.193,0,0,1,410.009,351.313Z" transform="translate(-404.617 -336.626)" fill="#fff"/>
          </g>
          <g id="Group_1465" data-name="Group 1465" transform="translate(4.967 0.266)">
            <path id="Path_875" data-name="Path 875" d="M422.5,338.067v.179c-1.134.015-1.371.28-1.418.351l-3.132,7.019-.02,5.15a2.775,2.775,0,0,0,.861,1.9,3.067,3.067,0,0,0,.3.234l-3.872,0v.219H419.7l0-.221a1.312,1.312,0,0,1-.767-.4,2.558,2.558,0,0,1-.784-1.73l.01-5.084,3.109-6.973s.222-.245,1.339-.245h.11v-.4Z" transform="translate(-414.704 -337.55)" fill="#fff"/>
            <path id="Path_876" data-name="Path 876" d="M419.219,353.153h-4.481a.517.517,0,0,1-.517-.517v-.219a.517.517,0,0,1,.517-.517h2.678a3.249,3.249,0,0,1-.485-1.617l.02-5.15a.521.521,0,0,1,.045-.209l3.132-7.019a.5.5,0,0,1,.038-.071c.213-.327.687-.515,1.445-.569a.5.5,0,0,1,.038-.043.515.515,0,0,1,.367-.153h.219a.518.518,0,0,1,.517.519l0,.4a.517.517,0,0,1-.517.515h-.11a3.234,3.234,0,0,0-.94.1l-2.992,6.712-.009,4.974a2.048,2.048,0,0,0,.607,1.339c.285.248.394.275.427.275a.517.517,0,0,1,.517.512l0,.221a.517.517,0,0,1-.517.522Zm-4.481-.736h0Z" transform="translate(-414.221 -337.067)" fill="#fff"/>
          </g>
          <g id="Group_1466" data-name="Group 1466" transform="translate(4.553)">
            <path id="Path_877" data-name="Path 877" d="M415.544,340.92l.229.507.2-.094-.229-.506c-.343-.764-.917-2.046-1.062-2.4a.6.6,0,0,1,.256-.692l-.119-.187a.814.814,0,0,0-.337.964C414.625,338.87,415.2,340.153,415.544,340.92Z" transform="translate(-413.906 -337.035)" fill="#fff"/>
            <path id="Path_878" data-name="Path 878" d="M415.289,341.461a.509.509,0,0,1-.179-.032.516.516,0,0,1-.293-.273l-.228-.506h0l-.038-.083c-.354-.791-.89-1.987-1.033-2.337a1.318,1.318,0,0,1,.527-1.589.517.517,0,0,1,.723.151l.12.187a.518.518,0,0,1-.165.721.286.286,0,0,0-.05.068c.147.337.762,1.708,1.058,2.367l.228.506a.517.517,0,0,1-.251.68l-.2.093A.512.512,0,0,1,415.289,341.461Z" transform="translate(-413.422 -336.552)" fill="#fff"/>
          </g>
        </g>
        <g id="Group_1473" data-name="Group 1473" transform="translate(62.597 0.499)">
          <g id="Group_1468" data-name="Group 1468">
            <path id="Path_879" data-name="Path 879" d="M325.082,350.031c-.04-.458-.033-.787-.033-.787v-8.366s-.046-2.221.805-3.12h-4.53c.85.9.8,3.12.8,3.12v8.366s.045,2.222-.8,3.121H324l1.806.017H330.8l1.353-3.07-.654-.014-.35.779h-6.06Z" transform="translate(-320.807 -337.24)" fill="#fff"/>
            <path id="Path_880" data-name="Path 880" d="M330.312,352.416l-9.471-.018a.517.517,0,0,1-.375-.872,4.966,4.966,0,0,0,.663-2.755V340.4a4.91,4.91,0,0,0-.664-2.766.517.517,0,0,1,.376-.872h4.53a.518.518,0,0,1,.376.872,4.887,4.887,0,0,0-.664,2.755v8.376c0,.008,0,.128,0,.315h5.24l.213-.473a.526.526,0,0,1,.483-.306l.654.015a.517.517,0,0,1,.462.726l-1.354,3.069A.517.517,0,0,1,330.312,352.416Zm-8.566-1.052,8.228.018.561-1.271H324.6a.516.516,0,0,1-.516-.489l.513-.074-.515.046c-.042-.48-.036-.829-.036-.844V340.4a7.529,7.529,0,0,1,.416-2.6h-2.718a7.573,7.573,0,0,1,.417,2.614v8.356A7.543,7.543,0,0,1,321.747,351.364Z" transform="translate(-320.324 -336.757)" fill="#fff"/>
          </g>
          <g id="Group_1470" data-name="Group 1470" transform="translate(1.075 12.045)">
            <g id="Group_1469" data-name="Group 1469">
              <path id="Path_881" data-name="Path 881" d="M332.32,364.274H323.4v-.221h8.777l1.324-3,.2.09Z" transform="translate(-322.886 -360.531)" fill="#fff"/>
              <path id="Path_882" data-name="Path 882" d="M331.837,364.308H322.92a.517.517,0,0,1-.517-.517v-.221a.517.517,0,0,1,.517-.517h8.44l1.188-2.7a.517.517,0,0,1,.687-.262l.2.09a.517.517,0,0,1,.26.68L332.311,364A.518.518,0,0,1,331.837,364.308Z" transform="translate(-322.403 -360.048)" fill="#fff"/>
            </g>
          </g>
          <g id="Group_1472" data-name="Group 1472" transform="translate(4.096 0.366)">
            <g id="Group_1471" data-name="Group 1471">
              <path id="Path_883" data-name="Path 883" d="M329.464,350.011h-.217v-8.346c0-.09-.036-2.274.835-3.2l.157.154c-.81.855-.774,3.021-.774,3.042Z" transform="translate(-328.728 -337.948)" fill="#fff"/>
              <path id="Path_884" data-name="Path 884" d="M328.981,350.045h-.217a.517.517,0,0,1-.517-.517v-8.346c-.007-.406.008-2.526.976-3.554a.516.516,0,0,1,.367-.162.531.531,0,0,1,.372.149l.157.155a.517.517,0,0,1,.012.723,4.753,4.753,0,0,0-.632,2.678v8.356A.517.517,0,0,1,328.981,350.045Z" transform="translate(-328.245 -337.465)" fill="#fff"/>
            </g>
          </g>
        </g>
      </g>
      <g id="Group_1475" data-name="Group 1475" transform="translate(0 0)">
        <path id="Path_885" data-name="Path 885" d="M165.6,332.721c-4.668-.026-8.462,5-8.493,11.23s3.711,9.732,8.378,9.758,8.459-3.421,8.492-9.659-3.72-11.3-8.377-11.329m4.535,5.731c.016,1.055-.733.715-.733.715a1.527,1.527,0,0,1-.073.829c-.158.631.225.741.553,2.161a2.544,2.544,0,0,1-.834,2.707c-.614.657-.722.333-1.048.935-.248.44-.326.647-1.419.968-.94.264-.984.825-.985.936l1.211.165s.337-.036.259.523a1.445,1.445,0,0,1-.355.692s-.228,0,0-.312c0,0-.389.316-.527.232,0,0,0-.107.335-.236,0,0-.4.03-.31-.113a3.085,3.085,0,0,0,.322.016s.3-.156.216-.421h-.138s-.052.015-.017.179c0,0-.065.185-.162-.014a.586.586,0,0,1,.02-.31c-.465-.033-1.031-.035-1.276-.027a4.291,4.291,0,0,1-.09.823c-.141.556.357.58.357.58.771-.039.611.159.611.159-.653-.026-.538.107-.538.107.779.135.721.21.721.21.041.177-.563-.015-.563-.015-.358-.124-.234.01-.234.01.523.337.343.425.343.425-.024-.015-.129-.1-.129-.1-.2-.144-.427-.316-.535-.4a2.543,2.543,0,0,0-.312-.192c-.333-.1-.777,0-.719-.076.062-.111.606-.16.606-.16a2.127,2.127,0,0,0-.01-1.323.343.343,0,0,0-.1.025c-.85-.027-.779-.618-.766-.635A1.919,1.919,0,0,1,162,345.5c0-.638-.187-.761-.187-.761s-.1-.056-.174-.347a1.547,1.547,0,0,1-.744-.654c-.147-.167-.066-.272.072-.324-1.344-.665-.751-1.718-.751-1.718a1.134,1.134,0,0,1,.111-1.532c1.275-.449,2.227,1.01,2.227,1.01a3.308,3.308,0,0,0,.939.562,23.6,23.6,0,0,1,2.724-.637.566.566,0,0,0,.112-.261c.111-.638.3-.593.3-.593a.123.123,0,0,1-.09-.183,3.353,3.353,0,0,1,2.557-2.23c.066-.017.066-.057.024-.172a.24.24,0,0,1-.047-.141.208.208,0,0,1,.327-.071c.129-.211.348,0,.348,0,.178-.1.249.03.267.076a.079.079,0,0,1,.1,0,.056.056,0,0,1,.03.048.018.018,0,0,1,.021.017.5.5,0,0,1-.08.4.915.915,0,0,0,.248.08.438.438,0,0,1,.252.3c-.137.013-.448.08-.448.08" transform="translate(-156.591 -332.204)" fill="#fff"/>
        <path id="Path_886" data-name="Path 886" d="M165.061,353.744H165c-5.349-.03-8.923-4.161-8.892-10.278a13.866,13.866,0,0,1,2.612-8.27,8,8,0,0,1,6.361-3.474h.04c4.934.028,8.922,5.343,8.891,11.848a10.839,10.839,0,0,1-2.651,7.531A8.512,8.512,0,0,1,165.061,353.744Zm.022-20.988a6.993,6.993,0,0,0-5.537,3.064,12.831,12.831,0,0,0-2.4,7.651c-.027,5.5,3.133,9.212,7.864,9.239a7.577,7.577,0,0,0,5.6-2.317,9.831,9.831,0,0,0,2.372-6.828c.028-5.935-3.5-10.784-7.863-10.808Zm.219,17.653a.522.522,0,0,1-.274-.078c-.034-.021-.182-.139-.182-.139-.183-.128-.413-.305-.525-.391a1.913,1.913,0,0,0-.182-.115,1.82,1.82,0,0,0-.349-.016.626.626,0,0,1-.653-.305.547.547,0,0,1,.018-.494h0c.081-.144.22-.286.638-.37a1.644,1.644,0,0,0-.01-.353,1.136,1.136,0,0,1-.866-.616l-.021-.049a2.438,2.438,0,0,1-1.9-2.463,1.318,1.318,0,0,0-.042-.39.939.939,0,0,1-.22-.332,2.189,2.189,0,0,1-.683-.653l-.053-.069a.706.706,0,0,1-.186-.442,1.767,1.767,0,0,1-.661-.9,1.663,1.663,0,0,1,0-.951,1.637,1.637,0,0,1,.331-1.971.515.515,0,0,1,.187-.115,2.56,2.56,0,0,1,2.783,1.143,2.859,2.859,0,0,0,.586.368c.415-.12,1.239-.347,2.319-.547a1.827,1.827,0,0,1,.164-.5.722.722,0,0,1,.064-.3,3.837,3.837,0,0,1,2.494-2.415v0a.508.508,0,0,1,.047-.138.717.717,0,0,1,.48-.39.753.753,0,0,1,.219-.015.691.691,0,0,1,.149-.037.708.708,0,0,1,.368.051.675.675,0,0,1,.253.034.645.645,0,0,1,.185.1.672.672,0,0,1,.1.048.588.588,0,0,1,.22.224.46.46,0,0,1,.04.069h0a.738.738,0,0,1,.071.321.951.951,0,0,1,.39.582.516.516,0,0,1-.457.612l-.018,0a1.042,1.042,0,0,1-.439.7.894.894,0,0,1-.261.116,3.945,3.945,0,0,1-.086.421c-.042.171-.027.223.112.555a7.521,7.521,0,0,1,.444,1.361,3,3,0,0,1-.9,3.112l-.066.069a2.481,2.481,0,0,1-.738.575c-.111.058-.131.068-.229.249l-.032.058c-.315.564-.557.826-1.7,1.16-.056.016-.108.033-.156.051l.27.037a.753.753,0,0,1,.516.228,1.009,1.009,0,0,1,.222.884,1.931,1.931,0,0,1-.476.959.518.518,0,0,1-.383.179c-.035,0-.067,0-.1-.006a.533.533,0,0,1,.1.169.527.527,0,0,1,.033.144.561.561,0,0,1-.177.479,1.045,1.045,0,0,0-.567.454A.517.517,0,0,1,165.3,350.41Zm-.153-1.935h.041a.553.553,0,0,1,.026-.132.564.564,0,0,1-.007-.233h-.037c-.018.18-.036.293-.05.366Zm-1.4-1.133h0Zm0,0h0Zm0,0h0Zm0,0h0Zm0,0h0Zm0,0Zm0,0h0Zm0,0h0Zm0,0Zm0,0h0Zm0,0Zm.445-.212a.369.369,0,0,0,.4-.037,1.657,1.657,0,0,1,1.353-1.3c.841-.247.9-.345,1.078-.671l.029-.053a1.378,1.378,0,0,1,.655-.666,1.487,1.487,0,0,0,.466-.368l.074-.077a2,2,0,0,0,.634-2.162,6.581,6.581,0,0,0-.389-1.192,1.69,1.69,0,0,1-.161-1.21,1.762,1.762,0,0,0,.079-.556.517.517,0,0,1,.694-.624,1.017,1.017,0,0,0,.018-.23.513.513,0,0,1,.03-.183.493.493,0,0,1-.067-.154c0-.011-.006-.023-.008-.035a.581.581,0,0,1-.351.249.5.5,0,0,1-.068.013,2.806,2.806,0,0,0-2.055,1.7.517.517,0,0,1-.209.647,1.634,1.634,0,0,0-.057.237,1.018,1.018,0,0,1-.2.466.52.52,0,0,1-.338.216,23.018,23.018,0,0,0-2.665.623.517.517,0,0,1-.33-.012,3.836,3.836,0,0,1-1.088-.649.525.525,0,0,1-.1-.113c-.006-.009-.685-1.016-1.508-.838a.566.566,0,0,0,.005.752.517.517,0,0,1,.048.578h0a.684.684,0,0,0-.036.467,1.018,1.018,0,0,0,.566.534.517.517,0,0,1,.287.49.51.51,0,0,1-.037.166.736.736,0,0,0,.341.289.518.518,0,0,1,.353.374.571.571,0,0,0,.035.105,1.471,1.471,0,0,1,.341,1.126,1.417,1.417,0,0,0,1.355,1.489.517.517,0,0,1,.467.578.458.458,0,0,0,.194.051c.024-.006.051-.01.08-.015A.513.513,0,0,1,164.2,347.122Zm-2.631-3.317a.8.8,0,0,1,.113.088A.378.378,0,0,0,161.571,343.805Zm-.774-.886,0,0Zm5.241-2.644h0Zm0,0h0Zm.518-.547-.013.036A.151.151,0,0,0,166.553,339.727Zm1.891-.842h0Zm0,0h0Zm0,0h0Z" transform="translate(-156.109 -331.722)" fill="#fff"/>
      </g>
    </g>
    <g id="Group_1478" data-name="Group 1478" transform="translate(136.99 246.89)">
      <g id="Group_1477" data-name="Group 1477" transform="translate(2.431)">
        <path id="Path_887" data-name="Path 887" d="M169.776,262.2c.383-5.513.719-9.567.719-9.883a5.566,5.566,0,0,0-5.658-5.425c-8.285-.041-20.81,12.836-23.148,34.928l6.294.036c1.189-5.394,1.81-9.872,3.9-14.553l11.129.057-1.195,14.568,6.5.031,1.071-14.568,2.948.016.026-5.192Zm-6.32-.031-9.014-.047c2.963-5.332,6.066-9.143,8.647-9.128a1.036,1.036,0,0,1,.962,1.122C164.046,254.523,163.824,257.734,163.457,262.167Z" transform="translate(-141.69 -246.89)" fill="#006726"/>
        <path id="Path_888" data-name="Path 888" d="M230.4,276.333a3.075,3.075,0,0,1-2.51-1.648l-6.582-9.133,15.242-18.458-7.09-.038L214.648,263.99l1.114-16.956L209.532,247,207.3,282.073l6.129.032,1.006-15.114,8.423,10.827c1.951,2.458,4.472,4.468,7.909,4.486a10.807,10.807,0,0,0,4.271-1.576L231.7,276.14a5.467,5.467,0,0,1-1.3.193Z" transform="translate(-173.372 -246.944)" fill="#006726"/>
        <path id="Path_889" data-name="Path 889" d="M397.245,248.01a5.555,5.555,0,0,0-5.689,5.368c0,.315.274,4.375.605,9.888l-2.586-.01-.026,5.2,2.937.01.941,14.578,6.49.036-1.039-14.584,11.129.062c2.053,4.7,2.782,9.185,3.92,14.594l6.139.031C417.947,261.058,405.561,248.057,397.245,248.01Zm1.241,15.287c-.331-4.432-.512-7.643-.512-8.052a1.036,1.036,0,0,1,.977-1.112c2.57.01,5.642,3.853,8.559,9.216Z" transform="translate(-261.37 -247.431)" fill="#006726"/>
        <path id="Path_890" data-name="Path 890" d="M295.227,262.694l-3.62-.016c-2.3-8.693-6.133-15.478-11.341-15.5-6.263.031-10.157,6.754-12.365,15.375l-3.935-.021-.026,5.311,2.86.016a93.217,93.217,0,0,0-1.195,14.511l7.168.036A130.776,130.776,0,0,1,273.8,267.9l12.577.067a98.5,98.5,0,0,1,1.195,14.522l6.5.031A81.152,81.152,0,0,0,292.781,268l2.415.016Zm-20.551-.1c1.226-5.973,3.046-10.276,5.565-10.265,1.939.015,3.8,4.334,5.146,10.322Z" transform="translate(-200.719 -247.03)" fill="#006726"/>
        <path id="Path_891" data-name="Path 891" d="M355.246,276.644c-.6.181-.905.346-1.51.481-3.284.812-8.507-4.872-10.39-8.305,5.844-1.877,9.164-5.632,8.817-11.15-.476-7.788-8.326-10.658-16.052-10.177a39.838,39.838,0,0,0-10.3,2.048l.636,6.314c.574-.212,1.882-.595,3.191-.905l1.97,27.642,6.5.036-.9-12.572c3.139,4.572,9.417,13.151,15.83,12.753a8.963,8.963,0,0,0,4.742-1.557ZM336.784,264l-.755-10.3h1.453c3.925-.228,7.6,1.164,7.814,4.753C345.519,262.071,340.89,263.7,336.784,264Z" transform="translate(-230.593 -247.156)" fill="#006726"/>
      </g>
      <path id="Path_892" data-name="Path 892" d="M173.24,342.7c-.14.01-.45.078-.45.078.016,1-.662.75-.729.724a1.66,1.66,0,0,1-.078.822c-.155.631.228.74.553,2.162a2.536,2.536,0,0,1-.833,2.7c-.615.657-.724.331-1.05.936-.248.44-.326.646-1.417.967-.941.264-.983.827-.988.936l1.215.166s.336-.036.259.522a1.442,1.442,0,0,1-.357.693s-.228.005,0-.31c0,0-.388.315-.522.233,0-.005.005-.114.331-.238,0,0-.4.031-.31-.114a3.149,3.149,0,0,0,.326.016s.295-.155.212-.419h-.134s-.052.016-.021.176c0,0-.062.186-.16-.01a.594.594,0,0,1,.021-.31c-.465-.036-1.029-.036-1.277-.031a4.928,4.928,0,0,1-.088.827c-.14.553.357.579.357.579.771-.041.61.16.61.16-.652-.031-.538.1-.538.1.781.134.719.212.719.212.041.176-.564-.016-.564-.016-.357-.124-.233.01-.233.01.522.336.341.424.341.424-.021-.016-.129-.1-.129-.1-.2-.145-.424-.315-.533-.4a2.049,2.049,0,0,0-.315-.191c-.331-.1-.776-.005-.719-.078.062-.109.61-.16.61-.16a2.144,2.144,0,0,0-.01-1.324.466.466,0,0,0-.1.026c-.848-.026-.776-.621-.765-.636a1.917,1.917,0,0,1-1.826-2.007c.005-.636-.186-.76-.186-.76s-.1-.057-.176-.346a1.583,1.583,0,0,1-.745-.657c-.145-.165-.062-.269.072-.321-1.345-.667-.75-1.722-.75-1.722a1.135,1.135,0,0,1,.109-1.531c1.277-.45,2.229,1.014,2.229,1.014a3.289,3.289,0,0,0,.941.559,24.2,24.2,0,0,1,2.725-.636.616.616,0,0,0,.109-.259c.1-.558.253-.595.29-.595a.123.123,0,0,1-.078-.181,3.351,3.351,0,0,1,2.555-2.234c.067-.016.067-.057.026-.171a.216.216,0,0,1-.047-.14.206.206,0,0,1,.326-.072c.129-.212.352,0,.352,0,.176-.1.248.031.264.078a.085.085,0,0,1,.1,0,.05.05,0,0,1,.026.047.019.019,0,0,1,.021.021.481.481,0,0,1-.078.4.8.8,0,0,0,.248.083A.437.437,0,0,1,173.24,342.7Z" transform="translate(-149.358 -292.663)" fill="#006726"/>
      <path id="Path_893" data-name="Path 893" d="M226.824,336.254A4.4,4.4,0,0,0,221,333.943a4.513,4.513,0,0,0-2.275,5.911,4.389,4.389,0,0,0,5.818,2.306A4.509,4.509,0,0,0,226.824,336.254Zm0,0A4.4,4.4,0,0,0,221,333.943a4.513,4.513,0,0,0-2.275,5.911,4.389,4.389,0,0,0,5.818,2.306A4.509,4.509,0,0,0,226.824,336.254Zm0,0A4.4,4.4,0,0,0,221,333.943a4.513,4.513,0,0,0-2.275,5.911,4.389,4.389,0,0,0,5.818,2.306A4.509,4.509,0,0,0,226.824,336.254Zm28.79,0a4.4,4.4,0,0,0-5.823-2.312,4.513,4.513,0,0,0-2.275,5.911,4.394,4.394,0,0,0,5.823,2.306A4.511,4.511,0,0,0,255.614,336.254Zm0,0a4.4,4.4,0,0,0-5.823-2.312,4.513,4.513,0,0,0-2.275,5.911,4.394,4.394,0,0,0,5.823,2.306A4.511,4.511,0,0,0,255.614,336.254Zm-28.79,0A4.4,4.4,0,0,0,221,333.943a4.513,4.513,0,0,0-2.275,5.911,4.389,4.389,0,0,0,5.818,2.306A4.509,4.509,0,0,0,226.824,336.254Zm56.571-12.794H152.473a15.319,15.319,0,0,0-10.948,4.6,15.786,15.786,0,0,0-4.535,11.114,15.6,15.6,0,0,0,15.483,15.711H283.395a15.715,15.715,0,0,0,0-31.427ZM155.773,349.24c-4.67-.031-8.409-3.522-8.378-9.759s3.822-11.258,8.492-11.233,8.409,5.1,8.378,11.331S160.427,349.266,155.773,349.24Zm13.958-18.514,10.11.005.889,2.984H179.9l-.3-.615h-6.118l-.005,4.267s.346,0,1.127.005a.77.77,0,0,0,.771-.812H176v1.122l-.005.833v1.127h-.615a.77.77,0,0,0-.771-.812H173.48l-.005,4.272h6.118l.305-.61.827-.005-.895,2.989-10.11-.005a3.363,3.363,0,0,0,1.024-2.524l.005-4.432.005-.833v-4.427A3.368,3.368,0,0,0,169.731,330.726Zm12.629,7.188a7.52,7.52,0,0,1,7.462-7.561,7.416,7.416,0,0,1,6.48,3.848s-2.4,1.422-3.025,1.743a1.169,1.169,0,0,0-.114-1.381,4.643,4.643,0,0,0-3.346-1.427,4.776,4.776,0,1,0,4.6,5.73l-4.334.005v-1.7l4.37-.005h2.767c.021.248.036.5.036.745a7.45,7.45,0,1,1-14.9.005Zm16.533,0a7.523,7.523,0,0,1,7.462-7.561,7.4,7.4,0,0,1,6.48,3.848s-2.4,1.422-3.025,1.743a1.152,1.152,0,0,0-.114-1.381,4.635,4.635,0,0,0-3.346-1.427,4.776,4.776,0,1,0,4.6,5.73l-4.334.005.005-1.7,4.365-.005h2.767a7.174,7.174,0,0,1,.036.745,7.45,7.45,0,1,1-14.9.005Zm17.2,3.108a7.444,7.444,0,0,1,3.76-9.753,7.252,7.252,0,0,1,9.6,3.817,7.445,7.445,0,0,1-3.76,9.748A7.25,7.25,0,0,1,216.093,341.022Zm17.03,1.319v-8.367s.047-2.219-.807-3.118h4.53c-.848.9-.8,3.118-.8,3.118v8.367a7.158,7.158,0,0,0,.031.786l.005.047h6.056l.352-.781.657.016-1.355,3.072H236.8l-1.8-.021h-2.679C233.169,344.565,233.123,342.341,233.123,342.341Zm11.76-1.319a7.448,7.448,0,0,1,3.76-9.753,7.252,7.252,0,0,1,9.6,3.817,7.441,7.441,0,0,1-3.76,9.748A7.25,7.25,0,0,1,244.883,341.022Zm15.944-3.108a7.52,7.52,0,0,1,7.462-7.561,7.416,7.416,0,0,1,6.48,3.848s-2.4,1.422-3.025,1.743a1.17,1.17,0,0,0-.114-1.381,4.643,4.643,0,0,0-3.346-1.427,4.776,4.776,0,1,0,4.6,5.73l-4.334.005v-1.7l4.365-.005h2.772q.031.372.031.745a7.448,7.448,0,1,1-14.894.005Zm16.507-6.552s-.191-.284-1.422-.284v-.29h4.546a.713.713,0,0,0-.295.827c.191.46,1.52,3.465,1.7,3.868.181-.4,1.526-3.408,1.717-3.873a.708.708,0,0,0-.295-.822h4.551l-.005.29c-1.231,0-1.422.284-1.422.284l-3.134,7.018-.01,5.59s.005,1.5.879,1.5h-4.6c.879,0,.89-1.5.89-1.5l.01-5.59Zm-21.72,4.892a4.4,4.4,0,0,0-5.823-2.312,4.513,4.513,0,0,0-2.275,5.911,4.394,4.394,0,0,0,5.823,2.306A4.511,4.511,0,0,0,255.614,336.254Zm-28.79,0A4.4,4.4,0,0,0,221,333.943a4.513,4.513,0,0,0-2.275,5.911,4.389,4.389,0,0,0,5.818,2.306A4.509,4.509,0,0,0,226.824,336.254Zm0,0A4.4,4.4,0,0,0,221,333.943a4.513,4.513,0,0,0-2.275,5.911,4.389,4.389,0,0,0,5.818,2.306A4.509,4.509,0,0,0,226.824,336.254Zm28.79,0a4.4,4.4,0,0,0-5.823-2.312,4.513,4.513,0,0,0-2.275,5.911,4.394,4.394,0,0,0,5.823,2.306A4.511,4.511,0,0,0,255.614,336.254Zm0,0a4.4,4.4,0,0,0-5.823-2.312,4.513,4.513,0,0,0-2.275,5.911,4.394,4.394,0,0,0,5.823,2.306A4.511,4.511,0,0,0,255.614,336.254Zm-28.79,0A4.4,4.4,0,0,0,221,333.943a4.513,4.513,0,0,0-2.275,5.911,4.389,4.389,0,0,0,5.818,2.306A4.509,4.509,0,0,0,226.824,336.254Zm0,0A4.4,4.4,0,0,0,221,333.943a4.513,4.513,0,0,0-2.275,5.911,4.389,4.389,0,0,0,5.818,2.306A4.509,4.509,0,0,0,226.824,336.254Zm0,0A4.4,4.4,0,0,0,221,333.943a4.513,4.513,0,0,0-2.275,5.911,4.389,4.389,0,0,0,5.818,2.306A4.509,4.509,0,0,0,226.824,336.254Z" transform="translate(-136.99 -283.862)" fill="#006726"/>
    </g>
    <g id="Group_1490" data-name="Group 1490" transform="translate(170.669 293.776)">
      <g id="Group_1489" data-name="Group 1489" transform="translate(0 0)">
        <g id="Group_1479" data-name="Group 1479" transform="translate(0 2.579)">
          <path id="Path_894" data-name="Path 894" d="M213.821,343.373h1.318v-.22h-1.184l-.3-.611-5.524,0,0,3.6h.217l0-3.378h5.174Z" transform="translate(-205.017 -342.54)" fill="#fff"/>
          <path id="Path_895" data-name="Path 895" d="M208.118,357.638h.217l0-3.075h.7l0-.217-.922,0Z" transform="translate(-205.013 -348.239)" fill="#fff"/>
          <path id="Path_896" data-name="Path 896" d="M211.544,364.048l-9.43-.019v.219l9.509.019h.079l.916-3.064-.207-.063Z" transform="translate(-202.114 -351.522)" fill="#fff"/>
          <path id="Path_897" data-name="Path 897" d="M212.092,352.438v.219h.725l0-3.586-.22,0v3.364Z" transform="translate(-206.932 -345.693)" fill="#fff"/>
        </g>
        <g id="Group_1480" data-name="Group 1480" transform="translate(15.042 2.982)">
          <path id="Path_898" data-name="Path 898" d="M235.156,343.539a3.66,3.66,0,0,1,2.654,1.131l.155-.156a3.888,3.888,0,0,0-2.808-1.2,4.024,4.024,0,0,0-2.973,6.658l.162-.145a3.8,3.8,0,0,1,2.811-6.293Z" transform="translate(-231.2 -343.318)" fill="#fff"/>
          <rect id="Rectangle_331" data-name="Rectangle 331" width="3.798" height="0.22" transform="translate(4.397 5.405)" fill="#fff"/>
          <path id="Path_899" data-name="Path 899" d="M240,359.743l0,.221a7.635,7.635,0,0,0,7.569-7.668h-.216A7.417,7.417,0,0,1,240,359.743Z" transform="translate(-235.45 -347.653)" fill="#fff"/>
        </g>
        <g id="Group_1481" data-name="Group 1481" transform="translate(31.576 2.982)">
          <path id="Path_900" data-name="Path 900" d="M267.129,343.539a3.66,3.66,0,0,1,2.652,1.131l.155-.156a3.884,3.884,0,0,0-2.806-1.2,4.023,4.023,0,0,0-2.975,6.658l.162-.145a3.809,3.809,0,0,1-.928-2.507A3.77,3.77,0,0,1,267.129,343.539Z" transform="translate(-263.172 -343.318)" fill="#fff"/>
          <rect id="Rectangle_332" data-name="Rectangle 332" width="3.798" height="0.22" transform="translate(4.397 5.405)" fill="#fff"/>
          <path id="Path_901" data-name="Path 901" d="M271.977,359.743l0,.221a7.635,7.635,0,0,0,7.569-7.668h-.217A7.415,7.415,0,0,1,271.977,359.743Z" transform="translate(-267.423 -347.653)" fill="#fff"/>
        </g>
        <g id="Group_1482" data-name="Group 1482" transform="translate(93.507 2.982)">
          <path id="Path_902" data-name="Path 902" d="M386.884,343.539a3.662,3.662,0,0,1,2.653,1.131l.154-.156a3.882,3.882,0,0,0-2.806-1.2,4.024,4.024,0,0,0-2.976,6.658l.164-.145a3.811,3.811,0,0,1-.929-2.507A3.771,3.771,0,0,1,386.884,343.539Z" transform="translate(-382.927 -343.318)" fill="#fff"/>
          <rect id="Rectangle_333" data-name="Rectangle 333" width="3.797" height="0.22" transform="translate(4.399 5.405)" fill="#fff"/>
          <path id="Path_903" data-name="Path 903" d="M391.732,359.743l0,.221a7.635,7.635,0,0,0,7.57-7.668h-.217A7.416,7.416,0,0,1,391.732,359.743Z" transform="translate(-387.178 -347.653)" fill="#fff"/>
        </g>
        <g id="Group_1483" data-name="Group 1483" transform="translate(48.028 1.307)">
          <path id="Path_904" data-name="Path 904" d="M308.16,340.242A7.876,7.876,0,0,1,310.138,343a7.972,7.972,0,0,1-4.021,10.427,7.712,7.712,0,0,1-2.629.652l.014.219a7.831,7.831,0,0,0,2.7-.671,8.192,8.192,0,0,0,4.133-10.715,8.067,8.067,0,0,0-2.031-2.833Z" transform="translate(-299.091 -340.079)" fill="#fff"/>
          <path id="Path_905" data-name="Path 905" d="M298.666,343.716a3.931,3.931,0,0,0-1.238.329,4.168,4.168,0,0,0-2.1,5.449,4.126,4.126,0,0,0,1.23,1.6l.133-.173a3.943,3.943,0,0,1,.824-6.678,3.812,3.812,0,0,1,1.174-.313Z" transform="translate(-294.986 -341.835)" fill="#fff"/>
        </g>
        <g id="Group_1484" data-name="Group 1484" transform="translate(76.818 1.307)">
          <path id="Path_906" data-name="Path 906" d="M363.833,340.242A7.892,7.892,0,0,1,365.809,343a7.974,7.974,0,0,1-4.02,10.427,7.723,7.723,0,0,1-2.63.652l.014.219a7.842,7.842,0,0,0,2.7-.671,8.192,8.192,0,0,0,4.13-10.715,8.071,8.071,0,0,0-2.03-2.833Z" transform="translate(-354.761 -340.079)" fill="#fff"/>
          <path id="Path_907" data-name="Path 907" d="M354.338,343.716a3.936,3.936,0,0,0-1.24.329,4.165,4.165,0,0,0-.871,7.053l.135-.173a3.9,3.9,0,0,1-1.165-1.519,3.942,3.942,0,0,1,1.989-5.159,3.811,3.811,0,0,1,1.175-.313Z" transform="translate(-350.656 -341.835)" fill="#fff"/>
        </g>
        <g id="Group_1485" data-name="Group 1485" transform="translate(109.796)">
          <path id="Path_908" data-name="Path 908" d="M422.5,338.067v.179c-1.134.015-1.371.28-1.418.351l-3.132,7.019-.02,5.15a2.775,2.775,0,0,0,.861,1.9,3.067,3.067,0,0,0,.3.234l-3.872,0v.219H419.7l0-.221a1.312,1.312,0,0,1-.767-.4,2.558,2.558,0,0,1-.784-1.73l.01-5.084,3.109-6.973s.222-.245,1.339-.245h.11v-.4Z" transform="translate(-414.809 -337.801)" fill="#fff"/>
          <path id="Path_909" data-name="Path 909" d="M415.544,340.92l.229.507.2-.094-.229-.506c-.343-.764-.917-2.046-1.062-2.4a.6.6,0,0,1,.256-.692l-.119-.187a.814.814,0,0,0-.337.964C414.625,338.87,415.2,340.153,415.544,340.92Z" transform="translate(-414.424 -337.552)" fill="#fff"/>
        </g>
        <g id="Group_1488" data-name="Group 1488" transform="translate(62.724 0.473)">
          <g id="Group_1486" data-name="Group 1486" transform="translate(0 11.679)">
            <path id="Path_910" data-name="Path 910" d="M332.32,364.274H323.4v-.221h8.777l1.324-3,.2.09Z" transform="translate(-323.403 -361.049)" fill="#fff"/>
          </g>
          <g id="Group_1487" data-name="Group 1487" transform="translate(3.021)">
            <path id="Path_911" data-name="Path 911" d="M329.464,350.011h-.217v-8.346c0-.09-.036-2.274.835-3.2l.157.154c-.81.855-.774,3.021-.774,3.042Z" transform="translate(-329.246 -338.466)" fill="#fff"/>
          </g>
        </g>
      </g>
    </g>
  </g>
</svg>
