<svg xmlns="http://www.w3.org/2000/svg" width="315.485" height="89.573" viewBox="0 0 315.485 89.573">
  <g id="akara-egg-logo" transform="translate(-95.621 -89.34)">
    <g id="Group_1603" data-name="Group 1603" transform="translate(97.25 96.335)">
      <g id="Group_1601" data-name="Group 1601" transform="translate(0 0)">
        <path id="Path_1045" data-name="Path 1045" d="M116.478,105.846c48.9-36.04,113.292,66.931,32.916,73.19-15.938.888-32.809-2.569-43.178-13.468C89.524,148.023,99.694,118.215,116.478,105.846Z" transform="translate(-97.688 -98.215)" fill="#f8c506"/>
      </g>
      <g id="Group_1602" data-name="Group 1602" transform="translate(10.182 6.063)">
        <path id="Path_1046" data-name="Path 1046" d="M183.394,151.992c-7.441,4.4-11.661,4.97-14.5,4.97a25.375,25.375,0,0,1-3.3-.251,7.52,7.52,0,0,1-5.812-3.658c-2.247-3.661-2.614-10.115-1.089-18.685,1.3-7.293,2.478-13.515,2.727-14.2a2.387,2.387,0,0,0-.493-2.236c-1.291-1.845-4.184-4.382-5.724-4.382a1.433,1.433,0,0,0-.635.136l-.047.02a54.821,54.821,0,0,1-11.831,4.82c0-.1.177-12.022-4.07-12.468a8.7,8.7,0,0,0-1.077-.156,4.506,4.506,0,0,0-2.691.829c-1.385,1.07-1.247,2.995-1.07,5.657.028.361.055.737.073,1.138a53.87,53.87,0,0,1-.212,8.213,26.172,26.172,0,0,1-6.244.525,26.544,26.544,0,0,1-4.826-.627,16.1,16.1,0,0,1-1.632-.432,7.748,7.748,0,0,0-2.448-.448,3.024,3.024,0,0,0-1.044.171,2.829,2.829,0,0,0-1.949,3.088c.266,2.429,1.834,3.917,4.66,5.078,4.051,1.647,10.555,1.826,11.115,1.794-1.454,6.323-3.709,13.954-17.484,27.536-1.454,1.448-3.263,2.738-3.185,4.624a2.349,2.349,0,0,0,1.807,2.341c2.165.638,6.695-1.18,10.76-4.711,7.909-6.851,13.539-12.754,18.4-30.806,2.347-.777,5.378-1.647,7.328-2.3a124.56,124.56,0,0,0-1.755,23.323c.316,7.114,3.779,12.959,9.259,15.648a22.842,22.842,0,0,0,7.05,2.154c.473.019,1.019.057,1.472.057h.011a19.012,19.012,0,0,0,14.724-6.4,27.229,27.229,0,0,0,5.062-8.638c.06-.181.114-.329.163-.437l1.2-2.885Z" transform="translate(-110.605 -105.906)" fill="#fff"/>
      </g>
    </g>
    <g id="Group_1610" data-name="Group 1610" transform="translate(202.018 90.966)">
      <g id="Group_1609" data-name="Group 1609" transform="translate(0 0)">
        <g id="Group_1604" data-name="Group 1604" transform="translate(0 18.292)">
          <path id="Path_1047" data-name="Path 1047" d="M255.187,114.608H241.775V124.9h13.412a5,5,0,0,1,5.006,5v4.223A19.891,19.891,0,0,0,230.6,151.535v9.089a19.944,19.944,0,1,0,39.888,0V129.893A15.31,15.31,0,0,0,255.187,114.608Zm5.006,46.016a9.657,9.657,0,1,1-19.314,0v-9.089a9.657,9.657,0,0,1,19.314,0v9.089Z" transform="translate(-230.6 -114.608)" fill="#402020"/>
        </g>
        <g id="Group_1605" data-name="Group 1605" transform="translate(90.189 18.292)">
          <path id="Path_1048" data-name="Path 1048" d="M384.907,156.086V129.893a15.308,15.308,0,0,0-15.288-15.285H356.232V124.9h13.387a5.008,5.008,0,0,1,5,5v4.223a19.895,19.895,0,0,0-29.6,17.419v9.089a19.945,19.945,0,1,0,39.89,0Zm-10.293,4.538a9.658,9.658,0,1,1-19.317,0v-9.089a9.658,9.658,0,0,1,19.317,0v9.089Z" transform="translate(-345.017 -114.608)" fill="#402020"/>
        </g>
        <g id="Group_1606" data-name="Group 1606" transform="translate(167.569 18.292)">
          <path id="Path_1049" data-name="Path 1049" d="M463.133,180.582a19.985,19.985,0,0,0,19.947-19.958V129.893a15.307,15.307,0,0,0-15.285-15.285h-13.4V124.9h13.4a5,5,0,0,1,4.992,5v4.223a19.9,19.9,0,0,0-29.6,17.419v9.089A19.984,19.984,0,0,0,463.133,180.582Zm-9.651-29.047a9.652,9.652,0,0,1,19.3,0v9.089a9.652,9.652,0,1,1-19.3,0Z" transform="translate(-443.185 -114.608)" fill="#402020"/>
        </g>
        <g id="Group_1607" data-name="Group 1607" transform="translate(139.102 18.292)">
          <path id="Path_1050" data-name="Path 1050" d="M417.376,129.893a5.006,5.006,0,0,1,4.982-5h13.415v-10.29H422.357a15.311,15.311,0,0,0-15.287,15.285v49.62h10.306Z" transform="translate(-407.07 -114.608)" fill="#402020"/>
        </g>
        <g id="Group_1608" data-name="Group 1608" transform="translate(49.845)">
          <path id="Path_1051" data-name="Path 1051" d="M334.373,174.6l-27.693-32.754,26.976-31.887H320.178L304.123,128.98V91.4H293.835v83.2h10.288V154.735L320.908,174.6Z" transform="translate(-293.835 -91.402)" fill="#402020"/>
        </g>
      </g>
    </g>
    <g id="Group_1613" data-name="Group 1613" transform="translate(95.621 94.691)">
      <g id="Group_1611" data-name="Group 1611" transform="translate(0 0)">
        <path id="Path_1052" data-name="Path 1052" d="M116.478,105.846c48.9-36.04,113.292,66.931,32.916,73.19-15.938.888-32.809-2.569-43.178-13.468C89.524,148.023,99.694,118.215,116.478,105.846Z" transform="translate(-96.059 -96.57)" fill="#f8c506"/>
        <path id="Path_1053" data-name="Path 1053" d="M144.238,180.351c-11.517,0-28.418-2.309-39.639-14.1-6.7-7.045-9.749-16.41-8.813-27.08,1.189-13.546,8.761-27.313,19.288-35.071l.966,1.309-.966-1.309c14.6-10.759,32.24-10.614,48.4.389,18.244,12.425,28.629,34.471,24.154,51.281-3.758,14.124-17.447,22.806-38.543,24.45C147.618,180.3,145.991,180.351,144.238,180.351Zm-27.233-73.638c-9.659,7.119-16.883,20.275-17.979,32.738-.6,6.774.3,16.533,7.93,24.555,12.026,12.642,31.419,13.548,41.909,12.966,19.865-1.548,32.194-9.17,35.619-22.042,4.068-15.286-5.965-36.263-22.842-47.756-14.952-10.183-31.22-10.35-44.637-.461Z" transform="translate(-95.621 -96.128)" fill="#fff"/>
      </g>
      <g id="Group_1612" data-name="Group 1612" transform="translate(10.184 6.082)">
        <path id="Path_1054" data-name="Path 1054" d="M183.394,151.992c-7.441,4.4-11.661,4.97-14.5,4.97a25.375,25.375,0,0,1-3.3-.251,7.52,7.52,0,0,1-5.812-3.658c-2.247-3.661-2.614-10.115-1.089-18.685,1.3-7.293,2.478-13.515,2.727-14.2a2.387,2.387,0,0,0-.493-2.236c-1.291-1.845-4.184-4.382-5.724-4.382a1.433,1.433,0,0,0-.635.136l-.047.02a54.821,54.821,0,0,1-11.831,4.82c0-.1.177-12.022-4.07-12.468a8.7,8.7,0,0,0-1.077-.156,4.506,4.506,0,0,0-2.691.829c-1.385,1.07-1.247,2.995-1.07,5.657.028.361.055.737.073,1.138a53.87,53.87,0,0,1-.212,8.213,26.172,26.172,0,0,1-6.244.525,26.544,26.544,0,0,1-4.826-.627,16.1,16.1,0,0,1-1.632-.432,7.748,7.748,0,0,0-2.448-.448,3.024,3.024,0,0,0-1.044.171,2.829,2.829,0,0,0-1.949,3.088c.266,2.429,1.834,3.917,4.66,5.078,4.051,1.647,10.555,1.826,11.115,1.794-1.454,6.323-3.709,13.954-17.484,27.536-1.454,1.448-3.263,2.738-3.185,4.624a2.349,2.349,0,0,0,1.807,2.341c2.165.638,6.695-1.18,10.76-4.711,7.909-6.851,13.539-12.754,18.4-30.806,2.347-.777,5.378-1.647,7.328-2.3a124.56,124.56,0,0,0-1.755,23.323c.316,7.114,3.779,12.959,9.259,15.648a22.842,22.842,0,0,0,7.05,2.154c.473.019,1.019.057,1.472.057h.011a19.012,19.012,0,0,0,14.724-6.4,27.229,27.229,0,0,0,5.062-8.638c.06-.181.114-.329.163-.437l1.2-2.885Z" transform="translate(-108.978 -104.281)" fill="#fff"/>
        <path id="Path_1055" data-name="Path 1055" d="M164.5,169.949c-.346,0-.729-.019-1.1-.038l-.449-.021a24.273,24.273,0,0,1-7.7-2.317c-6.026-2.957-9.825-9.327-10.169-17.037a120.849,120.849,0,0,1,1.36-21.05l-.925.283c-1.017.311-2.069.633-3.044.946-4.924,17.822-10.611,23.777-18.674,30.76-4.383,3.81-9.431,5.884-12.284,5.042a3.948,3.948,0,0,1-2.971-3.833c-.1-2.306,1.582-3.877,2.928-5.14.248-.233.5-.465.735-.7,11.793-11.629,14.931-18.585,16.576-24.831a34.051,34.051,0,0,1-9.673-1.842c-2.232-.916-5.243-2.575-5.664-6.405a4.431,4.431,0,0,1,3-4.789,4.639,4.639,0,0,1,1.608-.274,9.346,9.346,0,0,1,2.924.519,14.541,14.541,0,0,0,1.462.389l.259.049a23.494,23.494,0,0,0,4.261.549,28.691,28.691,0,0,0,4.724-.261,47.58,47.58,0,0,0,.11-6.754c-.017-.408-.044-.765-.072-1.107-.2-2.977-.362-5.481,1.7-7.072a6.083,6.083,0,0,1,3.685-1.168h0a4.876,4.876,0,0,1,1.016.122c.076.016.148.033.219.041,4.331.454,5.326,7.33,5.505,11.891a50.137,50.137,0,0,0,9.457-4.051c.043-.024.135-.067.181-.087a2.989,2.989,0,0,1,1.282-.27c2.477,0,5.817,3.306,7.056,5.076a3.9,3.9,0,0,1,.687,3.73c-.192.6-1.193,5.7-2.654,13.919-1.434,8.061-1.122,14.294.875,17.549a5.909,5.909,0,0,0,4.633,2.9,23.878,23.878,0,0,0,3.088.239c2.633,0,6.568-.54,13.675-4.744h0l2.69-1.59a1.627,1.627,0,0,1,2.329,2.023l-1.2,2.886a3.279,3.279,0,0,0-.124.329,28.909,28.909,0,0,1-5.4,9.212A20.58,20.58,0,0,1,164.5,169.949Zm-16.038-44.434a1.627,1.627,0,0,1,1.6,1.905,123.314,123.314,0,0,0-1.733,22.97c.289,6.507,3.411,11.839,8.351,14.263a21.326,21.326,0,0,0,6.429,1.99l.451.02c.316.016.642.033.925.033a17.457,17.457,0,0,0,13.527-5.858,24.546,24.546,0,0,0,4.324-7.053c-6.907,3.848-11.032,4.366-13.886,4.366a26.9,26.9,0,0,1-3.5-.264,9.179,9.179,0,0,1-6.99-4.421c-2.483-4.048-2.923-10.717-1.3-19.818.552-3.107,2.385-13.333,2.8-14.471.047-.131-.067-.418-.294-.737-1.287-1.842-3.685-3.647-4.4-3.7a55.773,55.773,0,0,1-12.039,4.909,1.627,1.627,0,0,1-2.093-1.558c.054-5.641-1.167-10.7-2.614-10.853a5.2,5.2,0,0,1-.546-.09,2.018,2.018,0,0,0-.36-.056,2.938,2.938,0,0,0-1.692.486c-.662.512-.605,1.863-.451,4.21.033.415.06.811.079,1.234a55.5,55.5,0,0,1-.216,8.417,1.626,1.626,0,0,1-1.259,1.451,27.647,27.647,0,0,1-6.605.565,26.147,26.147,0,0,1-4.865-.606l-.262-.049a17.573,17.573,0,0,1-1.811-.477,6.241,6.241,0,0,0-1.969-.374,1.381,1.381,0,0,0-.5.076,1.2,1.2,0,0,0-.886,1.326c.14,1.275.676,2.576,3.668,3.8,3.675,1.495,9.74,1.708,10.414,1.673a1.742,1.742,0,0,1,1.326.588,1.636,1.636,0,0,1,.343,1.4c-1.6,6.97-4.309,14.9-17.927,28.329-.255.255-.527.51-.8.765-1,.934-1.937,1.815-1.9,2.634a.753.753,0,0,0,.632.845c1.316.392,5.26-.918,9.242-4.376,7.736-6.7,13.161-12.409,17.9-30a1.625,1.625,0,0,1,1.059-1.121c1.213-.4,2.608-.829,3.943-1.238,1.246-.382,2.442-.747,3.382-1.06A1.591,1.591,0,0,1,148.463,125.514Z" transform="translate(-108.541 -103.844)" fill="#fff"/>
      </g>
    </g>
    <g id="Group_1620" data-name="Group 1620" transform="translate(200.391 89.34)">
      <g id="Group_1619" data-name="Group 1619">
        <g id="Group_1614" data-name="Group 1614" transform="translate(0 18.292)">
          <path id="Path_1056" data-name="Path 1056" d="M255.187,114.608H241.775V124.9h13.412a5,5,0,0,1,5.006,5v4.223A19.891,19.891,0,0,0,230.6,151.535v9.089a19.944,19.944,0,1,0,39.888,0V129.893A15.31,15.31,0,0,0,255.187,114.608Zm5.006,46.016a9.657,9.657,0,1,1-19.314,0v-9.089a9.657,9.657,0,0,1,19.314,0v9.089Z" transform="translate(-228.973 -112.983)" fill="#402020"/>
          <path id="Path_1057" data-name="Path 1057" d="M250.11,181.771a21.6,21.6,0,0,1-21.574-21.583V151.1a21.6,21.6,0,0,1,21.574-21.57,21.379,21.379,0,0,1,8.02,1.575v-1.647a3.379,3.379,0,0,0-3.381-3.37H241.337a1.625,1.625,0,0,1-1.626-1.625v-10.29a1.625,1.625,0,0,1,1.626-1.625h13.412a16.938,16.938,0,0,1,16.927,16.91v30.731A21.6,21.6,0,0,1,250.11,181.771Zm0-48.991A18.341,18.341,0,0,0,231.788,151.1v9.089a18.318,18.318,0,1,0,36.636,0V129.456A13.682,13.682,0,0,0,254.749,115.8H242.963v7.037h11.786a6.635,6.635,0,0,1,6.633,6.621v4.223a1.626,1.626,0,0,1-2.417,1.421A18.248,18.248,0,0,0,250.11,132.779Zm0,38.7a11.306,11.306,0,0,1-11.295-11.292V151.1a11.283,11.283,0,0,1,22.567,0v9.089A11.3,11.3,0,0,1,250.11,171.48Zm0-28.407a8.042,8.042,0,0,0-8.042,8.025v9.089a8.031,8.031,0,1,0,16.062,0V151.1A8.031,8.031,0,0,0,250.11,143.073Z" transform="translate(-228.536 -112.546)" fill="#fff"/>
        </g>
        <g id="Group_1615" data-name="Group 1615" transform="translate(90.189 18.292)">
          <path id="Path_1058" data-name="Path 1058" d="M384.907,156.086V129.893a15.308,15.308,0,0,0-15.288-15.285H356.232V124.9h13.387a5.008,5.008,0,0,1,5,5v4.223a19.895,19.895,0,0,0-29.6,17.419v9.089a19.945,19.945,0,1,0,39.89,0Zm-10.293,4.538a9.658,9.658,0,1,1-19.317,0v-9.089a9.658,9.658,0,0,1,19.317,0v9.089Z" transform="translate(-343.391 -112.983)" fill="#402020"/>
          <path id="Path_1059" data-name="Path 1059" d="M364.529,181.771a21.6,21.6,0,0,1-21.575-21.583V151.1a21.51,21.51,0,0,1,29.6-19.992v-1.65a3.374,3.374,0,0,0-3.37-3.37H355.795a1.625,1.625,0,0,1-1.626-1.625v-10.29a1.625,1.625,0,0,1,1.626-1.625h13.387a16.931,16.931,0,0,1,16.914,16.91v30.731A21.6,21.6,0,0,1,364.529,181.771Zm0-48.991A18.342,18.342,0,0,0,346.206,151.1v9.089a18.319,18.319,0,1,0,36.638,0V129.456A13.676,13.676,0,0,0,369.181,115.8H357.421v7.037h11.761a6.629,6.629,0,0,1,6.621,6.621v4.223a1.626,1.626,0,0,1-2.414,1.423A18.345,18.345,0,0,0,364.529,132.779Zm0,38.7a11.306,11.306,0,0,1-11.3-11.292V151.1a11.285,11.285,0,0,1,22.569,0v9.089A11.3,11.3,0,0,1,364.529,171.48Zm0-28.407a8.044,8.044,0,0,0-8.044,8.025v9.089a8.033,8.033,0,1,0,16.066,0V151.1A8.032,8.032,0,0,0,364.529,143.073Z" transform="translate(-342.954 -112.546)" fill="#fff"/>
        </g>
        <g id="Group_1616" data-name="Group 1616" transform="translate(167.569 18.292)">
          <path id="Path_1060" data-name="Path 1060" d="M463.133,180.582a19.985,19.985,0,0,0,19.947-19.958V129.893a15.307,15.307,0,0,0-15.285-15.285h-13.4V124.9h13.4a5,5,0,0,1,4.992,5v4.223a19.9,19.9,0,0,0-29.6,17.419v9.089A19.984,19.984,0,0,0,463.133,180.582Zm-9.651-29.047a9.652,9.652,0,0,1,19.3,0v9.089a9.652,9.652,0,1,1-19.3,0Z" transform="translate(-441.558 -112.983)" fill="#402020"/>
          <path id="Path_1061" data-name="Path 1061" d="M462.7,181.771a21.6,21.6,0,0,1-21.574-21.583V151.1a21.6,21.6,0,0,1,21.574-21.57,21.145,21.145,0,0,1,8.028,1.576v-1.648a3.372,3.372,0,0,0-3.367-3.37h-13.4a1.624,1.624,0,0,1-1.626-1.625v-10.29a1.624,1.624,0,0,1,1.626-1.625h13.4a16.93,16.93,0,0,1,16.91,16.91v30.731A21.6,21.6,0,0,1,462.7,181.771Zm0-48.991A18.34,18.34,0,0,0,444.373,151.1v9.089a18.321,18.321,0,1,0,36.642,0V129.456A13.674,13.674,0,0,0,467.357,115.8H455.581v7.037h11.776a6.628,6.628,0,0,1,6.618,6.621v4.223a1.625,1.625,0,0,1-2.41,1.424A18.214,18.214,0,0,0,462.7,132.779Zm0,38.7a11.3,11.3,0,0,1-11.277-11.292V151.1a11.278,11.278,0,0,1,22.556,0v9.089A11.3,11.3,0,0,1,462.7,171.48Zm0-28.407a8.034,8.034,0,0,0-8.025,8.025v9.089a8.027,8.027,0,1,0,16.053,0V151.1A8.036,8.036,0,0,0,462.7,143.073Z" transform="translate(-441.121 -112.546)" fill="#fff"/>
        </g>
        <g id="Group_1617" data-name="Group 1617" transform="translate(139.102 18.292)">
          <path id="Path_1062" data-name="Path 1062" d="M417.376,129.893a5.006,5.006,0,0,1,4.982-5h13.415v-10.29H422.357a15.311,15.311,0,0,0-15.287,15.285v49.62h10.306Z" transform="translate(-405.444 -112.983)" fill="#402020"/>
          <path id="Path_1063" data-name="Path 1063" d="M416.939,180.7H406.633a1.626,1.626,0,0,1-1.626-1.626v-49.62a16.93,16.93,0,0,1,16.912-16.91h13.416a1.625,1.625,0,0,1,1.626,1.625v10.29a1.625,1.625,0,0,1-1.626,1.625H421.919a3.367,3.367,0,0,0-3.355,3.37v49.62A1.625,1.625,0,0,1,416.939,180.7Zm-8.679-3.252h7.053V129.456a6.622,6.622,0,0,1,6.606-6.621h11.791V115.8H421.919a13.675,13.675,0,0,0-13.66,13.659Z" transform="translate(-405.007 -112.546)" fill="#fff"/>
        </g>
        <g id="Group_1618" data-name="Group 1618" transform="translate(49.846)">
          <path id="Path_1064" data-name="Path 1064" d="M334.373,174.6l-27.693-32.754,26.976-31.887H320.178L304.123,128.98V91.4H293.835v83.2h10.288V154.735L320.908,174.6Z" transform="translate(-292.209 -89.777)" fill="#402020"/>
          <path id="Path_1065" data-name="Path 1065" d="M333.935,175.788H320.47a1.627,1.627,0,0,1-1.241-.576l-13.917-16.471v15.421a1.626,1.626,0,0,1-1.626,1.626H293.4a1.625,1.625,0,0,1-1.626-1.626v-83.2A1.625,1.625,0,0,1,293.4,89.34h10.287a1.625,1.625,0,0,1,1.626,1.626V124.1L318.5,108.474a1.625,1.625,0,0,1,1.243-.579h13.478a1.626,1.626,0,0,1,1.241,2.675l-26.089,30.838,26.807,31.7a1.626,1.626,0,0,1-1.242,2.675Zm-12.71-3.252h9.206L305,142.458a1.625,1.625,0,0,1,0-2.1l24.711-29.211H320.5l-15.567,18.444a1.626,1.626,0,0,1-2.869-1.048V92.592h-7.035v79.945h7.035V154.3a1.626,1.626,0,0,1,2.868-1.05Z" transform="translate(-291.772 -89.34)" fill="#fff"/>
        </g>
      </g>
    </g>
    <g id="Group_1621" data-name="Group 1621" transform="translate(97.25 96.335)">
      <path id="Path_1066" data-name="Path 1066" d="M116.478,105.846c48.9-36.04,113.292,66.931,32.916,73.19-15.938.888-32.809-2.569-43.178-13.468C89.524,148.023,99.694,118.215,116.478,105.846Z" transform="translate(-97.688 -98.215)" fill="#f8c506"/>
      <path id="Path_1067" data-name="Path 1067" d="M183.394,151.992c-7.441,4.4-11.661,4.97-14.5,4.97a25.375,25.375,0,0,1-3.3-.251,7.52,7.52,0,0,1-5.812-3.658c-2.247-3.661-2.614-10.115-1.089-18.685,1.3-7.293,2.478-13.515,2.727-14.2a2.387,2.387,0,0,0-.493-2.236c-1.291-1.845-4.184-4.382-5.724-4.382a1.433,1.433,0,0,0-.635.136l-.047.02a54.821,54.821,0,0,1-11.831,4.82c0-.1.177-12.022-4.07-12.468a8.7,8.7,0,0,0-1.077-.156,4.506,4.506,0,0,0-2.691.829c-1.385,1.07-1.247,2.995-1.07,5.657.028.361.055.737.073,1.138a53.87,53.87,0,0,1-.212,8.213,26.172,26.172,0,0,1-6.244.525,26.544,26.544,0,0,1-4.826-.627,16.1,16.1,0,0,1-1.632-.432,7.748,7.748,0,0,0-2.448-.448,3.024,3.024,0,0,0-1.044.171,2.829,2.829,0,0,0-1.949,3.088c.266,2.429,1.834,3.917,4.66,5.078,4.051,1.647,10.555,1.826,11.115,1.794-1.454,6.323-3.709,13.954-17.484,27.536-1.454,1.448-3.263,2.738-3.185,4.624a2.349,2.349,0,0,0,1.807,2.341c2.165.638,6.695-1.18,10.76-4.711,7.909-6.851,13.539-12.754,18.4-30.806,2.347-.777,5.378-1.647,7.328-2.3a124.56,124.56,0,0,0-1.755,23.323c.316,7.114,3.779,12.959,9.259,15.648a22.842,22.842,0,0,0,7.05,2.154c.473.019,1.019.057,1.472.057h.011a19.012,19.012,0,0,0,14.724-6.4,27.229,27.229,0,0,0,5.062-8.638c.06-.181.114-.329.163-.437l1.2-2.885Z" transform="translate(-100.423 -99.843)" fill="#fff"/>
    </g>
    <g id="Group_1623" data-name="Group 1623" transform="translate(202.018 90.966)">
      <g id="Group_1622" data-name="Group 1622" transform="translate(0 0)">
        <path id="Path_1068" data-name="Path 1068" d="M255.187,114.608H241.775V124.9h13.412a5,5,0,0,1,5.006,5v4.223A19.891,19.891,0,0,0,230.6,151.535v9.089a19.944,19.944,0,1,0,39.888,0V129.893A15.31,15.31,0,0,0,255.187,114.608Zm5.006,46.016a9.657,9.657,0,1,1-19.314,0v-9.089a9.657,9.657,0,0,1,19.314,0v9.089Z" transform="translate(-230.6 -96.316)" fill="#402020"/>
        <path id="Path_1069" data-name="Path 1069" d="M384.907,156.086V129.893a15.308,15.308,0,0,0-15.288-15.285H356.232V124.9h13.387a5.008,5.008,0,0,1,5,5v4.223a19.895,19.895,0,0,0-29.6,17.419v9.089a19.945,19.945,0,1,0,39.89,0Zm-10.293,4.538a9.658,9.658,0,1,1-19.317,0v-9.089a9.658,9.658,0,0,1,19.317,0v9.089Z" transform="translate(-254.828 -96.316)" fill="#402020"/>
        <path id="Path_1070" data-name="Path 1070" d="M463.133,180.582a19.985,19.985,0,0,0,19.947-19.958V129.893a15.307,15.307,0,0,0-15.285-15.285h-13.4V124.9h13.4a5,5,0,0,1,4.992,5v4.223a19.9,19.9,0,0,0-29.6,17.419v9.089A19.984,19.984,0,0,0,463.133,180.582Zm-9.651-29.047a9.652,9.652,0,0,1,19.3,0v9.089a9.652,9.652,0,1,1-19.3,0Z" transform="translate(-275.616 -96.316)" fill="#402020"/>
        <path id="Path_1071" data-name="Path 1071" d="M417.376,129.893a5.006,5.006,0,0,1,4.982-5h13.415v-10.29H422.357a15.311,15.311,0,0,0-15.287,15.285v49.62h10.306Z" transform="translate(-267.968 -96.316)" fill="#402020"/>
        <path id="Path_1072" data-name="Path 1072" d="M334.373,174.6l-27.693-32.754,26.976-31.887H320.178L304.123,128.98V91.4H293.835v83.2h10.288V154.735L320.908,174.6Z" transform="translate(-243.99 -91.402)" fill="#402020"/>
      </g>
    </g>
  </g>
</svg>
