<svg xmlns="http://www.w3.org/2000/svg" width="170.93" height="56.73" viewBox="0 0 170.93 56.73">
  <g id="ico_logo_about_us_01" transform="translate(-787.29 -898.485)">
    <g id="Group_2" data-name="Group 2" transform="translate(854.912 906.337)">
      <path id="Path_1" data-name="Path 1" d="M854.74,912.539h-6.668v5.248h6.668a2.532,2.532,0,0,1,2.489,2.557v2.162a9.7,9.7,0,0,0-4.816-1.285,10.081,10.081,0,0,0-9.926,10.193v4.652a9.936,9.936,0,1,0,19.866,0V920.344A7.727,7.727,0,0,0,854.74,912.539Zm2.489,23.526a4.81,4.81,0,1,1-9.617,0v-4.652a4.81,4.81,0,1,1,9.617,0v4.652Z" transform="translate(-842.488 -903.174)" fill="#211e1f"/>
      <path id="Path_2" data-name="Path 2" d="M899.013,933.745v-13.4a7.719,7.719,0,0,0-7.62-7.8h-6.667v5.248h6.667a2.523,2.523,0,0,1,2.491,2.557V922.5a9.682,9.682,0,0,0-4.806-1.285,10.087,10.087,0,0,0-9.932,10.2v4.647a9.937,9.937,0,1,0,19.867,0Zm-5.129,2.315a4.808,4.808,0,1,1-9.613,0v-4.647a4.808,4.808,0,1,1,9.613,0v4.647Z" transform="translate(-834.237 -903.174)" fill="#211e1f"/>
      <path id="Path_3" data-name="Path 3" d="M920.539,946.255a10.063,10.063,0,0,0,9.926-10.194V920.344a7.714,7.714,0,0,0-7.61-7.8h-6.672v5.248h6.672a2.53,2.53,0,0,1,2.5,2.557V922.5a9.724,9.724,0,0,0-4.811-1.285,10.08,10.08,0,0,0-9.932,10.2v4.647A10.064,10.064,0,0,0,920.539,946.255Zm-4.806-14.841a4.81,4.81,0,1,1,9.617,0v4.647a4.81,4.81,0,1,1-9.617,0Z" transform="translate(-827.156 -903.174)" fill="#211e1f"/>
      <path id="Path_4" data-name="Path 4" d="M904.162,920.344a2.52,2.52,0,0,1,2.486-2.557h6.668v-5.248h-6.668a7.721,7.721,0,0,0-7.61,7.8v25.371h5.124Z" transform="translate(-829.76 -903.174)" fill="#211e1f"/>
      <path id="Path_5" data-name="Path 5" d="M882.931,947.436,869.155,930.7l13.419-16.314h-6.705l-8,9.722V904.894H862.75v42.542h5.115V937.29l8.365,10.146Z" transform="translate(-837.928 -904.894)" fill="#211e1f"/>
    </g>
    <g id="Group_3" data-name="Group 3" transform="translate(787.29 898.485)">
      <path id="Path_6" data-name="Path 6" d="M800.113,903.837c33.366-25.27,77.315,46.9,22.464,51.287-10.877.616-22.39-1.8-29.474-9.423C781.723,933.392,788.659,912.51,800.113,903.837Z" transform="translate(-787.29 -898.485)" fill="#ffc416"/>
      <path id="Path_7" data-name="Path 7" d="M842.634,934.255c-5.079,3.081-7.953,3.48-9.889,3.48a16.682,16.682,0,0,1-2.252-.178A5.121,5.121,0,0,1,826.523,935c-1.534-2.562-1.786-7.092-.746-13.092.9-5.113,1.7-9.471,1.866-9.948a1.76,1.76,0,0,0-.337-1.584c-.886-1.286-2.869-3.068-3.906-3.068a1.061,1.061,0,0,0-.436.1l-.028.018a37.611,37.611,0,0,1-8.07,3.376c0-.064.118-8.422-2.786-8.74a5.659,5.659,0,0,0-.731-.111,3.081,3.081,0,0,0-1.842.583c-.942.756-.853,2.1-.731,3.963.02.25.033.519.056.8a38.96,38.96,0,0,1-.146,5.759,17.764,17.764,0,0,1-4.266.361,17.573,17.573,0,0,1-3.292-.439,8.013,8.013,0,0,1-1.116-.312,5.406,5.406,0,0,0-1.67-.3,2.112,2.112,0,0,0-.717.115,1.968,1.968,0,0,0-1.318,2.162c.184,1.7,1.242,2.744,3.179,3.554a23.492,23.492,0,0,0,7.587,1.251c-.995,4.45-2.522,9.79-11.933,19.318-.994,1.007-2.232,1.922-2.171,3.242a1.629,1.629,0,0,0,1.224,1.632c1.477.448,4.567-.823,7.347-3.3,5.388-4.811,9.242-8.937,12.557-21.591,1.594-.554,3.672-1.165,5-1.613a88.714,88.714,0,0,0-1.2,16.347c.221,4.993,2.584,9.086,6.312,10.968a15.268,15.268,0,0,0,4.816,1.5c.327.033.693.048,1.007.048h0a12.807,12.807,0,0,0,10.053-4.483,19.285,19.285,0,0,0,3.461-6.058,1.968,1.968,0,0,1,.118-.307l.8-2.008Z" transform="translate(-786.012 -897.705)" fill="#fff"/>
    </g>
  </g>
</svg>
