<?xml version="1.0" encoding="utf-8"?>
<!-- Generator: Adobe Illustrator 24.3.0, SVG Export Plug-In . SVG Version: 6.00 Build 0)  -->
<svg version="1.1" id="Layer_1" xmlns="http://www.w3.org/2000/svg" xmlns:xlink="http://www.w3.org/1999/xlink" x="0px" y="0px"
	 viewBox="0 0 170 48.3" style="enable-background:new 0 0 170 48.3;" xml:space="preserve">
<style type="text/css">
	.st0{fill:#F8C506;}
	.st1{fill:#FFFFFF;}
	.st2{fill:#402020;}
</style>
<g id="akara-egg-logo" transform="translate(-95.621 -89.34)">
	<g id="Group_1603" transform="translate(97.25 96.335)">
		<g id="Group_1601" transform="translate(0 0)">
			<path id="Path_1045" class="st0" d="M9.4,0.9c26.3-19.4,61,36.1,17.7,39.4c-8.6,0.5-17.7-1.4-23.3-7.3C-5.2,23.6,0.3,7.6,9.4,0.9
				z"/>
		</g>
		<g id="Group_1602" transform="translate(10.182 6.063)">
			<path id="Path_1046" class="st1" d="M33.8,18.8c-4,2.4-6.3,2.7-7.8,2.7c-0.6,0-1.2-0.1-1.8-0.1c-1.3-0.1-2.5-0.8-3.1-2
				c-1.2-2-1.4-5.5-0.6-10.1c0.7-3.9,1.3-7.3,1.5-7.7c0.1-0.4,0-0.9-0.3-1.2c-0.7-1-2.3-2.4-3.1-2.4c-0.1,0-0.2,0-0.3,0.1l0,0
				c-2,1.1-4.2,2-6.4,2.6c0-0.1,0.1-6.5-2.2-6.7C9.5-6,9.3-6,9.1-6C8.6-6,8-5.9,7.6-5.6C6.9-5,6.9-4,7-2.5c0,0.2,0,0.4,0,0.6
				c0.1,1.5,0,3-0.1,4.4C5.9,2.7,4.7,2.8,3.6,2.8C2.7,2.8,1.9,2.6,1,2.5C0.7,2.4,0.4,2.3,0.1,2.2C-0.3,2.1-0.7,2-1.2,2
				c-0.2,0-0.4,0-0.6,0.1C-2.5,2.3-2.9,3-2.8,3.7c0.1,1.3,1,2.1,2.5,2.7c2.2,0.9,5.7,1,6,1c-0.8,3.4-2,7.5-9.4,14.8
				c-0.8,0.8-1.8,1.5-1.7,2.5c0,0.6,0.4,1.1,1,1.3c1.2,0.3,3.6-0.6,5.8-2.5c4.3-3.7,7.3-6.9,9.9-16.6c1.3-0.4,2.9-0.9,3.9-1.2
				c-0.7,4.2-1,8.4-0.9,12.6c0.2,3.8,2,7,5,8.4c1.2,0.6,2.5,1,3.8,1.2c0.3,0,0.5,0,0.8,0h0c3,0.1,5.9-1.2,7.9-3.4
				c1.2-1.4,2.1-2.9,2.7-4.7c0-0.1,0.1-0.2,0.1-0.2l0.6-1.6L33.8,18.8z"/>
		</g>
	</g>
	<g id="Group_1610" transform="translate(202.018 90.966)">
		<g id="Group_1609" transform="translate(0 0)">
			<g id="Group_1604" transform="translate(0 18.292)">
				<path id="Path_1047" class="st2" d="M-35.8-9.2H-43v5.5h7.2c1.5,0,2.7,1.2,2.7,2.7c0,0,0,0,0,0v2.3c-5.2-2.9-11.7-1-14.6,4.1
					c-0.9,1.6-1.4,3.4-1.4,5.3v4.9c0,5.9,4.8,10.7,10.7,10.7c5.9,0,10.7-4.8,10.7-10.7c0,0,0,0,0,0V-0.9
					C-27.6-5.5-31.3-9.2-35.8-9.2z M-33.1,15.6c0,2.9-2.3,5.2-5.2,5.2c-2.9,0-5.2-2.3-5.2-5.2c0,0,0,0,0,0v-4.9
					c0-2.9,2.3-5.2,5.2-5.2c2.9,0,5.2,2.3,5.2,5.2V15.6z"/>
			</g>
			<g id="Group_1605" transform="translate(90.189 18.292)">
				<path id="Path_1048" class="st2" d="M-69.2,13.2V-0.9c0-4.5-3.7-8.2-8.2-8.2h-7.2v5.5h7.2c1.5,0,2.7,1.2,2.7,2.7v2.3
					c-5.2-2.9-11.7-1-14.6,4.1c-0.9,1.6-1.4,3.4-1.4,5.3v4.9c0,5.9,4.8,10.7,10.7,10.7s10.7-4.8,10.7-10.7L-69.2,13.2z M-74.7,15.6
					c0,2.9-2.3,5.2-5.2,5.2c-2.9,0-5.2-2.3-5.2-5.2v-4.9c0-2.9,2.3-5.2,5.2-5.2c2.9,0,5.2,2.3,5.2,5.2V15.6z"/>
			</g>
			<g id="Group_1606" transform="translate(167.569 18.292)">
				<path id="Path_1049" class="st2" d="M-115.6,26.4c5.9,0,10.7-4.8,10.7-10.8V-0.9c0-4.5-3.7-8.2-8.2-8.2h-7.2v5.5h7.2
					c1.5,0,2.7,1.2,2.7,2.7v2.3c-5.2-2.9-11.7-1-14.6,4.1c-0.9,1.6-1.4,3.4-1.4,5.3v4.9C-126.3,21.5-121.5,26.4-115.6,26.4z
					 M-120.8,10.7c0.1-2.9,2.4-5.2,5.3-5.1c2.8,0.1,5,2.3,5.1,5.1v4.9c0.1,2.9-2.2,5.2-5.1,5.3c-2.9,0.1-5.2-2.2-5.3-5.1
					c0-0.1,0-0.1,0-0.2V10.7z"/>
			</g>
			<g id="Group_1607" transform="translate(139.102 18.292)">
				<path id="Path_1050" class="st2" d="M-107.7-0.9c0-1.5,1.2-2.7,2.7-2.7h7.2v-5.5h-7.2c-4.5,0-8.2,3.7-8.2,8.2v26.7h5.6V-0.9z"/>
			</g>
			<g id="Group_1608" transform="translate(49.845)">
				<path id="Path_1051" class="st2" d="M-50.2,44.1l-14.9-17.6l14.5-17.2h-7.3l-8.7,10.2V-0.8h-5.5v44.8h5.5V33.4l9,10.7H-50.2z"/>
			</g>
		</g>
	</g>
	<g id="Group_1613" transform="translate(95.621 94.691)">
		<g id="Group_1611" transform="translate(0 0)">
			<path id="Path_1052" class="st0" d="M11,2.5C37.4-16.9,72,38.6,28.7,42c-8.6,0.5-17.7-1.4-23.3-7.3C-3.5,25.3,2,9.2,11,2.5z"/>
			<path id="Path_1053" class="st1" d="M26.2,42.9c-6.2,0-15.3-1.2-21.4-7.6c-3.6-3.8-5.3-8.8-4.7-14.6C0.7,13.4,4.8,6,10.5,1.8
				L11,2.5l-0.5-0.7C18.3-4,27.9-3.9,36.6,2c9.8,6.7,15.4,18.6,13,27.6c-2,7.6-9.4,12.3-20.8,13.2C28,42.9,27.1,42.9,26.2,42.9z
				 M11.5,3.2C6.3,7.1,2.4,14.2,1.8,20.9C1.5,24.5,2,29.8,6.1,34.1c6.5,6.8,16.9,7.3,22.6,7c10.7-0.8,17.3-4.9,19.2-11.9
				C50.1,21,44.7,9.7,35.6,3.5C27.5-2,18.8-2.1,11.5,3.2z"/>
		</g>
		<g id="Group_1612" transform="translate(10.184 6.082)">
			<path id="Path_1054" class="st1" d="M35.4,20.4c-4,2.4-6.3,2.7-7.8,2.7c-0.6,0-1.2-0.1-1.8-0.1c-1.3-0.1-2.5-0.8-3.1-2
				c-1.2-2-1.4-5.5-0.6-10.1c0.7-3.9,1.3-7.3,1.5-7.7c0.1-0.4,0-0.9-0.3-1.2c-0.7-1-2.3-2.4-3.1-2.4c-0.1,0-0.2,0-0.3,0.1l0,0
				c-2,1.1-4.2,2-6.4,2.6c0-0.1,0.1-6.5-2.2-6.7c-0.2,0-0.4-0.1-0.6-0.1c-0.5,0-1,0.1-1.5,0.4c-0.7,0.6-0.7,1.6-0.6,3
				c0,0.2,0,0.4,0,0.6c0.1,1.5,0,3-0.1,4.4C7.5,4.4,6.4,4.5,5.2,4.4c-0.9,0-1.7-0.1-2.6-0.3C2.3,4,2,3.9,1.8,3.8
				C1.3,3.7,0.9,3.6,0.4,3.6c-0.2,0-0.4,0-0.6,0.1c-0.7,0.2-1.2,0.9-1.1,1.7c0.1,1.3,1,2.1,2.5,2.7c2.2,0.9,5.7,1,6,1
				c-0.8,3.4-2,7.5-9.4,14.8c-0.8,0.8-1.8,1.5-1.7,2.5c0,0.6,0.4,1.1,1,1.3C-1.7,28,0.8,27,3,25.1c4.3-3.7,7.3-6.9,9.9-16.6
				c1.3-0.4,2.9-0.9,3.9-1.2c-0.7,4.2-1,8.4-0.9,12.6c0.2,3.8,2,7,5,8.4c1.2,0.6,2.5,1,3.8,1.2c0.3,0,0.5,0,0.8,0h0
				c3,0.1,5.9-1.2,7.9-3.4c1.2-1.4,2.1-2.9,2.7-4.7c0-0.1,0.1-0.2,0.1-0.2l0.6-1.6L35.4,20.4z"/>
			<path id="Path_1055" class="st1" d="M25.5,30.3c-0.2,0-0.4,0-0.6,0l-0.2,0c-1.4-0.2-2.8-0.6-4.1-1.2c-3.2-1.6-5.3-5-5.5-9.2
				c-0.1-3.8,0.2-7.6,0.7-11.3l-0.5,0.2c-0.5,0.2-1.1,0.3-1.6,0.5C10.9,18.8,7.9,22,3.5,25.8c-2.4,2.1-5.1,3.2-6.6,2.7
				c-0.9-0.2-1.6-1.1-1.6-2.1c-0.1-1.2,0.9-2.1,1.6-2.8c0.1-0.1,0.3-0.3,0.4-0.4c6.4-6.3,8-10,8.9-13.4C4.4,9.8,2.7,9.5,1,8.9
				c-1.2-0.5-2.8-1.4-3.1-3.5c-0.2-1.1,0.5-2.2,1.6-2.6c0.3-0.1,0.6-0.1,0.9-0.1C1,2.7,1.5,2.8,2,3c0.3,0.1,0.5,0.2,0.8,0.2l0.1,0
				c0.8,0.2,1.5,0.3,2.3,0.3c0.9,0,1.7,0,2.5-0.1C7.9,2.2,7.9,1,7.8-0.2c0-0.2,0-0.4,0-0.6c-0.1-1.6-0.2-3,0.9-3.8
				c0.6-0.4,1.3-0.6,2-0.6l0,0c0.2,0,0.4,0,0.5,0.1c0,0,0.1,0,0.1,0c2.3,0.2,2.9,3.9,3,6.4c1.8-0.6,3.5-1.3,5.1-2.2c0,0,0.1,0,0.1,0
				c0.2-0.1,0.5-0.1,0.7-0.1c1.3,0,3.1,1.8,3.8,2.7c0.5,0.6,0.6,1.3,0.4,2c-0.1,0.3-0.6,3.1-1.4,7.5c-0.8,4.3-0.6,7.7,0.5,9.5
				c0.5,0.9,1.5,1.5,2.5,1.6c0.6,0.1,1.1,0.1,1.7,0.1c1.4,0,3.5-0.3,7.4-2.6l0,0l1.4-0.9c0.4-0.2,1-0.1,1.2,0.3
				c0.1,0.2,0.2,0.5,0.1,0.8L37,21.5c0,0.1,0,0.1-0.1,0.2c-0.7,1.8-1.6,3.5-2.9,5C31.9,29.1,28.7,30.4,25.5,30.3z M16.8,6.4
				c0.5,0,0.9,0.4,0.9,0.9c0,0,0,0.1,0,0.1c-0.7,4.1-1,8.2-0.9,12.4c0.2,3.5,1.8,6.4,4.5,7.7c1.1,0.5,2.3,0.9,3.5,1.1l0.2,0
				c0.2,0,0.3,0,0.5,0c2.8,0.1,5.4-1.1,7.3-3.2c1-1.1,1.8-2.4,2.3-3.8c-3.7,2.1-5.9,2.4-7.5,2.4c-0.6,0-1.3-0.1-1.9-0.1
				c-1.6-0.2-3-1-3.8-2.4c-1.3-2.2-1.6-5.8-0.7-10.7c0.3-1.7,1.3-7.2,1.5-7.8c0-0.1,0-0.2-0.2-0.4c-0.7-1-2-2-2.4-2
				c-2.1,1.1-4.2,2-6.5,2.6c-0.5,0.1-1-0.1-1.1-0.6c0-0.1,0-0.2,0-0.3c0-3-0.6-5.8-1.4-5.8c-0.1,0-0.2,0-0.3,0c-0.1,0-0.1,0-0.2,0
				c-0.3,0-0.6,0.1-0.9,0.3C9.4-3,9.5-2.3,9.5-1c0,0.2,0,0.4,0,0.7c0.1,1.5,0,3-0.1,4.5c0,0.4-0.3,0.7-0.7,0.8
				C7.6,5.2,6.4,5.3,5.2,5.3C4.4,5.3,3.5,5.2,2.6,5l-0.1,0c-0.3-0.1-0.7-0.2-1-0.3C1.2,4.6,0.8,4.5,0.4,4.5c-0.1,0-0.2,0-0.3,0
				c-0.3,0.1-0.5,0.4-0.5,0.7c0.1,0.7,0.4,1.4,2,2c2,0.8,5.2,0.9,5.6,0.9c0.3,0,0.5,0.1,0.7,0.3C8.2,8.7,8.2,9,8.2,9.3
				c-0.9,3.8-2.3,8-9.7,15.3c-0.1,0.1-0.3,0.3-0.4,0.4c-0.5,0.5-1,1-1,1.4c0,0.2,0.1,0.4,0.3,0.5c0.7,0.2,2.8-0.5,5-2.4
				c4.2-3.6,7.1-6.7,9.6-16.2c0.1-0.3,0.3-0.5,0.6-0.6C13.3,7.5,14,7.2,14.7,7c0.7-0.2,1.3-0.4,1.8-0.6C16.6,6.4,16.7,6.4,16.8,6.4
				L16.8,6.4z"/>
		</g>
	</g>
	<g id="Group_1620" transform="translate(200.391 89.34)">
		<g id="Group_1619">
			<g id="Group_1614" transform="translate(0 18.292)">
				<path id="Path_1056" class="st2" d="M-34.2-7.6h-7.2V-2h7.2c1.5,0,2.7,1.2,2.7,2.7c0,0,0,0,0,0V3c-5.2-2.9-11.7-1-14.6,4.1
					c-0.9,1.6-1.4,3.4-1.4,5.3v4.9c0,5.9,4.8,10.7,10.7,10.7c5.9,0,10.7-4.8,10.7-10.7c0,0,0,0,0,0V0.7C-26-3.9-29.6-7.6-34.2-7.6z
					 M-31.5,17.2c0,2.9-2.3,5.2-5.2,5.2c-2.9,0-5.2-2.3-5.2-5.2c0,0,0,0,0,0v-4.9c0-2.9,2.3-5.2,5.2-5.2c2.9,0,5.2,2.3,5.2,5.2V17.2
					z"/>
				<path id="Path_1057" class="st1" d="M-36.7,28.9c-6.4,0-11.6-5.2-11.6-11.6v-4.9c0-6.4,5.2-11.6,11.6-11.6
					c1.5,0,2.9,0.3,4.3,0.8V0.7c0-1-0.8-1.8-1.8-1.8h-7.2c-0.5,0-0.9-0.4-0.9-0.9c0,0,0,0,0,0v-5.5c0-0.5,0.4-0.9,0.9-0.9
					c0,0,0,0,0,0h7.2c5,0,9.1,4.1,9.1,9.1v16.6C-25.1,23.7-30.3,28.9-36.7,28.9z M-36.7,2.5c-5.4,0-9.9,4.4-9.9,9.9v4.9
					c0,5.5,4.4,9.9,9.9,9.9c5.5,0,9.9-4.4,9.9-9.9l0,0V0.7c0-4.1-3.3-7.4-7.4-7.4h-6.4v3.8h6.4c2,0,3.6,1.6,3.6,3.6V3
					c0,0.5-0.4,0.9-0.9,0.9c-0.1,0-0.3,0-0.4-0.1C-33.4,2.9-35,2.5-36.7,2.5L-36.7,2.5z M-36.7,23.3c-3.4,0-6.1-2.7-6.1-6.1v-4.9
					c0-3.4,2.7-6.1,6.1-6.1s6.1,2.7,6.1,6.1v4.9C-30.6,20.6-33.3,23.3-36.7,23.3z M-36.7,8c-2.4,0-4.3,1.9-4.3,4.3v4.9
					c0,2.4,1.9,4.3,4.3,4.3s4.3-1.9,4.3-4.3v-4.9C-32.4,10-34.3,8-36.7,8z"/>
			</g>
			<g id="Group_1615" transform="translate(90.189 18.292)">
				<path id="Path_1058" class="st2" d="M-67.5,14.8V0.7c0-4.5-3.7-8.2-8.2-8.2H-83V-2h7.2c1.5,0,2.7,1.2,2.7,2.7V3
					c-5.2-2.9-11.7-1-14.6,4.1c-0.9,1.6-1.4,3.4-1.4,5.3v4.9c0,5.9,4.8,10.7,10.7,10.7s10.7-4.8,10.7-10.7L-67.5,14.8z M-73.1,17.2
					c0,2.9-2.3,5.2-5.2,5.2c-2.9,0-5.2-2.3-5.2-5.2v-4.9c0-2.9,2.3-5.2,5.2-5.2c2.9,0,5.2,2.3,5.2,5.2V17.2z"/>
				<path id="Path_1059" class="st1" d="M-78.3,28.9c-6.4,0-11.6-5.2-11.6-11.6v-4.9c0-6.4,5.2-11.6,11.6-11.6c1.5,0,3,0.3,4.4,0.9
					V0.7c0-1-0.8-1.8-1.8-1.8H-83c-0.5,0-0.9-0.4-0.9-0.9c0,0,0,0,0,0v-5.5c0-0.5,0.4-0.9,0.9-0.9c0,0,0,0,0,0h7.2
					c5,0,9.1,4.1,9.1,9.1v16.6C-66.7,23.7-71.9,28.9-78.3,28.9z M-78.3,2.5c-5.4,0-9.9,4.4-9.9,9.9v4.9c0,5.5,4.4,9.9,9.9,9.9
					c5.5,0,9.9-4.4,9.9-9.9c0,0,0,0,0,0V0.7c0-4.1-3.3-7.4-7.4-7.4h-6.3v3.8h6.3c2,0,3.6,1.6,3.6,3.6V3c0,0.5-0.4,0.9-0.9,0.9
					c-0.1,0-0.3,0-0.4-0.1C-75,2.9-76.6,2.5-78.3,2.5L-78.3,2.5z M-78.3,23.3c-3.4,0-6.1-2.7-6.1-6.1v-4.9c0-3.4,2.8-6.1,6.1-6
					c3.3,0,6,2.7,6,6v4.9C-72.2,20.6-74.9,23.3-78.3,23.3z M-78.3,8c-2.4,0-4.3,1.9-4.3,4.3v4.9c0,2.4,1.9,4.3,4.3,4.3
					c2.4,0,4.3-1.9,4.3-4.3v-4.9C-74,10-75.9,8-78.3,8z"/>
			</g>
			<g id="Group_1616" transform="translate(167.569 18.292)">
				<path id="Path_1060" class="st2" d="M-114,28c5.9,0,10.7-4.8,10.7-10.8V0.7c0-4.5-3.7-8.2-8.2-8.2h-7.2V-2h7.2
					c1.5,0,2.7,1.2,2.7,2.7V3c-5.2-2.9-11.7-1-14.6,4.1c-0.9,1.6-1.4,3.4-1.4,5.3v4.9C-124.7,23.2-119.9,28-114,28z M-119.2,12.3
					c0.1-2.9,2.4-5.2,5.3-5.1c2.8,0.1,5,2.3,5.1,5.1v4.9c0.1,2.9-2.2,5.2-5.1,5.3c-2.9,0.1-5.2-2.2-5.3-5.1c0-0.1,0-0.1,0-0.2V12.3z
					"/>
				<path id="Path_1061" class="st1" d="M-114,28.9c-6.4,0-11.6-5.2-11.6-11.6v-4.9c0-6.4,5.2-11.6,11.6-11.6c1.5,0,3,0.3,4.3,0.8
					V0.7c0-1-0.8-1.8-1.8-1.8h-7.2c-0.5,0-0.9-0.4-0.9-0.9c0,0,0,0,0,0v-5.5c0-0.5,0.4-0.9,0.9-0.9c0,0,0,0,0,0h7.2
					c5,0,9.1,4.1,9.1,9.1v16.6C-102.3,23.7-107.5,28.9-114,28.9z M-114,2.5c-5.5,0-9.9,4.4-9.9,9.9v4.9c0,5.5,4.4,9.9,9.9,9.9
					c5.5,0,9.9-4.4,9.9-9.9V0.7c0-4.1-3.3-7.4-7.4-7.4h-6.3v3.8h6.3c2,0,3.6,1.6,3.6,3.6V3c0,0.5-0.4,0.9-0.9,0.9
					c-0.1,0-0.3,0-0.4-0.1C-110.6,2.9-112.3,2.5-114,2.5L-114,2.5z M-114,23.3c-3.4,0-6.1-2.7-6.1-6.1v-4.9c0-3.4,2.7-6.1,6.1-6.1
					c3.4,0,6.1,2.7,6.1,6.1v4.9C-107.9,20.6-110.6,23.3-114,23.3z M-114,8c-2.4,0-4.3,1.9-4.3,4.3v4.9c0,2.4,1.9,4.3,4.3,4.4
					s4.3-1.9,4.4-4.3c0,0,0-0.1,0-0.1v-4.9C-109.6,10-111.6,8-114,8z"/>
			</g>
			<g id="Group_1617" transform="translate(139.102 18.292)">
				<path id="Path_1062" class="st2" d="M-106,0.7c0-1.5,1.2-2.7,2.7-2.7h7.2v-5.5h-7.2c-4.5,0-8.2,3.7-8.2,8.2v26.7h5.6V0.7z"/>
				<path id="Path_1063" class="st1" d="M-106,28.3h-5.6c-0.5,0-0.9-0.4-0.9-0.9v0V0.7c0-5,4.1-9.1,9.1-9.1h7.2
					c0.5,0,0.9,0.4,0.9,0.9c0,0,0,0,0,0V-2c0,0.5-0.4,0.9-0.9,0.9c0,0,0,0,0,0h-7.2c-1,0-1.8,0.8-1.8,1.8v26.7
					C-105.2,27.9-105.5,28.3-106,28.3C-106,28.3-106,28.3-106,28.3z M-110.7,26.5h3.8V0.7c0-2,1.6-3.6,3.6-3.6h6.4v-3.8h-6.4
					c-4.1,0-7.4,3.3-7.4,7.4L-110.7,26.5z"/>
			</g>
			<g id="Group_1618" transform="translate(49.846)">
				<path id="Path_1064" class="st2" d="M-48.6,45.7l-14.9-17.6L-49,10.9h-7.3l-8.7,10.2V0.9h-5.5v44.8h5.5V35l9,10.7H-48.6z"/>
				<path id="Path_1065" class="st1" d="M-48.6,46.6h-7.3c-0.3,0-0.5-0.1-0.7-0.3l-7.5-8.9v8.3c0,0.5-0.4,0.9-0.9,0.9l0,0h-5.5
					c-0.5,0-0.9-0.4-0.9-0.9c0,0,0,0,0,0V0.9c0-0.5,0.4-0.9,0.9-0.9h5.5c0.5,0,0.9,0.4,0.9,0.9c0,0,0,0,0,0v17.9l7.1-8.4
					c0.2-0.2,0.4-0.3,0.7-0.3h7.3c0.5,0,0.9,0.4,0.9,0.9c0,0.2-0.1,0.4-0.2,0.6l-14.1,16.6l14.4,17.1c0.3,0.4,0.3,0.9-0.1,1.2
					C-48.2,46.5-48.4,46.6-48.6,46.6L-48.6,46.6z M-55.4,44.8h5l-13.7-16.2c-0.3-0.3-0.3-0.8,0-1.1l13.3-15.7h-5l-8.4,9.9
					c-0.3,0.4-0.9,0.4-1.2,0.1c-0.2-0.2-0.3-0.4-0.3-0.7V1.8h-3.8v43.1h3.8V35c0-0.5,0.4-0.9,0.9-0.9c0.3,0,0.5,0.1,0.7,0.3
					L-55.4,44.8z"/>
			</g>
		</g>
	</g>
	<g id="Group_1621" transform="translate(97.25 96.335)">
		<path id="Path_1066" class="st0" d="M9.4,0.9c26.3-19.4,61,36.1,17.7,39.4c-8.6,0.5-17.7-1.4-23.3-7.3C-5.2,23.6,0.3,7.6,9.4,0.9z
			"/>
		<path id="Path_1067" class="st1" d="M44,24.9c-4,2.4-6.3,2.7-7.8,2.7c-0.6,0-1.2-0.1-1.8-0.1c-1.3-0.1-2.5-0.8-3.1-2
			c-1.2-2-1.4-5.5-0.6-10.1c0.7-3.9,1.3-7.3,1.5-7.7c0.1-0.4,0-0.9-0.3-1.2c-0.7-1-2.3-2.4-3.1-2.4c-0.1,0-0.2,0-0.3,0.1l0,0
			c-2,1.1-4.2,2-6.4,2.6c0-0.1,0.1-6.5-2.2-6.7c-0.2,0-0.4-0.1-0.6-0.1c-0.5,0-1,0.1-1.5,0.4c-0.7,0.6-0.7,1.6-0.6,3
			c0,0.2,0,0.4,0,0.6c0.1,1.5,0,3-0.1,4.4c-1.1,0.2-2.2,0.3-3.4,0.3c-0.9,0-1.7-0.1-2.6-0.3c-0.3-0.1-0.6-0.1-0.9-0.2
			C9.9,8.1,9.4,8.1,9,8c-0.2,0-0.4,0-0.6,0.1C7.7,8.4,7.3,9.1,7.4,9.8c0.1,1.3,1,2.1,2.5,2.7c2.2,0.9,5.7,1,6,1
			c-0.8,3.4-2,7.5-9.4,14.8c-0.8,0.8-1.8,1.5-1.7,2.5c0,0.6,0.4,1.1,1,1.3c1.2,0.3,3.6-0.6,5.8-2.5c4.3-3.7,7.3-6.9,9.9-16.6
			c1.3-0.4,2.9-0.9,3.9-1.2c-0.7,4.2-1,8.4-0.9,12.6c0.2,3.8,2,7,5,8.4c1.2,0.6,2.5,1,3.8,1.2c0.3,0,0.5,0,0.8,0h0
			c3,0.1,5.9-1.2,7.9-3.4c1.2-1.4,2.1-2.9,2.7-4.7c0-0.1,0.1-0.2,0.1-0.2l0.6-1.6L44,24.9z"/>
	</g>
	<g id="Group_1623" transform="translate(202.018 90.966)">
		<g id="Group_1622" transform="translate(0 0)">
			<path id="Path_1068" class="st2" d="M-35.8,9.1H-43v5.5h7.2c1.5,0,2.7,1.2,2.7,2.7c0,0,0,0,0,0v2.3c-5.2-2.9-11.7-1-14.6,4.1
				c-0.9,1.6-1.4,3.4-1.4,5.3v4.9c0,5.9,4.8,10.7,10.7,10.7c5.9,0,10.7-4.8,10.7-10.7c0,0,0,0,0,0V17.3
				C-27.6,12.8-31.3,9.1-35.8,9.1z M-33.1,33.9c0,2.9-2.3,5.2-5.2,5.2c-2.9,0-5.2-2.3-5.2-5.2c0,0,0,0,0,0V29c0-2.9,2.3-5.2,5.2-5.2
				c2.9,0,5.2,2.3,5.2,5.2V33.9z"/>
			<path id="Path_1069" class="st2" d="M21,31.5V17.3c0-4.5-3.7-8.2-8.2-8.2H5.6v5.5h7.2c1.5,0,2.7,1.2,2.7,2.7v2.3
				c-5.2-2.9-11.7-1-14.6,4.1C0,25.4-0.5,27.2-0.5,29v4.9c0,5.9,4.8,10.7,10.7,10.7S21,39.8,21,33.9L21,31.5z M15.5,33.9
				c0,2.9-2.3,5.2-5.2,5.2c-2.9,0-5.2-2.3-5.2-5.2V29c0-2.9,2.3-5.2,5.2-5.2c2.9,0,5.2,2.3,5.2,5.2V33.9z"/>
			<path id="Path_1070" class="st2" d="M52,44.7c5.9,0,10.7-4.8,10.7-10.8V17.3c0-4.5-3.7-8.2-8.2-8.2h-7.2v5.5h7.2
				c1.5,0,2.7,1.2,2.7,2.7v2.3c-5.2-2.9-11.7-1-14.6,4.1c-0.9,1.6-1.4,3.4-1.4,5.3v4.9C41.2,39.8,46,44.6,52,44.7z M46.8,29
				c0.1-2.9,2.4-5.2,5.3-5.1c2.8,0.1,5,2.3,5.1,5.1v4.9c0.1,2.9-2.2,5.2-5.1,5.3c-2.9,0.1-5.2-2.2-5.3-5.1c0-0.1,0-0.1,0-0.2V29z"/>
			<path id="Path_1071" class="st2" d="M31.4,17.3c0-1.5,1.2-2.7,2.7-2.7h7.2V9.1h-7.2c-4.5,0-8.2,3.7-8.2,8.2v26.7h5.6V17.3z"/>
			<path id="Path_1072" class="st2" d="M-0.4,44.1l-14.9-17.6L-0.7,9.2H-8l-8.7,10.2V-0.8h-5.5v44.8h5.5V33.4l9,10.7H-0.4z"/>
		</g>
	</g>
</g>
</svg>
