<svg xmlns="http://www.w3.org/2000/svg" width="170.93" height="56.73" viewBox="0 0 170.93 56.73"><g data-name="Group 2" fill="#211e1f"><path data-name="Path 1" d="M79.874 17.217h-6.668v5.248h6.668a2.532 2.532 0 012.489 2.557v2.162a9.7 9.7 0 00-4.816-1.285 10.081 10.081 0 00-9.926 10.193v4.652a9.936 9.936 0 1019.866 0V25.022a7.727 7.727 0 00-7.613-7.805zm2.489 23.526a4.81 4.81 0 11-9.617 0v-4.652a4.81 4.81 0 119.617 0v4.652z"/><path data-name="Path 2" d="M132.398 38.423v-13.4a7.719 7.719 0 00-7.62-7.8h-6.667v5.248h6.667a2.523 2.523 0 012.491 2.557v2.15a9.682 9.682 0 00-4.806-1.285 10.087 10.087 0 00-9.932 10.2v4.647a9.937 9.937 0 1019.867 0zm-5.129 2.315a4.808 4.808 0 11-9.613 0v-4.647a4.808 4.808 0 119.613 0v4.647z"/><path data-name="Path 3" d="M161.005 50.933a10.063 10.063 0 009.926-10.194V25.022a7.714 7.714 0 00-7.61-7.8h-6.672v5.248h6.672a2.53 2.53 0 012.5 2.557v2.151a9.724 9.724 0 00-4.811-1.285 10.08 10.08 0 00-9.932 10.2v4.647a10.064 10.064 0 009.927 10.193zm-4.806-14.841a4.81 4.81 0 119.617 0v4.647a4.81 4.81 0 11-9.617 0z"/><path data-name="Path 4" d="M142.024 25.022a2.52 2.52 0 012.486-2.557h6.668v-5.248h-6.668a7.721 7.721 0 00-7.61 7.8v25.371h5.124z"/><path data-name="Path 5" d="M112.625 50.394L98.849 33.658l13.419-16.314h-6.705l-8 9.722V7.852h-5.119v42.542h5.115V40.248l8.365 10.146z"/></g><g data-name="Group 3"><path data-name="Path 6" d="M12.823 5.352c33.366-25.27 77.315 46.9 22.464 51.287-10.877.616-22.39-1.8-29.474-9.423-11.38-12.309-4.444-33.191 7.01-41.864z" fill="#ffc416"/><path data-name="Path 7" d="M56.622 36.55c-5.079 3.081-7.953 3.48-9.889 3.48a16.682 16.682 0 01-2.252-.178 5.121 5.121 0 01-3.97-2.557c-1.534-2.562-1.786-7.092-.746-13.092.9-5.113 1.7-9.471 1.866-9.948a1.76 1.76 0 00-.337-1.584c-.886-1.286-2.869-3.068-3.906-3.068a1.061 1.061 0 00-.436.1l-.028.018a37.611 37.611 0 01-8.07 3.376c0-.064.118-8.422-2.786-8.74a5.659 5.659 0 00-.731-.111 3.081 3.081 0 00-1.842.583c-.942.756-.853 2.1-.731 3.963.02.25.033.519.056.8a38.96 38.96 0 01-.146 5.759 17.764 17.764 0 01-4.266.361 17.573 17.573 0 01-3.292-.439A8.013 8.013 0 0114 14.961a5.406 5.406 0 00-1.67-.3 2.112 2.112 0 00-.717.115 1.968 1.968 0 00-1.318 2.162c.184 1.7 1.242 2.744 3.179 3.554a23.492 23.492 0 007.587 1.251c-.995 4.45-2.522 9.79-11.933 19.318-.994 1.007-2.232 1.922-2.171 3.242a1.629 1.629 0 001.224 1.632c1.477.448 4.567-.823 7.347-3.3 5.388-4.811 9.242-8.937 12.557-21.591 1.594-.554 3.672-1.165 5-1.613a88.714 88.714 0 00-1.2 16.347c.221 4.993 2.584 9.086 6.312 10.968a15.268 15.268 0 004.816 1.5c.327.033.693.048 1.007.048a12.807 12.807 0 0010.053-4.483 19.285 19.285 0 003.461-6.058 1.968 1.968 0 01.118-.307l.8-2.008z" fill="#fff"/></g></svg>