<svg xmlns="http://www.w3.org/2000/svg" width="18" height="13.698" viewBox="0 0 18 13.698">
  <g id="icon-envelope" transform="translate(-104 -273.89)">
    <path id="Path_931" data-name="Path 931" d="M119.8,273.89H106.2a2.2,2.2,0,0,0-2.2,2.2v9.3a2.2,2.2,0,0,0,2.2,2.2h13.6a2.2,2.2,0,0,0,2.2-2.2v-9.292a2.2,2.2,0,0,0-2.2-2.2Zm1.2,11.5a1.2,1.2,0,0,1-1.2,1.2H106.2a1.2,1.2,0,0,1-1.2-1.2v-9.292a1.2,1.2,0,0,1,1.2-1.2h13.6a1.2,1.2,0,0,1,1.2,1.2v9.292Zm0,0" fill="#211e1f"/>
    <path id="Path_932" data-name="Path 932" d="M157.877,319.64l4.4-3.948a.5.5,0,1,0-.674-.748l-6.071,5.449-1.184-1.058s-.007-.007-.007-.011a.766.766,0,0,0-.082-.071l-4.819-4.313a.5.5,0,0,0-.671.752l4.455,3.981-4.436,4.153a.5.5,0,0,0-.022.711.514.514,0,0,0,.369.16.5.5,0,0,0,.343-.134l4.5-4.212,1.222,1.091a.5.5,0,0,0,.671,0l1.255-1.125,4.477,4.253a.5.5,0,0,0,.711-.019.5.5,0,0,0-.019-.711Zm0,0" transform="translate(-42.525 -39.016)" fill="#211e1f"/>
  </g>
</svg>
