<svg xmlns="http://www.w3.org/2000/svg" width="170.093" height="56.453" viewBox="0 0 170.093 56.453"><g data-name="Group 2" fill="#211e1f"><path data-name="Path 1" d="M79.483 17.132h-6.635v5.222h6.635a2.52 2.52 0 012.477 2.544v2.152a9.653 9.653 0 00-4.792-1.279 10.032 10.032 0 00-9.877 10.143v4.629a9.888 9.888 0 1019.769 0V24.899a7.689 7.689 0 00-7.577-7.767zm2.477 23.411a4.787 4.787 0 11-9.57 0v-4.629a4.786 4.786 0 119.57 0v4.629z"/><path data-name="Path 2" d="M131.75 38.234V24.899a7.681 7.681 0 00-7.583-7.767h-6.633v5.222h6.634a2.511 2.511 0 012.478 2.544v2.147a9.634 9.634 0 00-4.783-1.279 10.037 10.037 0 00-9.883 10.148v4.624a9.888 9.888 0 1019.77 0zm-5.1 2.3a4.785 4.785 0 11-9.566 0V35.91a4.785 4.785 0 119.566 0v4.624z"/><path data-name="Path 3" d="M160.216 50.682a10.014 10.014 0 009.877-10.144v-15.64a7.677 7.677 0 00-7.573-7.767h-6.639v5.222h6.639a2.518 2.518 0 012.483 2.544v2.147a9.676 9.676 0 00-4.787-1.279 10.031 10.031 0 00-9.883 10.148v4.624a10.015 10.015 0 009.883 10.145zm-4.782-14.768a4.786 4.786 0 119.57 0v4.624a4.787 4.787 0 11-9.57 0z"/><path data-name="Path 4" d="M141.328 24.899a2.507 2.507 0 012.474-2.544h6.635v-5.222h-6.635a7.683 7.683 0 00-7.573 7.767v25.247h5.1z"/><path data-name="Path 5" d="M112.074 50.147L98.366 33.492l13.354-16.234h-6.678l-7.965 9.674V7.813h-5.09v42.333h5.09v-10.1l8.324 10.1z"/></g><g data-name="Group 3"><path data-name="Path 6" d="M12.76 5.326c33.2-25.146 76.936 46.675 22.354 51.036-10.824.613-22.28-1.793-29.33-9.377C-5.54 34.736 1.362 13.956 12.76 5.326z" fill="#ffc416"/><path data-name="Path 7" d="M56.345 36.374c-5.054 3.066-7.914 3.463-9.84 3.463a16.608 16.608 0 01-2.241-.177 5.1 5.1 0 01-3.951-2.549c-1.526-2.549-1.777-7.057-.742-13.028.891-5.088 1.69-9.425 1.857-9.9a1.751 1.751 0 00-.335-1.576c-.881-1.28-2.855-3.052-3.886-3.052a1.056 1.056 0 00-.434.1l-.028.018a37.428 37.428 0 01-8.03 3.36c0-.063.117-8.381-2.772-8.7a5.633 5.633 0 00-.728-.111 3.066 3.066 0 00-1.833.58c-.937.752-.849 2.094-.728 3.944.02.249.033.517.056.8a38.765 38.765 0 01-.145 5.731 17.676 17.676 0 01-4.245.36 17.487 17.487 0 01-3.276-.437 7.975 7.975 0 01-1.111-.311 5.379 5.379 0 00-1.662-.3 2.1 2.1 0 00-.713.115 1.959 1.959 0 00-1.312 2.152c.183 1.7 1.236 2.731 3.164 3.537a23.378 23.378 0 007.55 1.245c-.99 4.428-2.51 9.742-11.875 19.224-.989 1-2.221 1.913-2.16 3.226a1.621 1.621 0 001.218 1.624c1.47.446 4.545-.819 7.311-3.282 5.361-4.787 9.2-8.893 12.5-21.485 1.586-.551 3.654-1.159 4.974-1.606a88.278 88.278 0 00-1.19 16.267c.219 4.969 2.571 9.042 6.281 10.915a15.2 15.2 0 004.792 1.491c.326.033.69.048 1 .048a12.744 12.744 0 0010-4.461 19.192 19.192 0 003.443-6.025 1.956 1.956 0 01.117-.306l.8-2z" fill="#fff"/></g></svg>