<svg xmlns="http://www.w3.org/2000/svg" width="48.787" height="45.171" viewBox="0 0 48.787 45.171"><g data-name="Group 3"><path data-name="Path 6" d="M10.21 4.262c26.568-20.121 61.561 37.347 17.887 40.837-8.661.491-17.828-1.435-23.469-7.5-9.06-9.804-3.538-26.432 5.582-33.337z" fill="#ffc416"/><path data-name="Path 7" d="M45.085 29.103c-4.044 2.453-6.333 2.771-7.874 2.771a13.286 13.286 0 01-1.793-.141 4.077 4.077 0 01-3.161-2.04c-1.221-2.04-1.422-5.647-.594-10.425.713-4.071 1.352-7.541 1.486-7.921a1.4 1.4 0 00-.268-1.261c-.705-1.024-2.284-2.443-3.11-2.443a.844.844 0 00-.347.081l-.022.015a29.949 29.949 0 01-6.431 2.691c0-.051.094-6.706-2.218-6.959a4.508 4.508 0 00-.582-.089 2.454 2.454 0 00-1.467.464c-.75.6-.679 1.676-.582 3.156.016.2.026.414.045.64a31.021 31.021 0 01-.116 4.586 14.145 14.145 0 01-3.4.288 14 14 0 01-2.621-.349 6.385 6.385 0 01-.889-.249 4.3 4.3 0 00-1.33-.238 1.681 1.681 0 00-.571.092 1.567 1.567 0 00-1.05 1.722c.146 1.357.989 2.185 2.531 2.83a18.7 18.7 0 006.041 1c-.792 3.543-2.008 7.795-9.5 15.382-.791.8-1.777 1.531-1.729 2.581a1.3 1.3 0 00.974 1.3c1.176.357 3.637-.655 5.85-2.626 4.29-3.831 7.359-7.116 10-17.191 1.269-.441 2.923-.928 3.98-1.285a70.641 70.641 0 00-.952 13.016c.176 3.976 2.057 7.235 5.026 8.733a12.157 12.157 0 003.834 1.193c.26.026.552.038.8.038a10.2 10.2 0 008-3.569 15.356 15.356 0 002.756-4.824 1.562 1.562 0 01.094-.245l.638-1.6z" fill="#fff"/></g></svg>