<svg xmlns="http://www.w3.org/2000/svg" width="66.041" height="81.019" viewBox="0 0 66.041 81.019"><g transform="translate(1.756)"><text data-name="scroll down" transform="translate(33.284 78.019)" fill="#777" font-size="12" font-family="Helvetica"><tspan x="-30.012" y="0">scroll down</tspan></text><g data-name="Path 574" fill="none"><path d="M40.288 5.582c12.365 3.083 18.728 20.262 14.901 35.61s-16.395 23.06-28.76 19.976-19.844-15.79-16.017-31.14S27.923 2.5 40.288 5.583z"/><path d="M39.804 7.523c-2.638-.658-5.422-.546-8.274.331-2.784.857-5.507 2.394-8.095 4.57-5.285 4.444-9.324 11.037-11.082 18.089-.875 3.51-1.145 6.946-.803 10.215.324 3.091 1.186 5.96 2.561 8.526 2.705 5.048 7.251 8.59 12.802 9.974 5.55 1.383 11.227.39 15.985-2.797 2.419-1.62 4.526-3.748 6.264-6.325 1.837-2.726 3.212-5.887 4.087-9.397 1.758-7.051 1.287-14.769-1.293-21.174-1.264-3.136-2.946-5.772-5.002-7.835-2.106-2.114-4.512-3.52-7.15-4.177m.484-1.94c12.365 3.082 18.729 20.26 14.902 35.61-3.828 15.35-16.396 23.058-28.761 19.975-12.365-3.083-19.844-15.79-16.017-31.139 3.827-15.35 17.51-27.53 29.876-24.447z" fill="#ffc416"/></g><circle data-name="Ellipse 145" cx="12" cy="12" r="12" transform="translate(19.284 33.019)" fill="#ffc416"/><path data-name="Path 600" d="M49.755 5.98c7.604 5.219 8.598 14.292 8.598 14.292" fill="none" stroke="#ffc416" stroke-linecap="round" stroke-width="2"/><path data-name="Path 603" d="M5.9 36.18c-1.528-9.095 4.308-16.113 4.308-16.113" fill="none" stroke="#ffc416" stroke-linecap="round" stroke-width="2"/></g></svg>