<svg xmlns="http://www.w3.org/2000/svg" width="61.511" height="65.073" viewBox="0 0 61.511 65.073"><g data-name="scroll down" transform="translate(1.813 1.287)"><text data-name="scroll down" transform="translate(36.549 61.787)" fill="#fff" font-size="8" font-family="Helvetica"><tspan x="-20.008" y="0">scroll down</tspan></text><g data-name="Path 574" fill="none"><path d="M36.623 5.499c12.744 0 23.074 15.129 23.074 30.948s-10.33 26.34-23.074 26.34-23.074-10.52-23.074-26.34S23.88 5.499 36.623 5.499z"/><path d="M36.623 7.499c-2.718 0-5.393.782-7.948 2.324-2.494 1.504-4.764 3.654-6.748 6.392-4.053 5.59-6.378 12.965-6.378 20.232 0 3.617.57 7.017 1.693 10.106 1.062 2.92 2.592 5.496 4.547 7.653 3.846 4.244 9.114 6.58 14.834 6.58 5.72 0 10.988-2.336 14.834-6.58 1.956-2.157 3.485-4.732 4.548-7.653 1.123-3.089 1.692-6.489 1.692-10.106 0-7.267-2.324-14.642-6.377-20.232-1.985-2.738-4.255-4.888-6.748-6.392-2.556-1.542-5.23-2.324-7.949-2.324m0-2c12.744 0 23.074 15.129 23.074 30.948 0 15.82-10.33 26.34-23.074 26.34-12.743 0-23.074-10.52-23.074-26.34S23.879 5.5 36.623 5.5z" fill="#ffc416"/></g><circle data-name="Ellipse 145" cx="2" cy="2" r="2" transform="translate(38.549 11.787)" fill="#ffc416"/><path data-name="Path 602" d="M46.419 0c8.641 3.224 11.8 11.787 11.8 11.787" fill="none" stroke="#ffc416" stroke-linecap="round" stroke-width="2"/><path data-name="Path 603" d="M8.904 46.21C4.498 38.108 7.73 29.573 7.73 29.573" fill="none" stroke="#ffc416" stroke-linecap="round" stroke-width="2"/></g></svg>