<svg xmlns="http://www.w3.org/2000/svg" xmlns:xlink="http://www.w3.org/1999/xlink" width="18.104" height="18.196" viewBox="0 0 18.104 18.196">
  <defs>
    <clipPath id="clip-path">
      <rect id="Rectangle_337" data-name="Rectangle 337" width="18.104" height="18.196" fill="#211e1f"/>
    </clipPath>
  </defs>
  <g id="icon-phone" transform="translate(-108 -230.89)">
    <g id="Group_1503" data-name="Group 1503" transform="translate(108 230.89)">
      <g id="Group_1502" data-name="Group 1502" transform="translate(0 0)" clip-path="url(#clip-path)">
        <path id="Path_928" data-name="Path 928" d="M122.3,263.861a1.782,1.782,0,0,0-1.292-.592,1.841,1.841,0,0,0-1.307.589l-1.208,1.2c-.1-.054-.2-.1-.294-.153-.138-.069-.268-.134-.378-.2a13.127,13.127,0,0,1-3.145-2.866,7.748,7.748,0,0,1-1.032-1.628c.313-.287.6-.585.887-.872.107-.107.214-.218.321-.325a1.754,1.754,0,0,0,0-2.645l-1.044-1.043c-.118-.118-.241-.241-.355-.363-.229-.237-.47-.482-.718-.711a1.81,1.81,0,0,0-1.28-.562,1.872,1.872,0,0,0-1.3.562l-.008.008-1.3,1.311a2.8,2.8,0,0,0-.829,1.777,6.7,6.7,0,0,0,.489,2.836,16.454,16.454,0,0,0,2.924,4.877,17.985,17.985,0,0,0,5.989,4.689,9.329,9.329,0,0,0,3.363.994c.08,0,.164.008.241.008a2.879,2.879,0,0,0,2.205-.948c0-.008.011-.011.015-.019a8.654,8.654,0,0,1,.669-.692c.164-.157.332-.321.5-.493a1.906,1.906,0,0,0,.577-1.322,1.837,1.837,0,0,0-.588-1.311Zm1.368,4.024s0,0,0,0c-.149.161-.3.306-.466.466a10.051,10.051,0,0,0-.738.764,1.843,1.843,0,0,1-1.437.608c-.057,0-.118,0-.176,0a8.291,8.291,0,0,1-2.981-.894,16.978,16.978,0,0,1-5.641-4.418,15.518,15.518,0,0,1-2.752-4.583,5.455,5.455,0,0,1-.428-2.392,1.754,1.754,0,0,1,.527-1.135l1.3-1.3a.869.869,0,0,1,.581-.271.818.818,0,0,1,.558.268l.011.011c.233.218.455.443.688.684.119.122.241.245.363.371l1.043,1.043a.729.729,0,0,1,0,1.185c-.111.111-.218.222-.329.329-.321.329-.627.634-.959.933-.008.008-.015.012-.019.019a.78.78,0,0,0-.2.868l.012.035a8.376,8.376,0,0,0,1.234,2.014l0,0a14.026,14.026,0,0,0,3.394,3.088,5.162,5.162,0,0,0,.47.256c.138.069.268.134.378.2.015.008.031.019.046.027a.829.829,0,0,0,.378.1.817.817,0,0,0,.581-.264l1.307-1.307A.865.865,0,0,1,121,264.3a.778.778,0,0,1,.55.279l2.113,2.113a.756.756,0,0,1,0,1.2Zm0,0" transform="translate(-107.999 -252.602)" fill="#211e1f"/>
        <path id="Path_929" data-name="Path 929" d="M304.1,301.528a4.919,4.919,0,0,1,4.005,4.005.513.513,0,0,0,.508.428.7.7,0,0,0,.088-.008.516.516,0,0,0,.424-.6,5.948,5.948,0,0,0-4.846-4.846.519.519,0,0,0-.6.42.51.51,0,0,0,.417.6Zm0,0" transform="translate(-294.33 -297.178)" fill="#211e1f"/>
        <path id="Path_930" data-name="Path 930" d="M315.325,239.753a9.793,9.793,0,0,0-7.98-7.98.515.515,0,1,0-.168,1.017,8.748,8.748,0,0,1,7.132,7.132.513.513,0,0,0,.508.428.664.664,0,0,0,.088-.008.506.506,0,0,0,.42-.589Zm0,0" transform="translate(-297.251 -231.723)" fill="#211e1f"/>
      </g>
    </g>
  </g>
</svg>
