<svg xmlns="http://www.w3.org/2000/svg" xmlns:xlink="http://www.w3.org/1999/xlink" width="61.622" height="59.362" viewBox="0 0 61.622 59.362">
  <defs>
    <filter id="Path_728" x="0" y="0" width="61.622" height="59.362" filterUnits="userSpaceOnUse">
      <feOffset dx="-2.835" input="SourceAlpha"/>
      <feGaussianBlur stdDeviation="2.835" result="blur"/>
      <feFlood flood-color="#221f1f" flood-opacity="0.039"/>
      <feComposite operator="in" in2="blur"/>
      <feComposite in="SourceGraphic"/>
    </filter>
    <filter id="Path_729" x="0" y="0" width="61.622" height="59.362" filterUnits="userSpaceOnUse">
      <feOffset dx="-2.835" input="SourceAlpha"/>
      <feGaussianBlur stdDeviation="2.835" result="blur-2"/>
      <feFlood flood-color="#221f1f" flood-opacity="0.039"/>
      <feComposite operator="in" in2="blur-2"/>
      <feComposite in="SourceGraphic"/>
    </filter>
  </defs>
  <g id="ready_to_eat" transform="translate(11.339 8.504)">
    <g id="Group_1303" data-name="Group 1303" transform="translate(0 0)">
      <g transform="matrix(1, 0, 0, 1, -11.34, -8.5)" filter="url(#Path_728)">
        <path id="Path_728-2" data-name="Path 728" d="M1015.5,42.64c0,5.591-.088,12.018-.114,21.823H992.309a28.256,28.256,0,0,1-15.038-4.714c-4.2-3.33-6.385-8.97-6.385-15.115V37.822a15.164,15.164,0,0,1,10.14-14.371,24.657,24.657,0,0,1,5.658-1.181c2.391-.053,4.641-.088,6.793-.118l1.831-.023c.618-.008,1.228-.011,1.838-.019A18.209,18.209,0,0,1,1015.5,40.253v.183C1015.5,41.161,1015.5,41.893,1015.5,42.64Z" transform="translate(-959.55 -13.61)" fill="#ffc416"/>
      </g>
      <g transform="matrix(1, 0, 0, 1, -11.34, -8.5)" filter="url(#Path_729)">
        <path id="Path_729-2" data-name="Path 729" d="M1015.5,42.64c0,5.591-.088,12.018-.114,21.823H992.309a28.256,28.256,0,0,1-15.038-4.714c-4.2-3.33-6.385-8.97-6.385-15.115V37.822a15.164,15.164,0,0,1,10.14-14.371,24.657,24.657,0,0,1,5.658-1.181c2.391-.053,4.641-.088,6.793-.118l1.831-.023c.618-.008,1.228-.011,1.838-.019A18.209,18.209,0,0,1,1015.5,40.253v.183C1015.5,41.161,1015.5,41.893,1015.5,42.64Z" transform="translate(-959.55 -13.61)" fill="#fff"/>
      </g>
    </g>
    <g id="Group_1311" data-name="Group 1311" transform="translate(2.586 9.866)">
      <g id="Group_1304" data-name="Group 1304">
        <path id="Path_730" data-name="Path 730" d="M999.888,52.447a.224.224,0,0,0,.316-.027l2.12-2.515a.224.224,0,0,0-.343-.289l-2.12,2.515A.224.224,0,0,0,999.888,52.447Z" transform="translate(-991.363 -48.942)" fill="#ffc416"/>
        <path id="Path_731" data-name="Path 731" d="M1001.68,53.932a.225.225,0,0,0,.316-.027l2.12-2.515a.225.225,0,0,0-.343-.289l-2.12,2.515A.225.225,0,0,0,1001.68,53.932Z" transform="translate(-992.471 -49.861)" fill="#ffc416"/>
        <path id="Path_732" data-name="Path 732" d="M989.659,56.247l2.632-3.122a.224.224,0,0,0-.343-.289l-2.631,3.122a1.191,1.191,0,0,1-1.329.347.224.224,0,0,0-.259.076l-.884,1.185h0v0l-3.819,5.12,0,0c-.013.018-.024.033-.037.047a.718.718,0,1,1-1.1-.926.592.592,0,0,1,.04-.044l0,0,2.441-2.57a.224.224,0,0,0-.325-.309l-2.44,2.568c-.023.024-.044.047-.063.069a1.167,1.167,0,0,0,1.784,1.5c.02-.023.039-.048.058-.075l2.91-3.9,3.529,3.353c.024.023.046.044.069.063a1.167,1.167,0,0,0,1.5-1.784c-.023-.02-.048-.039-.074-.058l-3.985-2.972.655-.878A1.642,1.642,0,0,0,989.659,56.247Zm1.4,4.741,0,0c.018.013.033.025.047.037a.718.718,0,1,1-.925,1.1c-.014-.012-.029-.025-.044-.04l0,0-3.569-3.391.5-.676Z" transform="translate(-979.894 -50.934)" fill="#ffc416"/>
        <path id="Path_733" data-name="Path 733" d="M982.041,54.173l.924.878a.224.224,0,0,0,.317-.008l1.839-1.936a.224.224,0,0,0,.031-.268,1.19,1.19,0,0,1,.117-1.368l2.631-3.122a.224.224,0,0,0-.343-.289l-2.632,3.122a1.641,1.641,0,0,0-.239,1.732l-.818.861-.915-.683a2.257,2.257,0,0,0-.641-2.579,5.112,5.112,0,0,0-2.378-1.181,1.767,1.767,0,0,0-2.109,2.5,5.106,5.106,0,0,0,1.567,2.144A2.255,2.255,0,0,0,982.041,54.173Zm-3.661-4.01a1.537,1.537,0,0,1,1.48-.389,4.657,4.657,0,0,1,2.161,1.081,1.809,1.809,0,0,1,.452,2.207.225.225,0,0,0,.066.281l1.017.759-.446.469-.892-.847a.224.224,0,0,0-.288-.018,1.81,1.81,0,0,1-2.252-.071,4.654,4.654,0,0,1-1.431-1.947A1.536,1.536,0,0,1,978.38,50.163Z" transform="translate(-977.665 -47.979)" fill="#ffc416"/>
      </g>
      <g id="Group_1306" data-name="Group 1306" transform="translate(13.116 3.173)">
        <g id="Group_1305" data-name="Group 1305">
          <path id="Path_734" data-name="Path 734" d="M1012.884,60.353c-.055,1.125-.082,1.688-.136,2.81a.5.5,0,0,1-.035.167.361.361,0,0,1-.081.122.325.325,0,0,1-.114.072.294.294,0,0,1-.135.016.322.322,0,0,1-.133-.046.391.391,0,0,1-.106-.1.406.406,0,0,1-.068-.138.527.527,0,0,1-.019-.172c.121-2.548.182-3.825.3-6.389a.473.473,0,0,1,.035-.16.421.421,0,0,1,.081-.129.361.361,0,0,1,.114-.085.288.288,0,0,1,.136-.027l1.329.051a4.051,4.051,0,0,1,.884.122,1.533,1.533,0,0,1,.659.35,1.427,1.427,0,0,1,.389.662,3.086,3.086,0,0,1,.076,1.056,2.27,2.27,0,0,1-.118.6,1.6,1.6,0,0,1-.263.482,1.245,1.245,0,0,1-.393.323,1.19,1.19,0,0,1-.506.13,1.405,1.405,0,0,1,.446.15,1.036,1.036,0,0,1,.477.559,1.824,1.824,0,0,1,.09.361,2.924,2.924,0,0,1,.028.386q0,.2,0,.389a4.476,4.476,0,0,0,.013.556q.022.229.056.4t.064.295a1.245,1.245,0,0,1,.036.241.606.606,0,0,1-.032.241.4.4,0,0,1-.1.155.364.364,0,0,1-.143.079.409.409,0,0,1-.156.013.333.333,0,0,1-.18-.071.463.463,0,0,1-.117-.145.742.742,0,0,1-.067-.191,1.823,1.823,0,0,1-.032-.209q-.009-.1-.008-.2c0-.063,0-.116,0-.161a6.474,6.474,0,0,0-.105-1.8c-.107-.412-.3-.627-.575-.648C1013.839,60.428,1013.52,60.4,1012.884,60.353Zm.034-.717,1.143.082q.086.006.21,0a1.27,1.27,0,0,0,.265-.038,1.143,1.143,0,0,0,.282-.113.864.864,0,0,0,.255-.223,1.247,1.247,0,0,0,.192-.37,1.9,1.9,0,0,0,.09-.551,1.84,1.84,0,0,0-.051-.536,1.2,1.2,0,0,0-.162-.368.82.82,0,0,0-.238-.233,1.209,1.209,0,0,0-.283-.13,1.428,1.428,0,0,0-.291-.058c-.1-.009-.184-.015-.264-.019l-1.026-.047C1012.991,58.076,1012.967,58.6,1012.917,59.636Z" transform="translate(-1012.056 -56.297)" fill="#ffc416" stroke="#ffc416" stroke-width="0.5"/>
          <path id="Path_735" data-name="Path 735" d="M1027.225,60.843c-.05,1.119-.076,1.679-.126,2.8.91.085,1.365.127,2.275.208a.271.271,0,0,1,.212.133.47.47,0,0,1,.07.284.429.429,0,0,1-.094.267.246.246,0,0,1-.222.09c-1.048-.1-1.573-.153-2.62-.26a.283.283,0,0,1-.132-.048.384.384,0,0,1-.106-.1.491.491,0,0,1-.068-.146.518.518,0,0,1-.019-.172c.121-2.661.182-3.995.3-6.671a.529.529,0,0,1,.035-.169.47.47,0,0,1,.081-.137.366.366,0,0,1,.114-.091.285.285,0,0,1,.136-.031c1.043.031,1.565.045,2.608.07a.252.252,0,0,1,.212.119.505.505,0,0,1-.024.555.26.26,0,0,1-.222.1c-.905-.029-1.357-.044-2.262-.076-.045,1.009-.068,1.513-.114,2.52.843.05,1.265.075,2.109.122a.261.261,0,0,1,.212.125.465.465,0,0,1,.071.282.444.444,0,0,1-.095.27.253.253,0,0,1-.222.1C1028.49,60.927,1028.068,60.9,1027.225,60.843Z" transform="translate(-1020.925 -56.603)" fill="#ffc416" stroke="#ffc416" stroke-width="0.5"/>
          <path id="Path_736" data-name="Path 736" d="M1040.266,62.929c-.8-.055-1.207-.082-2.012-.14-.2.788-.3,1.18-.5,1.96a.48.48,0,0,1-.073.167.361.361,0,0,1-.114.1.287.287,0,0,1-.136.04.28.28,0,0,1-.142-.034.4.4,0,0,1-.123-.1.5.5,0,0,1-.082-.147.6.6,0,0,1-.034-.176.573.573,0,0,1,.022-.186c.749-2.692,1.123-4.063,1.871-6.852a.887.887,0,0,1,.134-.3.264.264,0,0,1,.229-.116l.445.008a.25.25,0,0,1,.219.125.862.862,0,0,1,.109.309c.5,2.846.754,4.285,1.258,7.192a.686.686,0,0,1,0,.2.575.575,0,0,1-.047.175.46.46,0,0,1-.095.137.35.35,0,0,1-.131.082.263.263,0,0,1-.144.009.307.307,0,0,1-.13-.066.429.429,0,0,1-.1-.129.617.617,0,0,1-.061-.182C1040.486,64.17,1040.413,63.755,1040.266,62.929Zm-.668-4.2c-.04-.373-.061-.56-.1-.933l-.19.923c-.337,1.314-.506,1.966-.843,3.26.674.043,1.011.064,1.686.1C1039.929,60.734,1039.819,60.063,1039.6,58.728Z" transform="translate(-1027.518 -56.822)" fill="#ffc416" stroke="#ffc416" stroke-width="0.5"/>
          <path id="Path_737" data-name="Path 737" d="M1051.643,65.553a.265.265,0,0,1-.133-.049.4.4,0,0,1-.106-.111.554.554,0,0,1-.068-.158.646.646,0,0,1-.02-.187c.118-2.9.177-4.359.295-7.278a.639.639,0,0,1,.035-.185.551.551,0,0,1,.081-.151.393.393,0,0,1,.114-.1.261.261,0,0,1,.135-.036l1.421.014a1.962,1.962,0,0,1,.837.17,1.616,1.616,0,0,1,.576.46,2.234,2.234,0,0,1,.36.695,4.761,4.761,0,0,1,.191.875,8.31,8.31,0,0,1,.065,1q0,.525-.016,1.063-.02.522-.074,1.04a8.866,8.866,0,0,1-.158.987,5.215,5.215,0,0,1-.268.867,2.517,2.517,0,0,1-.405.68,1.564,1.564,0,0,1-.567.426,1.54,1.54,0,0,1-.754.109Zm.379-.782,1.159.086a1.014,1.014,0,0,0,.658-.154,1.32,1.32,0,0,0,.452-.6,4.507,4.507,0,0,0,.277-1.1,15.621,15.621,0,0,0,.134-1.627q.009-.231.014-.462t0-.449q0-.217-.01-.408c-.006-.127-.014-.241-.025-.341a3.42,3.42,0,0,0-.136-.665,1.631,1.631,0,0,0-.244-.489,1.006,1.006,0,0,0-.364-.3,1.158,1.158,0,0,0-.5-.109l-1.156-.019C1052.182,60.793,1052.129,62.121,1052.022,64.771Z" transform="translate(-1036.343 -56.915)" fill="#ffc416" stroke="#ffc416" stroke-width="0.5"/>
          <path id="Path_738" data-name="Path 738" d="M1067.35,62.612c-.042,1.184-.063,1.776-.106,2.958a.73.73,0,0,1-.035.206.493.493,0,0,1-.08.154.362.362,0,0,1-.114.095.254.254,0,0,1-.136.028.268.268,0,0,1-.133-.047.391.391,0,0,1-.106-.11.528.528,0,0,1-.069-.163.766.766,0,0,1-.019-.208c.043-1.175.064-1.764.107-2.941-.606-1.919-.909-2.867-1.513-4.741a.651.651,0,0,1-.029-.186.668.668,0,0,1,.022-.181.59.59,0,0,1,.069-.161.422.422,0,0,1,.11-.124.268.268,0,0,1,.13-.047.233.233,0,0,1,.126.022.306.306,0,0,1,.108.091.489.489,0,0,1,.075.154c.512,1.675.768,2.521,1.281,4.23.635-1.669.953-2.515,1.586-4.23a.548.548,0,0,1,.087-.158.338.338,0,0,1,.115-.094.24.24,0,0,1,.128-.024.251.251,0,0,1,.127.048.389.389,0,0,1,.1.127.592.592,0,0,1,.057.166.69.69,0,0,1,.009.188.7.7,0,0,1-.042.192C1068.466,59.789,1068.094,60.74,1067.35,62.612Z" transform="translate(-1044.88 -56.815)" fill="#ffc416" stroke="#ffc416" stroke-width="0.5"/>
        </g>
      </g>
      <g id="Group_1308" data-name="Group 1308" transform="translate(5.78 14.317)">
        <g id="Group_1307" data-name="Group 1307">
          <path id="Path_739" data-name="Path 739" d="M993.172,86.516a.317.317,0,0,1-.251-.1.374.374,0,0,1-.1-.258.382.382,0,0,1,.089-.265.321.321,0,0,1,.248-.116c1.573-.046,2.361-.056,3.938-.051a.307.307,0,0,1,.248.113.394.394,0,0,1,.088.272.4.4,0,0,1-.1.268.32.32,0,0,1-.252.107c-.62-.005-.931-.006-1.551,0-.017,2.558-.029,3.839-.058,6.405a.52.52,0,0,1-.031.177.389.389,0,0,1-.08.133.36.36,0,0,1-.117.083.32.32,0,0,1-.142.026.329.329,0,0,1-.142-.039.4.4,0,0,1-.115-.093.426.426,0,0,1-.078-.14.531.531,0,0,1-.028-.179c.006-2.551.006-3.825,0-6.368C994.109,86.5,993.8,86.5,993.172,86.516Z" transform="translate(-992.82 -85.646)" fill="#ffc416" stroke="#ffc416" stroke-width="0.5"/>
          <path id="Path_740" data-name="Path 740" d="M1007.442,89.281c.012-.293.035-.592.067-.894a6.519,6.519,0,0,1,.152-.875,4.054,4.054,0,0,1,.282-.792,2.238,2.238,0,0,1,.46-.642,1.99,1.99,0,0,1,.681-.425,2.41,2.41,0,0,1,.942-.135,2.19,2.19,0,0,1,.9.2,1.766,1.766,0,0,1,.607.479,2.105,2.105,0,0,1,.363.691,4.171,4.171,0,0,1,.169.836,6.676,6.676,0,0,1,.028.913c-.011.314-.031.623-.06.925-.036.365-.083.727-.136,1.082a9.066,9.066,0,0,1-.21,1.006,5.091,5.091,0,0,1-.317.863,2.4,2.4,0,0,1-.456.66,1.679,1.679,0,0,1-.631.4,1.944,1.944,0,0,1-.846.084,2.029,2.029,0,0,1-.822-.239,1.8,1.8,0,0,1-.566-.5,2.459,2.459,0,0,1-.357-.712,4.96,4.96,0,0,1-.192-.877,8.61,8.61,0,0,1-.069-.991C1007.424,89.99,1007.428,89.638,1007.442,89.281Zm3.784.238a10.824,10.824,0,0,0,.046-1.233,3.62,3.62,0,0,0-.153-1.013,1.554,1.554,0,0,0-.425-.7,1.156,1.156,0,0,0-.759-.279,1.178,1.178,0,0,0-.773.216,1.672,1.672,0,0,0-.506.647,3.75,3.75,0,0,0-.29.973,10.085,10.085,0,0,0-.122,1.2c-.026.557-.038,1.053-.026,1.482a4.287,4.287,0,0,0,.148,1.086,1.461,1.461,0,0,0,.4.686,1.2,1.2,0,0,0,.728.285,1.151,1.151,0,0,0,.754-.156,1.426,1.426,0,0,0,.493-.622,4.354,4.354,0,0,0,.3-1.073C1011.115,90.591,1011.175,90.088,1011.226,89.519Z" transform="translate(-1001.856 -85.517)" fill="#ffc416" stroke="#ffc416" stroke-width="0.5"/>
        </g>
      </g>
      <g id="Group_1310" data-name="Group 1310" transform="translate(19.295 14.27)">
        <g id="Group_1309" data-name="Group 1309">
          <path id="Path_741" data-name="Path 741" d="M1029.53,90.827c.027,1.015.041,1.522.068,2.537,1.15.074,1.725.108,2.876.171a.506.506,0,0,1,.2.051.522.522,0,0,1,.155.116.531.531,0,0,1,.1.166.569.569,0,0,1,.038.2.539.539,0,0,1-.031.195.4.4,0,0,1-.1.154.45.45,0,0,1-.153.1.459.459,0,0,1-.2.027c-1.369-.094-2.053-.145-3.421-.255a.611.611,0,0,1-.232-.066.7.7,0,0,1-.321-.333.586.586,0,0,1-.054-.225c-.082-2.569-.122-3.853-.2-6.422a.526.526,0,0,1,.041-.222.559.559,0,0,1,.126-.187.682.682,0,0,1,.19-.131.582.582,0,0,1,.23-.054c1.4-.042,2.1-.068,3.5-.126a.5.5,0,0,1,.208.032.442.442,0,0,1,.159.105.5.5,0,0,1,.1.16.53.53,0,0,1,.039.2.566.566,0,0,1-.032.2.494.494,0,0,1-.1.167.476.476,0,0,1-.157.117.508.508,0,0,1-.206.047c-1.169.033-1.753.047-2.922.068.024.894.036,1.341.06,2.234,1.079.014,1.619.019,2.7.024a.5.5,0,0,1,.205.042.458.458,0,0,1,.157.112.543.543,0,0,1,.141.361.568.568,0,0,1-.031.2.442.442,0,0,1-.1.162.482.482,0,0,1-.155.109.46.46,0,0,1-.2.039C1031.142,90.869,1030.6,90.857,1029.53,90.827Z" transform="translate(-1028.257 -86.09)" fill="#ffc416" stroke="#ffc416" stroke-width="1"/>
          <path id="Path_742" data-name="Path 742" d="M1048.591,93.807a.8.8,0,0,1,.019.271.693.693,0,0,1-.071.246.668.668,0,0,1-.151.2.512.512,0,0,1-.214.116.563.563,0,0,1-.237.014.575.575,0,0,1-.219-.081.656.656,0,0,1-.179-.171.736.736,0,0,1-.115-.255c-.2-.8-.306-1.193-.512-1.981-.985-.019-1.478-.031-2.462-.058-.194.756-.291,1.132-.483,1.877a.561.561,0,0,1-.108.23.519.519,0,0,1-.176.141.5.5,0,0,1-.218.052.641.641,0,0,1-.233-.04.626.626,0,0,1-.212-.127.666.666,0,0,1-.147-.193.684.684,0,0,1-.07-.233.662.662,0,0,1,.018-.247c.782-2.769,1.182-4.195,2-7.126a.587.587,0,0,1,.251-.365.951.951,0,0,1,.444-.123l.337-.019a1.555,1.555,0,0,1,.239,0,.583.583,0,0,1,.218.066.576.576,0,0,1,.183.158.793.793,0,0,1,.132.283C1047.428,89.315,1047.821,90.789,1048.591,93.807Zm-2.823-6.17c-.032-.145-.048-.218-.08-.363l-.06.368c-.352,1.349-.527,2.016-.873,3.334.759.009,1.138.012,1.9.016C1046.3,89.636,1046.124,88.964,1045.767,87.637Z" transform="translate(-1037.253 -85.725)" fill="#ffc416" stroke="#ffc416" stroke-width="1"/>
          <path id="Path_743" data-name="Path 743" d="M1060.915,86.582c-.671-.033-1.006-.051-1.677-.049a.463.463,0,0,1-.363-.164.521.521,0,0,1-.1-.177.681.681,0,0,1,.005-.433.612.612,0,0,1,.1-.184.485.485,0,0,1,.158-.129.464.464,0,0,1,.207-.049c1.8-.03,2.7.167,4.5.085a.438.438,0,0,1,.205.036.428.428,0,0,1,.154.12.579.579,0,0,1,.1.183.681.681,0,0,1,.032.225.772.772,0,0,1-.039.228.631.631,0,0,1-.1.193.524.524,0,0,1-.161.135.452.452,0,0,1-.206.053c-.656.02-.984.008-1.641-.019-.043,2.912-.065,4.227-.108,7.161a.785.785,0,0,1-.049.273.635.635,0,0,1-.126.206.539.539,0,0,1-.185.129.526.526,0,0,1-.225.041.547.547,0,0,1-.224-.056.556.556,0,0,1-.179-.141.68.68,0,0,1-.119-.213.79.79,0,0,1-.042-.274C1060.862,90.845,1060.88,89.486,1060.915,86.582Z" transform="translate(-1047.116 -85.395)" fill="#ffc416" stroke="#ffc416" stroke-width="1"/>
        </g>
      </g>
    </g>
  </g>
</svg>
