<svg xmlns="http://www.w3.org/2000/svg" width="50.473" height="26.473" viewBox="0 0 50.473 26.473">
  <defs>
    <style>
      .cls-1 {
        fill: #dcdcdc;
      }
    </style>
  </defs>
  <path id="img_akara_tofu" class="cls-1" d="M379.354,536.188A2.614,2.614,0,0,0,377,534.736h-1.564v-4.475a3.023,3.023,0,0,0-3.021-3.02h-3.538v-4.476a3.023,3.023,0,0,0-3.021-3.021h-22.93a3.024,3.024,0,0,0-3.021,3.021v4.476h-3.537a3.023,3.023,0,0,0-3.021,3.02v4.475h-1.563a2.626,2.626,0,0,0-2.1,4.2l4.4,5.858a3.576,3.576,0,0,0,2.845,1.42h34.934a3.577,3.577,0,0,0,2.846-1.421l4.4-5.857A2.615,2.615,0,0,0,379.354,536.188Zm-6.933-6.211a.286.286,0,0,1,.286.284v4.475H362.324v-4.759h10.1Zm-23.216,0h10.384v4.759H349.2Zm6.56-7.5h10.1a.286.286,0,0,1,.286.286v4.476H355.765Zm-13.12.286a.287.287,0,0,1,.286-.286h10.1v4.762H342.645Zm-6.558,7.5a.286.286,0,0,1,.286-.284h10.1v4.759H336.087Zm36.435,12.893a.828.828,0,0,1-.659.328H336.929a.826.826,0,0,1-.658-.327l-4.265-5.684h44.779Z" transform="translate(-329.16 -519.744)"/>
</svg>
