<svg xmlns="http://www.w3.org/2000/svg" width="13.799" height="15.218" viewBox="0 0 13.799 15.218">
  <g id="icon-list" transform="translate(-129 -235.89)">
    <path id="Path_944" data-name="Path 944" d="M130.451,235.89a1.451,1.451,0,1,0,1.451,1.451,1.453,1.453,0,0,0-1.451-1.451Zm0,0" transform="translate(0 0)" fill="#fff"/>
    <path id="Path_945" data-name="Path 945" d="M248.02,254.964H240.1a.666.666,0,1,0,0,1.331h7.921a.666.666,0,1,0,0-1.331Zm0,0" transform="translate(-105.887 -18.289)" fill="#fff"/>
    <path id="Path_946" data-name="Path 946" d="M130.451,385.449A1.451,1.451,0,1,0,131.9,386.9a1.453,1.453,0,0,0-1.451-1.451Zm0,0" transform="translate(0 -143.401)" fill="#fff"/>
    <path id="Path_947" data-name="Path 947" d="M248.02,404.523H240.1a.666.666,0,1,0,0,1.331h7.921a.666.666,0,0,0,0-1.331Zm0,0" transform="translate(-105.887 -161.69)" fill="#fff"/>
    <path id="Path_948" data-name="Path 948" d="M130.451,535a1.451,1.451,0,1,0,1.451,1.451A1.453,1.453,0,0,0,130.451,535Zm0,0" transform="translate(0 -286.798)" fill="#fff"/>
    <path id="Path_949" data-name="Path 949" d="M248.02,554.077H240.1a.666.666,0,0,0,0,1.331h7.921a.666.666,0,0,0,0-1.331Zm0,0" transform="translate(-105.887 -305.087)" fill="#fff"/>
  </g>
</svg>
