<svg xmlns="http://www.w3.org/2000/svg" width="17.506" height="17.506" viewBox="0 0 17.506 17.506">
  <g id="icon-fax" transform="translate(-105 -229.89)">
    <path id="Path_954" data-name="Path 954" d="M281.681,276.549h2.4a.513.513,0,0,0,0-1.026h-2.4a.513.513,0,1,0,0,1.026Zm0,0" transform="translate(-168.137 -43.553)" fill="#211e1f"/>
    <path id="Path_955" data-name="Path 955" d="M281.681,321.658h4.76a.513.513,0,1,0,0-1.026h-4.76a.513.513,0,1,0,0,1.026Zm0,0" transform="translate(-168.137 -86.605)" fill="#211e1f"/>
    <path id="Path_956" data-name="Path 956" d="M121,236.664v-5.826a.949.949,0,0,0-.948-.948h-8.26a.949.949,0,0,0-.948.948v5.826a1.879,1.879,0,0,0-.992.554,1.875,1.875,0,0,0-1.368-.592h-1.607A1.883,1.883,0,0,0,105,238.506v7.009a1.883,1.883,0,0,0,1.881,1.881h1.607a1.875,1.875,0,0,0,1.368-.592,1.875,1.875,0,0,0,1.368.592h9.4a1.883,1.883,0,0,0,1.881-1.881v-7.009a1.884,1.884,0,0,0-1.5-1.843Zm-1.026-5.748v5.71h-8.1v-5.71Zm-10.634,14.6a.856.856,0,0,1-.855.855h-1.607a.856.856,0,0,1-.855-.855v-7.009a.856.856,0,0,1,.855-.855h1.607a.856.856,0,0,1,.855.855Zm12.138,0a.856.856,0,0,1-.855.855h-9.4a.856.856,0,0,1-.855-.855v-7.009a.856.856,0,0,1,.855-.855h9.4a.856.856,0,0,1,.855.855Zm0,0" transform="translate(0)" fill="#211e1f"/>
    <path id="Path_957" data-name="Path 957" d="M267.072,439.515h-.684a.513.513,0,1,0,0,1.026h.684a.513.513,0,1,0,0-1.026Zm0,0" transform="translate(-153.541 -200.068)" fill="#211e1f"/>
    <path id="Path_958" data-name="Path 958" d="M327.072,439.515h-.684a.513.513,0,0,0,0,1.026h.684a.513.513,0,1,0,0-1.026Zm0,0" transform="translate(-210.806 -200.068)" fill="#211e1f"/>
    <path id="Path_959" data-name="Path 959" d="M387.072,439.515h-.684a.513.513,0,1,0,0,1.026h.684a.513.513,0,0,0,0-1.026Zm0,0" transform="translate(-268.07 -200.068)" fill="#211e1f"/>
    <path id="Path_960" data-name="Path 960" d="M267.072,484.515h-.684a.513.513,0,1,0,0,1.026h.684a.513.513,0,1,0,0-1.026Zm0,0" transform="translate(-153.541 -243.017)" fill="#211e1f"/>
    <path id="Path_961" data-name="Path 961" d="M327.072,484.515h-.684a.513.513,0,1,0,0,1.026h.684a.513.513,0,1,0,0-1.026Zm0,0" transform="translate(-210.806 -243.017)" fill="#211e1f"/>
    <path id="Path_962" data-name="Path 962" d="M387.072,484.515h-.684a.513.513,0,1,0,0,1.026h.684a.513.513,0,1,0,0-1.026Zm0,0" transform="translate(-268.07 -243.017)" fill="#211e1f"/>
    <path id="Path_963" data-name="Path 963" d="M267.072,529.515h-.684a.513.513,0,1,0,0,1.026h.684a.513.513,0,1,0,0-1.026Zm0,0" transform="translate(-153.541 -285.966)" fill="#211e1f"/>
    <path id="Path_964" data-name="Path 964" d="M327.072,529.515h-.684a.513.513,0,1,0,0,1.026h.684a.513.513,0,1,0,0-1.026Zm0,0" transform="translate(-210.806 -285.966)" fill="#211e1f"/>
    <path id="Path_965" data-name="Path 965" d="M387.072,529.515h-.684a.513.513,0,1,0,0,1.026h.684a.513.513,0,1,0,0-1.026Zm0,0" transform="translate(-268.07 -285.966)" fill="#211e1f"/>
  </g>
</svg>
