<svg xmlns="http://www.w3.org/2000/svg" width="51.441" height="47.629" viewBox="0 0 51.441 47.629"><defs><radialGradient id="a" cx=".5" cy=".5" r=".5" gradientUnits="objectBoundingBox"><stop offset="0" stop-color="#43ab3f"/><stop offset="1" stop-color="#245d38"/></radialGradient></defs><path data-name="Path 779" d="M798.056 902.979c28.013-21.215 64.91 39.379 18.86 43.058-9.132.517-18.8-1.513-24.745-7.911-9.555-10.334-3.732-27.866 5.885-35.147z" transform="translate(-787.29 -898.485)" fill="url(#a)"/><path d="M41.935 39.729c-.587-2.593-3.939-3.857-5.1-4.265a38 38 0 00-4.248-.815 4.316 4.316 0 01-1.957-.905c-.326-.391-.13-4.02-.13-4.02a12.1 12.1 0 00.93-1.77 22.824 22.824 0 00.685-3.091s.669 0 .905-1.174c.253-1.28.652-1.778.6-2.732-.049-.938-.563-.913-.563-.913a14.3 14.3 0 00.555-4.183c.071-3.354-2.555-6.654-7.309-6.654-4.819 0-7.388 3.3-7.314 6.654a14.913 14.913 0 00.546 4.183s-.514-.024-.563.913c-.049.954.351 1.452.6 2.732.228 1.174.905 1.174.905 1.174a22.825 22.825 0 00.685 3.091 12.1 12.1 0 00.93 1.77s.2 3.629-.13 4.02a4.316 4.316 0 01-1.965.905 38 38 0 00-4.248.815c-1.158.408-4.509 1.672-5.1 4.265a.652.652 0 00.644.791h30a.65.65 0 00.642-.791z" fill="#fff"/></svg>