<svg xmlns="http://www.w3.org/2000/svg" width="50.473" height="26.473" viewBox="0 0 50.473 26.473"><path d="M50.194 16.444a2.614 2.614 0 00-2.354-1.452h-1.564v-4.475a3.023 3.023 0 00-3.021-3.02h-3.538V3.021A3.023 3.023 0 0036.696 0h-22.93a3.024 3.024 0 00-3.021 3.021v4.476H7.208a3.023 3.023 0 00-3.021 3.02v4.475H2.624a2.626 2.626 0 00-2.1 4.2l4.4 5.858a3.576 3.576 0 002.845 1.42h34.934a3.577 3.577 0 002.846-1.421l4.4-5.857a2.615 2.615 0 00.245-2.748zm-6.933-6.211a.286.286 0 01.286.284v4.475H33.164v-4.759h10.1zm-23.216 0h10.384v4.759H20.04zm6.56-7.5h10.1a.286.286 0 01.286.286v4.476H26.605zm-13.12.286a.287.287 0 01.286-.286h10.1v4.762H13.485zm-6.558 7.5a.286.286 0 01.286-.284h10.1v4.759H6.927zm36.435 12.893a.828.828 0 01-.659.328H7.769a.826.826 0 01-.658-.327l-4.265-5.684h44.779z" fill="#dcdcdc"/></svg>