<svg xmlns="http://www.w3.org/2000/svg" width="50.933" height="22.048" viewBox="0 0 50.933 22.048"><g data-name="Group 1181"><path data-name="Path 572" d="M49.08 10.306a5.047 5.047 0 00.161-1.263 9.22 9.22 0 00-2.431-6.074 8.577 8.577 0 00-12.977 0 9.67 9.67 0 00-.939 1.226 9.67 9.67 0 00-.939-1.226 8.577 8.577 0 00-12.977 0 9.671 9.671 0 00-.939 1.226 9.671 9.671 0 00-.939-1.226A8.7 8.7 0 0010.611.001a8.7 8.7 0 00-6.489 2.968 9.221 9.221 0 00-2.431 6.074 5.043 5.043 0 00.162 1.263H0v6.193h2.2l3.183 5.549h10.493l2.063-3.964h.2l2.063 3.964h10.53l2.063-3.964h.2l2.063 3.964H45.55l3.183-5.549h2.2v-6.193zm-8.758-8.073c3.051 0 5.936 3.311 5.936 6.813a3.4 3.4 0 01-.247 1.263H34.633a3.4 3.4 0 01-.247-1.263c0-3.506 2.885-6.813 5.936-6.813zm-14.855 0c3.051 0 5.936 3.311 5.936 6.813a3.4 3.4 0 01-.247 1.263H19.778a3.4 3.4 0 01-.247-1.263c0-3.506 2.884-6.813 5.935-6.813zm-14.855 0c3.051 0 5.935 3.311 5.935 6.813a3.4 3.4 0 01-.247 1.263H4.922a3.4 3.4 0 01-.247-1.263c0-3.506 2.885-6.813 5.936-6.813zm37.338 12.04h-1.184l-3.183 5.549H37.1l-2.063-3.964h-4.284l-2.063 3.964h-6.447l-2.063-3.964H15.9l-2.063 3.964H7.351l-3.183-5.549H2.984v-1.74h44.965z" fill="#ffc416"/></g></svg>