<svg xmlns="http://www.w3.org/2000/svg" width="86.501" height="82.981" viewBox="0 0 86.501 82.981"><defs><filter id="a" x="0" y="0" width="86.501" height="82.981" filterUnits="userSpaceOnUse"><feOffset dx="-2.835"/><feGaussianBlur stdDeviation="2.835" result="blur"/><feFlood flood-color="#221f1f" flood-opacity=".039"/><feComposite operator="in" in2="blur"/><feComposite in="SourceGraphic"/></filter></defs><g filter="url(#a)"><path data-name="img_ready_to_cook" d="M80.83 40.479c-.006 8.709-.137 18.719-.178 33.993H44.71a44.013 44.013 0 01-23.424-7.343c-6.536-5.186-9.945-13.972-9.945-23.539V32.974A23.621 23.621 0 0127.136 10.59a38.394 38.394 0 018.814-1.84c3.725-.083 7.23-.137 10.581-.184l2.852-.036c.962-.012 1.913-.018 2.863-.03a28.363 28.363 0 0128.587 28.26v.285c.003 1.129.003 2.27-.003 3.434z" fill="#ffc416" opacity=".35"/></g></svg>