<svg xmlns="http://www.w3.org/2000/svg" width="86.501" height="82.981" viewBox="0 0 86.501 82.981"><defs><filter id="Path_744" x="0" y="0" width="86.501" height="82.981" filterUnits="userSpaceOnUse"><feOffset dx="-2.835"/><feGaussianBlur stdDeviation="2.835" result="blur"/><feFlood flood-color="#221f1f" flood-opacity=".039"/><feComposite operator="in" in2="blur"/><feComposite in="SourceGraphic"/></filter><filter id="img_ready_to_cook" x="0" y="0" width="86.501" height="82.981" filterUnits="userSpaceOnUse"><feOffset dx="-2.835"/><feGaussianBlur stdDeviation="2.835" result="blur-2"/><feFlood flood-color="#221f1f" flood-opacity=".039"/><feComposite operator="in" in2="blur-2"/><feComposite in="SourceGraphic"/></filter><style>.cls-3,.cls-4{fill:#fff}.cls-4{stroke:#fff;stroke-miterlimit:10;stroke-width:.5px}</style></defs><g id="ready_to_cook" data-name="ready to cook" transform="translate(11.339 8.504)"><g id="Group_1359" data-name="Group 1359"><g id="Group_1313" data-name="Group 1313"><g filter="url(#Path_744)" transform="translate(-11.34 -8.5)"><path id="Path_744-2" data-name="Path 744" d="M886.08 54.089c-.006 8.709-.137 18.719-.178 33.993H849.96a44.013 44.013 0 01-23.424-7.343c-6.536-5.186-9.945-13.972-9.945-23.539V46.584A23.621 23.621 0 01832.386 24.2a38.394 38.394 0 018.814-1.84c3.725-.083 7.23-.137 10.581-.184l2.852-.036c.962-.012 1.913-.018 2.863-.03a28.363 28.363 0 0128.587 28.26v.285c.003 1.129.003 2.27-.003 3.434z" transform="translate(-805.25 -13.61)" fill="#ffc416"/></g><g filter="url(#img_ready_to_cook)" transform="translate(-11.34 -8.5)"><path id="img_ready_to_cook-2" data-name="img_ready_to_cook" d="M886.08 54.089c-.006 8.709-.137 18.719-.178 33.993H849.96a44.013 44.013 0 01-23.424-7.343c-6.536-5.186-9.945-13.972-9.945-23.539V46.584A23.621 23.621 0 01832.386 24.2a38.394 38.394 0 018.814-1.84c3.725-.083 7.23-.137 10.581-.184l2.852-.036c.962-.012 1.913-.018 2.863-.03a28.363 28.363 0 0128.587 28.26v.285c.003 1.129.003 2.27-.003 3.434z" transform="translate(-805.25 -13.61)" opacity=".35" fill="#ffc416"/></g></g><g id="Group_1338" data-name="Group 1338" transform="translate(6.302 15.323)"><g id="Group_1318" data-name="Group 1318"><g id="Group_1314" data-name="Group 1314" transform="translate(4.393 8.604)"><path id="Path_746" data-name="Path 746" class="cls-3" d="M835.356 62.684a.386.386 0 00-.752.178 5.421 5.421 0 001.8 2.206.386.386 0 10.469-.614 4.676 4.676 0 01-1.517-1.77z" transform="translate(-834.594 -62.387)"/></g><g id="Group_1315" data-name="Group 1315" transform="translate(12.064 6.652)"><path id="Path_747" data-name="Path 747" class="cls-3" d="M848.4 59.111a.385.385 0 00-.287.464 4.7 4.7 0 01-.566 2.262.386.386 0 00.694.34 5.431 5.431 0 00.623-2.78.386.386 0 00-.464-.286z" transform="translate(-847.507 -59.1)"/></g><g id="Group_1316" data-name="Group 1316" transform="translate(8.526 7.628)"><path id="Path_748" data-name="Path 748" class="cls-3" d="M841.848 60.754a.386.386 0 00-.287.465l.533 2.254a.386.386 0 10.751-.178l-.533-2.254a.385.385 0 00-.464-.287z" transform="translate(-841.551 -60.743)"/></g><g id="Group_1317" data-name="Group 1317"><path id="Path_749" data-name="Path 749" class="cls-3" d="M838.735 48.554a3.986 3.986 0 00-.7.244 4.617 4.617 0 00-6.84 1.616 4.073 4.073 0 00-.731.092 4.245 4.245 0 00-.023 8.258l1.334 5.68a1.576 1.576 0 001.9 1.173l8.955-2.116a1.577 1.577 0 001.171-1.9l-1.343-5.685a4.244 4.244 0 00-3.724-7.367zm3.718 14.2l-8.953 2.111a.8.8 0 01-.967-.6l-.346-1.472L842.7 60.31l.347 1.473a.8.8 0 01-.594.967zm-.652-7.292a.335.335 0 00-.049.043.388.388 0 00-.111.3.4.4 0 00.011.064l.871 3.69-10.516 2.484-.866-3.686a.376.376 0 00-.018-.061.384.384 0 00-.1-.141.378.378 0 00-.137-.083.357.357 0 00-.066-.017 3.473 3.473 0 01-.179-6.8c.073-.017.152-.026.229-.038a4.6 4.6 0 00-.07 2.383.386.386 0 10.751-.178 3.86 3.86 0 117.514-1.775.386.386 0 00.751-.178 4.6 4.6 0 00-1.13-2.1c.074-.024.149-.051.222-.068a3.472 3.472 0 012.89 6.152z" transform="translate(-827.199 -47.903)"/></g></g><g id="Group_1337" data-name="Group 1337" transform="translate(3.861 4.735)"><g id="Group_1332" data-name="Group 1332" transform="translate(16.071 16.062)"><g id="Group_1331" data-name="Group 1331"><g id="Group_1321" data-name="Group 1321"><g id="Group_1319" data-name="Group 1319" transform="translate(.446 .447)"><path id="Path_750" data-name="Path 750" class="cls-3" d="M866.637 91.228a.62.62 0 01.061-.24.654.654 0 01.135-.188.528.528 0 01.416-.141.548.548 0 01.217.076.561.561 0 01.168.156.719.719 0 01.105.218.768.768 0 01.035.254 6 6 0 01-.128.959 4.8 4.8 0 01-.264.86 3.343 3.343 0 01-.406.719 2.377 2.377 0 01-.56.538 2.29 2.29 0 01-.72.323 2.772 2.772 0 01-.892.071 3.463 3.463 0 01-1.327-.328 2.849 2.849 0 01-.911-.71 3.363 3.363 0 01-.576-.992 6.451 6.451 0 01-.317-1.181 10.533 10.533 0 01-.137-1.282q-.03-.658-.035-1.285 0-.6.034-1.226a8.506 8.506 0 01.162-1.223 5.765 5.765 0 01.354-1.127 3.217 3.217 0 01.611-.935 2.783 2.783 0 01.931-.641 3.314 3.314 0 011.315-.244 3.1 3.1 0 011.209.218 2.694 2.694 0 01.918.611 2.789 2.789 0 01.592.921 3.5 3.5 0 01.241 1.142.777.777 0 01-.03.255.716.716 0 01-.106.219.612.612 0 01-.169.159.5.5 0 01-.219.076.541.541 0 01-.231-.024.574.574 0 01-.2-.112.623.623 0 01-.145-.186.655.655 0 01-.07-.242 3.46 3.46 0 00-.152-.771 1.792 1.792 0 00-.341-.619 1.582 1.582 0 00-.569-.415 2.067 2.067 0 00-.836-.153 1.5 1.5 0 00-.833.223 1.947 1.947 0 00-.578.586 3.182 3.182 0 00-.371.823 6.648 6.648 0 00-.206.939q-.069.479-.09.936t-.02.815c0 .272 0 .573.005.9s.024.664.06 1a7.651 7.651 0 00.171.992 3.156 3.156 0 00.342.864 1.98 1.98 0 00.574.627 1.637 1.637 0 00.866.277 1.6 1.6 0 00.866-.157 1.553 1.553 0 00.576-.533 2.554 2.554 0 00.334-.813 5.645 5.645 0 00.141-.989z" transform="translate(-861.5 -83.662)"/></g><g id="Group_1320" data-name="Group 1320"><path id="Path_751" data-name="Path 751" class="cls-3" d="M864.73 94.982c-.085 0-.172 0-.26-.009a3.907 3.907 0 01-1.5-.375 3.289 3.289 0 01-1.052-.82 3.814 3.814 0 01-.652-1.122 6.911 6.911 0 01-.339-1.262 10.9 10.9 0 01-.143-1.337 30.574 30.574 0 01-.036-1.3c0-.4.009-.826.035-1.256a8.983 8.983 0 01.17-1.287 6.212 6.212 0 01.384-1.214 3.681 3.681 0 01.7-1.063 3.244 3.244 0 011.078-.745 3.784 3.784 0 011.49-.28 3.393 3.393 0 011.381.251 3.151 3.151 0 011.066.713 3.245 3.245 0 01.687 1.066 3.976 3.976 0 01.272 1.286 1.219 1.219 0 01-.048.4 1.14 1.14 0 01-.172.354 1.057 1.057 0 01-.29.273.954.954 0 01-.412.143.979.979 0 01-.418-.045 1 1 0 01-.351-.2 1.058 1.058 0 01-.248-.317 1.087 1.087 0 01-.118-.405 3.01 3.01 0 00-.132-.674 1.35 1.35 0 00-.256-.468 1.135 1.135 0 00-.411-.3 1.632 1.632 0 00-.656-.115 1.048 1.048 0 00-.585.15 1.494 1.494 0 00-.447.454 2.746 2.746 0 00-.318.708 6.215 6.215 0 00-.192.876c-.043.3-.072.6-.085.893s-.021.563-.021.794q0 .4.006.9c0 .31.023.633.058.961a7.351 7.351 0 00.16.934 2.764 2.764 0 00.293.743 1.528 1.528 0 00.446.489 1.21 1.21 0 00.636.2 1.169 1.169 0 00.628-.105 1.106 1.106 0 00.413-.383 2.113 2.113 0 00.274-.672 5.2 5.2 0 00.128-.918 1.065 1.065 0 01.105-.412 1.107 1.107 0 01.226-.312.969.969 0 01.776-.263 1 1 0 01.4.137 1.009 1.009 0 01.3.277 1.183 1.183 0 01.171.352 1.212 1.212 0 01.052.4 6.282 6.282 0 01-.137 1.033 5.242 5.242 0 01-.288.94 3.786 3.786 0 01-.462.816 2.836 2.836 0 01-.665.639 2.763 2.763 0 01-.858.386 3.072 3.072 0 01-.783.091zm-.109-11.18h-.021a2.91 2.91 0 00-1.14.207 2.356 2.356 0 00-.784.539 2.813 2.813 0 00-.526.806 5.4 5.4 0 00-.326 1.04 8.19 8.19 0 00-.153 1.16c-.025.411-.037.812-.034 1.2q0 .618.035 1.267a10.03 10.03 0 00.131 1.229 6.1 6.1 0 00.295 1.1 2.943 2.943 0 00.5.861 2.427 2.427 0 00.771.6 3.047 3.047 0 001.157.282 2.388 2.388 0 00.748-.058 1.857 1.857 0 00.583-.26 1.9 1.9 0 00.455-.438 2.861 2.861 0 00.351-.623 4.3 4.3 0 00.238-.779 5.384 5.384 0 00.119-.886.316.316 0 00-.016-.106.271.271 0 00-.04-.087l-.024-.492-.05.443-.367-.3.309.321a.209.209 0 00-.043.06.168.168 0 00-.017.07 6.138 6.138 0 01-.151 1.076 3.025 3.025 0 01-.395.953 2.007 2.007 0 01-.74.683 2.044 2.044 0 01-1.1.209 2.087 2.087 0 01-1.1-.358 2.435 2.435 0 01-.7-.766 3.628 3.628 0 01-.391-.984 8.323 8.323 0 01-.181-1.049 10.848 10.848 0 01-.062-1.047l-.006-.906q0-.366.022-.836c.014-.32.046-.649.093-.979a7 7 0 01.22-1 3.623 3.623 0 01.424-.938 2.391 2.391 0 01.71-.718 1.928 1.928 0 011.069-.294h.007a2.5 2.5 0 011.016.191 2.034 2.034 0 01.726.532 2.263 2.263 0 01.427.771 3.937 3.937 0 01.172.87.2.2 0 00.021.074.171.171 0 00.041.055l.092.031a.157.157 0 00.072-.052.251.251 0 00.04-.083.32.32 0 00.013-.109 3.081 3.081 0 00-.21-1 2.361 2.361 0 00-.5-.775 2.27 2.27 0 00-.767-.51 2.677 2.677 0 00-1.013-.199z" transform="translate(-860.75 -82.91)"/></g></g><g id="Group_1324" data-name="Group 1324" transform="translate(8.482 .069)"><g id="Group_1322" data-name="Group 1322" transform="translate(.446 .445)"><path id="Path_752" data-name="Path 752" class="cls-3" d="M875.789 89.267c.013-.425.043-.858.087-1.3a9.226 9.226 0 01.213-1.27 5.81 5.81 0 01.406-1.15 3.265 3.265 0 01.668-.936 2.94 2.94 0 01.993-.626 3.58 3.58 0 011.38-.213 3.258 3.258 0 011.322.27 2.625 2.625 0 01.907.683 3.117 3.117 0 01.561 1 6.155 6.155 0 01.285 1.217 9.7 9.7 0 01.082 1.334c0 .459-.017.911-.047 1.353a30.804 30.804 0 01-.151 1.584 12.484 12.484 0 01-.266 1.473 7.063 7.063 0 01-.434 1.266 3.338 3.338 0 01-.658.967 2.442 2.442 0 01-.94.586 3.032 3.032 0 01-1.284.121 3.244 3.244 0 01-1.261-.353 2.8 2.8 0 01-.876-.732 3.6 3.6 0 01-.559-1.037 6.975 6.975 0 01-.309-1.274 11.815 11.815 0 01-.122-1.437 29.912 29.912 0 01.003-1.526zm5.656.32a16 16 0 00.018-1.8 5.358 5.358 0 00-.264-1.476 2.314 2.314 0 00-.651-1.007 1.73 1.73 0 00-1.126-.391 1.749 1.749 0 00-1.132.327 2.438 2.438 0 00-.734.946 5.374 5.374 0 00-.409 1.416 14.126 14.126 0 00-.157 1.747c-.028.809-.034 1.53-.007 2.153a6.009 6.009 0 00.25 1.577 2.155 2.155 0 00.623 1 1.909 1.909 0 001.114.416 1.761 1.761 0 001.136-.229 2.008 2.008 0 00.718-.91 6.068 6.068 0 00.41-1.569c.091-.632.159-1.368.211-2.199z" transform="translate(-875.778 -83.775)"/></g><g id="Group_1323" data-name="Group 1323"><path id="Path_753" data-name="Path 753" class="cls-3" d="M878.985 95.79c-.135 0-.273-.007-.417-.02a3.7 3.7 0 01-1.432-.405 3.255 3.255 0 01-1.013-.848 4.029 4.029 0 01-.628-1.165 7.342 7.342 0 01-.33-1.356 12.4 12.4 0 01-.127-1.491 29.876 29.876 0 010-1.556c.012-.416.042-.862.089-1.327a9.64 9.64 0 01.223-1.331 6.229 6.229 0 01.438-1.238 3.7 3.7 0 01.759-1.062 3.4 3.4 0 011.142-.721 4.035 4.035 0 011.551-.244 3.7 3.7 0 011.5.312 3.084 3.084 0 011.059.8 3.575 3.575 0 01.642 1.14 6.606 6.606 0 01.3 1.305 10.108 10.108 0 01.086 1.4c0 .485-.018.949-.048 1.381a29.293 29.293 0 01-.154 1.607 12.882 12.882 0 01-.275 1.526 7.536 7.536 0 01-.463 1.346 3.765 3.765 0 01-.746 1.095 2.894 2.894 0 01-1.109.693 3.189 3.189 0 01-1.047.159zm.146-11.874a3.08 3.08 0 00-1.117.184 2.517 2.517 0 00-.845.531 2.814 2.814 0 00-.576.808 5.358 5.358 0 00-.375 1.062 8.849 8.849 0 00-.2 1.209c-.044.446-.073.871-.084 1.266-.015.481-.016.973 0 1.505a11.363 11.363 0 00.118 1.382 6.485 6.485 0 00.289 1.192 3.171 3.171 0 00.489.91 2.376 2.376 0 00.738.615 2.817 2.817 0 001.089.3 2.617 2.617 0 001.1-.1 2 2 0 00.771-.48 2.894 2.894 0 00.568-.839 6.576 6.576 0 00.406-1.186 12.107 12.107 0 00.257-1.421c.065-.539.115-1.063.149-1.559.028-.413.043-.859.046-1.326a9.168 9.168 0 00-.078-1.273 5.779 5.779 0 00-.263-1.129 2.7 2.7 0 00-.481-.858 2.2 2.2 0 00-.756-.567 2.834 2.834 0 00-1.142-.228zm-.238 10.729c-.086 0-.175 0-.265-.012a2.353 2.353 0 01-1.368-.522 2.6 2.6 0 01-.755-1.2 6.453 6.453 0 01-.271-1.7c-.026-.586-.024-1.3.005-2.187a14.577 14.577 0 01.163-1.8 5.87 5.87 0 01.445-1.533 2.889 2.889 0 01.87-1.115 2.4 2.4 0 012.819.084 2.75 2.75 0 01.778 1.2 5.808 5.808 0 01.289 1.6 16.415 16.415 0 01-.019 1.852 27.706 27.706 0 01-.214 2.235 6.553 6.553 0 01-.443 1.685 2.452 2.452 0 01-.884 1.1 2.075 2.075 0 01-1.15.313zm.159-9.593a1.281 1.281 0 00-.8.237 2.025 2.025 0 00-.6.778 5.013 5.013 0 00-.374 1.3 13.965 13.965 0 00-.151 1.692 28.437 28.437 0 00-.007 2.118 5.645 5.645 0 00.228 1.459 1.731 1.731 0 00.49.8 1.484 1.484 0 00.861.31 1.343 1.343 0 00.855-.159 1.585 1.585 0 00.554-.716 5.683 5.683 0 00.377-1.452c.086-.6.154-1.312.206-2.163a15.463 15.463 0 00.019-1.75 4.92 4.92 0 00-.241-1.353 1.876 1.876 0 00-.522-.817 1.289 1.289 0 00-.844-.282z" transform="translate(-875.028 -83.026)"/></g></g><g id="Group_1327" data-name="Group 1327" transform="translate(17.58 .372)"><g id="Group_1325" data-name="Group 1325" transform="translate(.446 .446)"><path id="Path_754" data-name="Path 754" class="cls-3" d="M891.166 89.994c.032-.448.082-.9.146-1.366a10.445 10.445 0 01.27-1.335 6.486 6.486 0 01.459-1.2 3.5 3.5 0 01.711-.971 3 3 0 011.022-.636 3.45 3.45 0 011.39-.191 3.078 3.078 0 011.311.317 2.583 2.583 0 01.877.742 3.269 3.269 0 01.516 1.066 6.73 6.73 0 01.23 1.288 10.721 10.721 0 01.023 1.407c-.023.482-.058.958-.108 1.424a34.585 34.585 0 01-.223 1.664 13.936 13.936 0 01-.331 1.546 7.87 7.87 0 01-.492 1.324 3.614 3.614 0 01-.7 1.005 2.506 2.506 0 01-.967.6 2.911 2.911 0 01-1.291.1 3.068 3.068 0 01-1.246-.4 2.739 2.739 0 01-.843-.791 3.742 3.742 0 01-.513-1.106 7.548 7.548 0 01-.251-1.352 13 13 0 01-.057-1.52c.001-.53.028-1.07.067-1.615zm5.645.467a17.765 17.765 0 00.1-1.9 5.83 5.83 0 00-.2-1.562 2.384 2.384 0 00-.605-1.076 1.645 1.645 0 00-1.106-.437 1.706 1.706 0 00-1.147.317 2.634 2.634 0 00-.778.981 6.022 6.022 0 00-.473 1.484 15.932 15.932 0 00-.236 1.84 30.97 30.97 0 00-.1 2.271 6.6 6.6 0 00.179 1.669 2.234 2.234 0 00.577 1.068 1.815 1.815 0 001.1.462 1.713 1.713 0 001.148-.217 2.17 2.17 0 00.76-.943 6.8 6.8 0 00.48-1.644c.11-.666.212-1.438.301-2.314z" transform="translate(-891.093 -84.287)"/></g><g id="Group_1326" data-name="Group 1326"><path id="Path_755" data-name="Path 755" class="cls-3" d="M894.147 96.943a4.258 4.258 0 01-.5-.03 3.526 3.526 0 01-1.425-.46 3.2 3.2 0 01-.978-.918 4.2 4.2 0 01-.574-1.236 7.93 7.93 0 01-.267-1.432 13.354 13.354 0 01-.059-1.571 30.2 30.2 0 01.072-1.638c.032-.437.082-.907.148-1.394a10.958 10.958 0 01.282-1.393 6.946 6.946 0 01.491-1.287 3.974 3.974 0 01.8-1.092 3.453 3.453 0 011.172-.73 3.883 3.883 0 011.569-.219 3.531 3.531 0 011.5.368 3.05 3.05 0 011.026.869 3.76 3.76 0 01.588 1.21 7.112 7.112 0 01.245 1.375 11.066 11.066 0 01.024 1.465c-.024.511-.062 1-.11 1.45a33.152 33.152 0 01-.225 1.686 14.478 14.478 0 01-.343 1.6 8.319 8.319 0 01-.52 1.4 4.085 4.085 0 01-.789 1.128 2.952 2.952 0 01-1.137.7 3.033 3.033 0 01-.99.149zm-2.841-7.222a28.287 28.287 0 00-.069 1.592 12.646 12.646 0 00.055 1.467 7.173 7.173 0 00.236 1.273 3.327 3.327 0 00.451.975 2.306 2.306 0 00.708.664 2.651 2.651 0 001.068.337 2.506 2.506 0 001.094-.081 2.051 2.051 0 00.8-.492 3.211 3.211 0 00.614-.884 7.47 7.47 0 00.463-1.248 13.461 13.461 0 00.321-1.5c.093-.585.165-1.122.22-1.641.047-.434.083-.9.106-1.4a10.336 10.336 0 00-.021-1.348 6.315 6.315 0 00-.214-1.2 2.841 2.841 0 00-.446-.923 2.154 2.154 0 00-.728-.614 2.668 2.668 0 00-1.123-.266 3.03 3.03 0 00-1.211.162 2.571 2.571 0 00-.872.541 3.1 3.1 0 00-.621.849 5.992 5.992 0 00-.426 1.121 10.017 10.017 0 00-.259 1.278c-.064.469-.112.918-.143 1.337zm2.778 6.013a2.907 2.907 0 01-.324-.018 2.257 2.257 0 01-1.357-.585 2.685 2.685 0 01-.7-1.274 7.065 7.065 0 01-.193-1.783c0-.62.034-1.374.1-2.3a16.236 16.236 0 01.243-1.891 6.521 6.521 0 01.51-1.594 3.087 3.087 0 01.912-1.143 2.133 2.133 0 011.437-.4 2.085 2.085 0 011.4.565 2.832 2.832 0 01.722 1.273 6.3 6.3 0 01.216 1.681 18.435 18.435 0 01-.1 1.945 33.31 33.31 0 01-.314 2.346 7.231 7.231 0 01-.516 1.753 2.6 2.6 0 01-.923 1.13 2.018 2.018 0 01-1.113.295zm.488-10.11a1.228 1.228 0 00-.759.232 2.218 2.218 0 00-.643.819 5.615 5.615 0 00-.437 1.374 15.132 15.132 0 00-.228 1.788c-.069.907-.1 1.64-.1 2.238a6.164 6.164 0 00.164 1.555 1.811 1.811 0 00.456.86 1.377 1.377 0 00.836.34 1.268 1.268 0 00.857-.149 1.746 1.746 0 00.6-.757 6.346 6.346 0 00.446-1.535c.114-.635.213-1.38.3-2.278a17.582 17.582 0 00.1-1.849 5.459 5.459 0 00-.181-1.442 1.961 1.961 0 00-.488-.88 1.209 1.209 0 00-.82-.312z" transform="translate(-890.343 -83.536)"/></g></g><g id="Group_1330" data-name="Group 1330" transform="translate(26.369 .866)"><g id="Group_1328" data-name="Group 1328" transform="translate(.445 .446)"><path id="Path_756" data-name="Path 756" class="cls-3" d="M911.842 97.343a.959.959 0 01.036.3 1.025 1.025 0 01-.053.294.945.945 0 01-.131.254.646.646 0 01-.195.179.5.5 0 01-.231.074.424.424 0 01-.217-.048.552.552 0 01-.181-.154.715.715 0 01-.121-.244c-.74-2.5-1.125-3.736-1.926-6.166l-1.381 1.6-.439 3.671a.946.946 0 01-.078.288.685.685 0 01-.146.21.554.554 0 01-.192.121.447.447 0 01-.222.024.459.459 0 01-.208-.083.6.6 0 01-.157-.163.706.706 0 01-.093-.241.952.952 0 01-.01-.3l1.281-11.161a.926.926 0 01.08-.29.713.713 0 01.151-.216.659.659 0 01.2-.134.52.52 0 01.234-.038.477.477 0 01.222.068.555.555 0 01.169.158.624.624 0 01.1.234.879.879 0 01.011.3l-.667 5.587c1.824-2.265 2.757-3.418 4.669-5.763a.656.656 0 01.194-.169.5.5 0 01.213-.067.46.46 0 01.208.035.43.43 0 01.176.14.67.67 0 01.116.225.8.8 0 01.03.261.891.891 0 01-.054.267.824.824 0 01-.136.241c-1.343 1.641-2 2.452-3.3 4.055a185.274 185.274 0 012.048 6.651z" transform="translate(-905.886 -85.119)"/></g><g id="Group_1329" data-name="Group 1329"><path id="Path_757" data-name="Path 757" class="cls-3" d="M910.942 98.584a.867.867 0 01-.4-.1.989.989 0 01-.328-.276 1.167 1.167 0 01-.2-.391 167.278 167.278 0 00-1.675-5.4l-.778.9-.422 3.535a1.444 1.444 0 01-.117.424 1.133 1.133 0 01-.244.346 1.019 1.019 0 01-.343.215.888.888 0 01-.437.049.91.91 0 01-.408-.162 1.056 1.056 0 01-.276-.29 1.157 1.157 0 01-.154-.392 1.4 1.4 0 01-.017-.439l1.281-11.161a1.356 1.356 0 01.119-.43 1.154 1.154 0 01.244-.346 1.109 1.109 0 01.344-.225.966.966 0 01.433-.071.942.942 0 01.421.13 1.012 1.012 0 01.3.282 1.077 1.077 0 01.172.4 1.339 1.339 0 01.018.444L908 89.672a851.481 851.481 0 013.7-4.557 1.1 1.1 0 01.322-.276.944.944 0 01.4-.122.909.909 0 01.408.067.864.864 0 01.36.279 1.11 1.11 0 01.192.374 1.256 1.256 0 01.046.408 1.355 1.355 0 01-.08.4 1.31 1.31 0 01-.207.368 965.664 965.664 0 00-3.154 3.868 170.938 170.938 0 011.983 6.436 1.415 1.415 0 01.053.435 1.5 1.5 0 01-.076.422 1.422 1.422 0 01-.193.373 1.086 1.086 0 01-.331.3.931.931 0 01-.44.134zm-2.242-7.945l.246.747a172.448 172.448 0 011.93 6.179.294.294 0 00.044.1c.078.008.094-.012.113-.038a.522.522 0 00.071-.138.583.583 0 00.029-.165.5.5 0 00-.018-.16 171.004 171.004 0 00-2.05-6.636l-.075-.231.153-.188c1.3-1.6 1.962-2.415 3.307-4.056a.38.38 0 00.061-.112.451.451 0 00.028-.134.329.329 0 00-.013-.118.2.2 0 00-.037-.072.167.167 0 00-.094.062c-1.914 2.347-2.847 3.5-4.671 5.764l-.973 1.209.851-7.128a.447.447 0 000-.149.216.216 0 00-.028-.074l-.056-.038a.2.2 0 00-.1.05.3.3 0 00-.055.083.484.484 0 00-.04.151L906.032 96.7a.525.525 0 000 .16.282.282 0 00.033.091.152.152 0 00.04.042l.058-.022a.224.224 0 00.048-.074.538.538 0 00.042-.157l.454-3.8z" transform="translate(-905.136 -84.369)"/></g></g></g></g><g id="Group_1334" data-name="Group 1334" transform="translate(15.916)"><g id="Group_1333" data-name="Group 1333"><path id="Path_758" data-name="Path 758" class="cls-4" d="M861.646 60.89l-.19 3.476a.548.548 0 01-.049.207.43.43 0 01-.113.151.454.454 0 01-.159.089.462.462 0 01-.19.02.5.5 0 01-.185-.056.549.549 0 01-.149-.119.5.5 0 01-.1-.17.555.555 0 01-.026-.213l.424-7.9a.538.538 0 01.162-.358.5.5 0 01.159-.1.452.452 0 01.191-.034l1.859.063a6.42 6.42 0 011.237.151 2.244 2.244 0 01.922.434 1.739 1.739 0 01.544.819 3.391 3.391 0 01.107 1.306 2.557 2.557 0 01-.166.747 1.92 1.92 0 01-.368.6 1.717 1.717 0 01-.55.4 1.83 1.83 0 01-.708.161 2.13 2.13 0 01.624.186 1.455 1.455 0 01.417.3 1.288 1.288 0 01.25.388 2.04 2.04 0 01.125.446 3.176 3.176 0 01.04.478c0 .163 0 .324-.008.482a4.932 4.932 0 00.018.689 4.462 4.462 0 00.078.493q.047.209.09.364a1.451 1.451 0 01.05.3.662.662 0 01-.046.3.485.485 0 01-.143.192.514.514 0 01-.2.1.656.656 0 01-.217.017.506.506 0 01-.252-.088.588.588 0 01-.163-.179.856.856 0 01-.094-.236 1.975 1.975 0 01-.045-.258 2.057 2.057 0 01-.011-.244c0-.077 0-.143.007-.2a7.1 7.1 0 00-.147-2.233q-.225-.763-.8-.8zm.047-.886l1.6.1c.08.005.178.007.295 0a1.991 1.991 0 00.371-.047 1.693 1.693 0 00.394-.14 1.172 1.172 0 00.358-.276 1.5 1.5 0 00.269-.458 2.091 2.091 0 00.126-.681 2.027 2.027 0 00-.072-.663 1.416 1.416 0 00-.226-.456 1.084 1.084 0 00-.334-.288 1.761 1.761 0 00-.4-.162 2.268 2.268 0 00-.407-.072 10.022 10.022 0 00-.37-.024l-1.435-.057c-.062 1.294-.1 1.937-.168 3.22z" transform="translate(-860.489 -55.873)"/><path id="Path_759" data-name="Path 759" class="cls-4" d="M874.526 61.279l-.176 3.457c1.272.105 1.909.157 3.182.257a.392.392 0 01.3.164.539.539 0 01.1.352.5.5 0 01-.132.33.367.367 0 01-.311.112c-1.466-.125-2.2-.19-3.665-.321a.436.436 0 01-.186-.059.519.519 0 01-.148-.13.592.592 0 01-.122-.393l.424-8.251a.59.59 0 01.049-.209.564.564 0 01.113-.17.506.506 0 01.16-.112.433.433 0 01.19-.038c1.46.038 2.19.055 3.648.087a.365.365 0 01.3.147.511.511 0 01.1.347.526.526 0 01-.132.338.384.384 0 01-.31.131c-1.265-.036-1.9-.055-3.165-.094-.064 1.248-.1 1.871-.159 3.116 1.179.062 1.77.093 2.949.151a.375.375 0 01.3.156.522.522 0 01.1.348.509.509 0 01-.133.334.375.375 0 01-.311.121l-2.965-.171z" transform="translate(-865.714 -56.033)"/><path id="Path_760" data-name="Path 760" class="cls-4" d="M887.429 63.7c-1.125-.068-1.688-.1-2.813-.173-.279.974-.418 1.459-.7 2.424a.555.555 0 01-.1.206.5.5 0 01-.159.13.457.457 0 01-.191.049.426.426 0 01-.2-.043.527.527 0 01-.172-.126.587.587 0 01-.115-.181.673.673 0 01-.047-.217.62.62 0 01.031-.23c1.047-3.33 1.57-5.025 2.616-8.474a1.035 1.035 0 01.188-.372.387.387 0 01.32-.144l.623.01a.359.359 0 01.306.155.994.994 0 01.152.382c.7 3.519 1.054 5.3 1.76 8.894a.771.771 0 01.006.242.659.659 0 01-.067.217.577.577 0 01-.132.168.491.491 0 01-.184.1.408.408 0 01-.2.011.472.472 0 01-.182-.081.56.56 0 01-.143-.16.7.7 0 01-.085-.225l-.512-2.562zm-.934-5.2a403.74 403.74 0 00-.141-1.153l-.266 1.142a970.503 970.503 0 01-1.179 4.031l2.357.13c-.308-1.663-.466-2.493-.771-4.15z" transform="translate(-869.599 -56.148)"/><path id="Path_761" data-name="Path 761" class="cls-4" d="M896.2 66.879a.409.409 0 01-.186-.06.534.534 0 01-.148-.138.652.652 0 01-.1-.2.687.687 0 01-.027-.23l.412-9a.716.716 0 01.048-.229.65.65 0 01.112-.187.519.519 0 01.16-.125.4.4 0 01.189-.045c.8.008 1.193.011 1.988.017a3.052 3.052 0 011.171.211 2.231 2.231 0 01.806.568 2.663 2.663 0 01.5.86 5.368 5.368 0 01.267 1.081 9.145 9.145 0 01.092 1.234q.006.65-.023 1.315-.028.645-.1 1.286a9.708 9.708 0 01-.221 1.22 5.92 5.92 0 01-.375 1.072 3.07 3.07 0 01-.566.841 2.193 2.193 0 01-.794.528 2.415 2.415 0 01-1.054.135c-.86-.059-1.292-.09-2.151-.154zm.53-.967l1.62.107a1.574 1.574 0 00.921-.19 1.684 1.684 0 00.632-.749 5.059 5.059 0 00.388-1.357 17.432 17.432 0 00.188-2.011c.008-.191.014-.381.019-.572s.005-.375 0-.554-.007-.348-.014-.5-.02-.3-.036-.422a3.854 3.854 0 00-.19-.822 1.948 1.948 0 00-.341-.6 1.4 1.4 0 00-.509-.375 1.809 1.809 0 00-.693-.134L897.1 57.7l-.373 8.212z" transform="translate(-874.798 -56.196)"/><path id="Path_762" data-name="Path 762" class="cls-4" d="M911.256 63.314l-.148 3.657a.838.838 0 01-.048.254.562.562 0 01-.113.19.472.472 0 01-.159.118.391.391 0 01-.189.034.4.4 0 01-.187-.058.532.532 0 01-.149-.136.61.61 0 01-.1-.2.816.816 0 01-.027-.258l.149-3.636a799.568 799.568 0 00-2.116-5.862.748.748 0 01-.009-.454.726.726 0 01.1-.2.562.562 0 01.154-.153.4.4 0 01.182-.058.365.365 0 01.176.028.418.418 0 01.151.113.582.582 0 01.106.19 893.846 893.846 0 011.792 5.23 429.916 429.916 0 002.219-5.23.655.655 0 01.121-.194.479.479 0 01.16-.117.371.371 0 01.179-.029.38.38 0 01.177.059.5.5 0 01.141.158.664.664 0 01.08.206.795.795 0 01-.046.469 369.974 369.974 0 01-2.596 5.879z" transform="translate(-879.828 -56.144)"/></g></g><g id="Group_1336" data-name="Group 1336" transform="translate(0 16.793)"><g id="Group_1335" data-name="Group 1335"><path id="Path_763" data-name="Path 763" class="cls-4" d="M834.132 85.275a.39.39 0 01-.309-.123.462.462 0 01-.125-.318.469.469 0 01.11-.327.393.393 0 01.305-.142c1.941-.055 2.913-.067 4.858-.06a.378.378 0 01.306.138.487.487 0 01.109.335.494.494 0 01-.126.331.4.4 0 01-.311.132 81.327 81.327 0 00-1.913 0c-.021 3.152-.036 4.73-.073 7.892a.652.652 0 01-.038.218.492.492 0 01-.1.165.436.436 0 01-.144.1.382.382 0 01-.175.032.409.409 0 01-.175-.048.482.482 0 01-.143-.114.532.532 0 01-.1-.172.659.659 0 01-.034-.22c.008-3.143.009-4.712 0-7.846-.766.002-1.154.009-1.922.027z" transform="translate(-833.698 -84.207)"/><path id="Path_764" data-name="Path 764" class="cls-4" d="M845.287 88.776c.014-.361.043-.729.082-1.1a8.105 8.105 0 01.187-1.078 5.025 5.025 0 01.348-.975 2.742 2.742 0 01.567-.79 2.456 2.456 0 01.839-.523 2.979 2.979 0 011.164-.166 2.7 2.7 0 011.108.246 2.194 2.194 0 01.749.591 2.588 2.588 0 01.449.851 5.106 5.106 0 01.209 1.03 8.064 8.064 0 01.036 1.125 18.31 18.31 0 01-.073 1.139c-.045.45-.1.895-.168 1.331a10.81 10.81 0 01-.258 1.239 6.228 6.228 0 01-.389 1.063 2.957 2.957 0 01-.563.813 2.067 2.067 0 01-.779.493 2.409 2.409 0 01-1.044.1 2.518 2.518 0 01-1.016-.294 2.23 2.23 0 01-.7-.617 3.018 3.018 0 01-.441-.877 6.158 6.158 0 01-.238-1.081 10.5 10.5 0 01-.086-1.221c-.005-.425 0-.859.017-1.299zm4.67.293a13.5 13.5 0 00.056-1.519 4.475 4.475 0 00-.189-1.248 1.91 1.91 0 00-.525-.858 1.426 1.426 0 00-.937-.343 1.451 1.451 0 00-.953.266 2.057 2.057 0 00-.624.8 4.614 4.614 0 00-.356 1.2 12.343 12.343 0 00-.15 1.482c-.032.686-.046 1.3-.032 1.826a5.26 5.26 0 00.182 1.338 1.793 1.793 0 00.492.845 1.486 1.486 0 00.9.35 1.424 1.424 0 00.931-.192 1.756 1.756 0 00.608-.766 5.361 5.361 0 00.374-1.322c.087-.537.166-1.157.223-1.858z" transform="translate(-838.395 -84.141)"/></g></g></g></g></g></g></svg>