<svg xmlns="http://www.w3.org/2000/svg" width="17.104" height="15.787" viewBox="0 0 17.104 15.787">
  <g id="icon-online-store" transform="translate(0 -19.718)">
    <g id="Group_1585" data-name="Group 1585" transform="translate(0 19.718)">
      <g id="Group_1584" data-name="Group 1584" transform="translate(0 0)">
        <path id="Path_1023" data-name="Path 1023" d="M15.806,25.124H15.2l-2.725-5.139a.5.5,0,1,0-.886.469l2.476,4.67H3.115l2.476-4.67a.5.5,0,1,0-.886-.469L1.98,25.124H1.3a1.3,1.3,0,1,0,0,2.6h.036c0,.007,0,.014,0,.021L2.383,33.6a2.3,2.3,0,0,0,2.271,1.9h7.869a2.3,2.3,0,0,0,2.271-1.9l1.045-5.86c0-.007,0-.015,0-.022a1.3,1.3,0,0,0-.037-2.6Zm-2,8.3A1.3,1.3,0,0,1,12.523,34.5H4.654A1.3,1.3,0,0,1,3.37,33.427L2.353,27.722H14.825Zm2-6.708H1.3a.3.3,0,0,1,0-.593H15.806a.3.3,0,0,1,0,.593Z" transform="translate(0 -19.718)"/>
      </g>
    </g>
    <g id="Group_1587" data-name="Group 1587" transform="translate(8.029 28.417)">
      <g id="Group_1586" data-name="Group 1586">
        <path id="Path_1024" data-name="Path 1024" d="M240.852,280.113a.5.5,0,0,0-.5.5V285a.5.5,0,0,0,1,0v-4.388A.5.5,0,0,0,240.852,280.113Z" transform="translate(-240.351 -280.113)"/>
      </g>
    </g>
    <g id="Group_1589" data-name="Group 1589" transform="translate(5.086 28.417)">
      <g id="Group_1588" data-name="Group 1588">
        <path id="Path_1025" data-name="Path 1025" d="M153.983,284.916l-.739-4.388a.5.5,0,1,0-.988.166l.739,4.388a.5.5,0,1,0,.988-.167Z" transform="translate(-152.248 -280.11)"/>
      </g>
    </g>
    <g id="Group_1591" data-name="Group 1591" transform="translate(10.198 28.417)">
      <g id="Group_1590" data-name="Group 1590">
        <path id="Path_1026" data-name="Path 1026" d="M306.6,280.119a.5.5,0,0,0-.577.411l-.739,4.388a.5.5,0,1,0,.988.166l.739-4.388A.5.5,0,0,0,306.6,280.119Z" transform="translate(-305.276 -280.112)"/>
      </g>
    </g>
  </g>
</svg>
