<svg xmlns="http://www.w3.org/2000/svg" width="16" height="20.151" viewBox="0 0 16 20.151">
  <g id="icon-book" transform="translate(-143 -226.89)">
    <path id="Path_934" data-name="Path 934" d="M158.444,232.128H146.171a2.067,2.067,0,0,1,0-4.134h12.277a.552.552,0,0,0,0-1.1H146.171A3.176,3.176,0,0,0,143,230.061V243.87a3.176,3.176,0,0,0,3.171,3.171h12.277a.551.551,0,0,0,.552-.552V232.68A.558.558,0,0,0,158.444,232.128Zm-.552,13.809H146.171a2.07,2.07,0,0,1-2.067-2.067v-11.4a3.166,3.166,0,0,0,2.067.768h11.721Z" fill="#fff"/>
    <path id="Path_935" data-name="Path 935" d="M197.392,278.331a.552.552,0,1,0,0,1.1H207.76a.552.552,0,1,0,0-1.1Z" transform="translate(-51.047 -48.772)" fill="#fff"/>
    <path id="Path_936" data-name="Path 936" d="M227.392,400.915h7.255a.552.552,0,1,0,0-1.1h-7.255a.552.552,0,1,0,0,1.1Z" transform="translate(-79.49 -163.95)" fill="#fff"/>
    <path id="Path_937" data-name="Path 937" d="M227.392,444.036h7.255a.552.552,0,1,0,0-1.1h-7.255a.552.552,0,1,0,0,1.1Z" transform="translate(-79.49 -204.834)" fill="#fff"/>
  </g>
</svg>
