<svg xmlns="http://www.w3.org/2000/svg" width="18.982" height="17.499" viewBox="0 0 18.982 17.499">
  <g id="icon-point-of-purchase" transform="translate(0 -20)">
    <path id="Path_1034" data-name="Path 1034" d="M18.426,34.162h-.593V27.3a.556.556,0,0,0-.556-.556h-2.41V25.561h2.41a.556.556,0,0,0,.556-.556V20.556A.556.556,0,0,0,17.277,20H9.12a.556.556,0,0,0-.556.556v4.449a.556.556,0,0,0,.556.556h2.41v1.186H1.705a.556.556,0,0,0-.556.556v6.859H.556A.556.556,0,0,0,0,34.719v2.224a.556.556,0,0,0,.556.556h17.87a.556.556,0,0,0,.556-.556V34.719A.556.556,0,0,0,18.426,34.162Zm-8.75-13.05h7.044v3.337H9.676Zm2.966,4.449h1.112v1.186H12.642ZM2.262,27.86H16.721v6.3H2.262ZM17.87,36.387H1.112V35.275H17.87Z"/>
    <path id="Path_1035" data-name="Path 1035" d="M96.005,262H91.556a.556.556,0,0,0-.556.556v2.966a.556.556,0,0,0,.556.556h4.449a.556.556,0,0,0,.556-.556v-2.966A.556.556,0,0,0,96.005,262Zm-.556,2.966H92.112v-1.854h3.337Z" transform="translate(-87.626 -233.028)"/>
    <circle id="Ellipse_184" data-name="Ellipse 184" cx="0.5" cy="0.5" r="0.5" transform="translate(10 31.499)"/>
    <ellipse id="Ellipse_185" data-name="Ellipse 185" cy="0.5" ry="0.5" transform="translate(13 31.499)"/>
    <circle id="Ellipse_186" data-name="Ellipse 186" cx="0.5" cy="0.5" r="0.5" transform="translate(15 31.499)"/>
    <path id="Path_1036" data-name="Path 1036" d="M276.005,277h-4.449a.556.556,0,1,0,0,1.112h4.449a.556.556,0,0,0,0-1.112Z" transform="translate(-260.953 -247.472)"/>
    <path id="Path_1037" data-name="Path 1037" d="M295.82,80.556a.556.556,0,0,0-.556-.556h-3.707a.556.556,0,0,0,0,1.112h3.707A.556.556,0,0,0,295.82,80.556Z" transform="translate(-280.211 -57.776)"/>
  </g>
</svg>
