<svg xmlns="http://www.w3.org/2000/svg" width="170.093" height="56.453" viewBox="0 0 170.093 56.453">
  <g id="img_logo_footer" transform="translate(-787.29 -898.485)">
    <g id="Group_2" data-name="Group 2" transform="translate(854.581 906.298)">
      <path id="Path_1" data-name="Path 1" d="M854.68,912.539h-6.635v5.222h6.635a2.52,2.52,0,0,1,2.477,2.544v2.152a9.653,9.653,0,0,0-4.792-1.279,10.032,10.032,0,0,0-9.877,10.143v4.629a9.888,9.888,0,1,0,19.769,0V920.306A7.689,7.689,0,0,0,854.68,912.539Zm2.477,23.411a4.787,4.787,0,1,1-9.57,0v-4.629a4.786,4.786,0,1,1,9.57,0v4.629Z" transform="translate(-842.488 -903.22)" fill="#211e1f"/>
      <path id="Path_2" data-name="Path 2" d="M898.916,933.641V920.306a7.681,7.681,0,0,0-7.583-7.767H884.7v5.222h6.634a2.511,2.511,0,0,1,2.478,2.544v2.147a9.634,9.634,0,0,0-4.783-1.279,10.037,10.037,0,0,0-9.883,10.148v4.624a9.888,9.888,0,1,0,19.77,0Zm-5.1,2.3a4.785,4.785,0,1,1-9.566,0v-4.624a4.785,4.785,0,1,1,9.566,0v4.624Z" transform="translate(-834.457 -903.22)" fill="#211e1f"/>
      <path id="Path_3" data-name="Path 3" d="M920.49,946.089a10.014,10.014,0,0,0,9.877-10.144v-15.64a7.677,7.677,0,0,0-7.573-7.767h-6.639v5.222h6.639a2.518,2.518,0,0,1,2.483,2.544v2.147a9.676,9.676,0,0,0-4.787-1.279,10.031,10.031,0,0,0-9.883,10.148v4.624A10.015,10.015,0,0,0,920.49,946.089Zm-4.782-14.768a4.786,4.786,0,1,1,9.57,0v4.624a4.787,4.787,0,1,1-9.57,0Z" transform="translate(-827.565 -903.22)" fill="#211e1f"/>
      <path id="Path_4" data-name="Path 4" d="M904.136,920.306a2.507,2.507,0,0,1,2.474-2.544h6.635v-5.222H906.61a7.683,7.683,0,0,0-7.573,7.767v25.247h5.1Z" transform="translate(-830.099 -903.22)" fill="#211e1f"/>
      <path id="Path_5" data-name="Path 5" d="M882.832,947.228l-13.708-16.655,13.354-16.234H875.8l-7.965,9.674V904.894h-5.09v42.333h5.09v-10.1l8.324,10.1Z" transform="translate(-838.049 -904.894)" fill="#211e1f"/>
    </g>
    <g id="Group_3" data-name="Group 3" transform="translate(787.29 898.485)">
      <path id="Path_6" data-name="Path 6" d="M800.05,903.811c33.2-25.146,76.936,46.675,22.354,51.036-10.824.613-22.28-1.793-29.33-9.377C781.75,933.221,788.652,912.441,800.05,903.811Z" transform="translate(-787.29 -898.485)" fill="#ffc416"/>
      <path id="Path_7" data-name="Path 7" d="M842.391,934.1c-5.054,3.066-7.914,3.463-9.84,3.463a16.608,16.608,0,0,1-2.241-.177,5.1,5.1,0,0,1-3.951-2.549c-1.526-2.549-1.777-7.057-.742-13.028.891-5.088,1.69-9.425,1.857-9.9a1.751,1.751,0,0,0-.335-1.576c-.881-1.28-2.855-3.052-3.886-3.052a1.056,1.056,0,0,0-.434.1l-.028.018a37.428,37.428,0,0,1-8.03,3.36c0-.063.117-8.381-2.772-8.7a5.633,5.633,0,0,0-.728-.111,3.066,3.066,0,0,0-1.833.58c-.937.752-.849,2.094-.728,3.944.02.249.033.517.056.8a38.765,38.765,0,0,1-.145,5.731,17.676,17.676,0,0,1-4.245.36,17.487,17.487,0,0,1-3.276-.437,7.975,7.975,0,0,1-1.111-.311,5.379,5.379,0,0,0-1.662-.3,2.1,2.1,0,0,0-.713.115,1.959,1.959,0,0,0-1.312,2.152c.183,1.7,1.236,2.731,3.164,3.537a23.378,23.378,0,0,0,7.55,1.245c-.99,4.428-2.51,9.742-11.875,19.224-.989,1-2.221,1.913-2.16,3.226a1.621,1.621,0,0,0,1.218,1.624c1.47.446,4.545-.819,7.311-3.282,5.361-4.787,9.2-8.893,12.5-21.485,1.586-.551,3.654-1.159,4.974-1.606a88.278,88.278,0,0,0-1.19,16.267c.219,4.969,2.571,9.042,6.281,10.915a15.2,15.2,0,0,0,4.792,1.491c.326.033.69.048,1,.048h0a12.744,12.744,0,0,0,10-4.461A19.192,19.192,0,0,0,843.3,935.3a1.956,1.956,0,0,1,.117-.306l.8-2Z" transform="translate(-786.046 -897.726)" fill="#fff"/>
    </g>
  </g>
</svg>
