<svg xmlns="http://www.w3.org/2000/svg" width="19.222" height="19.222" viewBox="0 0 19.222 19.222">
  <path id="icon-chef-hat" d="M106.119,218.323a5.392,5.392,0,0,0-9.015,0,5.38,5.38,0,0,0-1.5,10.451v5.738a.6.6,0,0,0,.6.6h10.812a.6.6,0,0,0,.6-.6v-5.738a5.38,5.38,0,0,0-1.5-10.451Zm.3,15.588H96.805v-1.2h9.611Zm.452-6.144c-.014,0-.025.015-.04.019a.56.56,0,0,0-.112.054.6.6,0,0,0-.09.061.842.842,0,0,0-.141.179.648.648,0,0,0-.037.1.591.591,0,0,0-.024.119c0,.016-.008.029-.008.045v3.16h-1.8v-1.8a.6.6,0,0,0-1.2,0v1.8h-1.2v-3a.6.6,0,1,0-1.2,0v3h-1.2v-1.8a.6.6,0,0,0-1.2,0v1.8h-1.8v-3.16c0-.016-.008-.029-.01-.045a.558.558,0,0,0-.024-.119.657.657,0,0,0-.037-.1.5.5,0,0,0-.064-.094.523.523,0,0,0-.077-.085.411.411,0,0,0-.089-.061.565.565,0,0,0-.112-.054c-.014,0-.025-.016-.04-.019a4.194,4.194,0,0,1,.148-8.16,5.324,5.324,0,0,0-.3,1.689v2.4a.6.6,0,1,0,1.2,0v-2.4a4.2,4.2,0,0,1,8.41,0v2.4a.6.6,0,0,0,1.2,0v-2.4a5.328,5.328,0,0,0-.3-1.7,4.2,4.2,0,0,1,.151,8.171Zm0,0" transform="translate(-92 -215.89)" fill="#211e1f"/>
</svg>
