<svg xmlns="http://www.w3.org/2000/svg" width="50.933" height="22.048" viewBox="0 0 50.933 22.048">
  <g id="img_akara_egg_green_active" transform="translate(0 0)">
    <g id="Group_1181" data-name="Group 1181">
      <path id="Path_572" data-name="Path 572" d="M49.08,117.973a5.047,5.047,0,0,0,.161-1.263,9.22,9.22,0,0,0-2.431-6.074,8.577,8.577,0,0,0-12.977,0,9.67,9.67,0,0,0-.939,1.226,9.67,9.67,0,0,0-.939-1.226,8.577,8.577,0,0,0-12.977,0,9.671,9.671,0,0,0-.939,1.226,9.671,9.671,0,0,0-.939-1.226,8.7,8.7,0,0,0-6.489-2.968,8.7,8.7,0,0,0-6.489,2.968,9.221,9.221,0,0,0-2.431,6.074,5.043,5.043,0,0,0,.162,1.263H0v6.193H2.2l3.183,5.549H15.876l2.063-3.964h.2l2.063,3.964h10.53l2.063-3.964h.2l2.063,3.964H45.55l3.183-5.549h2.2v-6.193ZM40.322,109.9c3.051,0,5.936,3.311,5.936,6.813a3.4,3.4,0,0,1-.247,1.263H34.633a3.4,3.4,0,0,1-.247-1.263C34.386,113.207,37.271,109.9,40.322,109.9Zm-14.855,0c3.051,0,5.936,3.311,5.936,6.813a3.4,3.4,0,0,1-.247,1.263H19.778a3.4,3.4,0,0,1-.247-1.263C19.531,113.207,22.415,109.9,25.466,109.9Zm-14.855,0c3.051,0,5.935,3.311,5.935,6.813a3.4,3.4,0,0,1-.247,1.263H4.922a3.4,3.4,0,0,1-.247-1.263C4.675,113.207,7.56,109.9,10.611,109.9Zm37.338,12.04H46.766l-3.183,5.549H37.1l-2.063-3.964H30.753l-2.063,3.964H22.243l-2.063-3.964H15.9l-2.063,3.964H7.351l-3.183-5.549H2.984V120.2H47.949Z" transform="translate(0 -107.667)" fill="#245d38"/>
    </g>
  </g>
</svg>
