<svg xmlns="http://www.w3.org/2000/svg" width="74.089" height="87.684" viewBox="0 0 74.089 87.684">
  <g id="ico_deco_egg_yellow" opacity="0.332">
    <g id="Group_1236" data-name="Group 1236" transform="translate(0 0)">
      <g id="Group_1234" data-name="Group 1234">
        <path id="Path_588" data-name="Path 588" d="M933.448,519.97A26.9,26.9,0,0,1,907.232,498.8a26.607,26.607,0,0,1-4.427-1.932A27.227,27.227,0,0,1,888.8,472.579c.181-7.237,3.281-17.072,7.9-25.054,5.786-10,12.87-15.416,20.027-15.235,5.346.134,10.562,3.408,15.081,9.467a56.021,56.021,0,0,1,7.519,14.584c5.359-1.543,10.139-1.273,13.921.807,6.216,3.416,9.635,11.6,9.635,23.06v.185c-.028,9.221-2.3,19.279-5.788,25.624a26.727,26.727,0,0,1-16.077,12.868A27.075,27.075,0,0,1,933.448,519.97Zm-22.254-23.129a22.644,22.644,0,0,0,42.159,7.122c3.169-5.766,5.234-15.023,5.261-23.583h0v-.174c0-9.831-2.635-16.69-7.425-19.323-3.147-1.729-7.451-1.685-12.446.129l-2.609,1.078a45.394,45.394,0,0,0-5.383,2.974c-7.214,4.609-13.922,11.314-17.091,17.08a22.557,22.557,0,0,0-2.779,11.7Zm5.184-60.291c-5.425,0-11.094,4.644-15.993,13.11-4.287,7.411-7.162,16.448-7.327,23.026a22.923,22.923,0,0,0,11.8,20.441q.86.473,1.76.869a26.825,26.825,0,0,1,3.3-13.9c3.488-6.345,10.762-13.654,18.531-18.619a49.479,49.479,0,0,1,5.934-3.273l.078-.034.854-.352a51.69,51.69,0,0,0-6.935-13.506c-3.709-4.972-7.779-7.654-11.771-7.754Z" transform="translate(-888.789 -432.286)" fill="#ffc416"/>
      </g>
      <g id="Group_1235" data-name="Group 1235" transform="translate(30.097 43.153)">
        <circle id="Ellipse_146" data-name="Ellipse 146" cx="11.85" cy="11.85" r="11.85" transform="translate(0 22.097) rotate(-68.806)" fill="#ffc416"/>
        <path id="Path_589" data-name="Path 589" d="M939.633,512.438a14.01,14.01,0,1,1,.618-.014C940.044,512.433,939.838,512.438,939.633,512.438Zm.02-23.7c-.141,0-.282,0-.424.009a9.718,9.718,0,1,0,10.128,9.289h0A9.731,9.731,0,0,0,939.652,488.738Z" transform="translate(-924.315 -483.123)" fill="#ffc416"/>
      </g>
    </g>
  </g>
</svg>
