<svg xmlns="http://www.w3.org/2000/svg" xmlns:xlink="http://www.w3.org/1999/xlink" width="17.276" height="17.823" viewBox="0 0 17.276 17.823">
  <defs>
    <clipPath id="clip-path">
      <rect id="Rectangle_338" data-name="Rectangle 338" width="17.276" height="17.823" fill="#211e1f"/>
    </clipPath>
  </defs>
  <g id="icon-thumbup" transform="translate(-111 -229.89)">
    <g id="Group_1507" data-name="Group 1507" transform="translate(111 229.89)">
      <g id="Group_1506" data-name="Group 1506" transform="translate(0 0)" clip-path="url(#clip-path)">
        <path id="Path_933" data-name="Path 933" d="M127.752,242.208a2.207,2.207,0,0,0,.516-1.475,2.266,2.266,0,0,0-.483-1.278,1.986,1.986,0,0,0-.472-2.285,4.1,4.1,0,0,0-2.984-.714,11.655,11.655,0,0,0-1.828.234h0c-.186.033-.383.074-.583.119a6.486,6.486,0,0,1,.464-2.159c.52-1.583.491-2.794-.1-3.6a2.362,2.362,0,0,0-1.891-.918.933.933,0,0,0-.717.327,2.5,2.5,0,0,0-.312,1.772c-.49,1.315-1.865,4.54-3.028,5.436a.4.4,0,0,0-.059.052,3.988,3.988,0,0,0-.728,1.092,1.534,1.534,0,0,0-.736-.186h-2.266A1.547,1.547,0,0,0,111,240.169v6.037a1.547,1.547,0,0,0,1.546,1.546h2.266a1.543,1.543,0,0,0,.892-.282l.873.1a37.442,37.442,0,0,0,4.953.271c.442.033.858.052,1.245.052a8.329,8.329,0,0,0,1.728-.156,3.23,3.23,0,0,0,2.307-1.434,2.274,2.274,0,0,0,.253-1.423,2.37,2.37,0,0,0,.843-1.928,2.513,2.513,0,0,0-.152-.747Zm-15.207,4.54a.543.543,0,0,1-.542-.542v-6.041a.543.543,0,0,1,.542-.542h2.266a.543.543,0,0,1,.543.542V246.2a.543.543,0,0,1-.543.543h-2.266Zm14.256-4.975a.5.5,0,0,0-.067.606,1.547,1.547,0,0,1,.171.62,1.487,1.487,0,0,1-.7,1.286.506.506,0,0,0-.171.572,1.313,1.313,0,0,1-.1.959,2.325,2.325,0,0,1-1.642.944,9.78,9.78,0,0,1-2.708.082h-.052a36.682,36.682,0,0,1-4.83-.264h0l-.375-.045a1.573,1.573,0,0,0,.033-.327v-6.041a1.57,1.57,0,0,0-.071-.461,3.107,3.107,0,0,1,.691-1.274c1.668-1.323,3.3-5.785,3.37-5.978a.472.472,0,0,0,.022-.249,2.318,2.318,0,0,1,.048-1.077,1.333,1.333,0,0,1,1.048.5,3.164,3.164,0,0,1-.045,2.7c-.624,1.891-.676,2.887-.182,3.325a.81.81,0,0,0,.81.145c.227-.052.442-.1.646-.13l.048-.011c1.141-.249,3.184-.4,3.894.245a1.069,1.069,0,0,1,.126,1.356.5.5,0,0,0,.089.647,1.406,1.406,0,0,1,.412.866,1.379,1.379,0,0,1-.464,1Zm0,0" transform="translate(-111 -230.119)" fill="#211e1f"/>
      </g>
    </g>
  </g>
</svg>
