<svg xmlns="http://www.w3.org/2000/svg" width="187.184" height="173.312" viewBox="0 0 187.184 173.312">
  <g id="signup-icon" transform="translate(-114.48 -286.909)">
    <g id="Group_1255" data-name="Group 1255" transform="translate(114.48 286.909)">
      <path id="Path_6" data-name="Path 6" d="M826.464,914.836c101.934-77.2,236.2,143.294,68.628,156.681-33.231,1.883-68.4-5.505-90.044-28.788C770.283,1005.127,791.471,941.33,826.464,914.836Z" transform="translate(-787.29 -898.485)" fill="#fcfbf2"/>
    </g>
    <path id="Path_782" data-name="Path 782" d="M11.776.46a32.608,32.608,0,0,1-5.5-.437A18.235,18.235,0,0,1,1.886-1.242v-6.3A23.169,23.169,0,0,0,6.394-6.095a21.925,21.925,0,0,0,4.646.529,11.892,11.892,0,0,0,4.232-.529A2.126,2.126,0,0,0,16.514-8.28,2.506,2.506,0,0,0,15.87-10.1a5.183,5.183,0,0,0-1.955-1.15Q12.6-11.73,9.614-12.6a19.671,19.671,0,0,1-4.853-2.047,6.819,6.819,0,0,1-2.553-2.714,8.974,8.974,0,0,1-.782-3.979,7.552,7.552,0,0,1,3.059-6.509q3.059-2.231,8.947-2.231a33.085,33.085,0,0,1,4.9.368,23.563,23.563,0,0,1,4.071.92v6.348a21.109,21.109,0,0,0-7.866-1.518,12.42,12.42,0,0,0-4.186.529A2.008,2.008,0,0,0,8.97-21.39a2.132,2.132,0,0,0,.552,1.541,4.6,4.6,0,0,0,1.771,1.012q1.219.437,3.841,1.127a18.54,18.54,0,0,1,5.5,2.3,7.363,7.363,0,0,1,2.714,3.059A10.047,10.047,0,0,1,24.1-8.28a7.565,7.565,0,0,1-3.128,6.394Q17.848.46,11.776.46Zm16.1-30.084h7.406V0H27.876ZM54.74.46Q47.1.46,43.079-3.4T39.054-14.4q0-7.5,4.14-11.592T55.2-30.084A28.708,28.708,0,0,1,64.262-28.8v6.348a24.729,24.729,0,0,0-8.51-1.288q-4.784,0-6.969,2.254T46.6-14.4q0,4.37,2.047,6.463t6.141,2.093a16.215,16.215,0,0,0,4.968-.736V-12.19H53.36v-4.646h12.6V-2.162a16.112,16.112,0,0,1-4.6,1.886A26.318,26.318,0,0,1,54.74.46Zm15-30.084h6.348l12.6,17.71v-17.71H96.14V0H89.746l-12.6-17.664V0H69.736Zm-54,75.084q-6.3,0-9.959-3.059T2.116,33.73V15.376H9.522V33.04a6.088,6.088,0,0,0,1.587,4.6,6.436,6.436,0,0,0,4.623,1.518,6.436,6.436,0,0,0,4.623-1.518,6.088,6.088,0,0,0,1.587-4.6V15.376h7.406V33.73q0,5.612-3.657,8.671T15.732,45.46ZM33.81,15.376H48.392q5.106,0,7.751,2.921a10.972,10.972,0,0,1,2.645,7.659A11,11,0,0,1,57.5,31.338a9.052,9.052,0,0,1-3.7,3.657,11.532,11.532,0,0,1-5.589,1.311H41.216V45H33.81ZM46.552,30.6a4.584,4.584,0,0,0,3.5-1.265,4.785,4.785,0,0,0,1.2-3.427,5.234,5.234,0,0,0-1.1-3.588,4.264,4.264,0,0,0-3.358-1.242H41.216V30.6Z" transform="translate(150.614 374.403)" fill="#ffc416"/>
    <path id="Path_781" data-name="Path 781" d="M42.594-35.25H4.406A4.406,4.406,0,0,0,0-30.844V-4.406A4.406,4.406,0,0,0,4.406,0H42.594A4.406,4.406,0,0,0,47-4.406V-30.844A4.406,4.406,0,0,0,42.594-35.25Zm0,4.406V-27.1c-2.058,1.676-5.34,4.282-12.355,9.775-1.546,1.216-4.608,4.137-6.739,4.1-2.13.034-5.194-2.888-6.739-4.1-7.014-5.492-10.3-8.1-12.355-9.775v-3.746ZM4.406-4.406V-21.444c2.1,1.675,5.086,4.026,9.633,7.587,2.006,1.579,5.52,5.066,9.461,5.045,3.921.021,7.39-3.415,9.46-5.044,4.547-3.56,7.53-5.912,9.634-7.587V-4.406Z" transform="translate(217.614 419.403)" fill="#211e1f"/>
  </g>
</svg>
