<svg xmlns="http://www.w3.org/2000/svg" width="74.089" height="87.684" viewBox="0 0 74.089 87.684"><g data-name="Group 1236" opacity=".332"><g data-name="Group 1234"><path data-name="Path 588" d="M44.659 87.684a26.9 26.9 0 01-26.216-21.17 26.607 26.607 0 01-4.427-1.932A27.227 27.227 0 01.011 40.293c.181-7.237 3.281-17.072 7.9-25.054 5.786-10 12.87-15.416 20.027-15.235C33.284.138 38.5 3.412 43.019 9.471a56.021 56.021 0 017.519 14.584c5.359-1.543 10.139-1.273 13.921.807 6.216 3.416 9.635 11.6 9.635 23.06v.185c-.028 9.221-2.3 19.279-5.788 25.624a26.727 26.727 0 01-16.077 12.868 27.075 27.075 0 01-7.57 1.085zM22.405 64.555a22.644 22.644 0 0042.159 7.122c3.169-5.766 5.234-15.023 5.261-23.583v-.174c0-9.831-2.635-16.69-7.425-19.323-3.147-1.729-7.451-1.685-12.446.129l-2.609 1.078a45.394 45.394 0 00-5.383 2.974c-7.214 4.609-13.922 11.314-17.091 17.08a22.557 22.557 0 00-2.779 11.7zm5.184-60.291c-5.425 0-11.094 4.644-15.993 13.11C7.309 24.785 4.434 33.822 4.269 40.4a22.923 22.923 0 0011.8 20.441q.86.473 1.76.869a26.825 26.825 0 013.3-13.9c3.488-6.345 10.762-13.654 18.531-18.619a49.479 49.479 0 015.934-3.273l.078-.034.854-.352a51.69 51.69 0 00-6.935-13.506c-3.709-4.972-7.779-7.654-11.771-7.754z" fill="#ffc416"/></g><g data-name="Group 1235" transform="translate(30.097 43.153)" fill="#ffc416"><circle data-name="Ellipse 146" cx="11.85" cy="11.85" r="11.85" transform="rotate(-68.806 16.134 11.049)"/><path data-name="Path 589" d="M15.318 29.315a14.01 14.01 0 11.618-.014 14.23 14.23 0 01-.618.014zm.02-23.7c-.141 0-.282 0-.424.009a9.718 9.718 0 1010.128 9.289 9.731 9.731 0 00-9.705-9.298z"/></g></g></svg>