<svg xmlns="http://www.w3.org/2000/svg" width="403.425" height="237.908" viewBox="0 0 403.425 237.908"><g data-name="Group 1230" opacity=".196"><path data-name="Path 584" d="M71.75 181.09c-9.143-.641-16.18-3.534-20.958-8.627a24.585 24.585 0 01-6.412-17.251 1.936 1.936 0 013.863.266 20.998 20.998 0 005.41 14.376c4.509 4.774 11.537 7.29 20.902 7.488a15.569 15.569 0 00-.394-6.374 1.937 1.937 0 012.418-2.438c.114.035 11.335 3.32 24.474-3.566-2.527-1.375-7.245-3.188-14.61-3.243a1.936 1.936 0 11.028-3.872c13.563.101 19.343 5.646 19.582 5.887a1.937 1.937 0 01-.338 3.024c-11.619 7.208-22.213 6.874-27.238 6.12a22.582 22.582 0 01-.406 6.87 1.936 1.936 0 01-1.87 1.485q-2.303.006-4.452-.145zm-23.514-25.613z" fill="#4cb148" opacity=".4"/><g data-name="Group 1229"><g data-name="Group 1228"><path data-name="Path 585" d="M67.013 226.145a4.673 4.673 0 01-4.345-4.463 11.23 11.23 0 011.59-6.262 1.757 1.757 0 00-.555.474 4.678 4.678 0 01-7.792-5.18c3.588-5.396 11.408-6.11 18.303-6.74l.972-.088c.074-1.82.024-4.371-.147-7.131-14.356-2.082-31.548-12.613-36.781-22.61-11.015-4.142-17.57-11.655-19.494-22.34-1.231-6.848-.205-13.513.876-18.342a8.158 8.158 0 01-3.878-5.11 13.491 13.491 0 01-.307-1.766 4.676 4.676 0 01-4.999-3.72 13.95 13.95 0 01.47-6.412 8.55 8.55 0 01-2.907-4.666c-.929-4.077 1.34-8.03 4.002-10.143a10.274 10.274 0 012.579-1.509 10.172 10.172 0 013.976-6.25 11.605 11.605 0 0111.782-.755 9.398 9.398 0 013.088 2.557 9.452 9.452 0 016.167 3.261 7.395 7.395 0 011.647 5.705c5.154 3.289 7.714 9.134 9.994 14.34 1.891 4.31 3.847 8.768 7.126 12.4 2.605 2.891 5.428 4.193 8.383 3.873a10.863 10.863 0 006.452-3.332 34.304 34.304 0 01-2.279-9.693c-.537-6.72.92-16.406 10.92-24.373 11.613-9.257 22.066-7.658 27.264-5.878 6.127 2.102 11.244 6.569 13.6 11.804 9.562 2.362 15.968 6.837 17.625 12.36a8.228 8.228 0 01-2.055 8.402 10.46 10.46 0 01-5.606 2.715 39.786 39.786 0 011.933 19.191c-1.228 6.497-4.76 8.046-6.755 8.392a7.388 7.388 0 01-4.71-.761c-1.634 5.594-5.292 9.664-9.823 10.69a8.683 8.683 0 01-2.243.205 68.13 68.13 0 01-4.626 11.794c-2.476 4.933-7.586 13.478-14.594 16.837-.692 3.11-1.456 6.963-1.911 9.877a16.938 16.938 0 013.152.556 4.68 4.68 0 01-2.618 8.985c-1.408-.41-4.957-.375-8.304-.29q-.564.336-1.161.686c-3.194 1.882-9.12 5.377-9.013 7.853a4.683 4.683 0 01-3.57 4.748 4.845 4.845 0 01-.866.127 4.77 4.77 0 01-.562-.018zm3.053-16.176a1.937 1.937 0 011.098 3.423c-3.28 2.717-4.75 5.297-4.628 8.12a.8.8 0 00.262.562.831.831 0 00.578.21.905.905 0 00.153-.022.8.8 0 00.615-.815c-.208-4.795 5.954-8.431 10.905-11.353.56-.328 1.078-.635 1.57-.935a1.934 1.934 0 01.953-.28c5.068-.133 8.162-.105 9.999.432a.8.8 0 001-.554.8.8 0 00-.548-.994 18.401 18.401 0 00-4.342-.534 1.935 1.935 0 01-1.854-2.16c.388-3.298 1.54-9.172 2.48-13.266a1.935 1.935 0 011.167-1.364c6.314-2.531 11.183-10.736 13.528-15.399a61.516 61.516 0 004.768-12.68 1.936 1.936 0 012.423-1.41 4.634 4.634 0 002.287.051c3.658-.83 6.67-5.02 7.49-10.426a1.936 1.936 0 013.201-1.156c1.471 1.307 2.787 1.837 4.024 1.619 2.24-.389 3.205-3.094 3.62-5.296a35.553 35.553 0 00-2.687-19.33 1.936 1.936 0 011.744-2.774c2.507-.003 4.488-.64 5.712-1.845a4.308 4.308 0 001.059-4.52c-1.284-4.273-7.174-7.985-15.752-9.931a1.938 1.938 0 01-1.383-1.2c-1.737-4.601-6.195-8.617-11.633-10.481-4.448-1.522-13.428-2.865-23.597 5.243-8.666 6.907-9.935 15.249-9.471 21.036a30.394 30.394 0 002.437 9.576 1.937 1.937 0 01-.238 1.966 15.007 15.007 0 01-9.807 5.642c-4.267.466-8.197-1.259-11.683-5.132-3.696-4.096-5.78-8.846-7.796-13.438-2.316-5.286-4.71-10.75-9.538-13.206a1.936 1.936 0 01-.949-2.373 3.602 3.602 0 00-.608-3.579 5.656 5.656 0 00-4.238-1.902 1.935 1.935 0 01-1.664-.957 5.302 5.302 0 00-2.147-1.978 7.703 7.703 0 00-7.714.462 6.383 6.383 0 00-2.585 4.766 1.936 1.936 0 01-1.457 1.694 6.264 6.264 0 00-2.376 1.196c-1.656 1.315-3.186 3.83-2.634 6.254a4.825 4.825 0 002.39 3.1 1.937 1.937 0 01.835 2.316c-.055.153-.111.32-.167.49a10.814 10.814 0 00-.61 5.255.8.8 0 00.98.62c.365-.088.903-.245 1.553-.455a1.936 1.936 0 012.52 2.034 9.291 9.291 0 00.222 3.152 4.551 4.551 0 003.029 3.136 1.936 1.936 0 011.205 2.27c-1.102 4.549-2.422 11.39-1.181 18.27 1.698 9.457 7.659 16.069 17.719 19.651a1.937 1.937 0 011.105 1.007c4.368 9.388 22.027 19.95 35.651 21.326a1.936 1.936 0 011.737 1.78 66.299 66.299 0 01.123 11.016 1.936 1.936 0 01-1.723 1.684c-.813.083-1.69.163-2.595.245-6.056.553-12.893 1.178-15.456 5.034a.804.804 0 101.341.887c1.255-1.884 4.087-3.046 9.18-3.762a1.957 1.957 0 01.397-.018z" fill="#4cb148" opacity=".4"/></g></g></g><path data-name="Path 608" d="M399.55 2.748c20.234 194.553-184.831 171.053-217.954 231.771" fill="none" stroke="#dcdcdc" stroke-linecap="round" stroke-width="5" stroke-dasharray="1 12"/></svg>