<svg xmlns="http://www.w3.org/2000/svg" width="274.956" height="566.017" viewBox="0 0 274.956 566.017"><g data-name="Group 1241"><g data-name="Group 1240" opacity=".196"><g data-name="Group 1238"><path data-name="Path 590" d="M17.44 516.189l-.098-.24a36.936 36.936 0 01.425-28.455c4.011-9.279 13.177-20.406 23.351-28.352a59.369 59.369 0 0114.06-8.408c7.231-2.922 13.864-3.26 19.383-.874 5.58 2.412 9.973 7.618 12.81 15.156a78.962 78.962 0 0123.358-4.475c10.413-.2 18.352 2.677 22.962 8.318 6.17 7.549 6.244 19.876.21 34.708-4.863 11.958-13.063 23.816-20.89 30.21a37.628 37.628 0 01-38.385 5.281 36.733 36.733 0 01-6.276-3.478q-1.273.629-2.578 1.156a37.124 37.124 0 01-48.334-20.55zm3.034-4.156q.37 1.182.833 2.345l.085.213a32.858 32.858 0 0042.793 18.194 33.6 33.6 0 003.282-1.542l3.669-2.276a32.815 32.815 0 0010.99-13.643c3.748-8.67 5.449-22.155 4.333-34.35a65.164 65.164 0 00-1.378-8.777l-1.058-3.844c-2.39-7.416-6.245-12.46-11.153-14.584-4.453-1.925-9.94-1.593-16.053.877a55.418 55.418 0 00-13.074 7.853c-9.652 7.546-18.313 18.017-22.062 26.689l-.082.191a32.66 32.66 0 00-1.125 22.654zm68.17-42.946l.568 2.064a69.515 69.515 0 011.49 9.434c1.177 12.857-.653 27.158-4.665 36.433a37.08 37.08 0 01-12.48 15.458l-.114.077-.982.612a32.467 32.467 0 003.86 1.986 33.324 33.324 0 0033.992-4.674c7.316-5.976 15.024-17.168 19.64-28.514 5.416-13.318 5.571-24.117.436-30.404-3.75-4.59-10.522-6.927-19.58-6.757a74.67 74.67 0 00-22.165 4.285z" fill="#fff"/></g><g data-name="Group 1239" transform="rotate(68 -314.7 284.082)" fill="#fff"><circle data-name="Ellipse 147" cx="16.766" cy="16.766" r="16.766" transform="rotate(-58.33 25.572 14.274)"/><path data-name="Path 591" d="M23.034 41.974a18.924 18.924 0 114.4-.517 19.04 19.04 0 01-4.4.517zm.036-33.54A14.637 14.637 0 008.828 26.448 14.634 14.634 0 1023.067 8.435z"/></g></g></g><path data-name="Path 594" d="M244.534 77.038c-14.254 0-28.56-10.258-34.847-26.418-7.845-20.159-.286-41.983 16.848-48.649 8.367-3.254 17.708-2.459 26.3 2.239a42.783 42.783 0 0119 22.229 42.777 42.777 0 011.024 29.221c-3.16 9.274-9.507 16.174-17.872 19.429a28.709 28.709 0 01-10.453 1.949zm-7.481-72.77a24.66 24.66 0 00-8.972 1.677c-14.943 5.815-21.412 25.163-14.421 43.13s24.836 27.855 39.779 22.04c7.173-2.79 12.636-8.767 15.383-16.829a38.511 38.511 0 00-.962-26.3 38.509 38.509 0 00-17.067-20.033 28.656 28.656 0 00-13.74-3.685z" fill="#fff" opacity=".196"/></svg>