<svg xmlns="http://www.w3.org/2000/svg" width="185.164" height="187.347" viewBox="0 0 185.164 187.347"><g opacity=".196" fill="#ffc416"><path d="M100.802 116.57q-2.02.942-4.246 1.779a1.821 1.821 0 01-2.143-.674 23.153 23.153 0 01-2.982-6.681c-4.45 2.57-14.64 6.994-28.743 4.293a1.82 1.82 0 01-1.317-2.54c.143-.314 3.644-7.768 16.682-12.879a1.822 1.822 0 111.33 3.391c-7.425 2.911-11.367 6.609-13.244 8.889 15.57 1.95 25.415-5.562 25.518-5.639a1.823 1.823 0 012.939 1.333 16.515 16.515 0 002.089 6.549c9.136-3.701 15.099-8.807 17.724-15.192a21.979 21.979 0 00-.106-16.082 1.823 1.823 0 01.884-2.414 1.82 1.82 0 012.424.881 25.3 25.3 0 01.195 18.944c-2.721 6.662-8.432 12.046-17.004 16.043z" opacity=".4"/><path d="M122.148 158.454a4.824 4.824 0 01-.503.2 5.067 5.067 0 01-.885.202 4.672 4.672 0 01-5.018-3.148c-.853-2.539-7.694-3.695-11.781-4.38-.5-.083-.978-.163-1.439-.246-3.298 1.17-6.793 2.47-8.027 3.412a4.684 4.684 0 01-6.543-.89 4.663 4.663 0 01.895-6.54 17.736 17.736 0 012.993-1.778c-1.543-2.701-3.8-6.288-5.678-9.118-8.012-.602-16.144-6.99-20.374-10.846a70.279 70.279 0 01-8.928-9.797 8.783 8.783 0 01-2.332.678c-4.762.687-9.824-1.94-13.453-6.816a7.556 7.556 0 01-4.338 2.603c-2.005.395-5.914.205-9.455-5.533A41.055 41.055 0 0122.05 87.02a10.763 10.763 0 01-6.554-.488 8.247 8.247 0 01-5-7.215c-.44-5.917 4.096-12.591 12.475-18.408.305-5.923 3.585-12.144 8.724-16.445 4.337-3.63 13.807-9.03 28.406-4.4 12.568 3.976 17.546 12.759 19.51 19.425a35.43 35.43 0 011.384 10.302 11.482 11.482 0 007.727.894c3.046-.804 5.333-3.149 6.808-6.978 1.837-4.77 2.074-9.829 2.305-14.722.289-6.182.587-12.562 4.388-17.597a7.482 7.482 0 01-.57-6.09 9.624 9.624 0 014.742-5.38 9.54 9.54 0 012.024-3.63 11.834 11.834 0 0111.507-3.59 10.368 10.368 0 016.116 4.581 10.5 10.5 0 013.11.496c3.304 1.038 6.91 3.973 7.514 8.192a8.7 8.7 0 01-1.12 5.584 14.4 14.4 0 012.876 6.052 4.683 4.683 0 01-.86 3.546 4.7 4.7 0 01-2.645 1.749 13.7 13.7 0 01.403 1.982 8.3 8.3 0 01-1.903 6.355c2.845 4.266 6.353 10.365 7.712 17.486 2.111 11.016-1.445 20.686-10.562 28.755-1.307 11.617-14.112 28.27-27.275 35.571a76.571 76.571 0 002.622 7.281l1.102-.31c6.899-1.95 14.692-4.152 20.102-.311a4.666 4.666 0 01-5.402 7.609 2.874 2.874 0 00-1.479-.367 11.63 11.63 0 014.345 5.802 4.668 4.668 0 01-2.443 5.707zm-27.484-8.22c1.684-.786 4.004-1.652 7.09-2.744a1.82 1.82 0 01.93-.075c.594.107 1.208.21 1.85.316 5.858.987 13.115 2.208 14.657 6.824a1.022 1.022 0 001.094.691 1.188 1.188 0 00.222-.052.983.983 0 00.564-.505 1.021 1.021 0 00.054-.782c-.937-2.802-3.429-4.852-7.62-6.267a1.821 1.821 0 01.173-3.501c5.143-1.185 8.271-1.122 10.138.207a1.023 1.023 0 101.186-1.667c-3.987-2.83-10.892-.88-16.979.84-.928.263-1.805.51-2.624.732a1.821 1.821 0 01-2.085-.903 68.646 68.646 0 01-3.962-10.682 1.823 1.823 0 01.925-2.148c12.735-6.42 25.967-23.29 26.71-34.057a1.823 1.823 0 01.628-1.256c8.466-7.257 11.806-15.933 9.927-25.797-1.365-7.162-5.202-13.32-7.97-17.33a1.82 1.82 0 01.294-2.398 4.9 4.9 0 001.83-4.327 9.841 9.841 0 00-.974-3.197 1.822 1.822 0 011.53-2.636c.716-.04 1.3-.087 1.688-.138a1.025 1.025 0 00.695-.404 1.023 1.023 0 00.189-.777 11.419 11.419 0 00-2.587-4.962 23.145 23.145 0 00-.339-.403 1.82 1.82 0 01-.049-2.317 5.192 5.192 0 001.208-4.035c-.378-2.636-2.857-4.559-5.003-5.233a6.686 6.686 0 00-2.827-.283 1.819 1.819 0 01-1.85-.997 6.8 6.8 0 00-4.396-3.75 8.183 8.183 0 00-7.835 2.477 5.7 5.7 0 00-1.388 2.809 1.809 1.809 0 01-1.14 1.4 6.065 6.065 0 00-3.509 3.532 3.911 3.911 0 00.776 3.87 1.822 1.822 0 01-.036 2.4c-3.81 4.221-4.1 10.439-4.381 16.452-.244 5.181-.493 10.537-2.545 15.861-1.918 4.984-5.04 8.078-9.285 9.192a15.38 15.38 0 01-11.454-1.8 1.821 1.821 0 01-.871-1.644 31.732 31.732 0 00-1.207-10.243c-1.715-5.82-6.075-13.49-17.116-16.983-12.947-4.103-21.212.574-24.984 3.725-4.616 3.863-7.468 9.465-7.441 14.62a1.821 1.821 0 01-.81 1.523c-7.645 5.11-12 10.961-11.654 15.644a4.651 4.651 0 002.815 4.143c1.684.732 3.883.616 6.364-.333a1.821 1.821 0 011.743.243 1.822 1.822 0 01.723 1.605 37.106 37.106 0 004.608 19.84c1.251 2.028 3.249 4.345 5.66 3.871 1.348-.257 2.47-1.293 3.437-3.162a1.821 1.821 0 013.203-.059c2.841 4.999 7.391 7.976 11.324 7.409a4.956 4.956 0 002.276-.936 1.823 1.823 0 012.605.422 64.008 64.008 0 009.359 10.543c4.026 3.664 11.832 9.834 18.95 9.94a1.822 1.822 0 011.48.809c2.429 3.612 5.725 8.865 7.321 11.912a1.822 1.822 0 01.102 1.46 1.852 1.852 0 01-1.004 1.063 19.232 19.232 0 00-4.046 2.154 1.021 1.021 0 00-.199 1.432 1.03 1.03 0 001.44.198 13.188 13.188 0 012.402-1.376zM24.76 61.888z" opacity=".4"/></g></svg>