<svg xmlns="http://www.w3.org/2000/svg" width="268.536" height="89.125" viewBox="0 0 268.536 89.125">
  <g id="img_logo_01" transform="translate(-787.29 -898.485)">
    <g id="Group_2" data-name="Group 2" transform="translate(893.526 910.82)">
      <path id="Path_1" data-name="Path 1" d="M861.736,912.539H851.261v8.245h10.476a3.978,3.978,0,0,1,3.911,4.017v3.4a15.241,15.241,0,0,0-7.566-2.019,15.838,15.838,0,0,0-15.593,16.013V949.5a15.61,15.61,0,1,0,31.21,0V924.8A12.139,12.139,0,0,0,861.736,912.539Zm3.911,36.961a7.557,7.557,0,1,1-15.109,0v-7.308a7.556,7.556,0,1,1,15.109,0V949.5Z" transform="translate(-842.488 -897.826)" fill="#211e1f"/>
      <path id="Path_2" data-name="Path 2" d="M910.358,945.854V924.8a12.127,12.127,0,0,0-11.971-12.262H887.913v8.245h10.474A3.964,3.964,0,0,1,902.3,924.8v3.389a15.21,15.21,0,0,0-7.55-2.019,15.846,15.846,0,0,0-15.6,16.021v7.3a15.611,15.611,0,1,0,31.211,0Zm-8.058,3.638a7.554,7.554,0,1,1-15.1,0v-7.3a7.554,7.554,0,1,1,15.1,0v7.3Z" transform="translate(-808.593 -897.826)" fill="#211e1f"/>
      <path id="Path_3" data-name="Path 3" d="M926.21,965.507A15.81,15.81,0,0,0,941.8,949.492V924.8a12.12,12.12,0,0,0-11.956-12.262H919.366v8.245h10.481a3.975,3.975,0,0,1,3.921,4.017v3.389a15.278,15.278,0,0,0-7.558-2.019,15.836,15.836,0,0,0-15.6,16.021v7.3A15.812,15.812,0,0,0,926.21,965.507Zm-7.55-23.315a7.557,7.557,0,1,1,15.108,0v7.3a7.557,7.557,0,1,1-15.108,0Z" transform="translate(-779.503 -897.826)" fill="#211e1f"/>
      <path id="Path_4" data-name="Path 4" d="M907.088,924.8a3.959,3.959,0,0,1,3.905-4.017h10.476v-8.245H910.993A12.129,12.129,0,0,0,899.037,924.8V964.66h8.051Z" transform="translate(-790.201 -897.826)" fill="#211e1f"/>
      <path id="Path_5" data-name="Path 5" d="M894.454,971.728l-21.642-26.295L893.894,919.8H883.36l-12.574,15.273V904.894H862.75v66.834h8.036V955.789l13.141,15.939Z" transform="translate(-823.753 -904.894)" fill="#211e1f"/>
    </g>
    <g id="Group_3" data-name="Group 3" transform="translate(787.29 898.485)">
      <path id="Path_6" data-name="Path 6" d="M807.435,906.893c52.419-39.7,121.463,73.688,35.292,80.573-17.089.968-35.175-2.831-46.3-14.8C778.544,953.325,789.44,920.518,807.435,906.893Z" transform="translate(-787.29 -898.485)" fill="#ffc416"/>
      <path id="Path_7" data-name="Path 7" d="M871,952.7c-7.979,4.84-12.495,5.468-15.536,5.468a26.213,26.213,0,0,1-3.537-.279,8.045,8.045,0,0,1-6.238-4.025c-2.41-4.024-2.806-11.142-1.172-20.569,1.407-8.033,2.667-14.879,2.931-15.628a2.764,2.764,0,0,0-.529-2.489c-1.391-2.021-4.507-4.819-6.136-4.819a1.668,1.668,0,0,0-.685.16l-.044.029a59.087,59.087,0,0,1-12.678,5.3c0-.1.185-13.232-4.377-13.73a8.907,8.907,0,0,0-1.149-.175,4.84,4.84,0,0,0-2.895.916c-1.48,1.187-1.34,3.306-1.149,6.226.031.393.052.816.089,1.263a61.206,61.206,0,0,1-.229,9.048,27.907,27.907,0,0,1-6.7.568,27.61,27.61,0,0,1-5.172-.689,12.585,12.585,0,0,1-1.753-.491,8.493,8.493,0,0,0-2.623-.47,3.318,3.318,0,0,0-1.126.181,3.092,3.092,0,0,0-2.071,3.4c.289,2.677,1.952,4.311,4.995,5.583,4.332,1.823,11.307,2.019,11.919,1.965-1.563,6.99-3.963,15.38-18.748,30.35-1.561,1.582-3.507,3.02-3.411,5.093a2.559,2.559,0,0,0,1.923,2.564c2.321.7,7.175-1.293,11.542-5.181,8.464-7.558,14.519-14.04,19.728-33.92,2.5-.87,5.768-1.83,7.852-2.535a139.368,139.368,0,0,0-1.878,25.682c.347,7.845,4.059,14.275,9.916,17.231a23.989,23.989,0,0,0,7.566,2.354c.514.052,1.089.075,1.582.075h0a20.12,20.12,0,0,0,15.793-7.042,30.3,30.3,0,0,0,5.437-9.517,3.085,3.085,0,0,1,.185-.483l1.259-3.154Z" transform="translate(-782.041 -895.282)" fill="#fff"/>
    </g>
  </g>
</svg>
