<svg xmlns="http://www.w3.org/2000/svg" width="81" height="81" viewBox="0 0 81 81"><circle data-name="Ellipse 149" cx="40.5" cy="40.5" r="40.5" fill="#ffc416"/><g fill="#fff"><path d="M60.983 48.676c.033.165.785 4.052.977 5.327a14.715 14.715 0 01-1.393 8.28 31.9 31.9 0 01-1.25 2.017c-.648.987-.871 1.35-.828 1.8a8.729 8.729 0 01-.011 2.147.959.959 0 01-.762.78.942.942 0 01-.344 0 .959.959 0 01-.784-1.107 7.342 7.342 0 00-.008-1.641 4.531 4.531 0 011.139-3.037c.326-.5.733-1.114 1.182-1.908a12.927 12.927 0 001.165-7.049c-.145-.964-.644-3.587-.86-4.714v-.007l-.692-3.543c-.3-1.551-.827-4.068-1.166-5.611l-.347-1.575a2.169 2.169 0 00-2.337-1.662 1.626 1.626 0 00-1.133.689 1.76 1.76 0 00-.265 1.384l.761 3.6a.959.959 0 01-.74 1.136 1 1 0 01-1.136-.74l-1.332-5.736a2.268 2.268 0 00-2.429-1.688l-.267.035a1.725 1.725 0 00-1.487 2.068l1 5.317a.959.959 0 01-.752 1.129h-.006a.959.959 0 01-1.123-.753l-1.608-8.038a1.94 1.94 0 00-2.266-1.519l-.572.111a1.951 1.951 0 00-1.542 2.263l1.265 6.864a.959.959 0 01-.76 1.114h-.009a.959.959 0 01-1.117-.769l-3.761-17.864a2.286 2.286 0 00-2.544-1.591l-.274.069a2.344 2.344 0 00-1.816 2.711l3.368 17.411c.3 1.555.872 4.554.872 4.554.7 3.592-.946 5.029-1.686 5.48a4.24 4.24 0 01-4.825-.553 18.189 18.189 0 01-.862-.755c-1.277-1.164-3.405-3.106-4.983-2.55a2.24 2.24 0 00-1.311 2.354c.95 1.4 10.108 12.254 11.555 13.3a11.241 11.241 0 002.654 1.509 9.9 9.9 0 014 2.172l.8.994a.96.96 0 01-1.5 1.2l-.8-1a9.1 9.1 0 00-3.082-1.543 12.451 12.451 0 01-3.192-1.781c-1.534-1.1-11.963-13.208-12.261-14.233a4.117 4.117 0 012.49-4.779c2.648-.957 5.323 1.484 6.92 2.937.3.269.553.5.759.667a2.359 2.359 0 002.637.421c.84-.511 1.132-1.778.8-3.476 0 0-.571-3-.872-4.555l-3.364-17.384a4.226 4.226 0 013.249-4.966l.274-.069a4.189 4.189 0 014.862 3.043l1.686 8a3.832 3.832 0 012-1.075l.571-.111a3.85 3.85 0 014.4 2.667 3.653 3.653 0 011.955-.888l.268-.035a4.206 4.206 0 014.252 2.339 3.568 3.568 0 011.99-.982 4.09 4.09 0 014.485 3.147L59.207 40c.343 1.554.871 4.092 1.177 5.655l.588 3.007z"/><g opacity=".499"><path data-name="Path 596" d="M40.847 14.628a.959.959 0 00-1.331.259l-2.562 3.8a.96.96 0 001.59 1.073l2.562-3.8a.96.96 0 00-.259-1.332z"/><path data-name="Path 597" d="M45.658 22.837l-4.5.875a.959.959 0 10.365 1.882l4.5-.874a.96.96 0 00-.366-1.883z"/><path data-name="Path 598" d="M24.454 26.958l-4.5.875a.959.959 0 10.366 1.882l4.5-.874a.959.959 0 00-.365-1.883z"/><path data-name="Path 599" d="M22.673 18.157a.959.959 0 10-1.072 1.59l3.8 2.562a.959.959 0 101.072-1.59z"/><path data-name="Path 600" d="M30.31 12.485a.957.957 0 00-.759 1.124l.874 4.5a.959.959 0 001.883-.365l-.875-4.5a.958.958 0 00-1.123-.759z"/></g></g></svg>