<svg id="eoim1398amg1" xmlns="http://www.w3.org/2000/svg" viewBox="0 0 70.041 82.019" shape-rendering="geometricPrecision" text-rendering="geometricPrecision"><style>@keyframes eoim1398amg3_to__to{0%{transform:translate(34.496123px,63.18377px)}10%{transform:translate(33.9795px,75.144px)}}@keyframes eoim1398amg3_ts__ts{0%{transform:scale(.113108,.108896)}10%{transform:scale(1,1)}}@keyframes eoim1398amg5_tr__tr{0%{transform:translate(22.276975px,28.84272px) rotate(0deg)}10%{transform:translate(22.276975px,28.84272px) rotate(13.526213deg)}}@keyframes eoim1398amg6_tr__tr{0%{transform:translate(22.277194px,28.842579px) rotate(-14.289428deg)}10%{transform:translate(22.277194px,28.842579px) rotate(-.763215deg)}}@keyframes eoim1398amg7_to__to{0%{transform:translate(37.458525px,11.164216px)}10%{transform:translate(21.48124px,27.453149px)}}@keyframes eoim1398amg7_tr__tr{0%{transform:rotate(0deg)}10%{transform:rotate(13.526213deg)}}@keyframes eoim1398amg7_ts__ts{0%{transform:scale(1,1)}10%{transform:scale(5.331332,5.331332)}}@keyframes eoim1398amg8_to__to{0%{transform:translate(6101.281108px,8361.649389px)}10%{transform:translate(6092.78724px,8368.236061px)}}@keyframes eoim1398amg8_tr__tr{0%{transform:rotate(13.984509deg)}10%{transform:rotate(14.05496deg)}}@keyframes eoim1398amg9_to__to{0%{transform:translate(14.578934px,58.200154px)}10%{transform:translate(10.514598px,54.611055px)}}@keyframes eoim1398amg9_tr__tr{0%{transform:rotate(203.890813deg)}10%{transform:rotate(211.607732deg)}}</style><g id="eoim1398amg2" transform="translate(1.041)"><g style="animation:eoim1398amg3_to__to 3000ms linear 1 normal forwards"><g transform="matrix(.1131 0 0 .1089 34.496 63.184)" style="animation:eoim1398amg3_ts__ts 3000ms linear 1 normal forwards"><text id="eoim1398amg3" dx="0" dy="0" font-family="RoundedMplus1c-ExtraBold, &quot;Rounded Mplus 1c&quot;" font-size="12" font-weight="bold" transform="translate(-34.313 4.016)" fill="#777" stroke="none" stroke-width="1"><![CDATA[scroll down]]></text></g></g><g id="eoim1398amg4"><g transform="rotate(14 -119.284 152.098)" style="animation:eoim1398amg5_tr__tr 3000ms linear 1 normal forwards"><path id="eoim1398amg5" d="M24.159 0c13.343 0 24.159 15.84 24.159 32.403S37.502 59.982 24.159 59.982C10.816 59.982 0 48.967 0 32.403S10.817 0 24.159 0z" transform="translate(-23.074 -28.644)" fill="none" stroke="none" stroke-width="1"/></g><g transform="rotate(-.286 6623.3 -6566.523)" style="animation:eoim1398amg6_tr__tr 3000ms linear 1 normal forwards"><path id="eoim1398amg6" d="M24.16 2.094c-2.847 0-5.647.819-8.323 2.433-2.61 1.575-4.988 3.827-7.066 6.693-4.243 5.853-6.677 13.574-6.677 21.184 0 3.786.596 7.346 1.773 10.58 1.112 3.059 2.713 5.755 4.76 8.014 4.027 4.443 9.543 6.89 15.532 6.89 5.99 0 11.505-2.447 15.532-6.89 2.047-2.26 3.649-4.955 4.761-8.013 1.176-3.235 1.772-6.795 1.772-10.581 0-7.61-2.433-15.331-6.677-21.184-2.078-2.866-4.455-5.118-7.066-6.693-2.675-1.614-5.475-2.433-8.322-2.433m0-2.094c13.343 0 24.16 15.84 24.16 32.404 0 16.563-10.817 27.578-24.16 27.578S0 48.967 0 32.404C0 15.84 10.816 0 24.16 0z" transform="translate(-23.074 -28.644)" fill="#FFC416" stroke="none" stroke-width="1"/></g></g><g style="animation:eoim1398amg7_to__to 3000ms linear 1 normal forwards"><g style="animation:eoim1398amg7_tr__tr 3000ms linear 1 normal forwards"><g transform="translate(37.459 11.164)" style="animation:eoim1398amg7_ts__ts 3000ms linear 1 normal forwards"><circle id="eoim1398amg7" r="2.852" transform="translate(2.852 2.852)" fill="#FFC416" stroke="none" stroke-width="1"/></g></g></g><g style="animation:eoim1398amg8_to__to 3000ms linear 1 normal forwards"><g transform="rotate(13.985 -31037.54 29054.096)" style="animation:eoim1398amg8_tr__tr 3000ms linear 1 normal forwards"><path id="eoim1398amg8" d="M-7889.13-6654.787c9.047 3.376 12.355 12.341 12.355 12.341" transform="scale(1.00037 .99835)" fill="none" stroke="#FFC416" stroke-width="2" stroke-linecap="round"/></g></g><g style="animation:eoim1398amg9_to__to 3000ms linear 1 normal forwards"><g transform="rotate(-156.109 13.446 27.558)" style="animation:eoim1398amg9_tr__tr 3000ms linear 1 normal forwards"><path id="eoim1398amg9" d="M0 0c9.047 3.376 12.355 12.341 12.355 12.341" fill="none" stroke="#FFC416" stroke-width="2" stroke-linecap="round"/></g></g></g></svg>