<svg xmlns="http://www.w3.org/2000/svg" width="61.511" height="65.073" viewBox="0 0 61.511 65.073">
  <g id="scroll_down" data-name="scroll down" transform="translate(1.813 1.287)">
    <text id="scroll_down-2" data-name="scroll down" transform="translate(36.549 61.787)" fill="#fff" font-size="8" font-family="Helvetica"><tspan x="-20.008" y="0">scroll down</tspan></text>
    <g id="Path_574" data-name="Path 574" transform="translate(13.549 5.499)" fill="none">
      <path d="M23.074,0C35.818,0,46.148,15.129,46.148,30.948S35.818,57.288,23.074,57.288,0,46.768,0,30.948,10.331,0,23.074,0Z" stroke="none"/>
      <path d="M 23.07421875 1.999996185302734 C 20.35555839538574 1.999996185302734 17.68134880065918 2.78173828125 15.12585830688477 4.323516845703125 C 12.63240814208984 5.827857971191406 10.3619384765625 7.978496551513672 8.377517700195312 10.71571731567383 C 4.324520111083984 16.30621719360352 2 23.68069839477539 2 30.94827842712402 C 2 34.56506729125977 2.569557189941406 37.96518707275391 3.692867279052734 41.0541877746582 C 4.754970550537109 43.97489929199219 6.284927368164062 46.54975891113281 8.240230560302734 48.70726776123047 C 12.08600997924805 52.95073699951172 17.35414886474609 55.2877197265625 23.07421875 55.2877197265625 C 28.79428863525391 55.2877197265625 34.06242752075195 52.95073699951172 37.90821075439453 48.70726776123047 C 39.86351013183594 46.54975891113281 41.39347076416016 43.97489929199219 42.45557022094727 41.0541877746582 C 43.57888031005859 37.96518707275391 44.1484375 34.56506729125977 44.1484375 30.94827842712402 C 44.1484375 23.68069839477539 41.82391738891602 16.30621719360352 37.77091979980469 10.71571731567383 C 35.7864990234375 7.978496551513672 33.51602935791016 5.827857971191406 31.02257919311523 4.323516845703125 C 28.46708869934082 2.78173828125 25.79287910461426 1.999996185302734 23.07421875 1.999996185302734 M 23.07421875 -3.814697265625e-06 C 35.81775665283203 -3.814697265625e-06 46.1484375 15.12870788574219 46.1484375 30.94827842712402 C 46.1484375 46.76783752441406 35.81775665283203 57.2877197265625 23.07421875 57.2877197265625 C 10.3306770324707 57.2877197265625 0 46.76783752441406 0 30.94827842712402 C 0 15.12870788574219 10.3306770324707 -3.814697265625e-06 23.07421875 -3.814697265625e-06 Z" stroke="none" fill="#ffc416"/>
    </g>
    <circle id="Ellipse_145" data-name="Ellipse 145" cx="2" cy="2" r="2" transform="translate(38.549 11.787)" fill="#ffc416"/>
    <path id="Path_602" data-name="Path 602" d="M-7889.13-6654.787c8.641,3.224,11.8,11.787,11.8,11.787" transform="translate(7935.549 6654.787)" fill="none" stroke="#ffc416" stroke-linecap="round" stroke-width="2"/>
    <path id="Path_603" data-name="Path 603" d="M-7889.13-6654.787c8.641,3.224,11.8,11.787,11.8,11.787" transform="translate(-1579.165 -10151.956) rotate(-139)" fill="none" stroke="#ffc416" stroke-linecap="round" stroke-width="2"/>
  </g>
</svg>
