<svg xmlns="http://www.w3.org/2000/svg" width="15.759" height="15.755" viewBox="0 0 15.759 15.755">
  <path id="icon-instagram" d="M7.878-10.793A4.033,4.033,0,0,0,3.839-6.753,4.033,4.033,0,0,0,7.878-2.714a4.033,4.033,0,0,0,4.039-4.039A4.033,4.033,0,0,0,7.878-10.793Zm0,6.666A2.631,2.631,0,0,1,5.252-6.753,2.629,2.629,0,0,1,7.878-9.38,2.629,2.629,0,0,1,10.5-6.753,2.631,2.631,0,0,1,7.878-4.127Zm5.147-6.831a.942.942,0,0,0-.942-.942.942.942,0,0,0-.942.942.94.94,0,0,0,.942.942A.94.94,0,0,0,13.025-10.958ZM15.7-10a4.663,4.663,0,0,0-1.273-3.3,4.693,4.693,0,0,0-3.3-1.273c-1.3-.074-5.2-.074-6.5,0a4.686,4.686,0,0,0-3.3,1.269,4.678,4.678,0,0,0-1.273,3.3c-.074,1.3-.074,5.2,0,6.5A4.663,4.663,0,0,0,1.325-.2a4.7,4.7,0,0,0,3.3,1.273c1.3.074,5.2.074,6.5,0A4.663,4.663,0,0,0,14.428-.2a4.693,4.693,0,0,0,1.273-3.3C15.775-4.806,15.775-8.7,15.7-10ZM14.02-2.109a2.659,2.659,0,0,1-1.5,1.5A17.363,17.363,0,0,1,7.878-.3,17.5,17.5,0,0,1,3.234-.612a2.659,2.659,0,0,1-1.5-1.5A17.363,17.363,0,0,1,1.42-6.753,17.5,17.5,0,0,1,1.737-11.4a2.659,2.659,0,0,1,1.5-1.5,17.363,17.363,0,0,1,4.644-.316,17.5,17.5,0,0,1,4.644.316,2.659,2.659,0,0,1,1.5,1.5,17.363,17.363,0,0,1,.316,4.644C14.337-5.607,14.432-3.143,14.02-2.109Z" transform="translate(0.003 14.631)" fill="#211e1f"/>
</svg>
