<svg xmlns="http://www.w3.org/2000/svg" xmlns:xlink="http://www.w3.org/1999/xlink" width="21.004" height="21.057" viewBox="0 0 21.004 21.057">
  <defs>
    <clipPath id="clip-path">
      <rect id="Rectangle_335" data-name="Rectangle 335" width="21.004" height="21.057" fill="#211e1f"/>
    </clipPath>
  </defs>
  <g id="icon-comment" transform="translate(-108 -231.89)">
    <g id="Group_1498" data-name="Group 1498" transform="translate(108 231.89)">
      <g id="Group_1497" data-name="Group 1497" clip-path="url(#clip-path)">
        <path id="Path_922" data-name="Path 922" d="M125.894,235.523a10.484,10.484,0,0,0-15.488,14.1,4.013,4.013,0,0,1-1.68,1.862.984.984,0,0,0,.284,1.853,5.4,5.4,0,0,0,.829.062,6.261,6.261,0,0,0,3.689-1.224,10.483,10.483,0,0,0,12.367-16.654Zm-.847,13.98a9.287,9.287,0,0,1-11.271,1.446.6.6,0,0,0-.727.093.2.2,0,0,0-.049.035,5.119,5.119,0,0,1-3.162,1.126h0a5.871,5.871,0,0,0,1.8-2.39.611.611,0,0,0,.031-.386.621.621,0,0,0-.146-.337,9.288,9.288,0,1,1,13.528.412Zm0,0" transform="translate(-108 -232.419)" fill="#211e1f"/>
      </g>
    </g>
    <path id="Path_923" data-name="Path 923" d="M285.281,409.108a.736.736,0,1,1-.736-.736.736.736,0,0,1,.736.736Zm0,0" transform="translate(-166.065 -166.7)" fill="#211e1f"/>
    <path id="Path_924" data-name="Path 924" d="M353.761,409.108a.736.736,0,1,1-.736-.736.736.736,0,0,1,.736.736Zm0,0" transform="translate(-230.749 -166.7)" fill="#211e1f"/>
    <path id="Path_925" data-name="Path 925" d="M216.8,409.108a.736.736,0,1,1-.736-.736.736.736,0,0,1,.736.736Zm0,0" transform="translate(-101.379 -166.7)" fill="#211e1f"/>
  </g>
</svg>
