<svg xmlns="http://www.w3.org/2000/svg" xmlns:xlink="http://www.w3.org/1999/xlink" width="51.441" height="47.629" viewBox="0 0 51.441 47.629">
  <defs>
    <radialGradient id="radial-gradient" cx="0.5" cy="0.5" r="0.5" gradientUnits="objectBoundingBox">
      <stop offset="0" stop-color="#f19b25"/>
      <stop offset="1" stop-color="#f16025"/>
    </radialGradient>
  </defs>
  <g id="ico_man_orange" transform="translate(-3.559 -10)">
    <path id="Path_779" data-name="Path 779" d="M798.056,902.979c28.013-21.215,64.91,39.379,18.86,43.058-9.132.517-18.8-1.513-24.745-7.911C782.616,927.792,788.439,910.26,798.056,902.979Z" transform="translate(-783.731 -888.485)" fill="url(#radial-gradient)"/>
    <path id="person" d="M95.305,94.522c-.587-2.593-3.939-3.857-5.1-4.265a38,38,0,0,0-4.248-.815A4.316,4.316,0,0,1,84,88.537c-.326-.391-.13-4.02-.13-4.02a12.1,12.1,0,0,0,.93-1.77,22.824,22.824,0,0,0,.685-3.091s.669,0,.905-1.174c.253-1.28.652-1.778.6-2.732-.049-.938-.563-.913-.563-.913a14.3,14.3,0,0,0,.555-4.183C87.053,67.3,84.427,64,79.673,64c-4.819,0-7.388,3.3-7.314,6.654a14.913,14.913,0,0,0,.546,4.183s-.514-.024-.563.913c-.049.954.351,1.452.6,2.732.228,1.174.905,1.174.905,1.174a22.825,22.825,0,0,0,.685,3.091,12.1,12.1,0,0,0,.93,1.77s.2,3.629-.13,4.02a4.316,4.316,0,0,1-1.965.905,38,38,0,0,0-4.248.815c-1.158.408-4.509,1.672-5.1,4.265a.652.652,0,0,0,.644.791h30A.65.65,0,0,0,95.305,94.522Z" transform="translate(-49.811 -44.793)" fill="#fff"/>
  </g>
</svg>
