<svg xmlns="http://www.w3.org/2000/svg" width="305.03" height="133.83" viewBox="0 0 305.03 133.83">
  <g id="img_logo_02" transform="translate(-649.62 -230.74)">
    <g id="Group_1427" data-name="Group 1427" transform="translate(654.2 230.74)">
      <path id="Path_823" data-name="Path 823" d="M707.242,259.584c.721-10.388,1.354-18.027,1.354-18.622.029-5.749-4.94-10.193-10.66-10.222-15.611-.078-39.212,24.186-43.616,65.814l11.859.068c2.241-10.163,3.411-18.6,7.357-27.421l20.97.107-2.251,27.45,12.239.058,2.017-27.45,5.554.029.049-9.783Zm-11.908-.058-16.985-.088c5.584-10.047,11.43-17.228,16.293-17.2a1.951,1.951,0,0,1,1.812,2.115C696.445,245.123,696.026,251.174,695.334,259.525Z" transform="translate(-654.32 -230.74)" fill="#fff"/>
      <path id="Path_824" data-name="Path 824" d="M763.449,286.122c-2.09-.011-3.415-1.256-4.729-3.1l-12.4-17.211,28.72-34.779-13.359-.071-27.9,31.91,2.1-31.95-11.74-.061-4.2,66.084,11.549.059,1.9-28.477,15.871,20.4c3.676,4.632,8.427,8.419,14.9,8.454,2.379.016,6.735-2.085,8.048-2.969l-6.3-8.647a10.3,10.3,0,0,1-2.451.362Z" transform="translate(-655.997 -230.743)" fill="#fff"/>
      <path id="Path_825" data-name="Path 825" d="M916.68,231.86c-5.7-.02-10.69,4.366-10.719,10.115,0,.594.516,8.244,1.14,18.631l-4.872-.019-.049,9.793,5.535.02,1.773,27.47,12.229.068-1.959-27.479,20.97.117c3.869,8.858,5.243,17.306,7.386,27.5l11.567.058C955.687,256.445,932.349,231.948,916.68,231.86Zm2.339,28.8c-.624-8.351-.965-14.4-.965-15.172a1.951,1.951,0,0,1,1.842-2.1c4.843.02,10.631,7.26,16.127,17.365Z" transform="translate(-660.654 -230.768)" fill="#fff"/>
      <path id="Path_826" data-name="Path 826" d="M835.524,260.263l-6.821-.029c-4.336-16.38-11.557-29.165-21.37-29.2-11.8.058-19.138,12.726-23.3,28.97l-7.416-.039-.049,10.008,5.389.029a175.661,175.661,0,0,0-2.251,27.343l13.506.068a246.407,246.407,0,0,1,1.939-27.343l23.7.127a185.6,185.6,0,0,1,2.251,27.362l12.249.058a152.914,152.914,0,0,0-2.436-27.362l4.551.029Zm-38.724-.195c2.309-11.255,5.739-19.362,10.485-19.343,3.654.029,7.152,8.166,9.7,19.45Z" transform="translate(-657.444 -230.747)" fill="#fff"/>
      <path id="Path_827" data-name="Path 827" d="M893.905,286.317c-1.13.341-1.705.653-2.845.906-6.188,1.53-16.03-9.179-19.577-15.65,11.011-3.537,17.267-10.612,16.614-21.009-.9-14.675-15.689-20.083-30.247-19.177a75.063,75.063,0,0,0-19.411,3.859l1.2,11.9c1.082-.4,3.547-1.121,6.012-1.705l3.713,52.084,12.239.068-1.7-23.689c5.915,8.614,17.745,24.78,29.828,24.03,3.683-.214,5.281-.858,8.936-2.933ZM859.118,262.5,857.7,243.091h2.738c7.4-.429,14.315,2.192,14.724,8.955C875.576,258.857,866.855,261.927,859.118,262.5Z" transform="translate(-659.025 -230.754)" fill="#fff"/>
    </g>
    <path id="Path_828" data-name="Path 828" d="M695.277,327.454c-.263.02-.848.146-.848.146.029,1.89-1.247,1.413-1.374,1.364a3.128,3.128,0,0,1-.146,1.549c-.292,1.189.429,1.393,1.043,4.073a4.779,4.779,0,0,1-1.569,5.1c-1.16,1.238-1.364.624-1.978,1.764-.468.828-.614,1.218-2.67,1.822-1.774.5-1.851,1.559-1.861,1.764l2.29.312s.633-.068.487.984a2.717,2.717,0,0,1-.672,1.306s-.429.01,0-.585c0,0-.731.594-.984.438,0-.01.01-.214.624-.448,0,0-.75.058-.585-.214a5.927,5.927,0,0,0,.614.029s.555-.292.4-.789h-.253s-.1.029-.039.331c0,0-.117.351-.3-.019a1.119,1.119,0,0,1,.039-.585c-.877-.068-1.939-.068-2.407-.058a9.279,9.279,0,0,1-.166,1.559c-.263,1.043.672,1.091.672,1.091,1.452-.078,1.15.3,1.15.3-1.228-.058-1.013.195-1.013.195,1.471.253,1.354.4,1.354.4.078.331-1.062-.029-1.062-.029-.672-.234-.438.02-.438.02.984.633.643.8.643.8-.039-.029-.244-.195-.244-.195-.38-.273-.8-.594-1-.75a3.869,3.869,0,0,0-.594-.361c-.624-.185-1.462-.01-1.354-.146.117-.2,1.15-.3,1.15-.3a4.039,4.039,0,0,0-.019-2.495.886.886,0,0,0-.185.049c-1.6-.049-1.462-1.169-1.442-1.2a3.612,3.612,0,0,1-3.44-3.781c.01-1.2-.351-1.432-.351-1.432s-.195-.107-.331-.653a2.982,2.982,0,0,1-1.4-1.238c-.273-.312-.117-.507.136-.6-2.534-1.257-1.413-3.245-1.413-3.245a2.137,2.137,0,0,1,.2-2.884c2.407-.848,4.2,1.91,4.2,1.91a6.2,6.2,0,0,0,1.774,1.052,45.606,45.606,0,0,1,5.135-1.2,1.163,1.163,0,0,0,.2-.487c.185-1.052.477-1.121.546-1.121a.232.232,0,0,1-.146-.341,6.315,6.315,0,0,1,4.814-4.21c.127-.029.127-.107.049-.322a.408.408,0,0,1-.088-.263.388.388,0,0,1,.614-.136c.244-.4.663,0,.663,0,.331-.195.468.058.5.146a.161.161,0,0,1,.195,0,.093.093,0,0,1,.049.088.036.036,0,0,1,.039.039.906.906,0,0,1-.146.75,1.514,1.514,0,0,0,.468.156A.823.823,0,0,1,695.277,327.454Z" transform="translate(-0.655 -2.423)" fill="#fff"/>
    <path id="Path_829" data-name="Path 829" d="M818.891,331.418a8.283,8.283,0,0,0-10.972-4.356,8.5,8.5,0,0,0-4.288,11.138,8.271,8.271,0,0,0,10.962,4.346A8.5,8.5,0,0,0,818.891,331.418Zm-10.544-3.362a7.425,7.425,0,0,0-3.752,9.715,7.338,7.338,0,0,0,2.2,2.865l-.253.322a7.7,7.7,0,0,1-2.319-3.021,7.844,7.844,0,0,1,3.956-10.261,7.369,7.369,0,0,1,2.339-.624l.039.409A7.1,7.1,0,0,0,808.347,328.056Zm10.544,3.362a8.283,8.283,0,0,0-10.972-4.356,8.5,8.5,0,0,0-4.288,11.138,8.271,8.271,0,0,0,10.962,4.346A8.5,8.5,0,0,0,818.891,331.418Zm-10.544-3.362a7.425,7.425,0,0,0-3.752,9.715,7.338,7.338,0,0,0,2.2,2.865l-.253.322a7.7,7.7,0,0,1-2.319-3.021,7.844,7.844,0,0,1,3.956-10.261,7.369,7.369,0,0,1,2.339-.624l.039.409A7.1,7.1,0,0,0,808.347,328.056Zm10.544,3.362a8.283,8.283,0,0,0-10.972-4.356,8.5,8.5,0,0,0-4.288,11.138,8.271,8.271,0,0,0,10.962,4.346A8.5,8.5,0,0,0,818.891,331.418Zm-10.544-3.362a7.425,7.425,0,0,0-3.752,9.715,7.338,7.338,0,0,0,2.2,2.865l-.253.322a7.7,7.7,0,0,1-2.319-3.021,7.844,7.844,0,0,1,3.956-10.261,7.369,7.369,0,0,1,2.339-.624l.039.409A7.1,7.1,0,0,0,808.347,328.056Zm64.791,3.362a8.283,8.283,0,0,0-10.972-4.356,8.5,8.5,0,0,0-4.287,11.138,8.278,8.278,0,0,0,10.972,4.346A8.5,8.5,0,0,0,873.138,331.418Zm-10.544-3.362a7.425,7.425,0,0,0-3.752,9.715,7.337,7.337,0,0,0,2.2,2.865l-.253.322a7.7,7.7,0,0,1-2.319-3.021,7.844,7.844,0,0,1,3.956-10.261,7.37,7.37,0,0,1,2.339-.624l.039.409A7.1,7.1,0,0,0,862.595,328.056Zm10.544,3.362a8.283,8.283,0,0,0-10.972-4.356,8.5,8.5,0,0,0-4.287,11.138,8.278,8.278,0,0,0,10.972,4.346A8.5,8.5,0,0,0,873.138,331.418Zm-10.544-3.362a7.425,7.425,0,0,0-3.752,9.715,7.337,7.337,0,0,0,2.2,2.865l-.253.322a7.7,7.7,0,0,1-2.319-3.021,7.844,7.844,0,0,1,3.956-10.261,7.37,7.37,0,0,1,2.339-.624l.039.409A7.1,7.1,0,0,0,862.595,328.056Zm-43.7,3.362a8.283,8.283,0,0,0-10.972-4.356,8.5,8.5,0,0,0-4.288,11.138,8.271,8.271,0,0,0,10.962,4.346A8.5,8.5,0,0,0,818.891,331.418Zm-10.544-3.362a7.425,7.425,0,0,0-3.752,9.715,7.338,7.338,0,0,0,2.2,2.865l-.253.322a7.7,7.7,0,0,1-2.319-3.021,7.844,7.844,0,0,1,3.956-10.261,7.369,7.369,0,0,1,2.339-.624l.039.409A7.1,7.1,0,0,0,808.347,328.056Zm10.544,3.362a8.283,8.283,0,0,0-10.972-4.356,8.5,8.5,0,0,0-4.288,11.138,8.271,8.271,0,0,0,10.962,4.346A8.5,8.5,0,0,0,818.891,331.418Zm-10.544-3.362a7.425,7.425,0,0,0-3.752,9.715,7.338,7.338,0,0,0,2.2,2.865l-.253.322a7.7,7.7,0,0,1-2.319-3.021,7.844,7.844,0,0,1,3.956-10.261,7.369,7.369,0,0,1,2.339-.624l.039.409A7.1,7.1,0,0,0,808.347,328.056Zm64.791,3.362a8.283,8.283,0,0,0-10.972-4.356,8.5,8.5,0,0,0-4.287,11.138,8.278,8.278,0,0,0,10.972,4.346A8.5,8.5,0,0,0,873.138,331.418Zm-10.544-3.362a7.425,7.425,0,0,0-3.752,9.715,7.337,7.337,0,0,0,2.2,2.865l-.253.322a7.7,7.7,0,0,1-2.319-3.021,7.844,7.844,0,0,1,3.956-10.261,7.37,7.37,0,0,1,2.339-.624l.039.409A7.1,7.1,0,0,0,862.595,328.056Zm10.544,3.362a8.283,8.283,0,0,0-10.972-4.356,8.5,8.5,0,0,0-4.287,11.138,8.278,8.278,0,0,0,10.972,4.346A8.5,8.5,0,0,0,873.138,331.418Zm-10.544-3.362a7.425,7.425,0,0,0-3.752,9.715,7.337,7.337,0,0,0,2.2,2.865l-.253.322a7.7,7.7,0,0,1-2.319-3.021,7.844,7.844,0,0,1,3.956-10.261,7.37,7.37,0,0,1,2.339-.624l.039.409A7.1,7.1,0,0,0,862.595,328.056Zm-43.7,3.362a8.283,8.283,0,0,0-10.972-4.356,8.5,8.5,0,0,0-4.288,11.138,8.271,8.271,0,0,0,10.962,4.346A8.5,8.5,0,0,0,818.891,331.418Zm-10.544-3.362a7.425,7.425,0,0,0-3.752,9.715,7.338,7.338,0,0,0,2.2,2.865l-.253.322a7.7,7.7,0,0,1-2.319-3.021,7.844,7.844,0,0,1,3.956-10.261,7.369,7.369,0,0,1,2.339-.624l.039.409A7.1,7.1,0,0,0,808.347,328.056Zm10.544,3.362a8.283,8.283,0,0,0-10.972-4.356,8.5,8.5,0,0,0-4.288,11.138,8.271,8.271,0,0,0,10.962,4.346A8.5,8.5,0,0,0,818.891,331.418Zm-10.544-3.362a7.425,7.425,0,0,0-3.752,9.715,7.338,7.338,0,0,0,2.2,2.865l-.253.322a7.7,7.7,0,0,1-2.319-3.021,7.844,7.844,0,0,1,3.956-10.261,7.369,7.369,0,0,1,2.339-.624l.039.409A7.1,7.1,0,0,0,808.347,328.056Zm64.791,3.362a8.283,8.283,0,0,0-10.972-4.356,8.5,8.5,0,0,0-4.287,11.138,8.278,8.278,0,0,0,10.972,4.346A8.5,8.5,0,0,0,873.138,331.418Zm-10.544-3.362a7.425,7.425,0,0,0-3.752,9.715,7.337,7.337,0,0,0,2.2,2.865l-.253.322a7.7,7.7,0,0,1-2.319-3.021,7.844,7.844,0,0,1,3.956-10.261,7.37,7.37,0,0,1,2.339-.624l.039.409A7.1,7.1,0,0,0,862.595,328.056Zm10.544,3.362a8.283,8.283,0,0,0-10.972-4.356,8.5,8.5,0,0,0-4.287,11.138,8.278,8.278,0,0,0,10.972,4.346A8.5,8.5,0,0,0,873.138,331.418Zm-10.544-3.362a7.425,7.425,0,0,0-3.752,9.715,7.337,7.337,0,0,0,2.2,2.865l-.253.322a7.7,7.7,0,0,1-2.319-3.021,7.844,7.844,0,0,1,3.956-10.261,7.37,7.37,0,0,1,2.339-.624l.039.409A7.1,7.1,0,0,0,862.595,328.056Zm-43.7,3.362a8.283,8.283,0,0,0-10.972-4.356,8.5,8.5,0,0,0-4.288,11.138,8.271,8.271,0,0,0,10.962,4.346A8.5,8.5,0,0,0,818.891,331.418Zm-10.544-3.362a7.425,7.425,0,0,0-3.752,9.715,7.338,7.338,0,0,0,2.2,2.865l-.253.322a7.7,7.7,0,0,1-2.319-3.021,7.844,7.844,0,0,1,3.956-10.261,7.369,7.369,0,0,1,2.339-.624l.039.409A7.1,7.1,0,0,0,808.347,328.056Zm10.544,3.362a8.283,8.283,0,0,0-10.972-4.356,8.5,8.5,0,0,0-4.288,11.138,8.271,8.271,0,0,0,10.962,4.346A8.5,8.5,0,0,0,818.891,331.418Zm-10.544-3.362a7.425,7.425,0,0,0-3.752,9.715,7.338,7.338,0,0,0,2.2,2.865l-.253.322a7.7,7.7,0,0,1-2.319-3.021,7.844,7.844,0,0,1,3.956-10.261,7.369,7.369,0,0,1,2.339-.624l.039.409A7.1,7.1,0,0,0,808.347,328.056Zm64.791,3.362a8.283,8.283,0,0,0-10.972-4.356,8.5,8.5,0,0,0-4.287,11.138,8.278,8.278,0,0,0,10.972,4.346A8.5,8.5,0,0,0,873.138,331.418Zm-10.544-3.362a7.425,7.425,0,0,0-3.752,9.715,7.337,7.337,0,0,0,2.2,2.865l-.253.322a7.7,7.7,0,0,1-2.319-3.021,7.844,7.844,0,0,1,3.956-10.261,7.37,7.37,0,0,1,2.339-.624l.039.409A7.1,7.1,0,0,0,862.595,328.056Zm10.544,3.362a8.283,8.283,0,0,0-10.972-4.356,8.5,8.5,0,0,0-4.287,11.138,8.278,8.278,0,0,0,10.972,4.346A8.5,8.5,0,0,0,873.138,331.418Zm-10.544-3.362a7.425,7.425,0,0,0-3.752,9.715,7.337,7.337,0,0,0,2.2,2.865l-.253.322a7.7,7.7,0,0,1-2.319-3.021,7.844,7.844,0,0,1,3.956-10.261,7.37,7.37,0,0,1,2.339-.624l.039.409A7.1,7.1,0,0,0,862.595,328.056Zm-43.7,3.362a8.283,8.283,0,0,0-10.972-4.356,8.5,8.5,0,0,0-4.288,11.138,8.271,8.271,0,0,0,10.962,4.346A8.5,8.5,0,0,0,818.891,331.418Zm-10.544-3.362a7.425,7.425,0,0,0-3.752,9.715,7.338,7.338,0,0,0,2.2,2.865l-.253.322a7.7,7.7,0,0,1-2.319-3.021,7.844,7.844,0,0,1,3.956-10.261,7.369,7.369,0,0,1,2.339-.624l.039.409A7.1,7.1,0,0,0,808.347,328.056Zm10.544,3.362a8.283,8.283,0,0,0-10.972-4.356,8.5,8.5,0,0,0-4.288,11.138,8.271,8.271,0,0,0,10.962,4.346A8.5,8.5,0,0,0,818.891,331.418Zm-10.544-3.362a7.425,7.425,0,0,0-3.752,9.715,7.338,7.338,0,0,0,2.2,2.865l-.253.322a7.7,7.7,0,0,1-2.319-3.021,7.844,7.844,0,0,1,3.956-10.261,7.369,7.369,0,0,1,2.339-.624l.039.409A7.1,7.1,0,0,0,808.347,328.056Zm64.791,3.362a8.283,8.283,0,0,0-10.972-4.356,8.5,8.5,0,0,0-4.287,11.138,8.278,8.278,0,0,0,10.972,4.346A8.5,8.5,0,0,0,873.138,331.418Zm-10.544-3.362a7.425,7.425,0,0,0-3.752,9.715,7.337,7.337,0,0,0,2.2,2.865l-.253.322a7.7,7.7,0,0,1-2.319-3.021,7.844,7.844,0,0,1,3.956-10.261,7.37,7.37,0,0,1,2.339-.624l.039.409A7.1,7.1,0,0,0,862.595,328.056Zm10.544,3.362a8.283,8.283,0,0,0-10.972-4.356,8.5,8.5,0,0,0-4.287,11.138,8.278,8.278,0,0,0,10.972,4.346A8.5,8.5,0,0,0,873.138,331.418Zm-10.544-3.362a7.425,7.425,0,0,0-3.752,9.715,7.337,7.337,0,0,0,2.2,2.865l-.253.322a7.7,7.7,0,0,1-2.319-3.021,7.844,7.844,0,0,1,3.956-10.261,7.37,7.37,0,0,1,2.339-.624l.039.409A7.1,7.1,0,0,0,862.595,328.056Zm-43.7,3.362a8.283,8.283,0,0,0-10.972-4.356,8.5,8.5,0,0,0-4.288,11.138,8.271,8.271,0,0,0,10.962,4.346A8.5,8.5,0,0,0,818.891,331.418Zm-10.544-3.362a7.425,7.425,0,0,0-3.752,9.715,7.338,7.338,0,0,0,2.2,2.865l-.253.322a7.7,7.7,0,0,1-2.319-3.021,7.844,7.844,0,0,1,3.956-10.261,7.369,7.369,0,0,1,2.339-.624l.039.409A7.1,7.1,0,0,0,808.347,328.056Zm10.544,3.362a8.283,8.283,0,0,0-10.972-4.356,8.5,8.5,0,0,0-4.288,11.138,8.271,8.271,0,0,0,10.962,4.346A8.5,8.5,0,0,0,818.891,331.418Zm-10.544-3.362a7.425,7.425,0,0,0-3.752,9.715,7.338,7.338,0,0,0,2.2,2.865l-.253.322a7.7,7.7,0,0,1-2.319-3.021,7.844,7.844,0,0,1,3.956-10.261,7.369,7.369,0,0,1,2.339-.624l.039.409A7.1,7.1,0,0,0,808.347,328.056Zm64.791,3.362a8.283,8.283,0,0,0-10.972-4.356,8.5,8.5,0,0,0-4.287,11.138,8.278,8.278,0,0,0,10.972,4.346A8.5,8.5,0,0,0,873.138,331.418Zm-10.544-3.362a7.425,7.425,0,0,0-3.752,9.715,7.337,7.337,0,0,0,2.2,2.865l-.253.322a7.7,7.7,0,0,1-2.319-3.021,7.844,7.844,0,0,1,3.956-10.261,7.37,7.37,0,0,1,2.339-.624l.039.409A7.1,7.1,0,0,0,862.595,328.056Zm10.544,3.362a8.283,8.283,0,0,0-10.972-4.356,8.5,8.5,0,0,0-4.287,11.138,8.278,8.278,0,0,0,10.972,4.346A8.5,8.5,0,0,0,873.138,331.418Zm-10.544-3.362a7.425,7.425,0,0,0-3.752,9.715,7.337,7.337,0,0,0,2.2,2.865l-.253.322a7.7,7.7,0,0,1-2.319-3.021,7.844,7.844,0,0,1,3.956-10.261,7.37,7.37,0,0,1,2.339-.624l.039.409A7.1,7.1,0,0,0,862.595,328.056Zm-43.7,3.362a8.283,8.283,0,0,0-10.972-4.356,8.5,8.5,0,0,0-4.288,11.138,8.271,8.271,0,0,0,10.962,4.346A8.5,8.5,0,0,0,818.891,331.418Zm-10.544-3.362a7.425,7.425,0,0,0-3.752,9.715,7.338,7.338,0,0,0,2.2,2.865l-.253.322a7.7,7.7,0,0,1-2.319-3.021,7.844,7.844,0,0,1,3.956-10.261,7.369,7.369,0,0,1,2.339-.624l.039.409A7.1,7.1,0,0,0,808.347,328.056Zm10.544,3.362a8.283,8.283,0,0,0-10.972-4.356,8.5,8.5,0,0,0-4.288,11.138,8.271,8.271,0,0,0,10.962,4.346A8.5,8.5,0,0,0,818.891,331.418Zm-10.544-3.362a7.425,7.425,0,0,0-3.752,9.715,7.338,7.338,0,0,0,2.2,2.865l-.253.322a7.7,7.7,0,0,1-2.319-3.021,7.844,7.844,0,0,1,3.956-10.261,7.369,7.369,0,0,1,2.339-.624l.039.409A7.1,7.1,0,0,0,808.347,328.056Zm64.791,3.362a8.283,8.283,0,0,0-10.972-4.356,8.5,8.5,0,0,0-4.287,11.138,8.278,8.278,0,0,0,10.972,4.346A8.5,8.5,0,0,0,873.138,331.418Zm-10.544-3.362a7.425,7.425,0,0,0-3.752,9.715,7.337,7.337,0,0,0,2.2,2.865l-.253.322a7.7,7.7,0,0,1-2.319-3.021,7.844,7.844,0,0,1,3.956-10.261,7.37,7.37,0,0,1,2.339-.624l.039.409A7.1,7.1,0,0,0,862.595,328.056Zm10.544,3.362a8.283,8.283,0,0,0-10.972-4.356,8.5,8.5,0,0,0-4.287,11.138,8.278,8.278,0,0,0,10.972,4.346A8.5,8.5,0,0,0,873.138,331.418Zm-10.544-3.362a7.425,7.425,0,0,0-3.752,9.715,7.337,7.337,0,0,0,2.2,2.865l-.253.322a7.7,7.7,0,0,1-2.319-3.021,7.844,7.844,0,0,1,3.956-10.261,7.37,7.37,0,0,1,2.339-.624l.039.409A7.1,7.1,0,0,0,862.595,328.056Zm-43.7,3.362a8.283,8.283,0,0,0-10.972-4.356,8.5,8.5,0,0,0-4.288,11.138,8.271,8.271,0,0,0,10.962,4.346A8.5,8.5,0,0,0,818.891,331.418Zm-10.544-3.362a7.425,7.425,0,0,0-3.752,9.715,7.338,7.338,0,0,0,2.2,2.865l-.253.322a7.7,7.7,0,0,1-2.319-3.021,7.844,7.844,0,0,1,3.956-10.261,7.369,7.369,0,0,1,2.339-.624l.039.409A7.1,7.1,0,0,0,808.347,328.056Zm10.544,3.362a8.283,8.283,0,0,0-10.972-4.356,8.5,8.5,0,0,0-4.288,11.138,8.271,8.271,0,0,0,10.962,4.346A8.5,8.5,0,0,0,818.891,331.418Zm-10.544-3.362a7.425,7.425,0,0,0-3.752,9.715,7.338,7.338,0,0,0,2.2,2.865l-.253.322a7.7,7.7,0,0,1-2.319-3.021,7.844,7.844,0,0,1,3.956-10.261,7.369,7.369,0,0,1,2.339-.624l.039.409A7.1,7.1,0,0,0,808.347,328.056Zm64.791,3.362a8.283,8.283,0,0,0-10.972-4.356,8.5,8.5,0,0,0-4.287,11.138,8.278,8.278,0,0,0,10.972,4.346A8.5,8.5,0,0,0,873.138,331.418Zm-10.544-3.362a7.425,7.425,0,0,0-3.752,9.715,7.337,7.337,0,0,0,2.2,2.865l-.253.322a7.7,7.7,0,0,1-2.319-3.021,7.844,7.844,0,0,1,3.956-10.261,7.37,7.37,0,0,1,2.339-.624l.039.409A7.1,7.1,0,0,0,862.595,328.056Zm10.544,3.362a8.283,8.283,0,0,0-10.972-4.356,8.5,8.5,0,0,0-4.287,11.138,8.278,8.278,0,0,0,10.972,4.346A8.5,8.5,0,0,0,873.138,331.418Zm-10.544-3.362a7.425,7.425,0,0,0-3.752,9.715,7.337,7.337,0,0,0,2.2,2.865l-.253.322a7.7,7.7,0,0,1-2.319-3.021,7.844,7.844,0,0,1,3.956-10.261,7.37,7.37,0,0,1,2.339-.624l.039.409A7.1,7.1,0,0,0,862.595,328.056Zm-43.7,3.362a8.283,8.283,0,0,0-10.972-4.356,8.5,8.5,0,0,0-4.288,11.138,8.271,8.271,0,0,0,10.962,4.346A8.5,8.5,0,0,0,818.891,331.418Zm-10.544-3.362a7.425,7.425,0,0,0-3.752,9.715,7.338,7.338,0,0,0,2.2,2.865l-.253.322a7.7,7.7,0,0,1-2.319-3.021,7.844,7.844,0,0,1,3.956-10.261,7.369,7.369,0,0,1,2.339-.624l.039.409A7.1,7.1,0,0,0,808.347,328.056Zm10.544,3.362a8.283,8.283,0,0,0-10.972-4.356,8.5,8.5,0,0,0-4.288,11.138,8.271,8.271,0,0,0,10.962,4.346A8.5,8.5,0,0,0,818.891,331.418Zm-10.544-3.362a7.425,7.425,0,0,0-3.752,9.715,7.338,7.338,0,0,0,2.2,2.865l-.253.322a7.7,7.7,0,0,1-2.319-3.021,7.844,7.844,0,0,1,3.956-10.261,7.369,7.369,0,0,1,2.339-.624l.039.409A7.1,7.1,0,0,0,808.347,328.056Zm64.791,3.362a8.283ÐÙê     ÐÙê                     €ÿã             p=ä     8Úê             ðÙê      @      ðÙê             8,331.418Zm-10.544-3.362a7.425,7.425,0,0,0-3.752,9.715,7.337,7.337,0,0,0,2.2,2.865l-.253.322a7.7,7.7,0,0,1-2.319-3.021,7.844,7.844,0,0,1,3.956-10.261,7.37,7.37,0,0,1,2.339-.624l.039.409A7.1,7.1,0,0,0,862.595,328.056Zm10.544,3.362a8.283,8.283,0,0,0-10.972-4.356,8.5,8.5,0,0,0-4.287,11.138,8.278,8.278,0,0,0,10.972,4.346A8.5,8.5,0,0,0,873.138,331.418Zm-10.544-3.362a7.425,7.425,0,0,0-3.752,9.715,7.337,7.337,0,0,0,2.2,2.865l-.253.322a7.7,7.7,0,0,1-2.319-3.021,7.844,7.844,0,0,1,3.956-10.261,7.37,7.37,0,0,1,2.339-.624l.039.409A7.1,7.1,0,0,0,862.595,328.056Zm-43.7,3.362a8.283,8.283,0,0,0-10.972-4.356,8.5,8.5,0,0,0-4.288,11.138,8.271,8.271,0,0,0,10.962,4.346A8.5,8.5,0,0,0,818.891,331.418Zm-10.544-3.362a7.425,7.425,0,0,0-3.752,9.715,7.338,7.338,0,0,0,2.2,2.865l-.253.322a7.7,7.7,0,0,1-2.319-3.021,7.844,7.844,0,0,1,3.956-10.261,7.369,7.369,0,0,1,2.339-.624l.039.409A7.1,7.1,0,0,0,808.347,328.056Zm10.544,3.362a8.283,8.283,0,0,0-10.972-4.356,8.5,8.5,0,0,0-4.288,11.138,8.271,8.271,0,0,0,10.962,4.346A8.5,8.5,0,0,0,818.891,331.418Zm-10.544-3.362a7.425,7.425,0,0,0-3.752,9.715,7.338,7.338,0,0,0,2.2,2.865l-.253.322a7.7,7.7,0,0,1-2.319-3.021,7.844,7.844,0,0,1,3.956-10.261,7.369,7.369,0,0,1,2.339-.624l.039.409A7.1,7.1,0,0,0,808.347,328.056Zm64.791,3.362a8.283,8.283,0,0,0-10.972-4.356,8.5,8.5,0,0,0-4.287,11.138,8.278,8.278,0,0,0,10.972,4.346A8.5,8.5,0,0,0,873.138,331.418Zm-10.544-3.362a7.425,7.425,0,0,0-3.752,9.715,7.337,7.337,0,0,0,2.2,2.865l-.253.322a7.7,7.7,0,0,1-2.319-3.021,7.844,7.844,0,0,1,3.956-10.261,7.37,7.37,0,0,1,2.339-.624l.039.409A7.1,7.1,0,0,0,862.595,328.056Zm10.544,3.362a8.283,8.283,0,0,0-10.972-4.356,8.5,8.5,0,0,0-4.287,11.138,8.278,8.278,0,0,0,10.972,4.346A8.5,8.5,0,0,0,873.138,331.418Zm-10.544-3.362a7.425,7.425,0,0,0-3.752,9.715,7.337,7.337,0,0,0,2.2,2.865l-.253.322a7.7,7.7,0,0,1-2.319-3.021,7.844,7.844,0,0,1,3.956-10.261,7.37,7.37,0,0,1,2.339-.624l.039.409A7.1,7.1,0,0,0,862.595,328.056Zm-43.7,3.362a8.283,8.283,0,0,0-10.972-4.356,8.5,8.5,0,0,0-4.288,11.138,8.271,8.271,0,0,0,10.962,4.346A8.5,8.5,0,0,0,818.891,331.418Zm-10.544-3.362a7.425,7.425,0,0,0-3.752,9.715,7.338,7.338,0,0,0,2.2,2.865l-.253.322a7.7,7.7,0,0,1-2.319-3.021,7.844,7.844,0,0,1,3.956-10.261,7.369,7.369,0,0,1,2.339-.624l.039.409A7.1,7.1,0,0,0,808.347,328.056Zm10.544,3.362a8.283,8.283,0,0,0-10.972-4.356,8.5,8.5,0,0,0-4.288,11.138,8.271,8.271,0,0,0,10.962,4.346A8.5,8.5,0,0,0,818.891,331.418Zm-10.544-3.362a7.425,7.425,0,0,0-3.752,9.715,7.338,7.338,0,0,0,2.2,2.865l-.253.322a7.7,7.7,0,0,1-2.319-3.021,7.844,7.844,0,0,1,3.956-10.261,7.369,7.369,0,0,1,2.339-.624l.039.409A7.1,7.1,0,0,0,808.347,328.056Zm64.791,3.362a8.283,8.283,0,0,0-10.972-4.356,8.5,8.5,0,0,0-4.287,11.138,8.278,8.278,0,0,0,10.972,4.346A8.5,8.5,0,0,0,873.138,331.418Zm-10.544-3.362a7.425,7.425,0,0,0-3.752,9.715,7.337,7.337,0,0,0,2.2,2.865l-.253.322a7.7,7.7,0,0,1-2.319-3.021,7.844,7.844,0,0,1,3.956-10.261,7.37,7.37,0,0,1,2.339-.624l.039.409A7.1,7.1,0,0,0,862.595,328.056Zm10.544,3.362a8.283,8.283,0,0,0-10.972-4.356,8.5,8.5,0,0,0-4.287,11.138,8.278,8.278,0,0,0,10.972,4.346A8.5,8.5,0,0,0,873.138,331.418Zm-10.544-3.362a7.425,7.425,0,0,0-3.752,9.715,7.337,7.337,0,0,0,2.2,2.865l-.253.322a7.7,7.7,0,0,1-2.319-3.021,7.844,7.844,0,0,1,3.956-10.261,7.37,7.37,0,0,1,2.339-.624l.039.409A7.1,7.1,0,0,0,862.595,328.056Zm-43.7,3.362a8.283,8.283,0,0,0-10.972-4.356,8.5,8.5,0,0,0-4.288,11.138,8.271,8.271,0,0,0,10.962,4.346A8.5,8.5,0,0,0,818.891,331.418Zm-10.544-3.362a7.425,7.425,0,0,0-3.752,9.715,7.338,7.338,0,0,0,2.2,2.865l-.253.322a7.7,7.7,0,0,1-2.319-3.021,7.844,7.844,0,0,1,3.956-10.261,7.369,7.369,0,0,1,2.339-.624l.039.409A7.1,7.1,0,0,0,808.347,328.056Zm10.544,3.362a8.283,8.283,0,0,0-10.972-4.356,8.5,8.5,0,0,0-4.288,11.138,8.271,8.271,0,0,0,10.962,4.346A8.5,8.5,0,0,0,818.891,331.418Zm-10.544-3.362a7.425,7.425,0,0,0-3.752,9.715,7.338,7.338,0,0,0,2.2,2.865l-.253.322a7.7,7.7,0,0,1-2.319-3.021,7.844,7.844,0,0,1,3.956-10.261,7.369,7.369,0,0,1,2.339-.624l.039.409A7.1,7.1,0,0,0,808.347,328.056Zm64.791,3.362a8.283,8.283,0,0,0-10.972-4.356,8.5,8.5,0,0,0-4.287,11.138,8.278,8.278,0,0,0,10.972,4.346A8.5,8.5,0,0,0,873.138,331.418Zm-10.544-3.362a7.425,7.425,0,0,0-3.752,9.715,7.337,7.337,0,0,0,2.2,2.865l-.253.322a7.7,7.7,0,0,1-2.319-3.021,7.844,7.844,0,0,1,3.956-10.261,7.37,7.37,0,0,1,2.339-.624l.039.409A7.1,7.1,0,0,0,862.595,328.056Zm10.544,3.362a8.283,8.283,0,0,0-10.972-4.356,8.5,8.5,0,0,0-4.287,11.138,8.278,8.278,0,0,0,10.972,4.346A8.5,8.5,0,0,0,873.138,331.418Zm-10.544-3.362a7.425,7.425,0,0,0-3.752,9.715,7.337,7.337,0,0,0,2.2,2.865l-.253.322a7.7,7.7,0,0,1-2.319-3.021,7.844,7.844,0,0,1,3.956-10.261,7.37,7.37,0,0,1,2.339-.624l.039.409A7.1,7.1,0,0,0,862.595,328.056Zm-43.7,3.362a8.283,8.283,0,0,0-10.972-4.356,8.5,8.5,0,0,0-4.288,11.138,8.271,8.271,0,0,0,10.962,4.346A8.5,8.5,0,0,0,818.891,331.418Zm-10.544-3.362a7.425,7.425,0,0,0-3.752,9.715,7.338,7.338,0,0,0,2.2,2.865l-.253.322a7.7,7.7,0,0,1-2.319-3.021,7.844,7.844,0,0,1,3.956-10.261,7.369,7.369,0,0,1,2.339-.624l.039.409A7.1,7.1,0,0,0,808.347,328.056ZM925.485,307.31H678.795a28.864,28.864,0,0,0-20.629,8.673,29.744,29.744,0,0,0-8.546,20.941,29.4,29.4,0,0,0,29.175,29.6h246.69a29.612,29.612,0,0,0,0-59.217Zm-4.775,13.74.224.351a1.12,1.12,0,0,0-.487,1.3c.273.663,1.354,3.079,2.007,4.521l.429.955-.37.175-.438-.955c-.643-1.452-1.725-3.869-2-4.531A1.514,1.514,0,0,1,920.711,321.05Zm-81.873,1.179c-1.53,1.608-1.462,5.691-1.462,5.73v15.728h-.409V327.958c0-.166-.068-4.278,1.569-6.022Zm-119.477,4.093-.01,6.363h-.409l.01-6.782,10.407.01.565,1.15h2.231v.409h-2.485l-.565-1.15Zm4.823,5.944-.01,6.763h-1.364v-.419h.955v-6.334Zm-39.173,23.621c-8.8-.058-15.844-6.636-15.786-18.388s7.2-21.214,16-21.165c8.78.049,15.844,9.608,15.786,21.35S693.782,355.935,685.012,355.886ZM711.312,321l19.05.01,1.676,5.623h-1.559l-.565-1.16H718.387l-.01,8.039s.653,0,2.124.01a1.451,1.451,0,0,0,1.452-1.53h1.169v2.115l-.01,1.569V337.8h-1.16a1.451,1.451,0,0,0-1.452-1.53h-2.124l-.01,8.049h11.528l.575-1.15,1.559-.01-1.686,5.632-19.05-.01a6.336,6.336,0,0,0,1.929-4.755l.01-8.351.01-1.569v-8.341A6.346,6.346,0,0,0,711.312,321Zm9.364,16.41v.409h-1.325l-.01,5.8h-.409l.01-6.207Zm10.475,12.512h-.146l-17.92-.039v-.409l17.764.039,1.637-5.486.39.127Zm3.956-15.377A14.17,14.17,0,0,1,749.169,320.3a13.973,13.973,0,0,1,12.21,7.25s-4.531,2.68-5.7,3.284a2.2,2.2,0,0,0-.214-2.6,8.749,8.749,0,0,0-6.3-2.689,9,9,0,1,0,8.673,10.8l-8.166.01v-3.206l8.234-.01h5.213c.039.468.068.935.068,1.4a14.038,14.038,0,1,1-28.074.01Zm8.478,4.395-.312.273a7.623,7.623,0,0,1-1.851-5,7.532,7.532,0,0,1,7.454-7.552,7.342,7.342,0,0,1,5.291,2.251l-.292.3a6.853,6.853,0,0,0-5-2.134,7.106,7.106,0,0,0-7.045,7.133A7.215,7.215,0,0,0,743.586,338.94Zm6.129-1.676v-.409l7.152-.01v.419Zm.283,12.6.01-.419a13.972,13.972,0,0,0,13.847-14.032h.409A14.394,14.394,0,0,1,750,349.864Zm16.263-15.318A14.176,14.176,0,0,1,780.322,320.3a13.95,13.95,0,0,1,12.21,7.25s-4.521,2.68-5.7,3.284a2.171,2.171,0,0,0-.214-2.6,8.732,8.732,0,0,0-6.3-2.689,9,9,0,1,0,8.673,10.8l-8.166.01.01-3.206,8.224-.01h5.213a13.532,13.532,0,0,1,.068,1.4,14.038,14.038,0,1,1-28.074.01Zm8.478,4.395-.3.273a7.586,7.586,0,0,1,5.6-12.551,7.375,7.375,0,0,1,5.291,2.251l-.3.3a6.848,6.848,0,0,0-4.989-2.134,7.172,7.172,0,0,0-5.3,11.859Zm6.129-1.676v-.409l7.152-.01v.419Zm.292,12.6v-.419a13.974,13.974,0,0,0,13.857-14.032h.409A14.4,14.4,0,0,1,781.16,349.864Zm17.511-9.462a14.026,14.026,0,0,1,7.084-18.378,13.665,13.665,0,0,1,18.1,7.191,14.029,14.029,0,0,1-7.084,18.368A13.661,13.661,0,0,1,798.671,340.4Zm18.31,8.634a14.963,14.963,0,0,1-5.087,1.267l-.029-.419a14.388,14.388,0,0,0,4.95-1.228,15.017,15.017,0,0,0,7.581-19.645,14.79,14.79,0,0,0-3.722-5.194l.273-.312a15.26,15.26,0,0,1,3.82,5.34A15.431,15.431,0,0,1,816.981,349.036Zm13.779-6.149V327.12s.088-4.18-1.52-5.876h8.536c-1.6,1.7-1.51,5.876-1.51,5.876v15.767a13.508,13.508,0,0,0,.058,1.481l.01.088h11.411l.663-1.471,1.238.029-2.553,5.788h-9.4l-3.4-.039h-5.048C830.847,347.077,830.76,342.887,830.76,342.887Zm17.316,7.133h-16.8V349.6h16.536l2.495-5.662.37.175Zm4.843-9.618A14.034,14.034,0,0,1,860,322.024a13.665,13.665,0,0,1,18.1,7.191,14.02,14.02,0,0,1-7.084,18.368A13.661,13.661,0,0,1,852.918,340.4Zm18.32,8.634a15.017,15.017,0,0,1-5.1,1.267l-.029-.419a14.5,14.5,0,0,0,4.96-1.228,15.022,15.022,0,0,0,7.571-19.645,14.791,14.791,0,0,0-3.722-5.194l.273-.312a15.261,15.261,0,0,1,3.82,5.34A15.435,15.435,0,0,1,871.238,349.036Zm11.723-14.49A14.17,14.17,0,0,1,897.022,320.3a13.973,13.973,0,0,1,12.21,7.25s-4.531,2.68-5.7,3.284a2.205,2.205,0,0,0-.214-2.6,8.749,8.749,0,0,0-6.3-2.689,9,9,0,1,0,8.673,10.8l-8.166.01v-3.206l8.224-.01h5.223q.058.7.058,1.4a14.034,14.034,0,1,1-28.064.01Zm8.478,4.395-.312.273a7.623,7.623,0,0,1-1.851-5,7.532,7.532,0,0,1,7.455-7.552,7.342,7.342,0,0,1,5.291,2.251l-.292.3a6.886,6.886,0,0,0-5-2.134,7.164,7.164,0,0,0-5.291,11.859Zm6.129-1.676v-.409l7.152-.01v.419Zm.283,12.6.01-.419a13.972,13.972,0,0,0,13.847-14.032h.409A14.394,14.394,0,0,1,897.85,349.864ZM914.065,322.2s-.361-.536-2.68-.536v-.546h8.565a1.343,1.343,0,0,0-.555,1.559c.361.867,2.865,6.529,3.206,7.289.341-.75,2.875-6.422,3.235-7.3a1.335,1.335,0,0,0-.555-1.549h8.575l-.01.546c-2.319,0-2.68.536-2.68.536l-5.905,13.223-.019,10.534s.01,2.836,1.657,2.836h-8.673c1.657,0,1.676-2.836,1.676-2.836l.02-10.534Zm20.8.1h-.2c-2.1,0-2.524.458-2.524.458L926.275,335.9l-.01,9.579a4.8,4.8,0,0,0,1.471,3.255,2.438,2.438,0,0,0,1.452.76v.419H920.74v-.419h7.3c-.195-.136-.38-.283-.565-.439a5.223,5.223,0,0,1-1.627-3.576l.039-9.706,5.905-13.223c.088-.136.536-.633,2.67-.663v-.341h.409Zm-61.731,9.121a8.283,8.283,0,0,0-10.972-4.356,8.5,8.5,0,0,0-4.287,11.138,8.278,8.278,0,0,0,10.972,4.346A8.5,8.5,0,0,0,873.138,331.418Zm-10.544-3.362a7.425,7.425,0,0,0-3.752,9.715,7.337,7.337,0,0,0,2.2,2.865l-.253.322a7.7,7.7,0,0,1-2.319-3.021,7.844,7.844,0,0,1,3.956-10.261,7.37,7.37,0,0,1,2.339-.624l.039.409A7.1,7.1,0,0,0,862.595,328.056Zm-43.7,3.362a8.283,8.283,0,0,0-10.972-4.356,8.5,8.5,0,0,0-4.288,11.138,8.271,8.271,0,0,0,10.962,4.346A8.5,8.5,0,0,0,818.891,331.418Zm-10.544-3.362a7.425,7.425,0,0,0-3.752,9.715,7.338,7.338,0,0,0,2.2,2.865l-.253.322a7.7,7.7,0,0,1-2.319-3.021,7.844,7.844,0,0,1,3.956-10.261,7.369,7.369,0,0,1,2.339-.624l.039.409A7.1,7.1,0,0,0,808.347,328.056Zm10.544,3.362a8.283,8.283,0,0,0-10.972-4.356,8.5,8.5,0,0,0-4.288,11.138,8.271,8.271,0,0,0,10.962,4.346A8.5,8.5,0,0,0,818.891,331.418Zm-10.544-3.362a7.425,7.425,0,0,0-3.752,9.715,7.338,7.338,0,0,0,2.2,2.865l-.253.322a7.7,7.7,0,0,1-2.319-3.021,7.844,7.844,0,0,1,3.956-10.261,7.369,7.369,0,0,1,2.339-.624l.039.409A7.1,7.1,0,0,0,808.347,328.056Zm64.791,3.362a8.283,8.283,0,0,0-10.972-4.356,8.5,8.5,0,0,0-4.287,11.138,8.278,8.278,0,0,0,10.972,4.346A8.5,8.5,0,0,0,873.138,331.418Zm-10.544-3.362a7.425,7.425,0,0,0-3.752,9.715,7.337,7.337,0,0,0,2.2,2.865l-.253.322a7.7,7.7,0,0,1-2.319-3.021,7.844,7.844,0,0,1,3.956-10.261,7.37,7.37,0,0,1,2.339-.624l.039.409A7.1,7.1,0,0,0,862.595,328.056Zm10.544,3.362a8.283,8.283,0,0,0-10.972-4.356,8.5,8.5,0,0,0-4.287,11.138,8.278,8.278,0,0,0,10.972,4.346A8.5,8.5,0,0,0,873.138,331.418Zm-10.544-3.362a7.425,7.425,0,0,0-3.752,9.715,7.337,7.337,0,0,0,2.2,2.865l-.253.322a7.7,7.7,0,0,1-2.319-3.021,7.844,7.844,0,0,1,3.956-10.261,7.37,7.37,0,0,1,2.339-.624l.039.409A7.1,7.1,0,0,0,862.595,328.056Zm-43.7,3.362a8.283,8.283,0,0,0-10.972-4.356,8.5,8.5,0,0,0-4.288,11.138,8.271,8.271,0,0,0,10.962,4.346A8.5,8.5,0,0,0,818.891,331.418Zm-10.544-3.362a7.425,7.425,0,0,0-3.752,9.715,7.338,7.338,0,0,0,2.2,2.865l-.253.322a7.7,7.7,0,0,1-2.319-3.021,7.844,7.844,0,0,1,3.956-10.261,7.369,7.369,0,0,1,2.339-.624l.039.409A7.1,7.1,0,0,0,808.347,328.056Zm10.544,3.362a8.283,8.283,0,0,0-10.972-4.356,8.5,8.5,0,0,0-4.288,11.138,8.271,8.271,0,0,0,10.962,4.346A8.5,8.5,0,0,0,818.891,331.418Zm-10.544-3.362a7.425,7.425,0,0,0-3.752,9.715,7.338,7.338,0,0,0,2.2,2.865l-.253.322a7.7,7.7,0,0,1-2.319-3.021,7.844,7.844,0,0,1,3.956-10.261,7.369,7.369,0,0,1,2.339-.624l.039.409A7.1,7.1,0,0,0,808.347,328.056Zm64.791,3.362a8.283,8.283,0,0,0-10.972-4.356,8.5,8.5,0,0,0-4.287,11.138,8.278,8.278,0,0,0,10.972,4.346A8.5,8.5,0,0,0,873.138,331.418Zm-10.544-3.362a7.425,7.425,0,0,0-3.752,9.715,7.337,7.337,0,0,0,2.2,2.865l-.253.322a7.7,7.7,0,0,1-2.319-3.021,7.844,7.844,0,0,1,3.956-10.261,7.37,7.37,0,0,1,2.339-.624l.039.409A7.1,7.1,0,0,0,862.595,328.056Zm10.544,3.362a8.283,8.283,0,0,0-10.972-4.356,8.5,8.5,0,0,0-4.287,11.138,8.278,8.278,0,0,0,10.972,4.346A8.5,8.5,0,0,0,873.138,331.418Zm-10.544-3.362a7.425,7.425,0,0,0-3.752,9.715,7.337,7.337,0,0,0,2.2,2.865l-.253.322a7.7,7.7,0,0,1-2.319-3.021,7.844,7.844,0,0,1,3.956-10.261,7.37,7.37,0,0,1,2.339-.624l.039.409A7.1,7.1,0,0,0,862.595,328.056Zm-43.7,3.362a8.283,8.283,0,0,0-10.972-4.356,8.5,8.5,0,0,0-4.288,11.138,8.271,8.271,0,0,0,10.962,4.346A8.5,8.5,0,0,0,818.891,331.418Zm-10.544-3.362a7.425,7.425,0,0,0-3.752,9.715,7.338,7.338,0,0,0,2.2,2.865l-.253.322a7.7,7.7,0,0,1-2.319-3.021,7.844,7.844,0,0,1,3.956-10.261,7.369,7.369,0,0,1,2.339-.624l.039.409A7.1,7.1,0,0,0,808.347,328.056Zm10.544,3.362a8.283,8.283,0,0,0-10.972-4.356,8.5,8.5,0,0,0-4.288,11.138,8.271,8.271,0,0,0,10.962,4.346A8.5,8.5,0,0,0,818.891,331.418Zm-10.544-3.362a7.425,7.425,0,0,0-3.752,9.715,7.338,7.338,0,0,0,2.2,2.865l-.253.322a7.7,7.7,0,0,1-2.319-3.021,7.844,7.844,0,0,1,3.956-10.261,7.369,7.369,0,0,1,2.339-.624l.039.409A7.1,7.1,0,0,0,808.347,328.056Zm64.791,3.362a8.283,8.283,0,0,0-10.972-4.356,8.5,8.5,0,0,0-4.287,11.138,8.278,8.278,0,0,0,10.972,4.346A8.5,8.5,0,0,0,873.138,331.418Zm-10.544-3.362a7.425,7.425,0,0,0-3.752,9.715,7.337,7.337,0,0,0,2.2,2.865l-.253.322a7.7,7.7,0,0,1-2.319-3.021,7.844,7.844,0,0,1,3.956-10.261,7.37,7.37,0,0,1,2.339-.624l.039.409A7.1,7.1,0,0,0,862.595,328.056Zm10.544,3.362a8.283,8.283,0,0,0-10.972-4.356,8.5,8.5,0,0,0-4.287,11.138,8.278,8.278,0,0,0,10.972,4.346A8.5,8.5,0,0,0,873.138,331.418Zm-10.544-3.362a7.425,7.425,0,0,0-3.752,9.715,7.337,7.337,0,0,0,2.2,2.865l-.253.322a7.7,7.7,0,0,1-2.319-3.021,7.844,7.844,0,0,1,3.956-10.261,7.37,7.37,0,0,1,2.339-.624l.039.409A7.1,7.1,0,0,0,862.595,328.056Zm-43.7,3.362a8.283,8.283,0,0,0-10.972-4.356,8.5,8.5,0,0,0-4.288,11.138,8.271,8.271,0,0,0,10.962,4.346A8.5,8.5,0,0,0,818.891,331.418Zm-10.544-3.362a7.425,7.425,0,0,0-3.752,9.715,7.338,7.338,0,0,0,2.2,2.865l-.253.322a7.7,7.7,0,0,1-2.319-3.021,7.844,7.844,0,0,1,3.956-10.261,7.369,7.369,0,0,1,2.339-.624l.039.409A7.1,7.1,0,0,0,808.347,328.056Zm10.544,3.362a8.283,8.283,0,0,0-10.972-4.356,8.5,8.5,0,0,0-4.288,11.138,8.271,8.271,0,0,0,10.962,4.346A8.5,8.5,0,0,0,818.891,331.418Zm-10.544-3.362a7.425,7.425,0,0,0-3.752,9.715,7.338,7.338,0,0,0,2.2,2.865l-.253.322a7.7,7.7,0,0,1-2.319-3.021,7.844,7.844,0,0,1,3.956-10.261,7.369,7.369,0,0,1,2.339-.624l.039.409A7.1,7.1,0,0,0,808.347,328.056Zm64.791,3.362a8.283,8.283,0,0,0-10.972-4.356,8.5,8.5,0,0,0-4.287,11.138,8.278,8.278,0,0,0,10.972,4.346A8.5,8.5,0,0,0,873.138,331.418Zm-10.544-3.362a7.425,7.425,0,0,0-3.752,9.715,7.337,7.337,0,0,0,2.2,2.865l-.253.322a7.7,7.7,0,0,1-2.319-3.021,7.844,7.844,0,0,1,3.956-10.261,7.37,7.37,0,0,1,2.339-.624l.039.409A7.1,7.1,0,0,0,862.595,328.056Zm10.544,3.362a8.283,8.283,0,0,0-10.972-4.356,8.5,8.5,0,0,0-4.287,11.138,8.278,8.278,0,0,0,10.972,4.346A8.5,8.5,0,0,0,873.138,331.418Zm-10.544-3.362a7.425,7.425,0,0,0-3.752,9.715,7.337,7.337,0,0,0,2.2,2.865l-.253.322a7.7,7.7,0,0,1-2.319-3.021,7.844,7.844,0,0,1,3.956-10.261,7.37,7.37,0,0,1,2.339-.624l.039.409A7.1,7.1,0,0,0,862.595,328.056Zm-43.7,3.362a8.283,8.283,0,0,0-10.972-4.356,8.5,8.5,0,0,0-4.288,11.138,8.271,8.271,0,0,0,10.962,4.346A8.5,8.5,0,0,0,818.891,331.418Zm-10.544-3.362a7.425,7.425,0,0,0-3.752,9.715,7.338,7.338,0,0,0,2.2,2.865l-.253.322a7.7,7.7,0,0,1-2.319-3.021,7.844,7.844,0,0,1,3.956-10.261,7.369,7.369,0,0,1,2.339-.624l.039.409A7.1,7.1,0,0,0,808.347,328.056Zm10.544,3.362a8.283,8.283,0,0,0-10.972-4.356,8.5,8.5,0,0,0-4.288,11.138,8.271,8.271,0,0,0,10.962,4.346A8.5,8.5,0,0,0,818.891,331.418Zm-10.544-3.362a7.425,7.425,0,0,0-3.752,9.715,7.338,7.338,0,0,0,2.2,2.865l-.253.322a7.7,7.7,0,0,1-2.319-3.021,7.844,7.844,0,0,1,3.956-10.261,7.369,7.369,0,0,1,2.339-.624l.039.409A7.1,7.1,0,0,0,808.347,328.056Zm64.791,3.362a8.283,8.283,0,0,0-10.972-4.356,8.5,8.5,0,0,0-4.287,11.138,8.278,8.278,0,0,0,10.972,4.346A8.5,8.5,0,0,0,873.138,331.418Zm-10.544-3.362a7.425,7.425,0,0,0-3.752,9.715,7.337,7.337,0,0,0,2.2,2.865l-.253.322a7.7,7.7,0,0,1-2.319-3.021,7.844,7.844,0,0,1,3.956-10.261,7.37,7.37,0,0,1,2.339-.624l.039.409A7.1,7.1,0,0,0,862.595,328.056Zm10.544,3.362a8.283,8.283,0,0,0-10.972-4.356,8.5,8.5,0,0,0-4.287,11.138,8.278,8.278,0,0,0,10.972,4.346A8.5,8.5,0,0,0,873.138,331.418Zm-10.544-3.362a7.425,7.425,0,0,0-3.752,9.715,7.337,7.337,0,0,0,2.2,2.865l-.253.322a7.7,7.7,0,0,1-2.319-3.021,7.844,7.844,0,0,1,3.956-10.261,7.37,7.37,0,0,1,2.339-.624l.039.409A7.1,7.1,0,0,0,862.595,328.056Zm-43.7,3.362a8.283,8.283,0,0,0-10.972-4.356,8.5,8.5,0,0,0-4.288,11.138,8.271,8.271,0,0,0,10.962,4.346A8.5,8.5,0,0,0,818.891,331.418Zm-10.544-3.362a7.425,7.425,0,0,0-3.752,9.715,7.338,7.338,0,0,0,2.2,2.865l-.253.322a7.7,7.7,0,0,1-2.319-3.021,7.844,7.844,0,0,1,3.956-10.261,7.369,7.369,0,0,1,2.339-.624l.039.409A7.1,7.1,0,0,0,808.347,328.056Zm10.544,3.362a8.283,8.283,0,0,0-10.972-4.356,8.5,8.5,0,0,0-4.288,11.138,8.271,8.271,0,0,0,10.962,4.346A8.5,8.5,0,0,0,818.891,331.418Zm-10.544-3.362a7.425,7.425,0,0,0-3.752,9.715,7.338,7.338,0,0,0,2.2,2.865l-.253.322a7.7,7.7,0,0,1-2.319-3.021,7.844,7.844,0,0,1,3.956-10.261,7.369,7.369,0,0,1,2.339-.624l.039.409A7.1,7.1,0,0,0,808.347,328.056Zm64.791,3.362a8.283,8.283,0,0,0-10.972-4.356,8.5,8.5,0,0,0-4.287,11.138,8.278,8.278,0,0,0,10.972,4.346A8.5,8.5,0,0,0,873.138,331.418Zm-10.544-3.362a7.425,7.425,0,0,0-3.752,9.715,7.337,7.337,0,0,0,2.2,2.865l-.253.322a7.7,7.7,0,0,1-2.319-3.021,7.844,7.844,0,0,1,3.956-10.261,7.37,7.37,0,0,1,2.339-.624l.039.409A7.1,7.1,0,0,0,862.595,328.056Zm10.544,3.362a8.283,8.283,0,0,0-10.972-4.356,8.5,8.5,0,0,0-4.287,11.138,8.278,8.278,0,0,0,10.972,4.346A8.5,8.5,0,0,0,873.138,331.418Zm-10.544-3.362a7.425,7.425,0,0,0-3.752,9.715,7.337,7.337,0,0,0,2.2,2.865l-.253.322a7.7,7.7,0,0,1-2.319-3.021,7.844,7.844,0,0,1,3.956-10.261,7.37,7.37,0,0,1,2.339-.624l.039.409A7.1,7.1,0,0,0,862.595,328.056Zm-43.7,3.362a8.283,8.283,0,0,0-10.972-4.356,8.5,8.5,0,0,0-4.288,11.138,8.271,8.271,0,0,0,10.962,4.346A8.5,8.5,0,0,0,818.891,331.418Zm-10.544-3.362a7.425,7.425,0,0,0-3.752,9.715,7.338,7.338,0,0,0,2.2,2.865l-.253.322a7.7,7.7,0,0,1-2.319-3.021,7.844,7.844,0,0,1,3.956-10.261,7.369,7.369,0,0,1,2.339-.624l.039.409A7.1,7.1,0,0,0,808.347,328.056Zm10.544,3.362a8.283,8.283,0,0,0-10.972-4.356,8.5,8.5,0,0,0-4.288,11.138,8.271,8.271,0,0,0,10.962,4.346A8.5,8.5,0,0,0,818.891,331.418Zm-10.544-3.362a7.425,7.425,0,0,0-3.752,9.715,7.338,7.338,0,0,0,2.2,2.865l-.253.322a7.7,7.7,0,0,1-2.319-3.021,7.844,7.844,0,0,1,3.956-10.261,7.369,7.369,0,0,1,2.339-.624l.039.409A7.1,7.1,0,0,0,808.347,328.056Zm64.791,3.362a8.283,8.283,0,0,0-10.972-4.356,8.5,8.5,0,0,0-4.287,11.138,8.278,8.278,0,0,0,10.972,4.346A8.5,8.5,0,0,0,873.138,331.418Zm-10.544-3.362a7.425,7.425,0,0,0-3.752,9.715,7.337,7.337,0,0,0,2.2,2.865l-.253.322a7.7,7.7,0,0,1-2.319-3.021,7.844,7.844,0,0,1,3.956-10.261,7.37,7.37,0,0,1,2.339-.624l.039.409A7.1,7.1,0,0,0,862.595,328.056Zm10.544,3.362a8.283,8.283,0,0,0-10.972-4.356,8.5,8.5,0,0,0-4.287,11.138,8.278,8.278,0,0,0,10.972,4.346A8.5,8.5,0,0,0,873.138,331.418Zm-10.544-3.362a7.425,7.425,0,0,0-3.752,9.715,7.337,7.337,0,0,0,2.2,2.865l-.253.322a7.7,7.7,0,0,1-2.319-3.021,7.844,7.844,0,0,1,3.956-10.261,7.37,7.37,0,0,1,2.339-.624l.039.409A7.1,7.1,0,0,0,862.595,328.056Zm-43.7,3.362a8.283,8.283,0,0,0-10.972-4.356,8.5,8.5,0,0,0-4.288,11.138,8.271,8.271,0,0,0,10.962,4.346A8.5,8.5,0,0,0,818.891,331.418Zm-10.544-3.362a7.425,7.425,0,0,0-3.752,9.715,7.338,7.338,0,0,0,2.2,2.865l-.253.322a7.7,7.7,0,0,1-2.319-3.021,7.844,7.844,0,0,1,3.956-10.261,7.369,7.369,0,0,1,2.339-.624l.039.409A7.1,7.1,0,0,0,808.347,328.056Zm10.544,3.362a8.283,8.283,0,0,0-10.972-4.356,8.5,8.5,0,0,0-4.288,11.138,8.271,8.271,0,0,0,10.962,4.346A8.5,8.5,0,0,0,818.891,331.418Zm-10.544-3.362a7.425,7.425,0,0,0-3.752,9.715,7.338,7.338,0,0,0,2.2,2.865l-.253.322a7.7,7.7,0,0,1-2.319-3.021,7.844,7.844,0,0,1,3.956-10.261,7.369,7.369,0,0,1,2.339-.624l.039.409A7.1,7.1,0,0,0,808.347,328.056Zm64.791,3.362a8.283,8.283,0,0,0-10.972-4.356,8.5,8.5,0,0,0-4.287,11.138,8.278,8.278,0,0,0,10.972,4.346A8.5,8.5,0,0,0,873.138,331.418Zm-10.544-3.362a7.425,7.425,0,0,0-3.752,9.715,7.337,7.337,0,0,0,2.2,2.865l-.253.322a7.7,7.7,0,0,1-2.319-3.021,7.844,7.844,0,0,1,3.956-10.261,7.37,7.37,0,0,1,2.339-.624l.039.409A7.1,7.1,0,0,0,862.595,328.056Zm10.544,3.362a8.283,8.283,0,0,0-10.972-4.356,8.5,8.5,0,0,0-4.287,11.138,8.278,8.278,0,0,0,10.972,4.346A8.5,8.5,0,0,0,873.138,331.418Zm-10.544-3.362a7.425,7.425,0,0,0-3.752,9.715,7.337,7.337,0,0,0,2.2,2.865l-.253.322a7.7,7.7,0,0,1-2.319-3.021,7.844,7.844,0,0,1,3.956-10.261,7.37,7.37,0,0,1,2.339-.624l.039.409A7.1,7.1,0,0,0,862.595,328.056Zm-43.7,3.362a8.283,8.283,0,0,0-10.972-4.356,8.5,8.5,0,0,0-4.288,11.138,8.271,8.271,0,0,0,10.962,4.346A8.5,8.5,0,0,0,818.891,331.418Zm-10.544-3.362a7.425,7.425,0,0,0-3.752,9.715,7.338,7.338,0,0,0,2.2,2.865l-.253.322a7.7,7.7,0,0,1-2.319-3.021,7.844,7.844,0,0,1,3.956-10.261,7.369,7.369,0,0,1,2.339-.624l.039.409A7.1,7.1,0,0,0,808.347,328.056Zm10.544,3.362a8.283,8.283,0,0,0-10.972-4.356,8.5,8.5,0,0,0-4.288,11.138,8.271,8.271,0,0,0,10.962,4.346A8.5,8.5,0,0,0,818.891,331.418Zm-10.544-3.362a7.425,7.425,0,0,0-3.752,9.715,7.338,7.338,0,0,0,2.2,2.865l-.253.322a7.7,7.7,0,0,1-2.319-3.021,7.844,7.844,0,0,1,3.956-10.261,7.369,7.369,0,0,1,2.339-.624l.039.409A7.1,7.1,0,0,0,808.347,328.056Zm64.791,3.362a8.283,8.283,0,0,0-10.972-4.356,8.5,8.5,0,0,0-4.287,11.138,8.278,8.278,0,0,0,10.972,4.346A8.5,8.5,0,0,0,873.138,331.418Zm-10.544-3.362a7.425,7.425,0,0,0-3.752,9.715,7.337,7.337,0,0,0,2.2,2.865l-.253.322a7.7,7.7,0,0,1-2.319-3.021,7.844,7.844,0,0,1,3.956-10.261,7.37,7.37,0,0,1,2.339-.624l.039.409A7.1,7.1,0,0,0,862.595,328.056Zm10.544,3.362a8.283,8.283,0,0,0-10.972-4.356,8.5,8.5,0,0,0-4.287,11.138,8.278,8.278,0,0,0,10.972,4.346A8.5,8.5,0,0,0,873.138,331.418Zm-10.544-3.362a7.425,7.425,0,0,0-3.752,9.715,7.337,7.337,0,0,0,2.2,2.865l-.253.322a7.7,7.7,0,0,1-2.319-3.021,7.844,7.844,0,0,1,3.956-10.261,7.37,7.37,0,0,1,2.339-.624l.039.409A7.1,7.1,0,0,0,862.595,328.056Zm-43.7,3.362a8.283,8.283,0,0,0-10.972-4.356,8.5,8.5,0,0,0-4.288,11.138,8.271,8.271,0,0,0,10.962,4.346A8.5,8.5,0,0,0,818.891,331.418Zm-10.544-3.362a7.425,7.425,0,0,0-3.752,9.715,7.338,7.338,0,0,0,2.2,2.865l-.253.322a7.7,7.7,0,0,1-2.319-3.021,7.844,7.844,0,0,1,3.956-10.261,7.369,7.369,0,0,1,2.339-.624l.039.409A7.1,7.1,0,0,0,808.347,328.056Zm10.544,3.362a8.283,8.283,0,0,0-10.972-4.356,8.5,8.5,0,0,0-4.288,11.138,8.271,8.271,0,0,0,10.962,4.346A8.5,8.5,0,0,0,818.891,331.418Zm-10.544-3.362a7.425,7.425,0,0,0-3.752,9.715,7.338,7.338,0,0,0,2.2,2.865l-.253.322a7.7,7.7,0,0,1-2.319-3.021,7.844,7.844,0,0,1,3.956-10.261,7.369,7.369,0,0,1,2.339-.624l.039.409A7.1,7.1,0,0,0,808.347,328.056Zm64.791,3.362a8.283,8.283,0,0,0-10.972-4.356,8.5,8.5,0,0,0-4.287,11.138,8.278,8.278,0,0,0,10.972,4.346A8.5,8.5,0,0,0,873.138,331.418Zm-10.544-3.362a7.425,7.425,0,0,0-3.752,9.715,7.337,7.337,0,0,0,2.2,2.865l-.253.322a7.7,7.7,0,0,1-2.319-3.021,7.844,7.844,0,0,1,3.956-10.261,7.37,7.37,0,0,1,2.339-.624l.039.409A7.1,7.1,0,0,0,862.595,328.056Zm10.544,3.362a8.283,8.283,0,0,0-10.972-4.356,8.5,8.5,0,0,0-4.287,11.138,8.278,8.278,0,0,0,10.972,4.346A8.5,8.5,0,0,0,873.138,331.418Zm-10.544-3.362a7.425,7.425,0,0,0-3.752,9.715,7.337,7.337,0,0,0,2.2,2.865l-.253.322a7.7,7.7,0,0,1-2.319-3.021,7.844,7.844,0,0,1,3.956-10.261,7.37,7.37,0,0,1,2.339-.624l.039.409A7.1,7.1,0,0,0,862.595,328.056Zm-43.7,3.362a8.283,8.283,0,0,0-10.972-4.356,8.5,8.5,0,0,0-4.288,11.138,8.271,8.271,0,0,0,10.962,4.346A8.5,8.5,0,0,0,818.891,331.418Zm-10.544-3.362a7.425,7.425,0,0,0-3.752,9.715,7.338,7.338,0,0,0,2.2,2.865l-.253.322a7.7,7.7,0,0,1-2.319-3.021,7.844,7.844,0,0,1,3.956-10.261,7.369,7.369,0,0,1,2.339-.624l.039.409A7.1,7.1,0,0,0,808.347,328.056Zm10.544,3.362a8.283,8.283,0,0,0-10.972-4.356,8.5,8.5,0,0,0-4.288,11.138,8.271,8.271,0,0,0,10.962,4.346A8.5,8.5,0,0,0,818.891,331.418Zm-10.544-3.362a7.425,7.425,0,0,0-3.752,9.715,7.338,7.338,0,0,0,2.2,2.865l-.253.322a7.7,7.7,0,0,1-2.319-3.021,7.844,7.844,0,0,1,3.956-10.261,7.369,7.369,0,0,1,2.339-.624l.039.409A7.1,7.1,0,0,0,808.347,328.056Zm64.791,3.362a8.283,8.283,0,0,0-10.972-4.356,8.5,8.5,0,0,0-4.287,11.138,8.278,8.278,0,0,0,10.972,4.346A8.5,8.5,0,0,0,873.138,331.418Zm-10.544-3.362a7.425,7.425,0,0,0-3.752,9.715,7.337,7.337,0,0,0,2.2,2.865l-.253.322a7.7,7.7,0,0,1-2.319-3.021,7.844,7.844,0,0,1,3.956-10.261,7.37,7.37,0,0,1,2.339-.624l.039.409A7.1,7.1,0,0,0,862.595,328.056Zm10.544,3.362a8.283,8.283,0,0,0-10.972-4.356,8.5,8.5,0,0,0-4.287,11.138,8.278,8.278,0,0,0,10.972,4.346A8.5,8.5,0,0,0,873.138,331.418Zm-10.544-3.362a7.425,7.425,0,0,0-3.752,9.715,7.337,7.337,0,0,0,2.2,2.865l-.253.322a7.7,7.7,0,0,1-2.319-3.021,7.844,7.844,0,0,1,3.956-10.261,7.37,7.37,0,0,1,2.339-.624l.039.409A7.1,7.1,0,0,0,862.595,328.056Zm-43.7,3.362a8.283,8.283,0,0,0-10.972-4.356,8.5,8.5,0,0,0-4.288,11.138,8.271,8.271,0,0,0,10.962,4.346A8.5,8.5,0,0,0,818.891,331.418Zm-10.544-3.362a7.425,7.425,0,0,0-3.752,9.715,7.338,7.338,0,0,0,2.2,2.865l-.253.322a7.7,7.7,0,0,1-2.319-3.021,7.844,7.844,0,0,1,3.956-10.261,7.369,7.369,0,0,1,2.339-.624l.039.409A7.1,7.1,0,0,0,808.347,328.056Zm10.544,3.362a8.283,8.283,0,0,0-10.972-4.356,8.5,8.5,0,0,0-4.288,11.138,8.271,8.271,0,0,0,10.962,4.346A8.5,8.5,0,0,0,818.891,331.418Zm-10.544-3.362a7.425,7.425,0,0,0-3.752,9.715,7.338,7.338,0,0,0,2.2,2.865l-.253.322a7.7,7.7,0,0,1-2.319-3.021,7.844,7.844,0,0,1,3.956-10.261,7.369,7.369,0,0,1,2.339-.624l.039.409A7.1,7.1,0,0,0,808.347,328.056Zm10.544,3.362a8.283,8.283,0,0,0-10.972-4.356,8.5,8.5,0,0,0-4.288,11.138,8.271,8.271,0,0,0,10.962,4.346A8.5,8.5,0,0,0,818.891,331.418Zm-10.544-3.362a7.425,7.425,0,0,0-3.752,9.715,7.338,7.338,0,0,0,2.2,2.865l-.253.322a7.7,7.7,0,0,1-2.319-3.021,7.844,7.844,0,0,1,3.956-10.261,7.369,7.369,0,0,1,2.339-.624l.039.409A7.1,7.1,0,0,0,808.347,328.056Z" transform="translate(0 -1.957)" fill="#fff"/>
  </g>
</svg>
