<svg xmlns="http://www.w3.org/2000/svg" width="17.347" height="19.224" viewBox="0 0 17.347 19.224">
  <g id="icon-headphone" transform="translate(-124 -229.89)">
    <path id="Path_952" data-name="Path 952" d="M141.347,240.4a3.573,3.573,0,0,0-2.7-3.461v-1.064a5.979,5.979,0,1,0-11.959,0v1.069a3.567,3.567,0,0,0,.882,7.023h1.2a.563.563,0,0,0,.563-.563V237.4a.563.563,0,0,0-.563-.563h-.957v-.958a4.853,4.853,0,1,1,9.706,0v.958h-.939a.563.563,0,0,0-.563.563v6.008a.563.563,0,0,0,.563.563h.939v.852a1.91,1.91,0,0,1-1.908,1.908h-.67a1.767,1.767,0,0,0-1.666-1.183h-1.2a1.784,1.784,0,0,0,0,3.567h1.2a1.747,1.747,0,0,0,1.686-1.258h.649a3.038,3.038,0,0,0,3.034-3.034v-.958a3.573,3.573,0,0,0,2.7-3.461Zm-13.141,2.441h-.638a2.441,2.441,0,0,1,0-4.881h.638Zm5.069,5.144h-1.2a.657.657,0,0,1,0-1.314h1.2a.657.657,0,0,1,0,1.314Zm4.506-5.144h-.638v-4.881h.638a2.441,2.441,0,1,1,0,4.881Zm0,0" fill="#211e1f"/>
  </g>
</svg>
