<svg xmlns="http://www.w3.org/2000/svg" width="15.08" height="16" viewBox="0 0 15.08 16">
  <g id="icon-modern-trade" transform="translate(-14.716)">
    <path fill="#FFC416" id="Path_1027" data-name="Path 1027" d="M29.327,15.062H28.091V.469A.469.469,0,0,0,27.622,0H16.89a.469.469,0,0,0-.469.469V15.062H15.185a.469.469,0,1,0,0,.937H29.327a.469.469,0,1,0,0-.937Zm-8.669,0v-3.2h3.2v3.2Zm4.133,0V11.4a.469.469,0,0,0-.469-.469H20.189a.469.469,0,0,0-.469.469v3.664H17.359V.937h9.794V15.062Z"/>
    <path fill="#FFC416" id="Path_1028" data-name="Path 1028" d="M138.006,66.309h-2.3a.469.469,0,0,0-.469.469v2.3a.469.469,0,0,0,.469.469h2.3a.469.469,0,0,0,.469-.469v-2.3a.469.469,0,0,0-.469-.469Zm-.469,2.3h-1.36v-1.36h1.36Z" transform="translate(-116.758 -64.237)"/>
    <path fill="#FFC416" id="Path_1029" data-name="Path 1029" d="M276.018,66.309h-2.3a.469.469,0,0,0-.469.469v2.3a.469.469,0,0,0,.469.469h2.3a.469.469,0,0,0,.469-.469v-2.3A.469.469,0,0,0,276.018,66.309Zm-.469,2.3h-1.36v-1.36h1.36Z" transform="translate(-250.457 -64.237)"/>
    <path fill="#FFC416" id="Path_1030" data-name="Path 1030" d="M138.006,205.954h-2.3a.469.469,0,0,0-.469.469v2.3a.469.469,0,0,0,.469.469h2.3a.469.469,0,0,0,.469-.469v-2.3a.469.469,0,0,0-.469-.469Zm-.469,2.3h-1.36v-1.36h1.36Z" transform="translate(-116.758 -199.518)"/>
    <path fill="#FFC416" id="Path_1031" data-name="Path 1031" d="M276.018,205.954h-2.3a.469.469,0,0,0-.469.469v2.3a.469.469,0,0,0,.469.469h2.3a.469.469,0,0,0,.469-.469v-2.3a.469.469,0,0,0-.469-.469Zm-.469,2.3h-1.36v-1.36h1.36Z" transform="translate(-250.457 -199.518)"/>
  </g>
</svg>
