<svg xmlns="http://www.w3.org/2000/svg" width="403.425" height="237.908" viewBox="0 0 403.425 237.908">
  <g id="ico_hen_green_line" transform="translate(32.645 -553.072)">
    <g id="Group_1230" data-name="Group 1230" transform="matrix(0.998, 0.07, -0.07, 0.998, -23.049, 637.229)" opacity="0.196">
      <path id="Path_584" data-name="Path 584" d="M208.736,887.8c-9.16,0-16.379-2.392-21.5-7.136a24.574,24.574,0,0,1-7.6-16.753,1.935,1.935,0,0,1,3.871-.005h0a20.989,20.989,0,0,0,6.4,13.956c4.829,4.445,12.013,6.463,21.365,6.005a15.562,15.562,0,0,0-.839-6.328,1.936,1.936,0,0,1,2.24-2.6c.117.027,11.535,2.517,24.154-5.268-2.616-1.194-7.447-2.672-14.795-2.211a1.935,1.935,0,1,1-.242-3.863c13.53-.848,19.682,4.277,19.937,4.5a1.936,1.936,0,0,1-.126,3.039c-11.081,8-21.668,8.408-26.731,8.007a22.572,22.572,0,0,1,.076,6.879,1.935,1.935,0,0,1-1.76,1.611Q210.889,887.8,208.736,887.8ZM183.5,863.906h0Z" transform="translate(-139.984 -795.495)" fill="#4cb148" opacity="0.4"/>
      <g id="Group_1229" data-name="Group 1229" opacity="0.4">
        <g id="Group_1228" data-name="Group 1228">
          <path id="Path_585" data-name="Path 585" d="M195.6,913.665a4.671,4.671,0,0,1-4.645-4.146,11.225,11.225,0,0,1,1.147-6.355,1.756,1.756,0,0,0-.52.512,4.676,4.676,0,0,1-8.131-4.621c3.2-5.631,10.947-6.889,17.778-8l.963-.156c-.053-1.819-.282-4.36-.645-7.1-14.46-1.072-32.339-10.37-38.256-19.971-11.272-3.36-18.333-10.393-21-20.913-1.706-6.741-1.149-13.459-.409-18.349a8.154,8.154,0,0,1-4.224-4.824,13.485,13.485,0,0,1-.43-1.74,4.674,4.674,0,0,1-5.244-3.359,13.943,13.943,0,0,1,.019-6.427,8.546,8.546,0,0,1-3.224-4.449c-1.211-4,.775-8.1,3.281-10.393a10.269,10.269,0,0,1,2.466-1.685,10.167,10.167,0,0,1,3.527-6.51,11.6,11.6,0,0,1,11.695-1.577,9.394,9.394,0,0,1,3.258,2.334,9.448,9.448,0,0,1,6.378,2.82,7.392,7.392,0,0,1,2.041,5.573c5.369,2.919,8.33,8.568,10.968,13.6,2.187,4.165,4.449,8.473,7.972,11.866,2.8,2.7,5.706,3.8,8.63,3.275a10.858,10.858,0,0,0,6.2-3.774,34.289,34.289,0,0,1-2.95-9.505c-1.006-6.664-.23-16.423,9.183-25.066,10.932-10.043,21.467-9.179,26.774-7.768,6.256,1.667,11.671,5.763,14.386,10.819,9.7,1.686,16.4,5.7,18.439,11.091h0a8.224,8.224,0,0,1-1.462,8.521,10.456,10.456,0,0,1-5.4,3.1,39.768,39.768,0,0,1,3.27,19c-.77,6.564-4.183,8.355-6.149,8.84a7.385,7.385,0,0,1-4.75-.43c-1.237,5.692-4.6,10.006-9.046,11.346a8.679,8.679,0,0,1-2.222.362,68.1,68.1,0,0,1-3.788,12.083c-2.124,5.092-6.621,13.969-13.374,17.809-.473,3.149-.965,7.044-1.215,9.982a16.93,16.93,0,0,1,3.182.334,4.677,4.677,0,0,1-1.982,9.142c-1.433-.311-4.969-.028-8.3.291q-.539.375-1.11.765c-3.053,2.1-8.718,6-8.438,8.461a4.681,4.681,0,0,1-3.227,4.984,4.843,4.843,0,0,1-.855.187A4.767,4.767,0,0,1,195.6,913.665Zm1.912-16.342a1.936,1.936,0,0,1,1.335,3.336c-3.081,2.939-4.367,5.614-4.047,8.42a.8.8,0,0,0,.3.542.831.831,0,0,0,.592.17.905.905,0,0,0,.151-.033.8.8,0,0,0,.556-.856c-.543-4.767,5.347-8.823,10.079-12.083.536-.366,1.031-.708,1.5-1.042a1.933,1.933,0,0,1,.931-.345c5.044-.488,8.131-.676,10-.269a.8.8,0,0,0,.959-.623.8.8,0,0,0-.617-.952,18.393,18.393,0,0,0-4.366-.229,1.934,1.934,0,0,1-2-2.025c.156-3.315.895-9.252,1.545-13.4a1.934,1.934,0,0,1,1.068-1.442c6.119-2.965,10.4-11.487,12.412-16.3a61.488,61.488,0,0,0,3.867-12.977,1.935,1.935,0,0,1,2.318-1.576,4.632,4.632,0,0,0,2.284-.108c3.589-1.083,6.3-5.472,6.739-10.92a1.935,1.935,0,0,1,3.111-1.376c1.558,1.2,2.907,1.636,4.125,1.332,2.207-.544,2.98-3.309,3.24-5.533a35.537,35.537,0,0,0-4.032-19.087,1.935,1.935,0,0,1,1.545-2.887c2.5-.179,4.43-.953,5.567-2.239a4.306,4.306,0,0,0,.739-4.582c-1.579-4.17-7.711-7.459-16.4-8.8a1.937,1.937,0,0,1-1.463-1.1c-2.054-4.466-6.78-8.158-12.333-9.637-4.541-1.206-13.589-1.917-23.161,6.878-8.158,7.493-8.84,15.9-7.973,21.638a30.38,30.38,0,0,0,3.1,9.378,1.936,1.936,0,0,1-.1,1.976,15,15,0,0,1-9.384,6.312c-4.222.763-8.261-.682-12.008-4.3-3.972-3.826-6.382-8.416-8.713-12.854-2.679-5.109-5.449-10.39-10.434-12.5a1.935,1.935,0,0,1-1.112-2.3,3.6,3.6,0,0,0-.857-3.526,5.653,5.653,0,0,0-4.358-1.6,1.934,1.934,0,0,1-1.727-.838,5.3,5.3,0,0,0-2.279-1.822,7.7,7.7,0,0,0-7.659,1,6.38,6.38,0,0,0-2.244,4.933,1.935,1.935,0,0,1-1.334,1.791,6.261,6.261,0,0,0-2.286,1.358c-1.559,1.427-2.909,4.043-2.189,6.42a4.823,4.823,0,0,0,2.6,2.924,1.936,1.936,0,0,1,.994,2.251c-.044.157-.088.327-.132.5a10.809,10.809,0,0,0-.24,5.283.8.8,0,0,0,1.02.549c.358-.113.883-.307,1.517-.562a1.935,1.935,0,0,1,2.655,1.852,9.287,9.287,0,0,0,.441,3.127,4.549,4.549,0,0,0,3.24,2.916,1.935,1.935,0,0,1,1.36,2.179c-.78,4.612-1.618,11.526.1,18.3,2.355,9.31,8.761,15.486,19.042,18.354a1.936,1.936,0,0,1,1.173.927c5.011,9.055,23.358,18.351,37.039,18.771a1.935,1.935,0,0,1,1.856,1.653,66.269,66.269,0,0,1,.893,10.975,1.935,1.935,0,0,1-1.6,1.8c-.805.14-1.674.281-2.57.426-6,.975-12.774,2.076-15.06,6.1a.8.8,0,1,0,1.4.791c1.119-1.967,3.862-3.323,8.89-4.393A1.956,1.956,0,0,1,197.511,897.323Z" transform="translate(-128.419 -776.105)" fill="#4cb148"/>
        </g>
      </g>
    </g>
    <path id="Path_608" data-name="Path 608" d="M-8111.406-6844.3c20.234,194.553-184.831,171.053-217.954,231.771" transform="translate(8478.311 7400.12)" fill="none" stroke="#dcdcdc" stroke-linecap="round" stroke-width="5" stroke-dasharray="1 12"/>
  </g>
</svg>
