<svg xmlns="http://www.w3.org/2000/svg" xmlns:xlink="http://www.w3.org/1999/xlink" width="86.501" height="82.981" viewBox="0 0 86.501 82.981">
  <defs>
    <style>
      .cls-1 {
        fill: #ffc416;
        opacity: 0.35;
      }

      .cls-2 {
        filter: url(#img_ready_to_cook);
      }
    </style>
    <filter id="img_ready_to_cook" x="0" y="0" width="86.501" height="82.981" filterUnits="userSpaceOnUse">
      <feOffset dx="-2.835" input="SourceAlpha"/>
      <feGaussianBlur stdDeviation="2.835" result="blur"/>
      <feFlood flood-color="#221f1f" flood-opacity="0.039"/>
      <feComposite operator="in" in2="blur"/>
      <feComposite in="SourceGraphic"/>
    </filter>
  </defs>
  <g class="cls-2" transform="matrix(1, 0, 0, 1, 0, 0)">
    <path id="img_ready_to_cook-2" data-name="img_ready_to_cook" class="cls-1" d="M886.08,54.089c-.006,8.709-.137,18.719-.178,33.993H849.96a44.013,44.013,0,0,1-23.424-7.343C820,75.553,816.591,66.767,816.591,57.2V46.584A23.621,23.621,0,0,1,832.386,24.2,38.394,38.394,0,0,1,841.2,22.36c3.725-.083,7.23-.137,10.581-.184l2.852-.036c.962-.012,1.913-.018,2.863-.03a28.363,28.363,0,0,1,28.587,28.26v.285C886.086,51.784,886.086,52.925,886.08,54.089Z" transform="translate(-805.25 -13.61)"/>
  </g>
</svg>
