<svg xmlns="http://www.w3.org/2000/svg" width="17.749" height="17.749" viewBox="0 0 17.749 17.749">
  <g id="ico_time" transform="translate(0 0)">
    <path id="Path_920" data-name="Path 920" d="M-68.956,623.353a8.885,8.885,0,0,0-8.875,8.875,8.885,8.885,0,0,0,8.875,8.875,8.885,8.885,0,0,0,8.875-8.875A8.885,8.885,0,0,0-68.956,623.353Zm0,16.535a7.67,7.67,0,0,1-7.661-7.661,7.67,7.67,0,0,1,7.661-7.661,7.67,7.67,0,0,1,7.661,7.661A7.67,7.67,0,0,1-68.956,639.888Z" transform="translate(77.831 -623.353)" fill="#211e1f"/>
    <path id="Path_921" data-name="Path 921" d="M86.864,677.541H85.65v6.474l3.829,2.346.634-1.035-3.25-1.991Z" transform="translate(-77.382 -674.801)" fill="#211e1f"/>
  </g>
</svg>
