<svg xmlns="http://www.w3.org/2000/svg" width="274.956" height="566.017" viewBox="0 0 274.956 566.017">
  <g id="ico_deco_two_egg_yellow" transform="translate(66.927 206.907)">
    <g id="Group_1241" data-name="Group 1241" transform="translate(50.238 218.782) rotate(68)" opacity="0.196">
      <g id="Group_1240" data-name="Group 1240">
        <g id="Group_1238" data-name="Group 1238">
          <path id="Path_590" data-name="Path 590" d="M30.846,486.881h-.259A36.936,36.936,0,0,1,4.363,475.828c-7.1-7.195-13.983-19.862-17.54-32.272a59.369,59.369,0,0,1-2.529-16.185c0-7.8,2.171-14.077,6.451-18.3,4.327-4.269,10.8-6.393,18.852-6.2a78.962,78.962,0,0,1,4.6-23.333c3.716-9.729,9.357-16.013,16.314-18.174,9.311-2.893,20.768,1.656,32.26,12.807,9.265,8.989,17.188,21.034,20.184,30.686a37.628,37.628,0,0,1-9.482,37.568,36.733,36.733,0,0,1-5.576,4.516q.106,1.416.106,2.824a37.124,37.124,0,0,1-37.161,37.116ZM28.13,482.51q1.234.1,2.486.107h.229a32.858,32.858,0,0,0,32.9-32.861,33.6,33.6,0,0,0-.2-3.621l-.736-4.254a32.815,32.815,0,0,0-8.533-15.3c-6.634-6.723-18.5-13.352-30.226-16.886a65.164,65.164,0,0,0-8.653-2.01l-3.961-.459c-7.771-.562-13.892,1.123-17.7,4.877-3.453,3.408-5.2,8.62-5.2,15.213a55.418,55.418,0,0,0,2.383,15.064C-5.7,454.156.764,466.109,7.4,472.833h0l.147.148A32.66,32.66,0,0,0,28.13,482.51ZM13.848,403.216l2.126.247a69.515,69.515,0,0,1,9.306,2.152c12.361,3.725,24.935,10.779,32.032,17.974a37.08,37.08,0,0,1,9.658,17.361l.028.135.2,1.14a32.467,32.467,0,0,0,3.287-2.835,33.324,33.324,0,0,0,8.4-33.268c-2.8-9.021-10.29-20.361-19.081-28.891-10.319-10.011-20.273-14.2-28.026-11.794-5.662,1.758-10.364,7.161-13.6,15.624A74.67,74.67,0,0,0,13.848,403.216Z" transform="translate(15.706 -360.515)" fill="#fff"/>
        </g>
        <g id="Group_1239" data-name="Group 1239" transform="translate(21.625 63.29)">
          <circle id="Ellipse_147" data-name="Ellipse 147" cx="16.766" cy="16.766" r="16.766" transform="matrix(0.525, -0.851, 0.851, 0.525, 0, 28.542)" fill="#fff"/>
          <path id="Path_591" data-name="Path 591" d="M33.406,477.426a18.924,18.924,0,1,1,4.4-.517A19.04,19.04,0,0,1,33.406,477.426Zm.036-33.54A14.637,14.637,0,0,0,19.2,461.9h0a14.634,14.634,0,1,0,14.239-18.013Z" transform="translate(-10.372 -435.452)" fill="#fff"/>
        </g>
      </g>
    </g>
    <path id="Path_594" data-name="Path 594" d="M183.324,128.36c-14.254,0-28.56-10.258-34.847-26.418-7.845-20.159-.286-41.983,16.848-48.649,8.367-3.254,17.708-2.459,26.3,2.239a42.783,42.783,0,0,1,19,22.229,42.777,42.777,0,0,1,1.024,29.221c-3.16,9.274-9.507,16.174-17.872,19.429A28.709,28.709,0,0,1,183.324,128.36Zm-7.481-72.77a24.66,24.66,0,0,0-8.972,1.677c-14.943,5.815-21.412,25.163-14.421,43.13s24.836,27.855,39.779,22.04c7.173-2.79,12.636-8.767,15.383-16.829a38.511,38.511,0,0,0-.962-26.3h0a38.509,38.509,0,0,0-17.067-20.033A28.656,28.656,0,0,0,175.843,55.59Z" transform="translate(-5.717 -258.229)" fill="#fff" opacity="0.196"/>
  </g>
</svg>
