<svg xmlns="http://www.w3.org/2000/svg" width="941.795" height="778.507" viewBox="0 0 941.795 778.507"><g data-name="ico_deco_our_story_01"><path data-name="Path 584" d="M71.748 467.123c-9.142-.641-16.179-3.534-20.957-8.627a24.585 24.585 0 01-6.412-17.251 1.936 1.936 0 013.863.266 20.998 20.998 0 005.41 14.376c4.509 4.774 11.537 7.29 20.902 7.488a15.569 15.569 0 00-.394-6.374 1.937 1.937 0 012.418-2.438c.114.035 11.335 3.32 24.474-3.566-2.527-1.375-7.245-3.188-14.61-3.243a1.936 1.936 0 11.028-3.872c13.563.101 19.343 5.646 19.582 5.887a1.937 1.937 0 01-.338 3.024c-11.619 7.208-22.213 6.874-27.238 6.12a22.582 22.582 0 01-.406 6.87 1.936 1.936 0 01-1.87 1.485q-2.303.006-4.452-.145zM48.235 441.51z" fill="#ffc416"/><g data-name="Group 1229"><g data-name="Group 1228"><path data-name="Path 585" d="M67.012 512.178a4.673 4.673 0 01-4.345-4.463 11.23 11.23 0 011.59-6.262 1.757 1.757 0 00-.555.474 4.678 4.678 0 01-7.792-5.18c3.588-5.396 11.408-6.11 18.303-6.74l.972-.088c.074-1.82.024-4.371-.147-7.131-14.356-2.082-31.548-12.613-36.781-22.61-11.015-4.142-17.57-11.655-19.494-22.34-1.231-6.848-.205-13.513.876-18.342a8.158 8.158 0 01-3.878-5.11 13.491 13.491 0 01-.307-1.766 4.676 4.676 0 01-4.999-3.72 13.95 13.95 0 01.47-6.412 8.55 8.55 0 01-2.907-4.666c-.929-4.077 1.34-8.03 4.002-10.143a10.274 10.274 0 012.579-1.509 10.172 10.172 0 013.976-6.25 11.605 11.605 0 0111.782-.755 9.398 9.398 0 013.088 2.557 9.452 9.452 0 016.167 3.261 7.395 7.395 0 011.647 5.705c5.154 3.289 7.714 9.134 9.994 14.34 1.891 4.31 3.847 8.768 7.126 12.4 2.605 2.891 5.428 4.193 8.383 3.873a10.863 10.863 0 006.452-3.332 34.304 34.304 0 01-2.279-9.693c-.537-6.72.92-16.406 10.92-24.373 11.613-9.257 22.066-7.658 27.264-5.878 6.127 2.102 11.244 6.569 13.6 11.804 9.562 2.362 15.968 6.837 17.625 12.36a8.228 8.228 0 01-2.055 8.402 10.46 10.46 0 01-5.606 2.715 39.786 39.786 0 011.933 19.191c-1.228 6.497-4.76 8.046-6.755 8.392a7.388 7.388 0 01-4.71-.761c-1.634 5.594-5.292 9.664-9.823 10.69a8.683 8.683 0 01-2.243.205 68.13 68.13 0 01-4.626 11.794c-2.476 4.933-7.586 13.478-14.594 16.837-.692 3.11-1.456 6.963-1.911 9.877a16.938 16.938 0 013.152.556 4.68 4.68 0 01-2.618 8.985c-1.408-.41-4.957-.375-8.304-.29q-.564.336-1.161.686c-3.194 1.882-9.12 5.377-9.013 7.853a4.683 4.683 0 01-3.57 4.748 4.845 4.845 0 01-.866.127 4.77 4.77 0 01-.562-.018zm3.053-16.176a1.937 1.937 0 011.098 3.423c-3.28 2.717-4.75 5.297-4.628 8.12a.8.8 0 00.262.562.831.831 0 00.578.21.905.905 0 00.153-.022.8.8 0 00.615-.815c-.208-4.795 5.954-8.431 10.905-11.353.56-.328 1.078-.635 1.57-.935a1.934 1.934 0 01.953-.28c5.068-.133 8.162-.105 9.999.432a.8.8 0 001-.554.8.8 0 00-.548-.994 18.401 18.401 0 00-4.342-.534 1.935 1.935 0 01-1.854-2.16c.388-3.298 1.54-9.172 2.48-13.266a1.935 1.935 0 011.167-1.364c6.314-2.531 11.183-10.736 13.528-15.399a61.516 61.516 0 004.768-12.68 1.936 1.936 0 012.423-1.41 4.634 4.634 0 002.287.051c3.658-.83 6.67-5.02 7.49-10.426a1.936 1.936 0 013.201-1.156c1.471 1.307 2.787 1.837 4.024 1.619 2.24-.389 3.205-3.094 3.62-5.296a35.553 35.553 0 00-2.687-19.33 1.936 1.936 0 011.744-2.774c2.507-.003 4.488-.64 5.712-1.845a4.308 4.308 0 001.059-4.52c-1.284-4.273-7.174-7.985-15.752-9.931a1.938 1.938 0 01-1.383-1.2c-1.737-4.601-6.195-8.617-11.633-10.481-4.448-1.522-13.428-2.865-23.597 5.243-8.666 6.907-9.935 15.249-9.471 21.036a30.394 30.394 0 002.437 9.576 1.937 1.937 0 01-.238 1.966 15.007 15.007 0 01-9.807 5.642c-4.267.466-8.197-1.259-11.683-5.132-3.696-4.096-5.78-8.846-7.796-13.438-2.316-5.286-4.71-10.75-9.538-13.205a1.936 1.936 0 01-.949-2.374 3.602 3.602 0 00-.608-3.579 5.656 5.656 0 00-4.238-1.902 1.935 1.935 0 01-1.664-.957 5.302 5.302 0 00-2.147-1.978 7.703 7.703 0 00-7.714.462 6.383 6.383 0 00-2.585 4.766 1.936 1.936 0 01-1.457 1.694 6.264 6.264 0 00-2.376 1.196c-1.656 1.315-3.186 3.83-2.634 6.254a4.825 4.825 0 002.39 3.1 1.937 1.937 0 01.835 2.316c-.055.153-.111.32-.167.49a10.814 10.814 0 00-.61 5.255.8.8 0 00.98.62c.365-.088.903-.245 1.553-.455a1.936 1.936 0 012.52 2.034 9.291 9.291 0 00.222 3.152 4.551 4.551 0 003.029 3.136 1.936 1.936 0 011.205 2.27c-1.102 4.549-2.422 11.39-1.181 18.27 1.698 9.457 7.659 16.069 17.719 19.651a1.937 1.937 0 011.105 1.007c4.368 9.388 22.027 19.95 35.651 21.326a1.936 1.936 0 011.737 1.78 66.299 66.299 0 01.123 11.016 1.936 1.936 0 01-1.723 1.684c-.813.083-1.69.163-2.595.245-6.056.553-12.893 1.178-15.456 5.034a.804.804 0 101.341.887c1.255-1.884 4.087-3.046 9.18-3.762a1.957 1.957 0 01.397-.018z" fill="#ffc416"/></g></g></g><g data-name="Group 1244"><g data-name="Group 1242"><path data-name="Path 592" d="M851.579 778.507h-.259a36.94 36.94 0 01-26.223-11.054c-7.1-7.195-13.983-19.862-17.54-32.272a59.374 59.374 0 01-2.529-16.185c0-7.8 2.171-14.078 6.451-18.3 4.327-4.27 10.812-6.407 18.852-6.2a78.952 78.952 0 014.6-23.333c3.716-9.729 9.357-16.013 16.314-18.175 9.312-2.889 20.768 1.657 32.259 12.808 9.265 8.988 17.188 21.033 20.185 30.686a37.628 37.628 0 01-9.482 37.568 36.775 36.775 0 01-5.576 4.516q.106 1.416.106 2.824a37.126 37.126 0 01-37.161 37.116zm-3.68-4.464a33.516 33.516 0 003.449.2 32.863 32.863 0 0033.127-32.861 33.614 33.614 0 00-.2-3.621l-.736-4.254a32.819 32.819 0 00-8.533-15.3c-6.635-6.725-18.5-13.354-30.226-16.886a65.052 65.052 0 00-8.652-2.01l-3.963-.459c-7.769-.559-13.89 1.122-17.7 4.877-3.454 3.408-5.2 8.619-5.2 15.212a55.458 55.458 0 002.384 15.064c3.375 11.775 9.843 23.727 16.476 30.451l.109.11.026.026.027.027a32.641 32.641 0 0019.612 9.424zm-13.318-79.2l2.126.247a69.292 69.292 0 019.306 2.152c12.359 3.723 24.933 10.777 32.032 17.973a37.1 37.1 0 019.658 17.362l.028.135.2 1.14a32.475 32.475 0 003.287-2.835 33.324 33.324 0 008.4-33.268c-2.8-9.021-10.291-20.361-19.081-28.891-10.32-10.012-20.275-14.2-28.026-11.795-5.662 1.759-10.364 7.162-13.6 15.623a74.679 74.679 0 00-4.33 22.156z" fill="#ffc416"/></g><g data-name="Group 1243" transform="translate(826.652 715.43)" fill="#ffc416"><circle data-name="Ellipse 148" cx="16.766" cy="16.766" r="16.766" transform="rotate(-58.33 25.572 14.274)"/><path data-name="Path 593" d="M23.069 41.97A18.933 18.933 0 014.682 27.432 18.886 18.886 0 1123.069 41.97zM8.831 26.447A14.634 14.634 0 1019.692 8.831 14.649 14.649 0 008.831 26.447z"/></g></g><path data-name="Path 627" d="M923.41 26.513c6.914 12.472 4.877 29.965-6.214 43.304-13.834 16.641-36.597 20.612-50.74 8.853-6.904-5.743-10.74-14.302-10.796-24.099a42.801 42.801 0 0110.236-27.406 42.795 42.795 0 0125.071-15.068c9.648-1.733 18.764.474 25.669 6.215a28.721 28.721 0 016.775 8.2zm-60.045 41.84a24.67 24.67 0 005.82 7.036c12.335 10.255 32.402 6.532 44.732-8.3s12.328-35.24-.008-45.495c-5.92-4.924-13.8-6.805-22.186-5.298a38.527 38.527 0 00-22.546 13.597 38.525 38.525 0 00-9.251 24.65 28.668 28.668 0 003.44 13.81z" fill="#ffc416"/></svg>